%TF.GenerationSoftware,KiCad,Pcbnew,9.99.0-1132-g883a1f8d97*%
%TF.CreationDate,2025-07-04T12:47:25+02:00*%
%TF.ProjectId,BondheadSteering,426f6e64-6865-4616-9453-74656572696e,1*%
%TF.SameCoordinates,Original*%
%TF.FileFunction,Copper,L2,Bot*%
%TF.FilePolarity,Positive*%
%FSLAX46Y46*%
G04 Gerber Fmt 4.6, Leading zero omitted, Abs format (unit mm)*
G04 Created by KiCad (PCBNEW 9.99.0-1132-g883a1f8d97) date 2025-07-04 12:47:25*
%MOMM*%
%LPD*%
G01*
G04 APERTURE LIST*
G04 Aperture macros list*
%AMRoundRect*
0 Rectangle with rounded corners*
0 $1 Rounding radius*
0 $2 $3 $4 $5 $6 $7 $8 $9 X,Y pos of 4 corners*
0 Add a 4 corners polygon primitive as box body*
4,1,4,$2,$3,$4,$5,$6,$7,$8,$9,$2,$3,0*
0 Add four circle primitives for the rounded corners*
1,1,$1+$1,$2,$3*
1,1,$1+$1,$4,$5*
1,1,$1+$1,$6,$7*
1,1,$1+$1,$8,$9*
0 Add four rect primitives between the rounded corners*
20,1,$1+$1,$2,$3,$4,$5,0*
20,1,$1+$1,$4,$5,$6,$7,0*
20,1,$1+$1,$6,$7,$8,$9,0*
20,1,$1+$1,$8,$9,$2,$3,0*%
G04 Aperture macros list end*
%ADD10C,0.300000*%
%TA.AperFunction,NonConductor*%
%ADD11C,0.300000*%
%TD*%
%TA.AperFunction,ComponentPad*%
%ADD12R,1.700000X1.700000*%
%TD*%
%TA.AperFunction,ComponentPad*%
%ADD13C,1.700000*%
%TD*%
%TA.AperFunction,ComponentPad*%
%ADD14R,1.600000X1.600000*%
%TD*%
%TA.AperFunction,ComponentPad*%
%ADD15O,1.600000X1.600000*%
%TD*%
%TA.AperFunction,ComponentPad*%
%ADD16RoundRect,0.250000X0.750000X-0.600000X0.750000X0.600000X-0.750000X0.600000X-0.750000X-0.600000X0*%
%TD*%
%TA.AperFunction,ComponentPad*%
%ADD17O,2.000000X1.700000*%
%TD*%
%TA.AperFunction,ComponentPad*%
%ADD18C,7.000000*%
%TD*%
%TA.AperFunction,ComponentPad*%
%ADD19RoundRect,0.250000X0.725000X-0.600000X0.725000X0.600000X-0.725000X0.600000X-0.725000X-0.600000X0*%
%TD*%
%TA.AperFunction,ComponentPad*%
%ADD20O,1.950000X1.700000*%
%TD*%
%TA.AperFunction,ViaPad*%
%ADD21C,0.600000*%
%TD*%
%TA.AperFunction,Conductor*%
%ADD22C,0.750000*%
%TD*%
%TA.AperFunction,Conductor*%
%ADD23C,3.000000*%
%TD*%
%TA.AperFunction,Conductor*%
%ADD24C,1.500000*%
%TD*%
%TA.AperFunction,Conductor*%
%ADD25C,1.000000*%
%TD*%
%TA.AperFunction,Conductor*%
%ADD26C,2.000000*%
%TD*%
G04 APERTURE END LIST*
D10*
D11*
X149145489Y-48636514D02*
X148931203Y-48707942D01*
X148931203Y-48707942D02*
X148859774Y-48779371D01*
X148859774Y-48779371D02*
X148788346Y-48922228D01*
X148788346Y-48922228D02*
X148788346Y-49136514D01*
X148788346Y-49136514D02*
X148859774Y-49279371D01*
X148859774Y-49279371D02*
X148931203Y-49350800D01*
X148931203Y-49350800D02*
X149074060Y-49422228D01*
X149074060Y-49422228D02*
X149645489Y-49422228D01*
X149645489Y-49422228D02*
X149645489Y-47922228D01*
X149645489Y-47922228D02*
X149145489Y-47922228D01*
X149145489Y-47922228D02*
X149002632Y-47993657D01*
X149002632Y-47993657D02*
X148931203Y-48065085D01*
X148931203Y-48065085D02*
X148859774Y-48207942D01*
X148859774Y-48207942D02*
X148859774Y-48350800D01*
X148859774Y-48350800D02*
X148931203Y-48493657D01*
X148931203Y-48493657D02*
X149002632Y-48565085D01*
X149002632Y-48565085D02*
X149145489Y-48636514D01*
X149145489Y-48636514D02*
X149645489Y-48636514D01*
X147931203Y-49422228D02*
X148074060Y-49350800D01*
X148074060Y-49350800D02*
X148145489Y-49279371D01*
X148145489Y-49279371D02*
X148216917Y-49136514D01*
X148216917Y-49136514D02*
X148216917Y-48707942D01*
X148216917Y-48707942D02*
X148145489Y-48565085D01*
X148145489Y-48565085D02*
X148074060Y-48493657D01*
X148074060Y-48493657D02*
X147931203Y-48422228D01*
X147931203Y-48422228D02*
X147716917Y-48422228D01*
X147716917Y-48422228D02*
X147574060Y-48493657D01*
X147574060Y-48493657D02*
X147502632Y-48565085D01*
X147502632Y-48565085D02*
X147431203Y-48707942D01*
X147431203Y-48707942D02*
X147431203Y-49136514D01*
X147431203Y-49136514D02*
X147502632Y-49279371D01*
X147502632Y-49279371D02*
X147574060Y-49350800D01*
X147574060Y-49350800D02*
X147716917Y-49422228D01*
X147716917Y-49422228D02*
X147931203Y-49422228D01*
X147002631Y-48422228D02*
X146431203Y-48422228D01*
X146788346Y-47922228D02*
X146788346Y-49207942D01*
X146788346Y-49207942D02*
X146716917Y-49350800D01*
X146716917Y-49350800D02*
X146574060Y-49422228D01*
X146574060Y-49422228D02*
X146431203Y-49422228D01*
D12*
%TO.P,J2,1,Pin_1*%
%TO.N,unconnected-(J2-Pin_1-Pad1)*%
X122168824Y-79959956D03*
D13*
%TO.P,J2,2,Pin_2*%
%TO.N,unconnected-(J2-Pin_2-Pad2)*%
X124708824Y-79959956D03*
%TO.P,J2,3,Pin_3*%
%TO.N,Net-(J2-Pin_3)*%
X127248824Y-79959956D03*
%TO.P,J2,4,Pin_4*%
%TO.N,Net-(J2-Pin_4)*%
X129788824Y-79959956D03*
%TO.P,J2,5,Pin_5*%
%TO.N,Net-(J2-Pin_5)*%
X132328824Y-79959956D03*
%TO.P,J2,6,Pin_6*%
%TO.N,Net-(J2-Pin_6)*%
X134868824Y-79959956D03*
%TD*%
D14*
%TO.P,A1,1,D1/TX*%
%TO.N,unconnected-(A1-D1{slash}TX-Pad1)*%
X107240000Y-95460000D03*
D15*
%TO.P,A1,2,D0/RX*%
%TO.N,unconnected-(A1-D0{slash}RX-Pad2)*%
X107240000Y-92920000D03*
%TO.P,A1,3,~{RESET}*%
%TO.N,unconnected-(A1-~{RESET}-Pad3)*%
X107240000Y-90380000D03*
%TO.P,A1,4,GND*%
%TO.N,GNDD*%
X107240000Y-87840000D03*
%TO.P,A1,5,D2*%
%TO.N,PGood5*%
X107240000Y-85300000D03*
%TO.P,A1,6,D3*%
%TO.N,PGood12*%
X107240000Y-82760000D03*
%TO.P,A1,7,D4*%
%TO.N,Net-(A1-D4)*%
X107240000Y-80220000D03*
%TO.P,A1,8,D5*%
%TO.N,Net-(A1-D5)*%
X107240000Y-77680000D03*
%TO.P,A1,9,D6*%
%TO.N,Net-(A1-D6)*%
X107240000Y-75140000D03*
%TO.P,A1,10,D7*%
%TO.N,Net-(A1-D7)*%
X107240000Y-72600000D03*
%TO.P,A1,11,D8*%
%TO.N,unconnected-(A1-D8-Pad11)*%
X107240000Y-70060000D03*
%TO.P,A1,12,D9*%
%TO.N,unconnected-(A1-D9-Pad12)*%
X107240000Y-67520000D03*
%TO.P,A1,13,D10/CS*%
%TO.N,unconnected-(A1-D10{slash}CS-Pad13)*%
X107240000Y-64980000D03*
%TO.P,A1,14,D11/COPI*%
%TO.N,unconnected-(A1-D11{slash}COPI-Pad14)*%
X107240000Y-62440000D03*
%TO.P,A1,15,D12/CIPO*%
%TO.N,unconnected-(A1-D12{slash}CIPO-Pad15)*%
X107240000Y-59900000D03*
%TO.P,A1,16,D13/SCK*%
%TO.N,unconnected-(A1-D13{slash}SCK-Pad16)*%
X92000000Y-59900000D03*
%TO.P,A1,17,3V3*%
%TO.N,/3V3*%
X92000000Y-62440000D03*
%TO.P,A1,18,REF*%
%TO.N,unconnected-(A1-REF-Pad18)*%
X92000000Y-64980000D03*
%TO.P,A1,19,A0*%
%TO.N,/TempIn*%
X92000000Y-67520000D03*
%TO.P,A1,20,A1*%
%TO.N,unconnected-(A1-A1-Pad20)*%
X92000000Y-70060000D03*
%TO.P,A1,21,A2*%
%TO.N,unconnected-(A1-A2-Pad21)*%
X92000000Y-72600000D03*
%TO.P,A1,22,A3*%
%TO.N,unconnected-(A1-A3-Pad22)*%
X92000000Y-75140000D03*
%TO.P,A1,23,SDA/A4*%
%TO.N,unconnected-(A1-SDA{slash}A4-Pad23)*%
X92000000Y-77680000D03*
%TO.P,A1,24,SCL/A5*%
%TO.N,unconnected-(A1-SCL{slash}A5-Pad24)*%
X92000000Y-80220000D03*
%TO.P,A1,25,A6*%
%TO.N,unconnected-(A1-A6-Pad25)*%
X92000000Y-82760000D03*
%TO.P,A1,26,A7*%
%TO.N,unconnected-(A1-A7-Pad26)*%
X92000000Y-85300000D03*
%TO.P,A1,27,VUSB/5V*%
%TO.N,unconnected-(A1-VUSB{slash}5V-Pad27)*%
X92000000Y-87840000D03*
%TO.P,A1,28,REC*%
%TO.N,unconnected-(A1-REC-Pad28)*%
X92000000Y-90380000D03*
%TO.P,A1,29,GND*%
%TO.N,GNDD*%
X92000000Y-92920000D03*
%TO.P,A1,30,VIN*%
%TO.N,Net-(A1-VIN)*%
X92000000Y-95460000D03*
%TD*%
D16*
%TO.P,J1,1,Pin_1*%
%TO.N,/TempIn*%
X154940000Y-78660000D03*
D17*
%TO.P,J1,2,Pin_2*%
%TO.N,/3V3*%
X154940000Y-76160000D03*
%TD*%
D16*
%TO.P,J5,1,Pin_1*%
%TO.N,+12V*%
X154940000Y-88860000D03*
D17*
%TO.P,J5,2,Pin_2*%
%TO.N,Net-(D4-A)*%
X154940000Y-86360000D03*
%TD*%
D18*
%TO.P,H2,1*%
%TO.N,N/C*%
X155000000Y-121521400D03*
%TD*%
%TO.P,H3,1*%
%TO.N,N/C*%
X90000000Y-51521400D03*
%TD*%
D19*
%TO.P,J4,1,Pin_1*%
%TO.N,Net-(J2-Pin_6)*%
X154940000Y-68420000D03*
D20*
%TO.P,J4,2,Pin_2*%
%TO.N,Net-(J2-Pin_5)*%
X154940000Y-65920000D03*
%TO.P,J4,3,Pin_3*%
%TO.N,Net-(J2-Pin_4)*%
X154940000Y-63420000D03*
%TO.P,J4,4,Pin_4*%
%TO.N,Net-(J2-Pin_3)*%
X154940000Y-60920000D03*
%TD*%
D16*
%TO.P,J6,1,Pin_1*%
%TO.N,+24V*%
X154940000Y-98980000D03*
D17*
%TO.P,J6,2,Pin_2*%
%TO.N,GNDD*%
X154940000Y-96480000D03*
%TD*%
D18*
%TO.P,H1,1*%
%TO.N,N/C*%
X90000000Y-121521400D03*
%TD*%
%TO.P,H4,1*%
%TO.N,N/C*%
X155000000Y-51521400D03*
%TD*%
D12*
%TO.P,J3,1,Pin_1*%
%TO.N,/3V3*%
X124708824Y-54559956D03*
D13*
%TO.P,J3,2,Pin_2*%
%TO.N,Net-(A1-D4)*%
X127248824Y-54559956D03*
%TO.P,J3,3,Pin_3*%
%TO.N,Net-(A1-D5)*%
X129788824Y-54559956D03*
%TO.P,J3,4,Pin_4*%
%TO.N,GNDD*%
X132328824Y-54559956D03*
%TD*%
D21*
%TO.N,GNDD*%
X149500000Y-59521400D03*
X144500000Y-59521400D03*
X144500000Y-70021400D03*
X151500000Y-70021400D03*
X145500000Y-67021400D03*
X152000000Y-67021400D03*
X152000000Y-64521400D03*
X145500000Y-64521400D03*
X138500000Y-64521400D03*
X152000000Y-59521400D03*
X136000000Y-59521400D03*
X130000000Y-61021400D03*
X137500000Y-71021400D03*
X136000000Y-67021400D03*
X133000000Y-66021400D03*
X130500000Y-64021400D03*
X131000000Y-73521400D03*
X133500000Y-73521400D03*
X133500000Y-78021400D03*
X131000000Y-78021400D03*
X128500000Y-78021400D03*
X128500000Y-73521400D03*
X135000000Y-62021400D03*
X151500000Y-62021400D03*
X147000000Y-97521400D03*
X150000000Y-98521400D03*
X157000000Y-103521400D03*
X158000000Y-111521400D03*
X119000000Y-116521400D03*
X130000000Y-116521400D03*
X126000000Y-101521400D03*
X116000000Y-90521400D03*
X124000000Y-75521400D03*
X118000000Y-69521400D03*
X110000000Y-66521400D03*
X105000000Y-61521400D03*
X100000000Y-51521400D03*
X105000000Y-51521400D03*
X115000000Y-51521400D03*
X135000000Y-51521400D03*
X145000000Y-51521400D03*
X145000000Y-121521400D03*
X100000000Y-81521400D03*
X90000000Y-81521400D03*
X100000000Y-71521400D03*
X120000000Y-81521400D03*
X140000000Y-81521400D03*
X140000000Y-91521400D03*
X135000000Y-96521400D03*
X120000000Y-106521400D03*
X115000000Y-101521400D03*
X115000000Y-106521400D03*
%TO.N,/FB5*%
X114809300Y-116330700D03*
%TO.N,GNDD*%
X135000000Y-121521400D03*
X130000000Y-121521400D03*
X125000000Y-121521400D03*
X115000000Y-121521400D03*
%TO.N,PGood12*%
X120523000Y-90881200D03*
X119227600Y-84480400D03*
X130060700Y-109664500D03*
%TO.N,GNDD*%
X111200000Y-116921400D03*
X111000000Y-118221400D03*
X128270000Y-87840000D03*
X101900000Y-120421400D03*
X115000000Y-56521400D03*
X120200000Y-59821400D03*
X125730000Y-87840000D03*
X139600000Y-74121400D03*
X109300000Y-118921400D03*
X142900000Y-76321400D03*
X125000000Y-66521400D03*
X149600000Y-114121400D03*
X147100000Y-116021400D03*
X123000000Y-59721400D03*
X111800000Y-56521400D03*
X148400000Y-116521400D03*
X96200000Y-54521400D03*
X98200000Y-116821400D03*
X89000000Y-60321400D03*
X123800000Y-69521400D03*
X127000000Y-87630000D03*
%TO.N,PGood5*%
X92155000Y-111760000D03*
X95783400Y-96748600D03*
%TO.N,Net-(A1-D7)*%
X111074200Y-76403200D03*
%TO.N,GND2*%
X96520000Y-115721400D03*
X95400000Y-113030000D03*
X96520000Y-115021400D03*
X97725000Y-112421400D03*
X96500000Y-112421400D03*
X97100000Y-113170000D03*
X97160000Y-111671400D03*
X98800000Y-113030000D03*
%TO.N,+24V*%
X138600000Y-109220000D03*
X101500000Y-111760000D03*
X99902500Y-115521400D03*
X137160000Y-112721400D03*
X140800000Y-109521400D03*
X104206486Y-112821400D03*
%TO.N,GND1*%
X136100000Y-110490000D03*
X133900000Y-109821400D03*
X134620000Y-111821400D03*
X134400000Y-110621400D03*
X134982500Y-109821400D03*
X134400000Y-109080000D03*
X134620000Y-112721400D03*
%TO.N,Net-(U2-~{EN1})*%
X122144548Y-102026171D03*
X128549400Y-111760000D03*
%TD*%
D22*
%TO.N,PGood12*%
X107240000Y-82760000D02*
X117507200Y-82760000D01*
X128651000Y-109190800D02*
X128651000Y-100558600D01*
X117507200Y-82760000D02*
X119227600Y-84480400D01*
X128651000Y-100558600D02*
X120523000Y-92430600D01*
X120523000Y-92430600D02*
X120523000Y-90881200D01*
X129124700Y-109664500D02*
X128651000Y-109190800D01*
X130060700Y-109664500D02*
X129124700Y-109664500D01*
D23*
%TO.N,GNDD*%
X100831200Y-92920000D02*
X92000000Y-92920000D01*
D24*
X154940000Y-96480000D02*
X154940000Y-95250000D01*
D23*
X147530000Y-87840000D02*
X128270000Y-87840000D01*
X107240000Y-87840000D02*
X105911200Y-87840000D01*
X105911200Y-87840000D02*
X100831200Y-92920000D01*
X125730000Y-87840000D02*
X107240000Y-87840000D01*
X154940000Y-95250000D02*
X147530000Y-87840000D01*
X128270000Y-87840000D02*
X125730000Y-87840000D01*
D25*
%TO.N,Net-(A1-D5)*%
X115163600Y-75641200D02*
X113124800Y-77680000D01*
X123012200Y-52476400D02*
X115163600Y-60325000D01*
X129788824Y-54173024D02*
X128092200Y-52476400D01*
X128092200Y-52476400D02*
X123012200Y-52476400D01*
X113124800Y-77680000D02*
X107240000Y-77680000D01*
X129788824Y-54559956D02*
X129788824Y-54173024D01*
X115163600Y-60325000D02*
X115163600Y-75641200D01*
D22*
%TO.N,PGood5*%
X91748600Y-111353600D02*
X92155000Y-111760000D01*
X91744800Y-111353600D02*
X91748600Y-111353600D01*
X90195400Y-109804200D02*
X91744800Y-111353600D01*
X95783400Y-96748600D02*
X95783400Y-99288600D01*
X90195400Y-104876600D02*
X90195400Y-109804200D01*
X95783400Y-99288600D02*
X90195400Y-104876600D01*
D25*
%TO.N,Net-(A1-D4)*%
X121081800Y-65201800D02*
X121081800Y-73406000D01*
X114267800Y-80220000D02*
X107240000Y-80220000D01*
X127248824Y-59034776D02*
X121081800Y-65201800D01*
X127248824Y-54559956D02*
X127248824Y-59034776D01*
X121081800Y-73406000D02*
X114267800Y-80220000D01*
D22*
%TO.N,Net-(A1-D7)*%
X111074200Y-76403200D02*
X111074200Y-75285600D01*
X111074200Y-75285600D02*
X108388600Y-72600000D01*
X108388600Y-72600000D02*
X107240000Y-72600000D01*
D25*
%TO.N,Net-(J2-Pin_3)*%
X127248824Y-65791176D02*
X127248824Y-79959956D01*
X132120000Y-60920000D02*
X127248824Y-65791176D01*
X154940000Y-60920000D02*
X132120000Y-60920000D01*
%TO.N,Net-(J2-Pin_4)*%
X154940000Y-63420000D02*
X133430000Y-63420000D01*
X129788824Y-67061176D02*
X129788824Y-79959956D01*
X133430000Y-63420000D02*
X129788824Y-67061176D01*
%TO.N,Net-(J2-Pin_5)*%
X134740000Y-65920000D02*
X154940000Y-65920000D01*
X132328824Y-79959956D02*
X132328824Y-68331176D01*
X132328824Y-68331176D02*
X134740000Y-65920000D01*
%TO.N,Net-(J2-Pin_6)*%
X137320000Y-68420000D02*
X134868824Y-70871176D01*
X154940000Y-68420000D02*
X137320000Y-68420000D01*
X134868824Y-70871176D02*
X134868824Y-79959956D01*
%TO.N,+24V*%
X140498600Y-109220000D02*
X140800000Y-109521400D01*
D26*
X140800000Y-109521400D02*
X144398600Y-109521400D01*
X104206486Y-112114914D02*
X103308986Y-112114914D01*
D25*
X138600000Y-111281400D02*
X137160000Y-112721400D01*
D26*
X102915472Y-111721400D02*
X103308986Y-112114914D01*
X103308986Y-112114914D02*
X99902500Y-115521400D01*
X135210400Y-114671000D02*
X105849600Y-114671000D01*
D25*
X138600000Y-109220000D02*
X138600000Y-111281400D01*
X138600000Y-109220000D02*
X140498600Y-109220000D01*
D26*
X105849600Y-114671000D02*
X102900000Y-111721400D01*
X144398600Y-109521400D02*
X154940000Y-98980000D01*
X102900000Y-111721400D02*
X102915472Y-111721400D01*
X137160000Y-112721400D02*
X135210400Y-114671000D01*
X102900000Y-111721400D02*
X101538600Y-111721400D01*
X101538600Y-111721400D02*
X101500000Y-111760000D01*
D23*
X137600000Y-112721400D02*
X140800000Y-109521400D01*
X137160000Y-112721400D02*
X137600000Y-112721400D01*
D22*
%TO.N,Net-(U2-~{EN1})*%
X122144548Y-102026171D02*
X121970800Y-102199919D01*
X121970800Y-105181400D02*
X128549400Y-111760000D01*
X121970800Y-102199919D02*
X121970800Y-105181400D01*
%TD*%
%TA.AperFunction,Conductor*%
%TO.N,GNDD*%
G36*
X123277658Y-53728375D02*
G01*
X123333591Y-53770247D01*
X123358008Y-53835711D01*
X123358324Y-53844557D01*
X123358324Y-55457826D01*
X123358325Y-55457832D01*
X123364732Y-55517439D01*
X123415026Y-55652284D01*
X123415030Y-55652291D01*
X123501276Y-55767500D01*
X123501279Y-55767503D01*
X123616488Y-55853749D01*
X123616495Y-55853753D01*
X123751341Y-55904047D01*
X123751340Y-55904047D01*
X123758268Y-55904791D01*
X123810951Y-55910456D01*
X125606696Y-55910455D01*
X125666307Y-55904047D01*
X125801155Y-55853752D01*
X125916370Y-55767502D01*
X126002620Y-55652287D01*
X126008142Y-55637481D01*
X126050012Y-55581549D01*
X126115476Y-55557131D01*
X126183749Y-55571982D01*
X126233155Y-55621386D01*
X126248324Y-55680815D01*
X126248324Y-58568993D01*
X126228639Y-58636032D01*
X126212005Y-58656674D01*
X123275898Y-61592781D01*
X120444021Y-64424658D01*
X120444018Y-64424661D01*
X120387903Y-64480776D01*
X120304659Y-64564019D01*
X120195171Y-64727879D01*
X120195164Y-64727892D01*
X120119750Y-64909960D01*
X120119747Y-64909970D01*
X120081300Y-65103256D01*
X120081300Y-72940218D01*
X120061615Y-73007257D01*
X120044981Y-73027899D01*
X113889699Y-79183181D01*
X113828376Y-79216666D01*
X113802018Y-79219500D01*
X108115762Y-79219500D01*
X108048723Y-79199815D01*
X108042877Y-79195818D01*
X107921613Y-79107715D01*
X107921612Y-79107714D01*
X107921610Y-79107713D01*
X107828917Y-79060483D01*
X107778123Y-79012511D01*
X107761328Y-78944690D01*
X107783865Y-78878555D01*
X107828917Y-78839516D01*
X107921610Y-78792287D01*
X108042877Y-78704181D01*
X108108683Y-78680702D01*
X108115762Y-78680500D01*
X113223342Y-78680500D01*
X113242498Y-78676689D01*
X113319988Y-78661275D01*
X113416636Y-78642051D01*
X113495324Y-78609457D01*
X113598714Y-78566632D01*
X113762582Y-78457139D01*
X113901939Y-78317782D01*
X113901939Y-78317780D01*
X113912147Y-78307573D01*
X113912148Y-78307570D01*
X115940740Y-76278981D01*
X116050232Y-76115114D01*
X116125652Y-75933035D01*
X116164101Y-75739740D01*
X116164101Y-75542659D01*
X116164101Y-75537549D01*
X116164100Y-75537523D01*
X116164100Y-60790782D01*
X116183785Y-60723743D01*
X116200419Y-60703101D01*
X119633279Y-57270241D01*
X123146645Y-53756874D01*
X123207966Y-53723391D01*
X123277658Y-53728375D01*
G37*
%TD.AperFunction*%
%TA.AperFunction,Conductor*%
G36*
X153921839Y-61940185D02*
G01*
X153934365Y-61949493D01*
X154099793Y-62069682D01*
X154116907Y-62091876D01*
X154136477Y-62111943D01*
X154137954Y-62119169D01*
X154142459Y-62125011D01*
X154144857Y-62152938D01*
X154150471Y-62180397D01*
X154147806Y-62187275D01*
X154148438Y-62194625D01*
X154135357Y-62219415D01*
X154125235Y-62245550D01*
X154117695Y-62252889D01*
X154115833Y-62256420D01*
X154099967Y-62270192D01*
X154099808Y-62270307D01*
X153935208Y-62389896D01*
X153933593Y-62391510D01*
X153927859Y-62395692D01*
X153899280Y-62405944D01*
X153871581Y-62418359D01*
X153863060Y-62418938D01*
X153862094Y-62419285D01*
X153861153Y-62419068D01*
X153854800Y-62419500D01*
X133331456Y-62419500D01*
X133138171Y-62457947D01*
X133138163Y-62457949D01*
X133083069Y-62480770D01*
X133080129Y-62481988D01*
X132956086Y-62533368D01*
X132922929Y-62555523D01*
X132915445Y-62560523D01*
X132915440Y-62560526D01*
X132792222Y-62642857D01*
X132792214Y-62642863D01*
X130033494Y-65401585D01*
X129151044Y-66284035D01*
X129151042Y-66284037D01*
X129113633Y-66321446D01*
X129011683Y-66423395D01*
X128902195Y-66587256D01*
X128902188Y-66587269D01*
X128856680Y-66697139D01*
X128833449Y-66753224D01*
X128833448Y-66753228D01*
X128826772Y-66769343D01*
X128826771Y-66769347D01*
X128788324Y-66962630D01*
X128788324Y-78999756D01*
X128768639Y-79066795D01*
X128759330Y-79079321D01*
X128633773Y-79252138D01*
X128629308Y-79260902D01*
X128581333Y-79311698D01*
X128513512Y-79328492D01*
X128447377Y-79305954D01*
X128408340Y-79260902D01*
X128403874Y-79252138D01*
X128276065Y-79076222D01*
X128276932Y-79075591D01*
X128250465Y-79016537D01*
X128249324Y-78999756D01*
X128249324Y-66256958D01*
X128269009Y-66189919D01*
X128285643Y-66169277D01*
X132498101Y-61956819D01*
X132559424Y-61923334D01*
X132585782Y-61920500D01*
X153854800Y-61920500D01*
X153921839Y-61940185D01*
G37*
%TD.AperFunction*%
%TA.AperFunction,Conductor*%
G36*
X153921839Y-64440185D02*
G01*
X153934365Y-64449493D01*
X154099793Y-64569682D01*
X154116907Y-64591876D01*
X154136477Y-64611943D01*
X154137954Y-64619169D01*
X154142459Y-64625011D01*
X154144857Y-64652938D01*
X154150471Y-64680397D01*
X154147806Y-64687275D01*
X154148438Y-64694625D01*
X154135357Y-64719415D01*
X154125235Y-64745550D01*
X154117695Y-64752889D01*
X154115833Y-64756420D01*
X154099967Y-64770192D01*
X154099808Y-64770307D01*
X153935208Y-64889896D01*
X153933593Y-64891510D01*
X153927859Y-64895692D01*
X153899280Y-64905944D01*
X153871581Y-64918359D01*
X153863060Y-64918938D01*
X153862094Y-64919285D01*
X153861153Y-64919068D01*
X153854800Y-64919500D01*
X134641455Y-64919500D01*
X134544812Y-64938724D01*
X134448167Y-64957947D01*
X134448161Y-64957949D01*
X134394834Y-64980037D01*
X134394834Y-64980038D01*
X134349315Y-64998892D01*
X134266089Y-65033366D01*
X134266079Y-65033371D01*
X134102219Y-65142859D01*
X134032900Y-65212179D01*
X133962861Y-65282218D01*
X133962858Y-65282221D01*
X131691045Y-67554034D01*
X131691042Y-67554037D01*
X131622728Y-67622351D01*
X131551683Y-67693395D01*
X131442195Y-67857256D01*
X131442188Y-67857269D01*
X131400496Y-67957926D01*
X131373449Y-68023224D01*
X131373448Y-68023228D01*
X131366772Y-68039343D01*
X131366771Y-68039347D01*
X131328324Y-68232630D01*
X131328324Y-78999756D01*
X131308639Y-79066795D01*
X131299330Y-79079321D01*
X131173773Y-79252138D01*
X131169308Y-79260902D01*
X131121333Y-79311698D01*
X131053512Y-79328492D01*
X130987377Y-79305954D01*
X130948340Y-79260902D01*
X130943874Y-79252138D01*
X130816065Y-79076222D01*
X130816932Y-79075591D01*
X130790465Y-79016537D01*
X130789324Y-78999756D01*
X130789324Y-67526958D01*
X130809009Y-67459919D01*
X130825643Y-67439277D01*
X133808102Y-64456819D01*
X133869425Y-64423334D01*
X133895783Y-64420500D01*
X153854800Y-64420500D01*
X153921839Y-64440185D01*
G37*
%TD.AperFunction*%
%TA.AperFunction,Conductor*%
G36*
X153807633Y-66920836D02*
G01*
X153808785Y-66920521D01*
X153841077Y-66930656D01*
X153873528Y-66940185D01*
X153874309Y-66941086D01*
X153875448Y-66941444D01*
X153897139Y-66967434D01*
X153919283Y-66992989D01*
X153919452Y-66994169D01*
X153920218Y-66995086D01*
X153924413Y-67028667D01*
X153929227Y-67062147D01*
X153928731Y-67063232D01*
X153928879Y-67064417D01*
X153914262Y-67094915D01*
X153900202Y-67125703D01*
X153899028Y-67126700D01*
X153898682Y-67127424D01*
X153871587Y-67150037D01*
X153790745Y-67199901D01*
X153746342Y-67227289D01*
X153622287Y-67351344D01*
X153616580Y-67360598D01*
X153564632Y-67407322D01*
X153511042Y-67419500D01*
X137221456Y-67419500D01*
X137028171Y-67457947D01*
X137028163Y-67457949D01*
X136970129Y-67481988D01*
X136970128Y-67481988D01*
X136846092Y-67533364D01*
X136846079Y-67533371D01*
X136712912Y-67622352D01*
X136712911Y-67622353D01*
X136682215Y-67642862D01*
X136682214Y-67642863D01*
X134836424Y-69488655D01*
X134231044Y-70094035D01*
X134231042Y-70094037D01*
X134162728Y-70162351D01*
X134091683Y-70233395D01*
X133982195Y-70397255D01*
X133982190Y-70397265D01*
X133928862Y-70526007D01*
X133928863Y-70526008D01*
X133915110Y-70559214D01*
X133915108Y-70559218D01*
X133906774Y-70579337D01*
X133906771Y-70579345D01*
X133868324Y-70772632D01*
X133868324Y-78999756D01*
X133848639Y-79066795D01*
X133839330Y-79079321D01*
X133713773Y-79252138D01*
X133709308Y-79260902D01*
X133661333Y-79311698D01*
X133593512Y-79328492D01*
X133527377Y-79305954D01*
X133488340Y-79260902D01*
X133483874Y-79252138D01*
X133356065Y-79076222D01*
X133356932Y-79075591D01*
X133330465Y-79016537D01*
X133329324Y-78999756D01*
X133329324Y-68796958D01*
X133349009Y-68729919D01*
X133365643Y-68709277D01*
X135118101Y-66956819D01*
X135179424Y-66923334D01*
X135205782Y-66920500D01*
X153806489Y-66920500D01*
X153807633Y-66920836D01*
G37*
%TD.AperFunction*%
%TA.AperFunction,Conductor*%
G36*
X145761483Y-47066585D02*
G01*
X145807238Y-47119389D01*
X145817182Y-47188547D01*
X145788157Y-47252103D01*
X145782125Y-47258581D01*
X145775703Y-47265003D01*
X145775703Y-50079453D01*
X150300989Y-50079453D01*
X150300989Y-47265003D01*
X150294567Y-47258581D01*
X150261082Y-47197258D01*
X150266066Y-47127566D01*
X150307938Y-47071633D01*
X150373402Y-47047216D01*
X150382248Y-47046900D01*
X159350500Y-47046900D01*
X159417539Y-47066585D01*
X159463294Y-47119389D01*
X159474500Y-47170900D01*
X159474500Y-125871900D01*
X159454815Y-125938939D01*
X159402011Y-125984694D01*
X159350500Y-125995900D01*
X85649500Y-125995900D01*
X85582461Y-125976215D01*
X85536706Y-125923411D01*
X85525500Y-125871900D01*
X85525500Y-121324871D01*
X85999500Y-121324871D01*
X85999500Y-121717928D01*
X86038026Y-122109102D01*
X86114704Y-122494594D01*
X86114707Y-122494605D01*
X86228810Y-122870754D01*
X86379230Y-123233899D01*
X86379232Y-123233904D01*
X86564511Y-123580537D01*
X86564522Y-123580555D01*
X86782887Y-123907360D01*
X86782897Y-123907374D01*
X87032254Y-124211217D01*
X87310182Y-124489145D01*
X87310187Y-124489149D01*
X87310188Y-124489150D01*
X87614031Y-124738507D01*
X87940851Y-124956882D01*
X87940860Y-124956887D01*
X87940862Y-124956888D01*
X88287495Y-125142167D01*
X88287497Y-125142167D01*
X88287503Y-125142171D01*
X88650647Y-125292590D01*
X89026785Y-125406690D01*
X89026791Y-125406691D01*
X89026794Y-125406692D01*
X89026805Y-125406695D01*
X89412297Y-125483373D01*
X89803468Y-125521900D01*
X89803471Y-125521900D01*
X90196529Y-125521900D01*
X90196532Y-125521900D01*
X90587703Y-125483373D01*
X90662748Y-125468445D01*
X90973194Y-125406695D01*
X90973205Y-125406692D01*
X90973205Y-125406691D01*
X90973215Y-125406690D01*
X91349353Y-125292590D01*
X91712497Y-125142171D01*
X92059149Y-124956882D01*
X92385969Y-124738507D01*
X92689812Y-124489150D01*
X92967750Y-124211212D01*
X93217107Y-123907369D01*
X93435482Y-123580549D01*
X93620771Y-123233897D01*
X93771190Y-122870753D01*
X93885290Y-122494615D01*
X93885292Y-122494605D01*
X93885295Y-122494594D01*
X93961973Y-122109102D01*
X94000500Y-121717928D01*
X94000500Y-121324871D01*
X150999500Y-121324871D01*
X150999500Y-121717928D01*
X151038026Y-122109102D01*
X151114704Y-122494594D01*
X151114707Y-122494605D01*
X151228810Y-122870754D01*
X151379230Y-123233899D01*
X151379232Y-123233904D01*
X151564511Y-123580537D01*
X151564522Y-123580555D01*
X151782887Y-123907360D01*
X151782897Y-123907374D01*
X152032254Y-124211217D01*
X152310182Y-124489145D01*
X152310187Y-124489149D01*
X152310188Y-124489150D01*
X152614031Y-124738507D01*
X152940851Y-124956882D01*
X152940860Y-124956887D01*
X152940862Y-124956888D01*
X153287495Y-125142167D01*
X153287497Y-125142167D01*
X153287503Y-125142171D01*
X153650647Y-125292590D01*
X154026785Y-125406690D01*
X154026791Y-125406691D01*
X154026794Y-125406692D01*
X154026805Y-125406695D01*
X154412297Y-125483373D01*
X154803468Y-125521900D01*
X154803471Y-125521900D01*
X155196529Y-125521900D01*
X155196532Y-125521900D01*
X155587703Y-125483373D01*
X155662748Y-125468445D01*
X155973194Y-125406695D01*
X155973205Y-125406692D01*
X155973205Y-125406691D01*
X155973215Y-125406690D01*
X156349353Y-125292590D01*
X156712497Y-125142171D01*
X157059149Y-124956882D01*
X157385969Y-124738507D01*
X157689812Y-124489150D01*
X157967750Y-124211212D01*
X158217107Y-123907369D01*
X158435482Y-123580549D01*
X158620771Y-123233897D01*
X158771190Y-122870753D01*
X158885290Y-122494615D01*
X158885292Y-122494605D01*
X158885295Y-122494594D01*
X158961973Y-122109102D01*
X159000500Y-121717928D01*
X159000500Y-121324871D01*
X158961973Y-120933697D01*
X158885295Y-120548205D01*
X158885292Y-120548194D01*
X158885291Y-120548191D01*
X158885290Y-120548185D01*
X158771190Y-120172047D01*
X158620771Y-119808903D01*
X158435482Y-119462251D01*
X158217107Y-119135431D01*
X157967750Y-118831588D01*
X157967749Y-118831587D01*
X157967745Y-118831582D01*
X157689817Y-118553654D01*
X157385974Y-118304297D01*
X157385973Y-118304296D01*
X157385969Y-118304293D01*
X157059149Y-118085918D01*
X157059144Y-118085915D01*
X157059137Y-118085911D01*
X156712504Y-117900632D01*
X156712499Y-117900630D01*
X156349354Y-117750210D01*
X155973205Y-117636107D01*
X155973194Y-117636104D01*
X155587702Y-117559426D01*
X155293089Y-117530410D01*
X155196532Y-117520900D01*
X154803468Y-117520900D01*
X154714251Y-117529687D01*
X154412297Y-117559426D01*
X154026805Y-117636104D01*
X154026794Y-117636107D01*
X153650645Y-117750210D01*
X153287500Y-117900630D01*
X153287495Y-117900632D01*
X152940862Y-118085911D01*
X152940844Y-118085922D01*
X152614039Y-118304287D01*
X152614025Y-118304297D01*
X152310182Y-118553654D01*
X152032254Y-118831582D01*
X151782897Y-119135425D01*
X151782887Y-119135439D01*
X151564522Y-119462244D01*
X151564511Y-119462262D01*
X151379232Y-119808895D01*
X151379230Y-119808900D01*
X151228810Y-120172045D01*
X151114707Y-120548194D01*
X151114704Y-120548205D01*
X151038026Y-120933697D01*
X150999500Y-121324871D01*
X94000500Y-121324871D01*
X93961973Y-120933697D01*
X93885295Y-120548205D01*
X93885292Y-120548194D01*
X93885291Y-120548191D01*
X93885290Y-120548185D01*
X93771190Y-120172047D01*
X93620771Y-119808903D01*
X93435482Y-119462251D01*
X93217107Y-119135431D01*
X92967750Y-118831588D01*
X92967749Y-118831587D01*
X92967745Y-118831582D01*
X92689817Y-118553654D01*
X92385974Y-118304297D01*
X92385973Y-118304296D01*
X92385969Y-118304293D01*
X92059149Y-118085918D01*
X92059144Y-118085915D01*
X92059137Y-118085911D01*
X91712504Y-117900632D01*
X91712499Y-117900630D01*
X91349354Y-117750210D01*
X90973205Y-117636107D01*
X90973194Y-117636104D01*
X90587702Y-117559426D01*
X90293089Y-117530410D01*
X90196532Y-117520900D01*
X89803468Y-117520900D01*
X89714251Y-117529687D01*
X89412297Y-117559426D01*
X89026805Y-117636104D01*
X89026794Y-117636107D01*
X88650645Y-117750210D01*
X88287500Y-117900630D01*
X88287495Y-117900632D01*
X87940862Y-118085911D01*
X87940844Y-118085922D01*
X87614039Y-118304287D01*
X87614025Y-118304297D01*
X87310182Y-118553654D01*
X87032254Y-118831582D01*
X86782897Y-119135425D01*
X86782887Y-119135439D01*
X86564522Y-119462244D01*
X86564511Y-119462262D01*
X86379232Y-119808895D01*
X86379230Y-119808900D01*
X86228810Y-120172045D01*
X86114707Y-120548194D01*
X86114704Y-120548205D01*
X86038026Y-120933697D01*
X85999500Y-121324871D01*
X85525500Y-121324871D01*
X85525500Y-104790366D01*
X89319900Y-104790366D01*
X89319900Y-109890433D01*
X89353543Y-110059566D01*
X89353546Y-110059578D01*
X89419538Y-110218898D01*
X89419545Y-110218911D01*
X89515354Y-110362298D01*
X89515357Y-110362302D01*
X91186699Y-112033643D01*
X91186702Y-112033646D01*
X91188000Y-112034513D01*
X91206790Y-112049934D01*
X91596897Y-112440042D01*
X91596901Y-112440045D01*
X91740288Y-112535854D01*
X91740301Y-112535861D01*
X91899621Y-112601853D01*
X91899626Y-112601855D01*
X92068766Y-112635499D01*
X92068769Y-112635500D01*
X92068771Y-112635500D01*
X92241231Y-112635500D01*
X92241232Y-112635499D01*
X92410373Y-112601855D01*
X92569704Y-112535858D01*
X92569706Y-112535857D01*
X92640920Y-112488272D01*
X92713099Y-112440045D01*
X92835045Y-112318099D01*
X92867397Y-112269679D01*
X92921009Y-112224875D01*
X92990334Y-112216167D01*
X93053362Y-112246321D01*
X93090082Y-112305764D01*
X93094500Y-112338570D01*
X93094500Y-115697400D01*
X93094501Y-115697409D01*
X93106052Y-115804850D01*
X93106054Y-115804862D01*
X93117260Y-115856372D01*
X93151383Y-115958897D01*
X93151386Y-115958903D01*
X93229171Y-116079937D01*
X93229179Y-116079948D01*
X93274923Y-116132740D01*
X93274926Y-116132743D01*
X93274930Y-116132747D01*
X93383664Y-116226967D01*
X93383667Y-116226968D01*
X93383668Y-116226969D01*
X93508823Y-116284127D01*
X93514541Y-116286738D01*
X93581580Y-116306423D01*
X93581584Y-116306424D01*
X93724000Y-116326900D01*
X95947717Y-116326900D01*
X96014756Y-116346585D01*
X96016608Y-116347798D01*
X96140814Y-116430790D01*
X96140827Y-116430797D01*
X96286498Y-116491135D01*
X96286503Y-116491137D01*
X96441153Y-116521899D01*
X96441156Y-116521900D01*
X96441158Y-116521900D01*
X96598844Y-116521900D01*
X96598845Y-116521899D01*
X96753497Y-116491137D01*
X96899179Y-116430794D01*
X96930985Y-116409542D01*
X97023392Y-116347798D01*
X97090070Y-116326920D01*
X97092283Y-116326900D01*
X98285643Y-116326900D01*
X98286169Y-116326897D01*
X98289334Y-116326886D01*
X98291106Y-116326873D01*
X98294619Y-116326835D01*
X98436727Y-116304327D01*
X98498827Y-116285124D01*
X98568687Y-116284127D01*
X98627999Y-116321057D01*
X98635772Y-116330703D01*
X98757983Y-116498910D01*
X98924990Y-116665917D01*
X99116066Y-116804743D01*
X99187201Y-116840988D01*
X99326503Y-116911966D01*
X99326505Y-116911966D01*
X99326508Y-116911968D01*
X99446912Y-116951089D01*
X99551131Y-116984953D01*
X99784403Y-117021900D01*
X99784408Y-117021900D01*
X100020597Y-117021900D01*
X100253868Y-116984953D01*
X100478492Y-116911968D01*
X100688934Y-116804743D01*
X100880010Y-116665917D01*
X103213569Y-114332358D01*
X103274892Y-114298873D01*
X103344584Y-114303857D01*
X103388931Y-114332358D01*
X104872090Y-115815517D01*
X104928315Y-115856367D01*
X105063167Y-115954344D01*
X105136945Y-115991935D01*
X105210724Y-116029527D01*
X105273603Y-116061566D01*
X105273605Y-116061566D01*
X105273608Y-116061568D01*
X105330176Y-116079948D01*
X105498231Y-116134553D01*
X105731503Y-116171500D01*
X105731508Y-116171500D01*
X113884800Y-116171500D01*
X113951839Y-116191185D01*
X113997594Y-116243989D01*
X114008800Y-116295500D01*
X114008800Y-116409546D01*
X114039561Y-116564189D01*
X114039564Y-116564201D01*
X114099902Y-116709872D01*
X114099909Y-116709885D01*
X114187510Y-116840988D01*
X114187513Y-116840992D01*
X114299007Y-116952486D01*
X114299011Y-116952489D01*
X114430114Y-117040090D01*
X114430127Y-117040097D01*
X114575798Y-117100435D01*
X114575803Y-117100437D01*
X114730453Y-117131199D01*
X114730456Y-117131200D01*
X114730458Y-117131200D01*
X114888144Y-117131200D01*
X114888145Y-117131199D01*
X115042797Y-117100437D01*
X115188479Y-117040094D01*
X115319589Y-116952489D01*
X115431089Y-116840989D01*
X115518694Y-116709879D01*
X115579037Y-116564197D01*
X115609800Y-116409542D01*
X115609800Y-116295500D01*
X115629485Y-116228461D01*
X115682289Y-116182706D01*
X115733800Y-116171500D01*
X135328497Y-116171500D01*
X135561768Y-116134553D01*
X135567348Y-116132740D01*
X135786392Y-116061568D01*
X135996834Y-115954343D01*
X136187910Y-115815517D01*
X137245209Y-114758219D01*
X137306532Y-114724734D01*
X137332890Y-114721900D01*
X137731113Y-114721900D01*
X137731120Y-114721900D01*
X137861118Y-114704785D01*
X137991116Y-114687671D01*
X138244419Y-114619798D01*
X138486697Y-114519443D01*
X138492446Y-114516124D01*
X138713803Y-114388324D01*
X138813262Y-114312006D01*
X138921851Y-114228683D01*
X140413024Y-112737510D01*
X142092316Y-111058219D01*
X142153639Y-111024734D01*
X142179997Y-111021900D01*
X144516697Y-111021900D01*
X144749968Y-110984953D01*
X144794760Y-110970399D01*
X144974592Y-110911968D01*
X145185034Y-110804743D01*
X145376110Y-110665917D01*
X155677094Y-100364931D01*
X155738415Y-100331448D01*
X155752164Y-100329257D01*
X155842797Y-100319999D01*
X156009334Y-100264814D01*
X156158656Y-100172712D01*
X156282712Y-100048656D01*
X156374814Y-99899334D01*
X156429999Y-99732797D01*
X156440500Y-99630009D01*
X156440500Y-99033227D01*
X156440500Y-98861908D01*
X156440500Y-98854313D01*
X156440499Y-98854295D01*
X156440499Y-98329998D01*
X156440498Y-98329981D01*
X156429999Y-98227203D01*
X156429998Y-98227200D01*
X156384454Y-98089758D01*
X156374814Y-98060666D01*
X156282712Y-97911344D01*
X156158656Y-97787288D01*
X156009334Y-97695186D01*
X156009332Y-97695185D01*
X156003440Y-97691551D01*
X155956716Y-97639603D01*
X155945493Y-97570641D01*
X155973337Y-97506558D01*
X155980856Y-97498330D01*
X156119728Y-97359458D01*
X156244620Y-97187557D01*
X156341095Y-96998217D01*
X156406757Y-96796129D01*
X156406757Y-96796126D01*
X156417231Y-96730000D01*
X155373012Y-96730000D01*
X155405925Y-96672993D01*
X155440000Y-96545826D01*
X155440000Y-96414174D01*
X155405925Y-96287007D01*
X155373012Y-96230000D01*
X156417231Y-96230000D01*
X156406757Y-96163873D01*
X156406757Y-96163870D01*
X156341095Y-95961782D01*
X156244620Y-95772442D01*
X156119727Y-95600540D01*
X156119723Y-95600535D01*
X155969464Y-95450276D01*
X155969459Y-95450272D01*
X155797557Y-95325379D01*
X155608217Y-95228904D01*
X155406129Y-95163242D01*
X155196246Y-95130000D01*
X155190000Y-95130000D01*
X155190000Y-96046988D01*
X155132993Y-96014075D01*
X155005826Y-95980000D01*
X154874174Y-95980000D01*
X154747007Y-96014075D01*
X154690000Y-96046988D01*
X154690000Y-95130000D01*
X154683754Y-95130000D01*
X154473872Y-95163242D01*
X154473869Y-95163242D01*
X154271782Y-95228904D01*
X154082442Y-95325379D01*
X153910540Y-95450272D01*
X153910535Y-95450276D01*
X153760276Y-95600535D01*
X153760272Y-95600540D01*
X153635379Y-95772442D01*
X153538904Y-95961782D01*
X153473242Y-96163870D01*
X153473242Y-96163873D01*
X153462769Y-96230000D01*
X154506988Y-96230000D01*
X154474075Y-96287007D01*
X154440000Y-96414174D01*
X154440000Y-96545826D01*
X154474075Y-96672993D01*
X154506988Y-96730000D01*
X153462769Y-96730000D01*
X153473242Y-96796126D01*
X153473242Y-96796129D01*
X153538904Y-96998217D01*
X153635379Y-97187557D01*
X153760272Y-97359459D01*
X153760276Y-97359464D01*
X153899143Y-97498331D01*
X153932628Y-97559654D01*
X153927644Y-97629346D01*
X153885772Y-97685279D01*
X153876559Y-97691551D01*
X153721342Y-97787289D01*
X153597289Y-97911342D01*
X153505187Y-98060663D01*
X153505185Y-98060668D01*
X153450001Y-98227204D01*
X153450000Y-98227205D01*
X153440742Y-98317828D01*
X153414345Y-98382520D01*
X153405065Y-98392906D01*
X143813392Y-107984581D01*
X143752069Y-108018066D01*
X143725711Y-108020900D01*
X142172783Y-108020900D01*
X142105744Y-108001215D01*
X142097297Y-107995276D01*
X141913811Y-107854483D01*
X141913803Y-107854478D01*
X141913802Y-107854477D01*
X141686697Y-107723357D01*
X141686688Y-107723352D01*
X141444419Y-107623002D01*
X141191111Y-107555128D01*
X140931120Y-107520901D01*
X140931119Y-107520901D01*
X140668880Y-107520901D01*
X140668879Y-107520901D01*
X140408887Y-107555128D01*
X140155580Y-107623002D01*
X139913306Y-107723355D01*
X139913302Y-107723357D01*
X139686198Y-107854477D01*
X139686196Y-107854478D01*
X139478145Y-108014119D01*
X139478140Y-108014123D01*
X139309084Y-108183181D01*
X139247761Y-108216666D01*
X139221403Y-108219500D01*
X138501457Y-108219500D01*
X138308170Y-108257947D01*
X138308160Y-108257950D01*
X138126092Y-108333364D01*
X138126079Y-108333371D01*
X137962218Y-108442860D01*
X137962214Y-108442863D01*
X137822863Y-108582214D01*
X137822860Y-108582218D01*
X137713371Y-108746079D01*
X137713364Y-108746092D01*
X137637950Y-108928160D01*
X137637947Y-108928170D01*
X137599500Y-109121456D01*
X137599500Y-109841403D01*
X137590855Y-109870843D01*
X137584332Y-109900830D01*
X137580577Y-109905845D01*
X137579815Y-109908442D01*
X137563181Y-109929084D01*
X137417181Y-110075084D01*
X137355858Y-110108569D01*
X137286166Y-110103585D01*
X137230233Y-110061713D01*
X137205816Y-109996249D01*
X137205500Y-109987403D01*
X137205500Y-107245410D01*
X137205500Y-107245400D01*
X137193947Y-107137944D01*
X137182741Y-107086433D01*
X137182637Y-107086122D01*
X137148616Y-106983902D01*
X137148613Y-106983896D01*
X137070828Y-106862862D01*
X137070825Y-106862857D01*
X137070820Y-106862851D01*
X137025076Y-106810059D01*
X137025072Y-106810056D01*
X137025070Y-106810053D01*
X136916336Y-106715833D01*
X136916333Y-106715831D01*
X136916331Y-106715830D01*
X136785465Y-106656064D01*
X136785460Y-106656062D01*
X136785459Y-106656062D01*
X136718420Y-106636377D01*
X136718422Y-106636377D01*
X136718417Y-106636376D01*
X136656347Y-106627452D01*
X136576000Y-106615900D01*
X131524000Y-106615900D01*
X131523991Y-106615900D01*
X131523990Y-106615901D01*
X131416549Y-106627452D01*
X131416537Y-106627454D01*
X131365027Y-106638660D01*
X131262502Y-106672783D01*
X131262496Y-106672786D01*
X131141462Y-106750571D01*
X131141451Y-106750579D01*
X131088659Y-106796323D01*
X130994433Y-106905064D01*
X130994430Y-106905068D01*
X130934664Y-107035934D01*
X130914976Y-107102982D01*
X130909949Y-107137949D01*
X130894502Y-107245390D01*
X130894500Y-107245401D01*
X130894500Y-108960793D01*
X130874815Y-109027832D01*
X130822011Y-109073587D01*
X130752853Y-109083531D01*
X130689297Y-109054506D01*
X130682819Y-109048474D01*
X130618802Y-108984457D01*
X130618798Y-108984454D01*
X130475411Y-108888645D01*
X130475398Y-108888638D01*
X130316078Y-108822646D01*
X130316066Y-108822643D01*
X130146932Y-108789000D01*
X130146929Y-108789000D01*
X129650500Y-108789000D01*
X129583461Y-108769315D01*
X129537706Y-108716511D01*
X129526500Y-108665000D01*
X129526500Y-100472368D01*
X129526499Y-100472366D01*
X129505129Y-100364933D01*
X129492855Y-100303226D01*
X129476944Y-100264814D01*
X129426861Y-100143901D01*
X129426854Y-100143888D01*
X129331046Y-100000502D01*
X129331045Y-100000501D01*
X129209099Y-99878555D01*
X121434819Y-92104275D01*
X121401334Y-92042952D01*
X121398500Y-92016594D01*
X121398500Y-90794968D01*
X121398499Y-90794966D01*
X121364855Y-90625826D01*
X121364853Y-90625821D01*
X121298861Y-90466501D01*
X121298854Y-90466488D01*
X121203045Y-90323101D01*
X121203042Y-90323097D01*
X121081102Y-90201157D01*
X121081098Y-90201154D01*
X120937711Y-90105345D01*
X120937698Y-90105338D01*
X120778378Y-90039346D01*
X120778366Y-90039343D01*
X120609232Y-90005700D01*
X120609229Y-90005700D01*
X120436771Y-90005700D01*
X120436768Y-90005700D01*
X120267633Y-90039343D01*
X120267621Y-90039346D01*
X120108301Y-90105338D01*
X120108288Y-90105345D01*
X119964901Y-90201154D01*
X119964897Y-90201157D01*
X119842957Y-90323097D01*
X119842954Y-90323101D01*
X119747145Y-90466488D01*
X119747138Y-90466501D01*
X119681146Y-90625821D01*
X119681143Y-90625833D01*
X119647500Y-90794966D01*
X119647500Y-92516833D01*
X119681143Y-92685966D01*
X119681146Y-92685978D01*
X119747138Y-92845298D01*
X119747145Y-92845311D01*
X119842954Y-92988698D01*
X119842957Y-92988702D01*
X127739181Y-100884925D01*
X127772666Y-100946248D01*
X127775500Y-100972606D01*
X127775500Y-109277033D01*
X127809143Y-109446166D01*
X127810913Y-109452001D01*
X127808821Y-109452635D01*
X127815233Y-109512327D01*
X127783951Y-109574803D01*
X127723859Y-109610449D01*
X127654034Y-109607948D01*
X127605524Y-109577979D01*
X122882619Y-104855074D01*
X122849134Y-104793751D01*
X122846300Y-104767393D01*
X122846300Y-102589398D01*
X122865985Y-102522359D01*
X122867163Y-102520558D01*
X122920406Y-102440876D01*
X122986403Y-102281545D01*
X123020048Y-102112400D01*
X123020048Y-101939942D01*
X123020048Y-101939939D01*
X123020047Y-101939937D01*
X122989272Y-101785220D01*
X122986403Y-101770797D01*
X122986401Y-101770792D01*
X122920409Y-101611472D01*
X122920402Y-101611459D01*
X122824593Y-101468072D01*
X122824590Y-101468068D01*
X122702650Y-101346128D01*
X122702646Y-101346125D01*
X122559259Y-101250316D01*
X122559246Y-101250309D01*
X122399926Y-101184317D01*
X122399914Y-101184314D01*
X122230780Y-101150671D01*
X122230777Y-101150671D01*
X122058319Y-101150671D01*
X122058316Y-101150671D01*
X121889181Y-101184314D01*
X121889169Y-101184317D01*
X121729849Y-101250309D01*
X121729836Y-101250316D01*
X121586449Y-101346125D01*
X121586445Y-101346128D01*
X121412701Y-101519874D01*
X121351727Y-101580848D01*
X121290753Y-101641821D01*
X121194945Y-101785207D01*
X121194938Y-101785220D01*
X121128946Y-101944540D01*
X121128943Y-101944552D01*
X121095300Y-102113685D01*
X121095300Y-105267633D01*
X121128943Y-105436766D01*
X121128946Y-105436778D01*
X121194938Y-105596098D01*
X121194945Y-105596111D01*
X121290754Y-105739498D01*
X121290757Y-105739502D01*
X127991297Y-112440042D01*
X127991301Y-112440045D01*
X128134688Y-112535854D01*
X128134701Y-112535861D01*
X128294021Y-112601853D01*
X128294026Y-112601855D01*
X128463166Y-112635499D01*
X128463169Y-112635500D01*
X128463171Y-112635500D01*
X128635631Y-112635500D01*
X128635632Y-112635499D01*
X128804773Y-112601855D01*
X128964104Y-112535858D01*
X128964106Y-112535857D01*
X129035320Y-112488272D01*
X129107499Y-112440045D01*
X129229445Y-112318099D01*
X129291735Y-112224875D01*
X129325257Y-112174706D01*
X129325259Y-112174702D01*
X129391253Y-112015377D01*
X129391255Y-112015373D01*
X129424900Y-111846229D01*
X129424900Y-111673771D01*
X129424900Y-111673768D01*
X129424899Y-111673766D01*
X129391256Y-111504633D01*
X129391255Y-111504626D01*
X129391253Y-111504621D01*
X129325261Y-111345301D01*
X129325254Y-111345288D01*
X129229445Y-111201901D01*
X129229442Y-111201897D01*
X128737520Y-110709975D01*
X128704035Y-110648652D01*
X128709019Y-110578960D01*
X128750891Y-110523027D01*
X128816355Y-110498610D01*
X128863017Y-110506173D01*
X128863499Y-110504587D01*
X128869315Y-110506350D01*
X128869326Y-110506355D01*
X129038466Y-110539999D01*
X129038469Y-110540000D01*
X129038471Y-110540000D01*
X130146931Y-110540000D01*
X130146932Y-110539999D01*
X130316074Y-110506355D01*
X130475405Y-110440358D01*
X130618799Y-110344545D01*
X130632512Y-110330832D01*
X130682819Y-110280526D01*
X130744142Y-110247041D01*
X130813834Y-110252025D01*
X130869767Y-110293897D01*
X130894184Y-110359361D01*
X130894500Y-110368207D01*
X130894500Y-112997407D01*
X130898354Y-113033244D01*
X130885949Y-113102004D01*
X130838339Y-113153141D01*
X130775065Y-113170500D01*
X106522489Y-113170500D01*
X106455450Y-113150815D01*
X106434808Y-113134181D01*
X105727958Y-112427331D01*
X105694473Y-112366008D01*
X105693166Y-112320257D01*
X105706986Y-112233006D01*
X105706986Y-111996822D01*
X105706986Y-111996816D01*
X105670039Y-111763545D01*
X105597052Y-111538917D01*
X105498396Y-111345295D01*
X105489829Y-111328481D01*
X105351003Y-111137404D01*
X105183996Y-110970397D01*
X104992919Y-110831571D01*
X104782482Y-110724347D01*
X104557854Y-110651360D01*
X104324583Y-110614414D01*
X104324578Y-110614414D01*
X103981875Y-110614414D01*
X103914836Y-110594729D01*
X103894194Y-110578095D01*
X103892983Y-110576884D01*
X103892980Y-110576882D01*
X103701906Y-110438057D01*
X103491468Y-110330833D01*
X103266840Y-110257846D01*
X103033569Y-110220900D01*
X103033564Y-110220900D01*
X103018092Y-110220900D01*
X101656692Y-110220900D01*
X101420508Y-110220900D01*
X101420503Y-110220900D01*
X101187231Y-110257846D01*
X100962603Y-110330833D01*
X100752163Y-110438059D01*
X100561096Y-110576876D01*
X100561091Y-110576880D01*
X100355486Y-110782486D01*
X100355478Y-110782496D01*
X100329817Y-110817815D01*
X100274487Y-110860481D01*
X100204874Y-110866459D01*
X100143079Y-110833853D01*
X100108722Y-110773013D01*
X100105500Y-110744929D01*
X100105500Y-109345410D01*
X100105500Y-109345400D01*
X100093947Y-109237944D01*
X100082741Y-109186433D01*
X100082637Y-109186122D01*
X100048616Y-109083902D01*
X100048613Y-109083896D01*
X99997950Y-109005064D01*
X99970825Y-108962857D01*
X99969037Y-108960793D01*
X99925076Y-108910059D01*
X99925072Y-108910056D01*
X99925070Y-108910053D01*
X99816336Y-108815833D01*
X99816333Y-108815831D01*
X99816331Y-108815830D01*
X99685465Y-108756064D01*
X99685460Y-108756062D01*
X99685459Y-108756062D01*
X99618420Y-108736377D01*
X99618422Y-108736377D01*
X99618417Y-108736376D01*
X99556347Y-108727452D01*
X99476000Y-108715900D01*
X93724000Y-108715900D01*
X93723991Y-108715900D01*
X93723990Y-108715901D01*
X93616549Y-108727452D01*
X93616537Y-108727454D01*
X93565027Y-108738660D01*
X93462502Y-108772783D01*
X93462496Y-108772786D01*
X93341462Y-108850571D01*
X93341451Y-108850579D01*
X93288659Y-108896323D01*
X93194433Y-109005064D01*
X93194430Y-109005068D01*
X93134664Y-109135934D01*
X93114976Y-109202982D01*
X93101325Y-109297928D01*
X93094502Y-109345390D01*
X93094500Y-109345401D01*
X93094500Y-111181428D01*
X93074815Y-111248467D01*
X93022011Y-111294222D01*
X92952853Y-111304166D01*
X92889297Y-111275141D01*
X92867398Y-111250320D01*
X92835042Y-111201897D01*
X92306702Y-110673557D01*
X92306698Y-110673554D01*
X92305399Y-110672686D01*
X92286609Y-110657265D01*
X91107219Y-109477875D01*
X91073734Y-109416552D01*
X91070900Y-109390194D01*
X91070900Y-105290606D01*
X91090585Y-105223567D01*
X91107219Y-105202925D01*
X96463442Y-99846702D01*
X96463445Y-99846699D01*
X96559258Y-99703305D01*
X96625255Y-99543974D01*
X96658900Y-99374829D01*
X96658900Y-99202371D01*
X96658900Y-96662371D01*
X96658900Y-96662368D01*
X96658899Y-96662366D01*
X96640981Y-96572287D01*
X96625255Y-96493226D01*
X96573171Y-96367483D01*
X96559261Y-96333901D01*
X96559254Y-96333888D01*
X96463445Y-96190501D01*
X96463442Y-96190497D01*
X96341502Y-96068557D01*
X96341498Y-96068554D01*
X96198111Y-95972745D01*
X96198098Y-95972738D01*
X96038778Y-95906746D01*
X96038766Y-95906743D01*
X95869632Y-95873100D01*
X95869629Y-95873100D01*
X95697171Y-95873100D01*
X95697168Y-95873100D01*
X95528033Y-95906743D01*
X95528021Y-95906746D01*
X95368701Y-95972738D01*
X95368688Y-95972745D01*
X95225301Y-96068554D01*
X95225297Y-96068557D01*
X95103357Y-96190497D01*
X95103354Y-96190501D01*
X95007545Y-96333888D01*
X95007538Y-96333901D01*
X94941546Y-96493221D01*
X94941543Y-96493233D01*
X94907900Y-96662366D01*
X94907900Y-98874594D01*
X94888215Y-98941633D01*
X94871581Y-98962275D01*
X89637301Y-104196555D01*
X89576327Y-104257529D01*
X89515353Y-104318502D01*
X89419545Y-104461888D01*
X89419538Y-104461901D01*
X89353546Y-104621221D01*
X89353543Y-104621233D01*
X89319900Y-104790366D01*
X85525500Y-104790366D01*
X85525500Y-59797648D01*
X90699500Y-59797648D01*
X90699500Y-60002351D01*
X90731522Y-60204534D01*
X90794781Y-60399223D01*
X90887715Y-60581613D01*
X91008028Y-60747213D01*
X91152786Y-60891971D01*
X91307749Y-61004556D01*
X91318390Y-61012287D01*
X91409840Y-61058883D01*
X91411080Y-61059515D01*
X91461876Y-61107490D01*
X91478671Y-61175311D01*
X91456134Y-61241446D01*
X91411080Y-61280485D01*
X91318386Y-61327715D01*
X91152786Y-61448028D01*
X91008028Y-61592786D01*
X90887715Y-61758386D01*
X90794781Y-61940776D01*
X90731522Y-62135465D01*
X90699500Y-62337648D01*
X90699500Y-62542351D01*
X90731522Y-62744534D01*
X90794781Y-62939223D01*
X90858691Y-63064653D01*
X90878616Y-63103757D01*
X90887715Y-63121613D01*
X91008028Y-63287213D01*
X91152786Y-63431971D01*
X91307749Y-63544556D01*
X91318390Y-63552287D01*
X91409840Y-63598883D01*
X91411080Y-63599515D01*
X91461876Y-63647490D01*
X91478671Y-63715311D01*
X91456134Y-63781446D01*
X91411080Y-63820485D01*
X91318386Y-63867715D01*
X91152786Y-63988028D01*
X91008028Y-64132786D01*
X90887715Y-64298386D01*
X90794781Y-64480776D01*
X90731522Y-64675465D01*
X90699500Y-64877648D01*
X90699500Y-65082351D01*
X90731522Y-65284534D01*
X90794781Y-65479223D01*
X90887715Y-65661613D01*
X91008028Y-65827213D01*
X91152786Y-65971971D01*
X91307749Y-66084556D01*
X91318390Y-66092287D01*
X91409840Y-66138883D01*
X91411080Y-66139515D01*
X91461876Y-66187490D01*
X91478671Y-66255311D01*
X91456134Y-66321446D01*
X91411080Y-66360485D01*
X91318386Y-66407715D01*
X91152786Y-66528028D01*
X91008028Y-66672786D01*
X90887715Y-66838386D01*
X90794781Y-67020776D01*
X90731522Y-67215465D01*
X90699500Y-67417648D01*
X90699500Y-67622351D01*
X90731522Y-67824534D01*
X90794781Y-68019223D01*
X90887715Y-68201613D01*
X91008028Y-68367213D01*
X91152786Y-68511971D01*
X91307749Y-68624556D01*
X91318390Y-68632287D01*
X91409840Y-68678883D01*
X91411080Y-68679515D01*
X91461876Y-68727490D01*
X91478671Y-68795311D01*
X91456134Y-68861446D01*
X91411080Y-68900485D01*
X91318386Y-68947715D01*
X91152786Y-69068028D01*
X91008028Y-69212786D01*
X90887715Y-69378386D01*
X90794781Y-69560776D01*
X90731522Y-69755465D01*
X90699500Y-69957648D01*
X90699500Y-70162351D01*
X90731522Y-70364534D01*
X90794781Y-70559223D01*
X90887715Y-70741613D01*
X91008028Y-70907213D01*
X91152786Y-71051971D01*
X91307749Y-71164556D01*
X91318390Y-71172287D01*
X91409840Y-71218883D01*
X91411080Y-71219515D01*
X91461876Y-71267490D01*
X91478671Y-71335311D01*
X91456134Y-71401446D01*
X91411080Y-71440485D01*
X91318386Y-71487715D01*
X91152786Y-71608028D01*
X91008028Y-71752786D01*
X90887715Y-71918386D01*
X90794781Y-72100776D01*
X90731522Y-72295465D01*
X90699500Y-72497648D01*
X90699500Y-72702351D01*
X90731522Y-72904534D01*
X90794781Y-73099223D01*
X90887715Y-73281613D01*
X91008028Y-73447213D01*
X91152786Y-73591971D01*
X91298490Y-73697829D01*
X91318390Y-73712287D01*
X91409840Y-73758883D01*
X91411080Y-73759515D01*
X91461876Y-73807490D01*
X91478671Y-73875311D01*
X91456134Y-73941446D01*
X91411080Y-73980485D01*
X91318386Y-74027715D01*
X91152786Y-74148028D01*
X91008028Y-74292786D01*
X90887715Y-74458386D01*
X90794781Y-74640776D01*
X90731522Y-74835465D01*
X90704679Y-75004949D01*
X90699500Y-75037648D01*
X90699500Y-75242352D01*
X90702786Y-75263098D01*
X90731522Y-75444534D01*
X90794781Y-75639223D01*
X90887715Y-75821613D01*
X91008028Y-75987213D01*
X91152786Y-76131971D01*
X91307749Y-76244556D01*
X91318390Y-76252287D01*
X91409840Y-76298883D01*
X91411080Y-76299515D01*
X91461876Y-76347490D01*
X91478671Y-76415311D01*
X91456134Y-76481446D01*
X91411080Y-76520485D01*
X91318386Y-76567715D01*
X91152786Y-76688028D01*
X91008028Y-76832786D01*
X90887715Y-76998386D01*
X90794781Y-77180776D01*
X90731522Y-77375465D01*
X90699500Y-77577648D01*
X90699500Y-77782351D01*
X90731522Y-77984534D01*
X90794781Y-78179223D01*
X90858691Y-78304653D01*
X90865381Y-78317782D01*
X90887715Y-78361613D01*
X91008028Y-78527213D01*
X91152786Y-78671971D01*
X91307749Y-78784556D01*
X91318390Y-78792287D01*
X91409840Y-78838883D01*
X91411080Y-78839515D01*
X91461876Y-78887490D01*
X91478671Y-78955311D01*
X91456134Y-79021446D01*
X91411080Y-79060485D01*
X91318386Y-79107715D01*
X91152786Y-79228028D01*
X91008028Y-79372786D01*
X90887715Y-79538386D01*
X90794781Y-79720776D01*
X90731522Y-79915465D01*
X90699500Y-80117648D01*
X90699500Y-80322351D01*
X90731522Y-80524534D01*
X90794781Y-80719223D01*
X90856190Y-80839742D01*
X90865405Y-80857829D01*
X90887715Y-80901613D01*
X91008028Y-81067213D01*
X91152786Y-81211971D01*
X91288342Y-81310456D01*
X91318390Y-81332287D01*
X91409840Y-81378883D01*
X91411080Y-81379515D01*
X91461876Y-81427490D01*
X91478671Y-81495311D01*
X91456134Y-81561446D01*
X91411080Y-81600485D01*
X91318386Y-81647715D01*
X91152786Y-81768028D01*
X91008028Y-81912786D01*
X90887715Y-82078386D01*
X90794781Y-82260776D01*
X90731522Y-82455465D01*
X90699500Y-82657648D01*
X90699500Y-82862351D01*
X90731522Y-83064534D01*
X90794781Y-83259223D01*
X90887715Y-83441613D01*
X91008028Y-83607213D01*
X91152786Y-83751971D01*
X91307749Y-83864556D01*
X91318390Y-83872287D01*
X91409840Y-83918883D01*
X91411080Y-83919515D01*
X91461876Y-83967490D01*
X91478671Y-84035311D01*
X91456134Y-84101446D01*
X91411080Y-84140485D01*
X91318386Y-84187715D01*
X91152786Y-84308028D01*
X91008028Y-84452786D01*
X90887715Y-84618386D01*
X90794781Y-84800776D01*
X90731522Y-84995465D01*
X90699500Y-85197648D01*
X90699500Y-85402351D01*
X90731522Y-85604534D01*
X90794781Y-85799223D01*
X90887715Y-85981613D01*
X91008028Y-86147213D01*
X91152786Y-86291971D01*
X91307749Y-86404556D01*
X91318390Y-86412287D01*
X91409840Y-86458883D01*
X91411080Y-86459515D01*
X91461876Y-86507490D01*
X91478671Y-86575311D01*
X91456134Y-86641446D01*
X91411080Y-86680485D01*
X91318386Y-86727715D01*
X91152786Y-86848028D01*
X91008028Y-86992786D01*
X90887715Y-87158386D01*
X90794781Y-87340776D01*
X90731522Y-87535465D01*
X90699500Y-87737648D01*
X90699500Y-87942351D01*
X90731522Y-88144534D01*
X90794781Y-88339223D01*
X90887715Y-88521613D01*
X91008028Y-88687213D01*
X91152786Y-88831971D01*
X91307749Y-88944556D01*
X91318390Y-88952287D01*
X91409840Y-88998883D01*
X91411080Y-88999515D01*
X91461876Y-89047490D01*
X91478671Y-89115311D01*
X91456134Y-89181446D01*
X91411080Y-89220485D01*
X91318386Y-89267715D01*
X91152786Y-89388028D01*
X91008028Y-89532786D01*
X90887715Y-89698386D01*
X90794781Y-89880776D01*
X90731522Y-90075465D01*
X90699500Y-90277648D01*
X90699500Y-90482351D01*
X90731522Y-90684534D01*
X90794781Y-90879223D01*
X90887715Y-91061613D01*
X91008028Y-91227213D01*
X91152786Y-91371971D01*
X91307749Y-91484556D01*
X91318390Y-91492287D01*
X91390424Y-91528990D01*
X91411629Y-91539795D01*
X91462425Y-91587770D01*
X91479220Y-91655591D01*
X91456682Y-91721726D01*
X91411629Y-91760765D01*
X91318650Y-91808140D01*
X91153105Y-91928417D01*
X91153104Y-91928417D01*
X91008417Y-92073104D01*
X91008417Y-92073105D01*
X90888140Y-92238650D01*
X90795244Y-92420970D01*
X90732009Y-92615586D01*
X90723391Y-92670000D01*
X91566988Y-92670000D01*
X91534075Y-92727007D01*
X91500000Y-92854174D01*
X91500000Y-92985826D01*
X91534075Y-93112993D01*
X91566988Y-93170000D01*
X90723391Y-93170000D01*
X90732009Y-93224413D01*
X90795244Y-93419029D01*
X90888140Y-93601349D01*
X91008417Y-93766894D01*
X91008417Y-93766895D01*
X91153104Y-93911582D01*
X91318652Y-94031861D01*
X91411628Y-94079234D01*
X91462425Y-94127208D01*
X91479220Y-94195029D01*
X91456683Y-94261164D01*
X91411630Y-94300203D01*
X91318388Y-94347713D01*
X91152786Y-94468028D01*
X91008028Y-94612786D01*
X90887715Y-94778386D01*
X90794781Y-94960776D01*
X90731522Y-95155465D01*
X90699500Y-95357648D01*
X90699500Y-95562351D01*
X90731522Y-95764534D01*
X90794781Y-95959223D01*
X90887715Y-96141613D01*
X91008028Y-96307213D01*
X91152786Y-96451971D01*
X91281969Y-96545826D01*
X91318390Y-96572287D01*
X91500781Y-96665220D01*
X91596082Y-96696185D01*
X91653758Y-96735623D01*
X91680956Y-96799981D01*
X91669041Y-96868828D01*
X91621797Y-96920303D01*
X91596083Y-96932047D01*
X91562201Y-96943056D01*
X91402244Y-97024559D01*
X91257019Y-97130069D01*
X91130069Y-97257019D01*
X91024559Y-97402244D01*
X90943055Y-97562202D01*
X90887583Y-97732930D01*
X90859500Y-97910241D01*
X90859500Y-98089758D01*
X90887583Y-98267069D01*
X90943055Y-98437797D01*
X91024559Y-98597755D01*
X91130069Y-98742980D01*
X91257019Y-98869930D01*
X91355712Y-98941633D01*
X91402248Y-98975443D01*
X91562200Y-99056943D01*
X91562202Y-99056944D01*
X91647566Y-99084680D01*
X91732932Y-99112417D01*
X91910241Y-99140500D01*
X91910242Y-99140500D01*
X92089758Y-99140500D01*
X92089759Y-99140500D01*
X92267068Y-99112417D01*
X92437800Y-99056943D01*
X92597752Y-98975443D01*
X92736560Y-98874594D01*
X92742980Y-98869930D01*
X92742982Y-98869927D01*
X92742986Y-98869925D01*
X92869925Y-98742986D01*
X92869927Y-98742982D01*
X92869930Y-98742980D01*
X92916200Y-98679293D01*
X92975443Y-98597752D01*
X93056943Y-98437800D01*
X93112417Y-98267068D01*
X93140500Y-98089759D01*
X93140500Y-97910241D01*
X93112417Y-97732932D01*
X93056943Y-97562200D01*
X92975443Y-97402248D01*
X92944359Y-97359464D01*
X92869930Y-97257019D01*
X92742980Y-97130069D01*
X92597755Y-97024559D01*
X92597754Y-97024558D01*
X92597752Y-97024557D01*
X92510304Y-96980000D01*
X92437797Y-96943055D01*
X92403917Y-96932047D01*
X92346241Y-96892609D01*
X92319043Y-96828251D01*
X92330958Y-96759404D01*
X92378202Y-96707929D01*
X92403913Y-96696186D01*
X92499219Y-96665220D01*
X92681610Y-96572287D01*
X92777901Y-96502328D01*
X92847213Y-96451971D01*
X92847215Y-96451968D01*
X92847219Y-96451966D01*
X92991966Y-96307219D01*
X92991968Y-96307215D01*
X92991971Y-96307213D01*
X93076766Y-96190501D01*
X93112287Y-96141610D01*
X93205220Y-95959219D01*
X93268477Y-95764534D01*
X93300500Y-95562352D01*
X93300500Y-95357648D01*
X93268477Y-95155466D01*
X93205220Y-94960781D01*
X93205218Y-94960778D01*
X93205218Y-94960776D01*
X93171503Y-94894607D01*
X93112287Y-94778390D01*
X93104556Y-94767749D01*
X92991971Y-94612786D01*
X92847213Y-94468028D01*
X92681611Y-94347713D01*
X92588369Y-94300203D01*
X92537574Y-94252229D01*
X92520779Y-94184407D01*
X92543317Y-94118273D01*
X92588371Y-94079234D01*
X92681347Y-94031861D01*
X92846894Y-93911582D01*
X92846895Y-93911582D01*
X92991582Y-93766895D01*
X92991582Y-93766894D01*
X93111859Y-93601349D01*
X93204755Y-93419029D01*
X93267990Y-93224413D01*
X93276609Y-93170000D01*
X92433012Y-93170000D01*
X92465925Y-93112993D01*
X92500000Y-92985826D01*
X92500000Y-92854174D01*
X92465925Y-92727007D01*
X92433012Y-92670000D01*
X93276609Y-92670000D01*
X93267990Y-92615586D01*
X93204755Y-92420970D01*
X93111859Y-92238650D01*
X92991582Y-92073105D01*
X92991582Y-92073104D01*
X92846895Y-91928417D01*
X92681349Y-91808140D01*
X92588370Y-91760765D01*
X92537574Y-91712790D01*
X92520779Y-91644969D01*
X92543316Y-91578835D01*
X92588370Y-91539795D01*
X92588920Y-91539515D01*
X92681610Y-91492287D01*
X92702770Y-91476913D01*
X92847213Y-91371971D01*
X92847215Y-91371968D01*
X92847219Y-91371966D01*
X92991966Y-91227219D01*
X92991968Y-91227215D01*
X92991971Y-91227213D01*
X93044732Y-91154590D01*
X93112287Y-91061610D01*
X93205220Y-90879219D01*
X93268477Y-90684534D01*
X93300500Y-90482352D01*
X93300500Y-90277648D01*
X93289865Y-90210500D01*
X93268477Y-90075465D01*
X93220776Y-89928657D01*
X93205220Y-89880781D01*
X93205218Y-89880778D01*
X93205218Y-89880776D01*
X93153530Y-89779334D01*
X93112287Y-89698390D01*
X93104556Y-89687749D01*
X92991971Y-89532786D01*
X92847213Y-89388028D01*
X92681614Y-89267715D01*
X92675006Y-89264348D01*
X92588917Y-89220483D01*
X92538123Y-89172511D01*
X92521328Y-89104690D01*
X92543865Y-89038555D01*
X92588917Y-88999516D01*
X92681610Y-88952287D01*
X92702770Y-88936913D01*
X92847213Y-88831971D01*
X92847215Y-88831968D01*
X92847219Y-88831966D01*
X92991966Y-88687219D01*
X92991968Y-88687215D01*
X92991971Y-88687213D01*
X93044732Y-88614590D01*
X93112287Y-88521610D01*
X93205220Y-88339219D01*
X93268477Y-88144534D01*
X93300500Y-87942352D01*
X93300500Y-87737648D01*
X93286144Y-87647007D01*
X93268477Y-87535465D01*
X93239127Y-87445137D01*
X93205220Y-87340781D01*
X93205218Y-87340778D01*
X93205218Y-87340776D01*
X93112419Y-87158650D01*
X93112287Y-87158390D01*
X93046482Y-87067816D01*
X92991971Y-86992786D01*
X92847213Y-86848028D01*
X92681614Y-86727715D01*
X92675006Y-86724348D01*
X92588917Y-86680483D01*
X92538123Y-86632511D01*
X92521328Y-86564690D01*
X92543865Y-86498555D01*
X92588917Y-86459516D01*
X92681610Y-86412287D01*
X92702770Y-86396913D01*
X92847213Y-86291971D01*
X92847215Y-86291968D01*
X92847219Y-86291966D01*
X92991966Y-86147219D01*
X92991968Y-86147215D01*
X92991971Y-86147213D01*
X93044732Y-86074590D01*
X93112287Y-85981610D01*
X93205220Y-85799219D01*
X93268477Y-85604534D01*
X93300500Y-85402352D01*
X93300500Y-85197648D01*
X93268477Y-84995466D01*
X93205220Y-84800781D01*
X93205218Y-84800778D01*
X93205218Y-84800776D01*
X93171503Y-84734607D01*
X93112287Y-84618390D01*
X93074684Y-84566633D01*
X92991971Y-84452786D01*
X92847213Y-84308028D01*
X92681614Y-84187715D01*
X92675006Y-84184348D01*
X92588917Y-84140483D01*
X92538123Y-84092511D01*
X92521328Y-84024690D01*
X92543865Y-83958555D01*
X92588917Y-83919516D01*
X92681610Y-83872287D01*
X92702770Y-83856913D01*
X92847213Y-83751971D01*
X92847215Y-83751968D01*
X92847219Y-83751966D01*
X92991966Y-83607219D01*
X92991968Y-83607215D01*
X92991971Y-83607213D01*
X93044732Y-83534590D01*
X93112287Y-83441610D01*
X93205220Y-83259219D01*
X93268477Y-83064534D01*
X93300500Y-82862352D01*
X93300500Y-82657648D01*
X93268477Y-82455466D01*
X93205220Y-82260781D01*
X93205218Y-82260778D01*
X93205218Y-82260776D01*
X93171503Y-82194607D01*
X93112287Y-82078390D01*
X93043815Y-81984145D01*
X92991971Y-81912786D01*
X92847213Y-81768028D01*
X92681614Y-81647715D01*
X92675006Y-81644348D01*
X92588917Y-81600483D01*
X92538123Y-81552511D01*
X92521328Y-81484690D01*
X92543865Y-81418555D01*
X92588917Y-81379516D01*
X92681610Y-81332287D01*
X92789704Y-81253753D01*
X92847213Y-81211971D01*
X92847215Y-81211968D01*
X92847219Y-81211966D01*
X92991966Y-81067219D01*
X92991968Y-81067215D01*
X92991971Y-81067213D01*
X93048025Y-80990060D01*
X93112287Y-80901610D01*
X93205220Y-80719219D01*
X93268477Y-80524534D01*
X93300500Y-80322352D01*
X93300500Y-80117648D01*
X93268477Y-79915466D01*
X93205220Y-79720781D01*
X93205218Y-79720778D01*
X93205218Y-79720776D01*
X93165952Y-79643713D01*
X93112287Y-79538390D01*
X93083164Y-79498305D01*
X92991971Y-79372786D01*
X92847213Y-79228028D01*
X92681614Y-79107715D01*
X92675006Y-79104348D01*
X92588917Y-79060483D01*
X92538123Y-79012511D01*
X92521328Y-78944690D01*
X92543865Y-78878555D01*
X92588917Y-78839516D01*
X92681610Y-78792287D01*
X92736495Y-78752411D01*
X92847213Y-78671971D01*
X92847215Y-78671968D01*
X92847219Y-78671966D01*
X92991966Y-78527219D01*
X92991968Y-78527215D01*
X92991971Y-78527213D01*
X93044732Y-78454590D01*
X93112287Y-78361610D01*
X93205220Y-78179219D01*
X93268477Y-77984534D01*
X93300500Y-77782352D01*
X93300500Y-77577648D01*
X93268477Y-77375466D01*
X93205220Y-77180781D01*
X93205218Y-77180778D01*
X93205218Y-77180776D01*
X93133378Y-77039784D01*
X93112287Y-76998390D01*
X93104556Y-76987749D01*
X92991971Y-76832786D01*
X92847213Y-76688028D01*
X92681614Y-76567715D01*
X92675006Y-76564348D01*
X92588917Y-76520483D01*
X92538123Y-76472511D01*
X92521328Y-76404690D01*
X92543865Y-76338555D01*
X92588917Y-76299516D01*
X92681610Y-76252287D01*
X92702770Y-76236913D01*
X92847213Y-76131971D01*
X92847215Y-76131968D01*
X92847219Y-76131966D01*
X92991966Y-75987219D01*
X92991968Y-75987215D01*
X92991971Y-75987213D01*
X93096196Y-75843757D01*
X93112287Y-75821610D01*
X93205220Y-75639219D01*
X93268477Y-75444534D01*
X93300500Y-75242352D01*
X93300500Y-75037648D01*
X93280036Y-74908443D01*
X93268477Y-74835465D01*
X93205218Y-74640776D01*
X93171503Y-74574607D01*
X93112287Y-74458390D01*
X93104556Y-74447749D01*
X92991971Y-74292786D01*
X92847213Y-74148028D01*
X92681614Y-74027715D01*
X92675006Y-74024348D01*
X92588917Y-73980483D01*
X92538123Y-73932511D01*
X92521328Y-73864690D01*
X92543865Y-73798555D01*
X92588917Y-73759516D01*
X92681610Y-73712287D01*
X92804050Y-73623330D01*
X92847213Y-73591971D01*
X92847215Y-73591968D01*
X92847219Y-73591966D01*
X92991966Y-73447219D01*
X92991968Y-73447215D01*
X92991971Y-73447213D01*
X93044732Y-73374590D01*
X93112287Y-73281610D01*
X93205220Y-73099219D01*
X93268477Y-72904534D01*
X93300500Y-72702352D01*
X93300500Y-72497648D01*
X93268477Y-72295466D01*
X93205220Y-72100781D01*
X93205218Y-72100778D01*
X93205218Y-72100776D01*
X93171503Y-72034607D01*
X93112287Y-71918390D01*
X93043815Y-71824145D01*
X92991971Y-71752786D01*
X92847213Y-71608028D01*
X92681614Y-71487715D01*
X92675006Y-71484348D01*
X92588917Y-71440483D01*
X92538123Y-71392511D01*
X92521328Y-71324690D01*
X92543865Y-71258555D01*
X92588917Y-71219516D01*
X92681610Y-71172287D01*
X92702770Y-71156913D01*
X92847213Y-71051971D01*
X92847215Y-71051968D01*
X92847219Y-71051966D01*
X92991966Y-70907219D01*
X92991968Y-70907215D01*
X92991971Y-70907213D01*
X93089748Y-70772632D01*
X93112287Y-70741610D01*
X93205220Y-70559219D01*
X93268477Y-70364534D01*
X93300500Y-70162352D01*
X93300500Y-69957648D01*
X93268477Y-69755466D01*
X93205220Y-69560781D01*
X93205218Y-69560778D01*
X93205218Y-69560776D01*
X93163755Y-69479402D01*
X93112287Y-69378390D01*
X93083913Y-69339336D01*
X92991971Y-69212786D01*
X92847213Y-69068028D01*
X92681614Y-68947715D01*
X92675006Y-68944348D01*
X92588917Y-68900483D01*
X92538123Y-68852511D01*
X92521328Y-68784690D01*
X92543865Y-68718555D01*
X92588917Y-68679516D01*
X92681610Y-68632287D01*
X92702770Y-68616913D01*
X92847213Y-68511971D01*
X92847215Y-68511968D01*
X92847219Y-68511966D01*
X92991966Y-68367219D01*
X92991968Y-68367215D01*
X92991971Y-68367213D01*
X93089746Y-68232635D01*
X93112287Y-68201610D01*
X93205220Y-68019219D01*
X93268477Y-67824534D01*
X93300500Y-67622352D01*
X93300500Y-67417648D01*
X93268477Y-67215465D01*
X93239127Y-67125137D01*
X93205220Y-67020781D01*
X93205218Y-67020778D01*
X93205218Y-67020776D01*
X93164154Y-66940185D01*
X93112287Y-66838390D01*
X93084244Y-66799792D01*
X92991971Y-66672786D01*
X92847213Y-66528028D01*
X92681614Y-66407715D01*
X92675006Y-66404348D01*
X92588917Y-66360483D01*
X92538123Y-66312511D01*
X92521328Y-66244690D01*
X92543865Y-66178555D01*
X92588917Y-66139516D01*
X92681610Y-66092287D01*
X92772452Y-66026287D01*
X92847213Y-65971971D01*
X92847215Y-65971968D01*
X92847219Y-65971966D01*
X92991966Y-65827219D01*
X92991968Y-65827215D01*
X92991971Y-65827213D01*
X93089748Y-65692632D01*
X93112287Y-65661610D01*
X93205220Y-65479219D01*
X93268477Y-65284534D01*
X93300500Y-65082352D01*
X93300500Y-64877648D01*
X93268477Y-64675465D01*
X93205218Y-64480776D01*
X93171503Y-64414607D01*
X93112287Y-64298390D01*
X93104556Y-64287749D01*
X92991971Y-64132786D01*
X92847213Y-63988028D01*
X92681614Y-63867715D01*
X92675006Y-63864348D01*
X92588917Y-63820483D01*
X92538123Y-63772511D01*
X92521328Y-63704690D01*
X92543865Y-63638555D01*
X92588917Y-63599516D01*
X92681610Y-63552287D01*
X92717398Y-63526286D01*
X92847213Y-63431971D01*
X92847215Y-63431968D01*
X92847219Y-63431966D01*
X92991966Y-63287219D01*
X92991968Y-63287215D01*
X92991971Y-63287213D01*
X93044732Y-63214590D01*
X93112287Y-63121610D01*
X93205220Y-62939219D01*
X93268477Y-62744534D01*
X93300500Y-62542352D01*
X93300500Y-62337648D01*
X93285913Y-62245550D01*
X93268477Y-62135465D01*
X93208249Y-61950103D01*
X93205220Y-61940781D01*
X93205218Y-61940778D01*
X93205218Y-61940776D01*
X93133379Y-61799786D01*
X93112287Y-61758390D01*
X93104556Y-61747749D01*
X92991971Y-61592786D01*
X92847213Y-61448028D01*
X92681614Y-61327715D01*
X92675006Y-61324348D01*
X92588917Y-61280483D01*
X92538123Y-61232511D01*
X92521328Y-61164690D01*
X92543865Y-61098555D01*
X92588917Y-61059516D01*
X92681610Y-61012287D01*
X92702770Y-60996913D01*
X92847213Y-60891971D01*
X92847215Y-60891968D01*
X92847219Y-60891966D01*
X92991966Y-60747219D01*
X92991968Y-60747215D01*
X92991971Y-60747213D01*
X93096196Y-60603757D01*
X93112287Y-60581610D01*
X93205220Y-60399219D01*
X93268477Y-60204534D01*
X93300500Y-60002352D01*
X93300500Y-59797648D01*
X105939500Y-59797648D01*
X105939500Y-60002351D01*
X105971522Y-60204534D01*
X106034781Y-60399223D01*
X106127715Y-60581613D01*
X106248028Y-60747213D01*
X106392786Y-60891971D01*
X106547749Y-61004556D01*
X106558390Y-61012287D01*
X106649840Y-61058883D01*
X106651080Y-61059515D01*
X106701876Y-61107490D01*
X106718671Y-61175311D01*
X106696134Y-61241446D01*
X106651080Y-61280485D01*
X106558386Y-61327715D01*
X106392786Y-61448028D01*
X106248028Y-61592786D01*
X106127715Y-61758386D01*
X106034781Y-61940776D01*
X105971522Y-62135465D01*
X105939500Y-62337648D01*
X105939500Y-62542351D01*
X105971522Y-62744534D01*
X106034781Y-62939223D01*
X106098691Y-63064653D01*
X106118616Y-63103757D01*
X106127715Y-63121613D01*
X106248028Y-63287213D01*
X106392786Y-63431971D01*
X106547749Y-63544556D01*
X106558390Y-63552287D01*
X106649840Y-63598883D01*
X106651080Y-63599515D01*
X106701876Y-63647490D01*
X106718671Y-63715311D01*
X106696134Y-63781446D01*
X106651080Y-63820485D01*
X106558386Y-63867715D01*
X106392786Y-63988028D01*
X106248028Y-64132786D01*
X106127715Y-64298386D01*
X106034781Y-64480776D01*
X105971522Y-64675465D01*
X105939500Y-64877648D01*
X105939500Y-65082351D01*
X105971522Y-65284534D01*
X106034781Y-65479223D01*
X106127715Y-65661613D01*
X106248028Y-65827213D01*
X106392786Y-65971971D01*
X106547749Y-66084556D01*
X106558390Y-66092287D01*
X106649840Y-66138883D01*
X106651080Y-66139515D01*
X106701876Y-66187490D01*
X106718671Y-66255311D01*
X106696134Y-66321446D01*
X106651080Y-66360485D01*
X106558386Y-66407715D01*
X106392786Y-66528028D01*
X106248028Y-66672786D01*
X106127715Y-66838386D01*
X106034781Y-67020776D01*
X105971522Y-67215465D01*
X105939500Y-67417648D01*
X105939500Y-67622351D01*
X105971522Y-67824534D01*
X106034781Y-68019223D01*
X106127715Y-68201613D01*
X106248028Y-68367213D01*
X106392786Y-68511971D01*
X106547749Y-68624556D01*
X106558390Y-68632287D01*
X106649840Y-68678883D01*
X106651080Y-68679515D01*
X106701876Y-68727490D01*
X106718671Y-68795311D01*
X106696134Y-68861446D01*
X106651080Y-68900485D01*
X106558386Y-68947715D01*
X106392786Y-69068028D01*
X106248028Y-69212786D01*
X106127715Y-69378386D01*
X106034781Y-69560776D01*
X105971522Y-69755465D01*
X105939500Y-69957648D01*
X105939500Y-70162351D01*
X105971522Y-70364534D01*
X106034781Y-70559223D01*
X106127715Y-70741613D01*
X106248028Y-70907213D01*
X106392786Y-71051971D01*
X106547749Y-71164556D01*
X106558390Y-71172287D01*
X106649840Y-71218883D01*
X106651080Y-71219515D01*
X106701876Y-71267490D01*
X106718671Y-71335311D01*
X106696134Y-71401446D01*
X106651080Y-71440485D01*
X106558386Y-71487715D01*
X106392786Y-71608028D01*
X106248028Y-71752786D01*
X106127715Y-71918386D01*
X106034781Y-72100776D01*
X105971522Y-72295465D01*
X105939500Y-72497648D01*
X105939500Y-72702351D01*
X105971522Y-72904534D01*
X106034781Y-73099223D01*
X106127715Y-73281613D01*
X106248028Y-73447213D01*
X106392786Y-73591971D01*
X106538490Y-73697829D01*
X106558390Y-73712287D01*
X106649840Y-73758883D01*
X106651080Y-73759515D01*
X106701876Y-73807490D01*
X106718671Y-73875311D01*
X106696134Y-73941446D01*
X106651080Y-73980485D01*
X106558386Y-74027715D01*
X106392786Y-74148028D01*
X106248028Y-74292786D01*
X106127715Y-74458386D01*
X106034781Y-74640776D01*
X105971522Y-74835465D01*
X105944679Y-75004949D01*
X105939500Y-75037648D01*
X105939500Y-75242352D01*
X105942786Y-75263098D01*
X105971522Y-75444534D01*
X106034781Y-75639223D01*
X106127715Y-75821613D01*
X106248028Y-75987213D01*
X106392786Y-76131971D01*
X106547749Y-76244556D01*
X106558390Y-76252287D01*
X106649840Y-76298883D01*
X106651080Y-76299515D01*
X106701876Y-76347490D01*
X106718671Y-76415311D01*
X106696134Y-76481446D01*
X106651080Y-76520485D01*
X106558386Y-76567715D01*
X106392786Y-76688028D01*
X106248028Y-76832786D01*
X106127715Y-76998386D01*
X106034781Y-77180776D01*
X105971522Y-77375465D01*
X105939500Y-77577648D01*
X105939500Y-77782351D01*
X105971522Y-77984534D01*
X106034781Y-78179223D01*
X106098691Y-78304653D01*
X106105381Y-78317782D01*
X106127715Y-78361613D01*
X106248028Y-78527213D01*
X106392786Y-78671971D01*
X106547749Y-78784556D01*
X106558390Y-78792287D01*
X106649840Y-78838883D01*
X106651080Y-78839515D01*
X106701876Y-78887490D01*
X106718671Y-78955311D01*
X106696134Y-79021446D01*
X106651080Y-79060485D01*
X106558386Y-79107715D01*
X106392786Y-79228028D01*
X106248028Y-79372786D01*
X106127715Y-79538386D01*
X106034781Y-79720776D01*
X105971522Y-79915465D01*
X105939500Y-80117648D01*
X105939500Y-80322351D01*
X105971522Y-80524534D01*
X106034781Y-80719223D01*
X106096190Y-80839742D01*
X106105405Y-80857829D01*
X106127715Y-80901613D01*
X106248028Y-81067213D01*
X106392786Y-81211971D01*
X106528342Y-81310456D01*
X106558390Y-81332287D01*
X106649840Y-81378883D01*
X106651080Y-81379515D01*
X106701876Y-81427490D01*
X106718671Y-81495311D01*
X106696134Y-81561446D01*
X106651080Y-81600485D01*
X106558386Y-81647715D01*
X106392786Y-81768028D01*
X106248028Y-81912786D01*
X106127715Y-82078386D01*
X106034781Y-82260776D01*
X105971522Y-82455465D01*
X105939500Y-82657648D01*
X105939500Y-82862351D01*
X105971522Y-83064534D01*
X106034781Y-83259223D01*
X106127715Y-83441613D01*
X106248028Y-83607213D01*
X106392786Y-83751971D01*
X106547749Y-83864556D01*
X106558390Y-83872287D01*
X106649840Y-83918883D01*
X106651080Y-83919515D01*
X106701876Y-83967490D01*
X106718671Y-84035311D01*
X106696134Y-84101446D01*
X106651080Y-84140485D01*
X106558386Y-84187715D01*
X106392786Y-84308028D01*
X106248028Y-84452786D01*
X106127715Y-84618386D01*
X106034781Y-84800776D01*
X105971522Y-84995465D01*
X105939500Y-85197648D01*
X105939500Y-85402351D01*
X105971522Y-85604534D01*
X106034781Y-85799223D01*
X106127715Y-85981613D01*
X106248028Y-86147213D01*
X106392786Y-86291971D01*
X106547749Y-86404556D01*
X106558390Y-86412287D01*
X106630424Y-86448990D01*
X106651629Y-86459795D01*
X106702425Y-86507770D01*
X106719220Y-86575591D01*
X106696682Y-86641726D01*
X106651629Y-86680765D01*
X106558650Y-86728140D01*
X106393105Y-86848417D01*
X106393104Y-86848417D01*
X106248417Y-86993104D01*
X106248417Y-86993105D01*
X106128140Y-87158650D01*
X106035244Y-87340970D01*
X105972009Y-87535586D01*
X105963391Y-87590000D01*
X106806988Y-87590000D01*
X106774075Y-87647007D01*
X106740000Y-87774174D01*
X106740000Y-87905826D01*
X106774075Y-88032993D01*
X106806988Y-88090000D01*
X105963391Y-88090000D01*
X105972009Y-88144413D01*
X106035244Y-88339029D01*
X106128140Y-88521349D01*
X106248417Y-88686894D01*
X106248417Y-88686895D01*
X106393104Y-88831582D01*
X106558652Y-88951861D01*
X106651628Y-88999234D01*
X106702425Y-89047208D01*
X106719220Y-89115029D01*
X106696683Y-89181164D01*
X106651630Y-89220203D01*
X106558388Y-89267713D01*
X106392786Y-89388028D01*
X106248028Y-89532786D01*
X106127715Y-89698386D01*
X106034781Y-89880776D01*
X105971522Y-90075465D01*
X105939500Y-90277648D01*
X105939500Y-90482351D01*
X105971522Y-90684534D01*
X106034781Y-90879223D01*
X106127715Y-91061613D01*
X106248028Y-91227213D01*
X106392786Y-91371971D01*
X106547749Y-91484556D01*
X106558390Y-91492287D01*
X106649840Y-91538883D01*
X106651080Y-91539515D01*
X106701876Y-91587490D01*
X106718671Y-91655311D01*
X106696134Y-91721446D01*
X106651080Y-91760485D01*
X106558386Y-91807715D01*
X106392786Y-91928028D01*
X106248028Y-92072786D01*
X106127715Y-92238386D01*
X106034781Y-92420776D01*
X105971522Y-92615465D01*
X105939500Y-92817648D01*
X105939500Y-93022351D01*
X105971522Y-93224534D01*
X106034781Y-93419223D01*
X106127715Y-93601613D01*
X106248028Y-93767213D01*
X106392784Y-93911969D01*
X106429068Y-93938330D01*
X106471735Y-93993659D01*
X106477715Y-94063273D01*
X106445109Y-94125068D01*
X106384271Y-94159426D01*
X106369440Y-94161938D01*
X106332519Y-94165907D01*
X106197671Y-94216202D01*
X106197664Y-94216206D01*
X106082455Y-94302452D01*
X106082452Y-94302455D01*
X105996206Y-94417664D01*
X105996202Y-94417671D01*
X105945908Y-94552517D01*
X105939501Y-94612116D01*
X105939501Y-94612123D01*
X105939500Y-94612135D01*
X105939500Y-96307870D01*
X105939501Y-96307876D01*
X105945908Y-96367483D01*
X105996202Y-96502328D01*
X105996206Y-96502335D01*
X106082452Y-96617544D01*
X106082455Y-96617547D01*
X106197664Y-96703793D01*
X106197671Y-96703797D01*
X106332517Y-96754091D01*
X106332516Y-96754091D01*
X106339444Y-96754835D01*
X106392127Y-96760500D01*
X106643993Y-96760499D01*
X106711030Y-96780183D01*
X106756785Y-96832987D01*
X106766729Y-96902146D01*
X106737704Y-96965701D01*
X106700288Y-96994983D01*
X106642244Y-97024558D01*
X106497019Y-97130069D01*
X106370069Y-97257019D01*
X106264559Y-97402244D01*
X106183055Y-97562202D01*
X106127583Y-97732930D01*
X106099500Y-97910241D01*
X106099500Y-98089758D01*
X106127583Y-98267069D01*
X106183055Y-98437797D01*
X106264559Y-98597755D01*
X106370069Y-98742980D01*
X106497019Y-98869930D01*
X106595712Y-98941633D01*
X106642248Y-98975443D01*
X106802200Y-99056943D01*
X106802202Y-99056944D01*
X106887566Y-99084680D01*
X106972932Y-99112417D01*
X107150241Y-99140500D01*
X107150242Y-99140500D01*
X107329758Y-99140500D01*
X107329759Y-99140500D01*
X107507068Y-99112417D01*
X107677800Y-99056943D01*
X107837752Y-98975443D01*
X107976560Y-98874594D01*
X107982980Y-98869930D01*
X107982982Y-98869927D01*
X107982986Y-98869925D01*
X108109925Y-98742986D01*
X108109927Y-98742982D01*
X108109930Y-98742980D01*
X108156200Y-98679293D01*
X108215443Y-98597752D01*
X108296943Y-98437800D01*
X108352417Y-98267068D01*
X108380500Y-98089759D01*
X108380500Y-97910241D01*
X108352417Y-97732932D01*
X108296943Y-97562200D01*
X108215443Y-97402248D01*
X108184359Y-97359464D01*
X108109930Y-97257019D01*
X107982980Y-97130069D01*
X107837755Y-97024559D01*
X107837754Y-97024558D01*
X107837752Y-97024557D01*
X107779712Y-96994984D01*
X107728916Y-96947009D01*
X107712121Y-96879188D01*
X107734659Y-96813053D01*
X107789374Y-96769602D01*
X107836006Y-96760499D01*
X108087872Y-96760499D01*
X108147483Y-96754091D01*
X108282331Y-96703796D01*
X108397546Y-96617546D01*
X108483796Y-96502331D01*
X108534091Y-96367483D01*
X108540500Y-96307873D01*
X108540499Y-94612128D01*
X108534091Y-94552517D01*
X108483796Y-94417669D01*
X108483795Y-94417668D01*
X108483793Y-94417664D01*
X108397547Y-94302455D01*
X108397544Y-94302452D01*
X108282335Y-94216206D01*
X108282328Y-94216202D01*
X108147482Y-94165908D01*
X108147483Y-94165908D01*
X108110560Y-94161939D01*
X108046009Y-94135201D01*
X108006160Y-94077809D01*
X108003667Y-94007984D01*
X108039319Y-93947895D01*
X108050930Y-93938331D01*
X108087219Y-93911966D01*
X108231966Y-93767219D01*
X108231968Y-93767215D01*
X108231971Y-93767213D01*
X108284732Y-93694590D01*
X108352287Y-93601610D01*
X108445220Y-93419219D01*
X108508477Y-93224534D01*
X108540500Y-93022352D01*
X108540500Y-92817648D01*
X108519643Y-92685966D01*
X108508477Y-92615465D01*
X108445218Y-92420776D01*
X108352419Y-92238650D01*
X108352287Y-92238390D01*
X108344556Y-92227749D01*
X108231971Y-92072786D01*
X108087213Y-91928028D01*
X107921614Y-91807715D01*
X107915006Y-91804348D01*
X107828917Y-91760483D01*
X107778123Y-91712511D01*
X107761328Y-91644690D01*
X107783865Y-91578555D01*
X107828917Y-91539516D01*
X107921610Y-91492287D01*
X107942770Y-91476913D01*
X108087213Y-91371971D01*
X108087215Y-91371968D01*
X108087219Y-91371966D01*
X108231966Y-91227219D01*
X108231968Y-91227215D01*
X108231971Y-91227213D01*
X108284732Y-91154590D01*
X108352287Y-91061610D01*
X108445220Y-90879219D01*
X108508477Y-90684534D01*
X108540500Y-90482352D01*
X108540500Y-90277648D01*
X108529865Y-90210500D01*
X108508477Y-90075465D01*
X108460776Y-89928657D01*
X108445220Y-89880781D01*
X108445218Y-89880778D01*
X108445218Y-89880776D01*
X108393530Y-89779334D01*
X108352287Y-89698390D01*
X108344556Y-89687749D01*
X108231971Y-89532786D01*
X108087213Y-89388028D01*
X107921611Y-89267713D01*
X107828369Y-89220203D01*
X107777574Y-89172229D01*
X107760779Y-89104407D01*
X107783317Y-89038273D01*
X107828371Y-88999234D01*
X107921347Y-88951861D01*
X108086894Y-88831582D01*
X108086895Y-88831582D01*
X108231582Y-88686895D01*
X108231582Y-88686894D01*
X108351859Y-88521349D01*
X108444755Y-88339029D01*
X108507990Y-88144413D01*
X108516609Y-88090000D01*
X107673012Y-88090000D01*
X107705925Y-88032993D01*
X107740000Y-87905826D01*
X107740000Y-87774174D01*
X107705925Y-87647007D01*
X107673012Y-87590000D01*
X108516609Y-87590000D01*
X108507990Y-87535586D01*
X108444755Y-87340970D01*
X108351859Y-87158650D01*
X108231582Y-86993105D01*
X108231582Y-86993104D01*
X108086895Y-86848417D01*
X107921349Y-86728140D01*
X107828370Y-86680765D01*
X107777574Y-86632790D01*
X107760779Y-86564969D01*
X107783316Y-86498835D01*
X107828370Y-86459795D01*
X107828920Y-86459515D01*
X107921610Y-86412287D01*
X107942770Y-86396913D01*
X108087213Y-86291971D01*
X108087215Y-86291968D01*
X108087219Y-86291966D01*
X108125472Y-86253713D01*
X153439500Y-86253713D01*
X153439500Y-86466286D01*
X153467242Y-86641446D01*
X153472754Y-86676243D01*
X153489616Y-86728140D01*
X153538444Y-86878414D01*
X153634951Y-87067820D01*
X153759890Y-87239786D01*
X153898705Y-87378601D01*
X153932190Y-87439924D01*
X153927206Y-87509616D01*
X153885334Y-87565549D01*
X153876121Y-87571821D01*
X153721342Y-87667289D01*
X153597289Y-87791342D01*
X153505187Y-87940663D01*
X153505185Y-87940668D01*
X153504627Y-87942352D01*
X153450001Y-88107203D01*
X153450001Y-88107204D01*
X153450000Y-88107204D01*
X153439500Y-88209983D01*
X153439500Y-89510001D01*
X153439501Y-89510018D01*
X153450000Y-89612796D01*
X153450001Y-89612799D01*
X153505185Y-89779331D01*
X153505186Y-89779334D01*
X153597288Y-89928656D01*
X153721344Y-90052712D01*
X153870666Y-90144814D01*
X154037203Y-90199999D01*
X154139991Y-90210500D01*
X155740008Y-90210499D01*
X155842797Y-90199999D01*
X156009334Y-90144814D01*
X156158656Y-90052712D01*
X156282712Y-89928656D01*
X156374814Y-89779334D01*
X156429999Y-89612797D01*
X156440500Y-89510009D01*
X156440499Y-88209992D01*
X156429999Y-88107203D01*
X156374814Y-87940666D01*
X156282712Y-87791344D01*
X156158656Y-87667288D01*
X156009334Y-87575186D01*
X156009333Y-87575185D01*
X156003878Y-87571821D01*
X155957154Y-87519873D01*
X155945931Y-87450910D01*
X155973775Y-87386828D01*
X155981272Y-87378623D01*
X156120104Y-87239792D01*
X156245051Y-87067816D01*
X156341557Y-86878412D01*
X156407246Y-86676243D01*
X156440500Y-86466287D01*
X156440500Y-86253713D01*
X156407246Y-86043757D01*
X156341557Y-85841588D01*
X156245051Y-85652184D01*
X156245049Y-85652181D01*
X156245048Y-85652179D01*
X156120109Y-85480213D01*
X155969786Y-85329890D01*
X155797820Y-85204951D01*
X155608414Y-85108444D01*
X155608413Y-85108443D01*
X155608412Y-85108443D01*
X155406243Y-85042754D01*
X155406241Y-85042753D01*
X155406240Y-85042753D01*
X155244957Y-85017208D01*
X155196287Y-85009500D01*
X154683713Y-85009500D01*
X154635042Y-85017208D01*
X154473760Y-85042753D01*
X154271585Y-85108444D01*
X154082179Y-85204951D01*
X153910213Y-85329890D01*
X153759890Y-85480213D01*
X153634951Y-85652179D01*
X153538444Y-85841585D01*
X153472753Y-86043760D01*
X153439500Y-86253713D01*
X108125472Y-86253713D01*
X108231966Y-86147219D01*
X108231968Y-86147215D01*
X108231971Y-86147213D01*
X108284732Y-86074590D01*
X108352287Y-85981610D01*
X108445220Y-85799219D01*
X108508477Y-85604534D01*
X108540500Y-85402352D01*
X108540500Y-85197648D01*
X108508477Y-84995466D01*
X108445220Y-84800781D01*
X108445218Y-84800778D01*
X108445218Y-84800776D01*
X108411503Y-84734607D01*
X108352287Y-84618390D01*
X108314684Y-84566633D01*
X108231971Y-84452786D01*
X108087213Y-84308028D01*
X107921614Y-84187715D01*
X107915006Y-84184348D01*
X107828917Y-84140483D01*
X107778123Y-84092511D01*
X107761328Y-84024690D01*
X107783865Y-83958555D01*
X107828917Y-83919516D01*
X107921610Y-83872287D01*
X107942770Y-83856913D01*
X108087213Y-83751971D01*
X108087215Y-83751968D01*
X108087219Y-83751966D01*
X108167366Y-83671819D01*
X108228689Y-83638334D01*
X108255047Y-83635500D01*
X117093194Y-83635500D01*
X117160233Y-83655185D01*
X117180875Y-83671819D01*
X118669497Y-85160442D01*
X118669501Y-85160445D01*
X118812888Y-85256254D01*
X118812901Y-85256261D01*
X118972221Y-85322253D01*
X118972226Y-85322255D01*
X119141366Y-85355899D01*
X119141369Y-85355900D01*
X119141371Y-85355900D01*
X119313831Y-85355900D01*
X119313832Y-85355899D01*
X119482974Y-85322255D01*
X119642305Y-85256258D01*
X119785699Y-85160445D01*
X119907645Y-85038499D01*
X120003458Y-84895105D01*
X120069455Y-84735774D01*
X120103100Y-84566629D01*
X120103100Y-84394171D01*
X120103100Y-84394168D01*
X120103099Y-84394166D01*
X120069456Y-84225033D01*
X120069455Y-84225026D01*
X120054000Y-84187715D01*
X120003461Y-84065701D01*
X120003454Y-84065688D01*
X119907645Y-83922301D01*
X119907642Y-83922297D01*
X118065302Y-82079957D01*
X118065298Y-82079954D01*
X117921911Y-81984145D01*
X117921898Y-81984138D01*
X117762578Y-81918146D01*
X117762566Y-81918143D01*
X117593432Y-81884500D01*
X117593429Y-81884500D01*
X108255047Y-81884500D01*
X108188008Y-81864815D01*
X108167366Y-81848181D01*
X108087213Y-81768028D01*
X107921614Y-81647715D01*
X107915006Y-81644348D01*
X107828917Y-81600483D01*
X107778123Y-81552511D01*
X107761328Y-81484690D01*
X107783865Y-81418555D01*
X107828917Y-81379516D01*
X107921610Y-81332287D01*
X108042877Y-81244181D01*
X108108683Y-81220702D01*
X108115762Y-81220500D01*
X114366342Y-81220500D01*
X114397366Y-81214328D01*
X114462988Y-81201275D01*
X114559636Y-81182051D01*
X114612965Y-81159961D01*
X114741714Y-81106632D01*
X114905582Y-80997139D01*
X115044939Y-80857782D01*
X115044940Y-80857779D01*
X115052006Y-80850714D01*
X115052009Y-80850710D01*
X116840628Y-79062091D01*
X120818324Y-79062091D01*
X120818324Y-80857826D01*
X120818325Y-80857832D01*
X120824732Y-80917439D01*
X120875026Y-81052284D01*
X120875030Y-81052291D01*
X120961276Y-81167500D01*
X120961279Y-81167503D01*
X121076488Y-81253749D01*
X121076495Y-81253753D01*
X121211341Y-81304047D01*
X121211340Y-81304047D01*
X121218268Y-81304791D01*
X121270951Y-81310456D01*
X123066696Y-81310455D01*
X123126307Y-81304047D01*
X123261155Y-81253752D01*
X123376370Y-81167502D01*
X123462620Y-81052287D01*
X123511634Y-80920872D01*
X123553505Y-80864940D01*
X123618969Y-80840522D01*
X123687242Y-80855373D01*
X123715497Y-80876525D01*
X123829037Y-80990065D01*
X124001003Y-81115004D01*
X124001005Y-81115005D01*
X124001008Y-81115007D01*
X124190412Y-81211513D01*
X124392581Y-81277202D01*
X124602537Y-81310456D01*
X124602538Y-81310456D01*
X124815110Y-81310456D01*
X124815111Y-81310456D01*
X125025067Y-81277202D01*
X125227236Y-81211513D01*
X125416640Y-81115007D01*
X125482415Y-81067219D01*
X125588610Y-80990065D01*
X125588612Y-80990062D01*
X125588616Y-80990060D01*
X125738928Y-80839748D01*
X125738930Y-80839744D01*
X125738933Y-80839742D01*
X125863872Y-80667776D01*
X125863871Y-80667776D01*
X125863875Y-80667772D01*
X125868338Y-80659010D01*
X125916312Y-80608215D01*
X125984132Y-80591419D01*
X126050268Y-80613955D01*
X126089310Y-80659012D01*
X126093775Y-80667776D01*
X126218714Y-80839742D01*
X126369037Y-80990065D01*
X126541003Y-81115004D01*
X126541005Y-81115005D01*
X126541008Y-81115007D01*
X126730412Y-81211513D01*
X126932581Y-81277202D01*
X127142537Y-81310456D01*
X127142538Y-81310456D01*
X127355110Y-81310456D01*
X127355111Y-81310456D01*
X127565067Y-81277202D01*
X127767236Y-81211513D01*
X127956640Y-81115007D01*
X128022415Y-81067219D01*
X128128610Y-80990065D01*
X128128612Y-80990062D01*
X128128616Y-80990060D01*
X128278928Y-80839748D01*
X128278930Y-80839744D01*
X128278933Y-80839742D01*
X128403872Y-80667776D01*
X128403871Y-80667776D01*
X128403875Y-80667772D01*
X128408338Y-80659010D01*
X128456312Y-80608215D01*
X128524132Y-80591419D01*
X128590268Y-80613955D01*
X128629310Y-80659012D01*
X128633775Y-80667776D01*
X128758714Y-80839742D01*
X128909037Y-80990065D01*
X129081003Y-81115004D01*
X129081005Y-81115005D01*
X129081008Y-81115007D01*
X129270412Y-81211513D01*
X129472581Y-81277202D01*
X129682537Y-81310456D01*
X129682538Y-81310456D01*
X129895110Y-81310456D01*
X129895111Y-81310456D01*
X130105067Y-81277202D01*
X130307236Y-81211513D01*
X130496640Y-81115007D01*
X130562415Y-81067219D01*
X130668610Y-80990065D01*
X130668612Y-80990062D01*
X130668616Y-80990060D01*
X130818928Y-80839748D01*
X130818930Y-80839744D01*
X130818933Y-80839742D01*
X130943872Y-80667776D01*
X130943871Y-80667776D01*
X130943875Y-80667772D01*
X130948338Y-80659010D01*
X130996312Y-80608215D01*
X131064132Y-80591419D01*
X131130268Y-80613955D01*
X131169310Y-80659012D01*
X131173775Y-80667776D01*
X131298714Y-80839742D01*
X131449037Y-80990065D01*
X131621003Y-81115004D01*
X131621005Y-81115005D01*
X131621008Y-81115007D01*
X131810412Y-81211513D01*
X132012581Y-81277202D01*
X132222537Y-81310456D01*
X132222538Y-81310456D01*
X132435110Y-81310456D01*
X132435111Y-81310456D01*
X132645067Y-81277202D01*
X132847236Y-81211513D01*
X133036640Y-81115007D01*
X133102415Y-81067219D01*
X133208610Y-80990065D01*
X133208612Y-80990062D01*
X133208616Y-80990060D01*
X133358928Y-80839748D01*
X133358930Y-80839744D01*
X133358933Y-80839742D01*
X133483872Y-80667776D01*
X133483871Y-80667776D01*
X133483875Y-80667772D01*
X133488338Y-80659010D01*
X133536312Y-80608215D01*
X133604132Y-80591419D01*
X133670268Y-80613955D01*
X133709310Y-80659012D01*
X133713775Y-80667776D01*
X133838714Y-80839742D01*
X133989037Y-80990065D01*
X134161003Y-81115004D01*
X134161005Y-81115005D01*
X134161008Y-81115007D01*
X134350412Y-81211513D01*
X134552581Y-81277202D01*
X134762537Y-81310456D01*
X134762538Y-81310456D01*
X134975110Y-81310456D01*
X134975111Y-81310456D01*
X135185067Y-81277202D01*
X135387236Y-81211513D01*
X135576640Y-81115007D01*
X135642415Y-81067219D01*
X135748610Y-80990065D01*
X135748612Y-80990062D01*
X135748616Y-80990060D01*
X135898928Y-80839748D01*
X135898930Y-80839744D01*
X135898933Y-80839742D01*
X136023872Y-80667776D01*
X136023871Y-80667776D01*
X136023875Y-80667772D01*
X136120381Y-80478368D01*
X136186070Y-80276199D01*
X136219324Y-80066243D01*
X136219324Y-79853669D01*
X136186070Y-79643713D01*
X136120381Y-79441544D01*
X136023875Y-79252140D01*
X136023873Y-79252137D01*
X136023872Y-79252135D01*
X135896065Y-79076222D01*
X135896932Y-79075591D01*
X135870465Y-79016537D01*
X135869324Y-78999756D01*
X135869324Y-76053713D01*
X153439500Y-76053713D01*
X153439500Y-76266287D01*
X153472754Y-76476243D01*
X153532400Y-76659815D01*
X153538444Y-76678414D01*
X153634951Y-76867820D01*
X153759890Y-77039786D01*
X153898705Y-77178601D01*
X153932190Y-77239924D01*
X153927206Y-77309616D01*
X153885334Y-77365549D01*
X153876121Y-77371821D01*
X153721342Y-77467289D01*
X153597289Y-77591342D01*
X153505187Y-77740663D01*
X153505185Y-77740668D01*
X153477349Y-77824670D01*
X153450001Y-77907203D01*
X153450001Y-77907204D01*
X153450000Y-77907204D01*
X153439500Y-78009983D01*
X153439500Y-79310001D01*
X153439501Y-79310018D01*
X153450000Y-79412796D01*
X153450001Y-79412799D01*
X153491617Y-79538386D01*
X153505186Y-79579334D01*
X153597288Y-79728656D01*
X153721344Y-79852712D01*
X153870666Y-79944814D01*
X154037203Y-79999999D01*
X154139991Y-80010500D01*
X155740008Y-80010499D01*
X155842797Y-79999999D01*
X156009334Y-79944814D01*
X156158656Y-79852712D01*
X156282712Y-79728656D01*
X156374814Y-79579334D01*
X156429999Y-79412797D01*
X156440500Y-79310009D01*
X156440499Y-78009992D01*
X156437898Y-77984534D01*
X156429999Y-77907203D01*
X156429998Y-77907200D01*
X156388627Y-77782351D01*
X156374814Y-77740666D01*
X156282712Y-77591344D01*
X156158656Y-77467288D01*
X156009334Y-77375186D01*
X156009333Y-77375185D01*
X156003878Y-77371821D01*
X155957154Y-77319873D01*
X155945931Y-77250910D01*
X155973775Y-77186828D01*
X155981272Y-77178623D01*
X156120104Y-77039792D01*
X156245051Y-76867816D01*
X156341557Y-76678412D01*
X156407246Y-76476243D01*
X156440500Y-76266287D01*
X156440500Y-76053713D01*
X156407246Y-75843757D01*
X156341557Y-75641588D01*
X156245051Y-75452184D01*
X156245049Y-75452181D01*
X156245048Y-75452179D01*
X156120109Y-75280213D01*
X155969786Y-75129890D01*
X155797820Y-75004951D01*
X155608414Y-74908444D01*
X155608413Y-74908443D01*
X155608412Y-74908443D01*
X155406243Y-74842754D01*
X155406241Y-74842753D01*
X155406240Y-74842753D01*
X155244957Y-74817208D01*
X155196287Y-74809500D01*
X154683713Y-74809500D01*
X154635042Y-74817208D01*
X154473760Y-74842753D01*
X154271585Y-74908444D01*
X154082179Y-75004951D01*
X153910213Y-75129890D01*
X153759890Y-75280213D01*
X153634951Y-75452179D01*
X153538444Y-75641585D01*
X153472753Y-75843760D01*
X153450032Y-75987219D01*
X153439500Y-76053713D01*
X135869324Y-76053713D01*
X135869324Y-71336958D01*
X135889009Y-71269919D01*
X135905643Y-71249277D01*
X137698102Y-69456819D01*
X137759425Y-69423334D01*
X137785783Y-69420500D01*
X153511042Y-69420500D01*
X153578081Y-69440185D01*
X153616580Y-69479402D01*
X153622288Y-69488656D01*
X153746344Y-69612712D01*
X153895666Y-69704814D01*
X154062203Y-69759999D01*
X154164991Y-69770500D01*
X155715008Y-69770499D01*
X155817797Y-69759999D01*
X155984334Y-69704814D01*
X156133656Y-69612712D01*
X156257712Y-69488656D01*
X156349814Y-69339334D01*
X156404999Y-69172797D01*
X156415500Y-69070009D01*
X156415499Y-67769992D01*
X156404999Y-67667203D01*
X156349814Y-67500666D01*
X156257712Y-67351344D01*
X156133656Y-67227288D01*
X155984334Y-67135186D01*
X155984333Y-67135185D01*
X155978878Y-67131821D01*
X155932154Y-67079873D01*
X155920931Y-67010910D01*
X155948775Y-66946828D01*
X155956272Y-66938623D01*
X156095104Y-66799792D01*
X156117224Y-66769347D01*
X156220048Y-66627820D01*
X156220047Y-66627820D01*
X156220051Y-66627816D01*
X156316557Y-66438412D01*
X156382246Y-66236243D01*
X156415500Y-66026287D01*
X156415500Y-65813713D01*
X156382246Y-65603757D01*
X156316557Y-65401588D01*
X156220051Y-65212184D01*
X156220049Y-65212181D01*
X156220048Y-65212179D01*
X156095109Y-65040213D01*
X155944792Y-64889896D01*
X155927934Y-64877648D01*
X155780204Y-64770316D01*
X155737540Y-64714989D01*
X155731561Y-64645376D01*
X155764166Y-64583580D01*
X155780199Y-64569686D01*
X155944792Y-64450104D01*
X156095104Y-64299792D01*
X156095106Y-64299788D01*
X156095109Y-64299786D01*
X156220048Y-64127820D01*
X156220047Y-64127820D01*
X156220051Y-64127816D01*
X156316557Y-63938412D01*
X156382246Y-63736243D01*
X156415500Y-63526287D01*
X156415500Y-63313713D01*
X156382246Y-63103757D01*
X156316557Y-62901588D01*
X156220051Y-62712184D01*
X156220049Y-62712181D01*
X156220048Y-62712179D01*
X156095109Y-62540213D01*
X155944792Y-62389896D01*
X155872878Y-62337648D01*
X155780204Y-62270316D01*
X155737540Y-62214989D01*
X155731561Y-62145376D01*
X155764166Y-62083580D01*
X155780199Y-62069686D01*
X155944792Y-61950104D01*
X156095104Y-61799792D01*
X156095106Y-61799788D01*
X156095109Y-61799786D01*
X156220048Y-61627820D01*
X156220047Y-61627820D01*
X156220051Y-61627816D01*
X156316557Y-61438412D01*
X156382246Y-61236243D01*
X156415500Y-61026287D01*
X156415500Y-60813713D01*
X156382246Y-60603757D01*
X156316557Y-60401588D01*
X156220051Y-60212184D01*
X156220049Y-60212181D01*
X156220048Y-60212179D01*
X156095109Y-60040213D01*
X155944786Y-59889890D01*
X155772820Y-59764951D01*
X155583414Y-59668444D01*
X155583413Y-59668443D01*
X155583412Y-59668443D01*
X155381243Y-59602754D01*
X155381241Y-59602753D01*
X155381240Y-59602753D01*
X155219957Y-59577208D01*
X155171287Y-59569500D01*
X154708713Y-59569500D01*
X154660042Y-59577208D01*
X154498760Y-59602753D01*
X154296585Y-59668444D01*
X154107179Y-59764951D01*
X153931266Y-59892759D01*
X153930635Y-59891891D01*
X153871581Y-59918359D01*
X153854800Y-59919500D01*
X132021455Y-59919500D01*
X131924812Y-59938724D01*
X131828167Y-59957947D01*
X131828161Y-59957949D01*
X131774834Y-59980037D01*
X131774834Y-59980038D01*
X131729315Y-59998892D01*
X131646089Y-60033366D01*
X131646079Y-60033371D01*
X131482219Y-60142859D01*
X131420545Y-60204534D01*
X131342861Y-60282218D01*
X131342858Y-60282221D01*
X126611045Y-65014034D01*
X126611042Y-65014037D01*
X126542728Y-65082351D01*
X126471683Y-65153395D01*
X126362195Y-65317255D01*
X126362190Y-65317265D01*
X126308862Y-65446007D01*
X126308863Y-65446008D01*
X126295110Y-65479214D01*
X126295108Y-65479218D01*
X126286774Y-65499337D01*
X126286771Y-65499345D01*
X126248324Y-65692632D01*
X126248324Y-78999756D01*
X126228639Y-79066795D01*
X126219330Y-79079321D01*
X126093773Y-79252138D01*
X126089308Y-79260902D01*
X126041333Y-79311698D01*
X125973512Y-79328492D01*
X125907377Y-79305954D01*
X125868340Y-79260902D01*
X125863874Y-79252138D01*
X125738933Y-79080169D01*
X125588610Y-78929846D01*
X125416644Y-78804907D01*
X125227238Y-78708400D01*
X125227237Y-78708399D01*
X125227236Y-78708399D01*
X125025067Y-78642710D01*
X125025065Y-78642709D01*
X125025064Y-78642709D01*
X124863781Y-78617164D01*
X124815111Y-78609456D01*
X124602537Y-78609456D01*
X124553866Y-78617164D01*
X124392584Y-78642709D01*
X124190409Y-78708400D01*
X124001003Y-78804907D01*
X123829039Y-78929845D01*
X123715497Y-79043387D01*
X123654174Y-79076871D01*
X123584482Y-79071887D01*
X123528549Y-79030015D01*
X123511634Y-78999038D01*
X123462621Y-78867627D01*
X123462617Y-78867620D01*
X123376371Y-78752411D01*
X123376368Y-78752408D01*
X123261159Y-78666162D01*
X123261152Y-78666158D01*
X123126306Y-78615864D01*
X123126307Y-78615864D01*
X123066707Y-78609457D01*
X123066705Y-78609456D01*
X123066697Y-78609456D01*
X123066688Y-78609456D01*
X121270953Y-78609456D01*
X121270947Y-78609457D01*
X121211340Y-78615864D01*
X121076495Y-78666158D01*
X121076488Y-78666162D01*
X120961279Y-78752408D01*
X120961276Y-78752411D01*
X120875030Y-78867620D01*
X120875026Y-78867627D01*
X120824732Y-79002473D01*
X120818325Y-79062072D01*
X120818324Y-79062091D01*
X116840628Y-79062091D01*
X121719578Y-74183141D01*
X121719582Y-74183139D01*
X121858939Y-74043782D01*
X121968432Y-73879914D01*
X121972539Y-73870000D01*
X122002132Y-73798555D01*
X122043851Y-73697835D01*
X122064910Y-73591966D01*
X122082300Y-73504543D01*
X122082300Y-65667581D01*
X122101985Y-65600542D01*
X122118614Y-65579905D01*
X127886602Y-59811917D01*
X127886606Y-59811915D01*
X128025963Y-59672558D01*
X128135456Y-59508690D01*
X128188785Y-59379941D01*
X128210875Y-59326612D01*
X128249324Y-59133316D01*
X128249324Y-58936236D01*
X128249324Y-55520155D01*
X128269009Y-55453116D01*
X128278295Y-55440620D01*
X128403872Y-55267776D01*
X128403871Y-55267776D01*
X128403875Y-55267772D01*
X128408338Y-55259010D01*
X128456312Y-55208215D01*
X128524132Y-55191419D01*
X128590268Y-55213955D01*
X128629310Y-55259012D01*
X128633775Y-55267776D01*
X128758714Y-55439742D01*
X128909037Y-55590065D01*
X129081003Y-55715004D01*
X129081005Y-55715005D01*
X129081008Y-55715007D01*
X129270412Y-55811513D01*
X129472581Y-55877202D01*
X129682537Y-55910456D01*
X129682538Y-55910456D01*
X129895110Y-55910456D01*
X129895111Y-55910456D01*
X130105067Y-55877202D01*
X130307236Y-55811513D01*
X130496640Y-55715007D01*
X130582966Y-55652288D01*
X130668610Y-55590065D01*
X130668612Y-55590062D01*
X130668616Y-55590060D01*
X130818928Y-55439748D01*
X130818930Y-55439744D01*
X130818933Y-55439742D01*
X130904714Y-55321673D01*
X130943875Y-55267772D01*
X130948617Y-55258464D01*
X130996587Y-55207667D01*
X131064407Y-55190867D01*
X131130543Y-55213401D01*
X131169587Y-55258456D01*
X131174197Y-55267503D01*
X131213552Y-55321672D01*
X131845861Y-54689364D01*
X131862899Y-54752949D01*
X131928725Y-54866963D01*
X132021817Y-54960055D01*
X132135831Y-55025881D01*
X132199414Y-55042918D01*
X131567106Y-55675225D01*
X131567106Y-55675226D01*
X131621273Y-55714580D01*
X131810606Y-55811051D01*
X132012694Y-55876713D01*
X132222578Y-55909956D01*
X132435070Y-55909956D01*
X132644951Y-55876713D01*
X132644954Y-55876713D01*
X132847041Y-55811051D01*
X133036378Y-55714578D01*
X133090540Y-55675226D01*
X133090541Y-55675226D01*
X132458232Y-55042918D01*
X132521817Y-55025881D01*
X132635831Y-54960055D01*
X132728923Y-54866963D01*
X132794749Y-54752949D01*
X132811786Y-54689365D01*
X133444094Y-55321673D01*
X133444094Y-55321672D01*
X133483446Y-55267510D01*
X133579919Y-55078173D01*
X133645581Y-54876086D01*
X133645581Y-54876083D01*
X133678824Y-54666202D01*
X133678824Y-54453709D01*
X133645581Y-54243828D01*
X133645581Y-54243825D01*
X133579919Y-54041738D01*
X133483448Y-53852405D01*
X133444094Y-53798238D01*
X133444093Y-53798238D01*
X132811786Y-54430546D01*
X132794749Y-54366963D01*
X132728923Y-54252949D01*
X132635831Y-54159857D01*
X132521817Y-54094031D01*
X132458233Y-54076993D01*
X133090540Y-53444684D01*
X133036374Y-53405331D01*
X132847041Y-53308860D01*
X132644953Y-53243198D01*
X132435070Y-53209956D01*
X132222578Y-53209956D01*
X132012696Y-53243198D01*
X132012693Y-53243198D01*
X131810606Y-53308860D01*
X131621263Y-53405336D01*
X131567106Y-53444683D01*
X131567106Y-53444684D01*
X132199415Y-54076993D01*
X132135831Y-54094031D01*
X132021817Y-54159857D01*
X131928725Y-54252949D01*
X131862899Y-54366963D01*
X131845861Y-54430547D01*
X131213552Y-53798238D01*
X131213551Y-53798238D01*
X131174204Y-53852396D01*
X131174200Y-53852402D01*
X131169584Y-53861461D01*
X131121605Y-53912253D01*
X131053783Y-53929043D01*
X130987650Y-53906499D01*
X130948618Y-53861449D01*
X130943875Y-53852140D01*
X130943873Y-53852137D01*
X130943872Y-53852135D01*
X130818933Y-53680169D01*
X130668610Y-53529846D01*
X130496643Y-53404907D01*
X130496642Y-53404906D01*
X130496640Y-53404905D01*
X130389739Y-53350436D01*
X130358353Y-53327632D01*
X128876409Y-51845689D01*
X128876406Y-51845685D01*
X128876406Y-51845686D01*
X128869339Y-51838619D01*
X128869339Y-51838618D01*
X128729982Y-51699261D01*
X128729981Y-51699260D01*
X128729980Y-51699259D01*
X128566120Y-51589771D01*
X128566111Y-51589766D01*
X128493515Y-51559696D01*
X128437365Y-51536438D01*
X128384036Y-51514349D01*
X128384032Y-51514348D01*
X128384028Y-51514346D01*
X128287388Y-51495124D01*
X128190744Y-51475900D01*
X128190741Y-51475900D01*
X123116875Y-51475900D01*
X123116855Y-51475899D01*
X123110741Y-51475899D01*
X122913660Y-51475899D01*
X122913657Y-51475899D01*
X122720372Y-51514346D01*
X122720364Y-51514348D01*
X122538288Y-51589766D01*
X122538279Y-51589771D01*
X122374419Y-51699259D01*
X122374415Y-51699262D01*
X116446611Y-57627068D01*
X114525820Y-59547859D01*
X114525818Y-59547861D01*
X114478214Y-59595465D01*
X114386459Y-59687219D01*
X114276971Y-59851080D01*
X114276966Y-59851089D01*
X114247840Y-59921408D01*
X114201550Y-60033160D01*
X114201547Y-60033169D01*
X114201495Y-60033432D01*
X114163100Y-60226454D01*
X114163100Y-75175417D01*
X114143415Y-75242456D01*
X114126781Y-75263098D01*
X112746699Y-76643181D01*
X112685376Y-76676666D01*
X112659018Y-76679500D01*
X112062987Y-76679500D01*
X111995948Y-76659815D01*
X111950193Y-76607011D01*
X111940249Y-76537853D01*
X111941370Y-76531308D01*
X111949700Y-76489431D01*
X111949700Y-75199368D01*
X111949699Y-75199366D01*
X111944935Y-75175417D01*
X111916055Y-75030226D01*
X111905585Y-75004949D01*
X111850061Y-74870901D01*
X111850054Y-74870888D01*
X111754246Y-74727502D01*
X111754245Y-74727501D01*
X111632299Y-74605555D01*
X110308354Y-73281610D01*
X108946702Y-71919957D01*
X108946698Y-71919954D01*
X108803311Y-71824145D01*
X108803298Y-71824138D01*
X108643978Y-71758146D01*
X108643966Y-71758143D01*
X108474832Y-71724500D01*
X108474829Y-71724500D01*
X108255047Y-71724500D01*
X108188008Y-71704815D01*
X108167366Y-71688181D01*
X108087213Y-71608028D01*
X107921614Y-71487715D01*
X107915006Y-71484348D01*
X107828917Y-71440483D01*
X107778123Y-71392511D01*
X107761328Y-71324690D01*
X107783865Y-71258555D01*
X107828917Y-71219516D01*
X107921610Y-71172287D01*
X107942770Y-71156913D01*
X108087213Y-71051971D01*
X108087215Y-71051968D01*
X108087219Y-71051966D01*
X108231966Y-70907219D01*
X108231968Y-70907215D01*
X108231971Y-70907213D01*
X108329748Y-70772632D01*
X108352287Y-70741610D01*
X108445220Y-70559219D01*
X108508477Y-70364534D01*
X108540500Y-70162352D01*
X108540500Y-69957648D01*
X108508477Y-69755466D01*
X108445220Y-69560781D01*
X108445218Y-69560778D01*
X108445218Y-69560776D01*
X108403755Y-69479402D01*
X108352287Y-69378390D01*
X108323913Y-69339336D01*
X108231971Y-69212786D01*
X108087213Y-69068028D01*
X107921614Y-68947715D01*
X107915006Y-68944348D01*
X107828917Y-68900483D01*
X107778123Y-68852511D01*
X107761328Y-68784690D01*
X107783865Y-68718555D01*
X107828917Y-68679516D01*
X107921610Y-68632287D01*
X107942770Y-68616913D01*
X108087213Y-68511971D01*
X108087215Y-68511968D01*
X108087219Y-68511966D01*
X108231966Y-68367219D01*
X108231968Y-68367215D01*
X108231971Y-68367213D01*
X108329746Y-68232635D01*
X108352287Y-68201610D01*
X108445220Y-68019219D01*
X108508477Y-67824534D01*
X108540500Y-67622352D01*
X108540500Y-67417648D01*
X108508477Y-67215465D01*
X108479127Y-67125137D01*
X108445220Y-67020781D01*
X108445218Y-67020778D01*
X108445218Y-67020776D01*
X108404154Y-66940185D01*
X108352287Y-66838390D01*
X108324244Y-66799792D01*
X108231971Y-66672786D01*
X108087213Y-66528028D01*
X107921614Y-66407715D01*
X107915006Y-66404348D01*
X107828917Y-66360483D01*
X107778123Y-66312511D01*
X107761328Y-66244690D01*
X107783865Y-66178555D01*
X107828917Y-66139516D01*
X107921610Y-66092287D01*
X108012452Y-66026287D01*
X108087213Y-65971971D01*
X108087215Y-65971968D01*
X108087219Y-65971966D01*
X108231966Y-65827219D01*
X108231968Y-65827215D01*
X108231971Y-65827213D01*
X108329748Y-65692632D01*
X108352287Y-65661610D01*
X108445220Y-65479219D01*
X108508477Y-65284534D01*
X108540500Y-65082352D01*
X108540500Y-64877648D01*
X108508477Y-64675465D01*
X108445218Y-64480776D01*
X108411503Y-64414607D01*
X108352287Y-64298390D01*
X108344556Y-64287749D01*
X108231971Y-64132786D01*
X108087213Y-63988028D01*
X107921614Y-63867715D01*
X107915006Y-63864348D01*
X107828917Y-63820483D01*
X107778123Y-63772511D01*
X107761328Y-63704690D01*
X107783865Y-63638555D01*
X107828917Y-63599516D01*
X107921610Y-63552287D01*
X107957398Y-63526286D01*
X108087213Y-63431971D01*
X108087215Y-63431968D01*
X108087219Y-63431966D01*
X108231966Y-63287219D01*
X108231968Y-63287215D01*
X108231971Y-63287213D01*
X108284732Y-63214590D01*
X108352287Y-63121610D01*
X108445220Y-62939219D01*
X108508477Y-62744534D01*
X108540500Y-62542352D01*
X108540500Y-62337648D01*
X108525913Y-62245550D01*
X108508477Y-62135465D01*
X108448249Y-61950103D01*
X108445220Y-61940781D01*
X108445218Y-61940778D01*
X108445218Y-61940776D01*
X108373379Y-61799786D01*
X108352287Y-61758390D01*
X108344556Y-61747749D01*
X108231971Y-61592786D01*
X108087213Y-61448028D01*
X107921614Y-61327715D01*
X107915006Y-61324348D01*
X107828917Y-61280483D01*
X107778123Y-61232511D01*
X107761328Y-61164690D01*
X107783865Y-61098555D01*
X107828917Y-61059516D01*
X107921610Y-61012287D01*
X107942770Y-60996913D01*
X108087213Y-60891971D01*
X108087215Y-60891968D01*
X108087219Y-60891966D01*
X108231966Y-60747219D01*
X108231968Y-60747215D01*
X108231971Y-60747213D01*
X108336196Y-60603757D01*
X108352287Y-60581610D01*
X108445220Y-60399219D01*
X108508477Y-60204534D01*
X108540500Y-60002352D01*
X108540500Y-59797648D01*
X108535321Y-59764949D01*
X108508477Y-59595465D01*
X108445218Y-59400776D01*
X108407425Y-59326604D01*
X108352287Y-59218390D01*
X108290481Y-59133320D01*
X108231971Y-59052786D01*
X108087213Y-58908028D01*
X107921613Y-58787715D01*
X107921612Y-58787714D01*
X107921610Y-58787713D01*
X107864653Y-58758691D01*
X107739223Y-58694781D01*
X107643916Y-58663814D01*
X107586241Y-58624376D01*
X107559043Y-58560017D01*
X107570958Y-58491171D01*
X107618203Y-58439695D01*
X107643914Y-58427952D01*
X107677800Y-58416943D01*
X107837752Y-58335443D01*
X107919293Y-58276200D01*
X107982980Y-58229930D01*
X107982982Y-58229927D01*
X107982986Y-58229925D01*
X108109925Y-58102986D01*
X108109927Y-58102982D01*
X108109930Y-58102980D01*
X108156200Y-58039293D01*
X108215443Y-57957752D01*
X108296943Y-57797800D01*
X108352417Y-57627068D01*
X108380500Y-57449759D01*
X108380500Y-57270241D01*
X108352417Y-57092932D01*
X108296943Y-56922200D01*
X108215443Y-56762248D01*
X108208663Y-56752916D01*
X108109930Y-56617019D01*
X107982980Y-56490069D01*
X107837755Y-56384559D01*
X107837754Y-56384558D01*
X107837752Y-56384557D01*
X107757776Y-56343807D01*
X107677797Y-56303055D01*
X107507069Y-56247583D01*
X107418413Y-56233541D01*
X107329759Y-56219500D01*
X107150241Y-56219500D01*
X107091138Y-56228861D01*
X106972930Y-56247583D01*
X106802202Y-56303055D01*
X106642244Y-56384559D01*
X106497019Y-56490069D01*
X106370069Y-56617019D01*
X106264559Y-56762244D01*
X106183055Y-56922202D01*
X106127583Y-57092930D01*
X106099500Y-57270241D01*
X106099500Y-57449758D01*
X106127583Y-57627069D01*
X106183055Y-57797797D01*
X106264559Y-57957755D01*
X106370069Y-58102980D01*
X106497019Y-58229930D01*
X106632916Y-58328663D01*
X106642248Y-58335443D01*
X106802200Y-58416943D01*
X106836080Y-58427951D01*
X106893756Y-58467388D01*
X106920956Y-58531746D01*
X106909042Y-58600593D01*
X106861799Y-58652069D01*
X106836083Y-58663814D01*
X106740777Y-58694781D01*
X106558386Y-58787715D01*
X106392786Y-58908028D01*
X106248028Y-59052786D01*
X106127715Y-59218386D01*
X106034781Y-59400776D01*
X105971522Y-59595465D01*
X105939500Y-59797648D01*
X93300500Y-59797648D01*
X93295321Y-59764949D01*
X93268477Y-59595465D01*
X93205218Y-59400776D01*
X93167425Y-59326604D01*
X93112287Y-59218390D01*
X93050481Y-59133320D01*
X92991971Y-59052786D01*
X92847213Y-58908028D01*
X92681613Y-58787715D01*
X92681612Y-58787714D01*
X92681610Y-58787713D01*
X92624653Y-58758691D01*
X92499223Y-58694781D01*
X92403916Y-58663814D01*
X92346241Y-58624376D01*
X92319043Y-58560017D01*
X92330958Y-58491171D01*
X92378203Y-58439695D01*
X92403914Y-58427952D01*
X92437800Y-58416943D01*
X92597752Y-58335443D01*
X92679293Y-58276200D01*
X92742980Y-58229930D01*
X92742982Y-58229927D01*
X92742986Y-58229925D01*
X92869925Y-58102986D01*
X92869927Y-58102982D01*
X92869930Y-58102980D01*
X92916200Y-58039293D01*
X92975443Y-57957752D01*
X93056943Y-57797800D01*
X93112417Y-57627068D01*
X93140500Y-57449759D01*
X93140500Y-57270241D01*
X93112417Y-57092932D01*
X93056943Y-56922200D01*
X92975443Y-56762248D01*
X92968663Y-56752916D01*
X92869930Y-56617019D01*
X92742980Y-56490069D01*
X92597755Y-56384559D01*
X92597754Y-56384558D01*
X92597752Y-56384557D01*
X92517776Y-56343807D01*
X92437797Y-56303055D01*
X92267069Y-56247583D01*
X92178413Y-56233541D01*
X92089759Y-56219500D01*
X91910241Y-56219500D01*
X91851138Y-56228861D01*
X91732930Y-56247583D01*
X91562202Y-56303055D01*
X91402244Y-56384559D01*
X91257019Y-56490069D01*
X91130069Y-56617019D01*
X91024559Y-56762244D01*
X90943055Y-56922202D01*
X90887583Y-57092930D01*
X90859500Y-57270241D01*
X90859500Y-57449758D01*
X90887583Y-57627069D01*
X90943055Y-57797797D01*
X91024559Y-57957755D01*
X91130069Y-58102980D01*
X91257019Y-58229930D01*
X91392916Y-58328663D01*
X91402248Y-58335443D01*
X91562200Y-58416943D01*
X91596080Y-58427951D01*
X91653756Y-58467388D01*
X91680956Y-58531746D01*
X91669042Y-58600593D01*
X91621799Y-58652069D01*
X91596083Y-58663814D01*
X91500777Y-58694781D01*
X91318386Y-58787715D01*
X91152786Y-58908028D01*
X91008028Y-59052786D01*
X90887715Y-59218386D01*
X90794781Y-59400776D01*
X90731522Y-59595465D01*
X90699500Y-59797648D01*
X85525500Y-59797648D01*
X85525500Y-51324871D01*
X85999500Y-51324871D01*
X85999500Y-51717928D01*
X86038026Y-52109102D01*
X86114704Y-52494594D01*
X86114707Y-52494605D01*
X86228810Y-52870754D01*
X86379230Y-53233899D01*
X86379232Y-53233904D01*
X86564511Y-53580537D01*
X86564522Y-53580555D01*
X86782887Y-53907360D01*
X86782897Y-53907374D01*
X87032254Y-54211217D01*
X87310182Y-54489145D01*
X87310187Y-54489149D01*
X87310188Y-54489150D01*
X87614031Y-54738507D01*
X87940851Y-54956882D01*
X87940860Y-54956887D01*
X87940862Y-54956888D01*
X88287495Y-55142167D01*
X88287497Y-55142167D01*
X88287503Y-55142171D01*
X88650647Y-55292590D01*
X89026785Y-55406690D01*
X89026791Y-55406691D01*
X89026794Y-55406692D01*
X89026805Y-55406695D01*
X89412297Y-55483373D01*
X89803468Y-55521900D01*
X89803471Y-55521900D01*
X90196529Y-55521900D01*
X90196532Y-55521900D01*
X90587703Y-55483373D01*
X90662748Y-55468445D01*
X90973194Y-55406695D01*
X90973205Y-55406692D01*
X90973205Y-55406691D01*
X90973215Y-55406690D01*
X91349353Y-55292590D01*
X91712497Y-55142171D01*
X92059149Y-54956882D01*
X92385969Y-54738507D01*
X92689812Y-54489150D01*
X92967750Y-54211212D01*
X93217107Y-53907369D01*
X93435482Y-53580549D01*
X93620771Y-53233897D01*
X93771190Y-52870753D01*
X93885290Y-52494615D01*
X93885292Y-52494605D01*
X93885295Y-52494594D01*
X93961973Y-52109102D01*
X94000500Y-51717928D01*
X94000500Y-51324871D01*
X150999500Y-51324871D01*
X150999500Y-51717928D01*
X151038026Y-52109102D01*
X151114704Y-52494594D01*
X151114707Y-52494605D01*
X151228810Y-52870754D01*
X151379230Y-53233899D01*
X151379232Y-53233904D01*
X151564511Y-53580537D01*
X151564522Y-53580555D01*
X151782887Y-53907360D01*
X151782897Y-53907374D01*
X152032254Y-54211217D01*
X152310182Y-54489145D01*
X152310187Y-54489149D01*
X152310188Y-54489150D01*
X152614031Y-54738507D01*
X152940851Y-54956882D01*
X152940860Y-54956887D01*
X152940862Y-54956888D01*
X153287495Y-55142167D01*
X153287497Y-55142167D01*
X153287503Y-55142171D01*
X153650647Y-55292590D01*
X154026785Y-55406690D01*
X154026791Y-55406691D01*
X154026794Y-55406692D01*
X154026805Y-55406695D01*
X154412297Y-55483373D01*
X154803468Y-55521900D01*
X154803471Y-55521900D01*
X155196529Y-55521900D01*
X155196532Y-55521900D01*
X155587703Y-55483373D01*
X155662748Y-55468445D01*
X155973194Y-55406695D01*
X155973205Y-55406692D01*
X155973205Y-55406691D01*
X155973215Y-55406690D01*
X156349353Y-55292590D01*
X156712497Y-55142171D01*
X157059149Y-54956882D01*
X157385969Y-54738507D01*
X157689812Y-54489150D01*
X157967750Y-54211212D01*
X158217107Y-53907369D01*
X158435482Y-53580549D01*
X158620771Y-53233897D01*
X158771190Y-52870753D01*
X158885290Y-52494615D01*
X158885292Y-52494605D01*
X158885295Y-52494594D01*
X158961973Y-52109102D01*
X159000500Y-51717928D01*
X159000500Y-51324871D01*
X158961973Y-50933697D01*
X158885295Y-50548205D01*
X158885292Y-50548194D01*
X158885291Y-50548191D01*
X158885290Y-50548185D01*
X158771190Y-50172047D01*
X158620771Y-49808903D01*
X158435482Y-49462251D01*
X158217107Y-49135431D01*
X157967750Y-48831588D01*
X157967749Y-48831587D01*
X157967745Y-48831582D01*
X157689817Y-48553654D01*
X157385974Y-48304297D01*
X157385973Y-48304296D01*
X157385969Y-48304293D01*
X157059149Y-48085918D01*
X157059144Y-48085915D01*
X157059137Y-48085911D01*
X156712504Y-47900632D01*
X156712499Y-47900630D01*
X156349354Y-47750210D01*
X155973205Y-47636107D01*
X155973194Y-47636104D01*
X155587702Y-47559426D01*
X155293089Y-47530410D01*
X155196532Y-47520900D01*
X154803468Y-47520900D01*
X154714251Y-47529687D01*
X154412297Y-47559426D01*
X154026805Y-47636104D01*
X154026794Y-47636107D01*
X153650645Y-47750210D01*
X153287500Y-47900630D01*
X153287495Y-47900632D01*
X152940862Y-48085911D01*
X152940844Y-48085922D01*
X152614039Y-48304287D01*
X152614025Y-48304297D01*
X152310182Y-48553654D01*
X152032254Y-48831582D01*
X151782897Y-49135425D01*
X151782887Y-49135439D01*
X151564522Y-49462244D01*
X151564511Y-49462262D01*
X151379232Y-49808895D01*
X151379230Y-49808900D01*
X151228810Y-50172045D01*
X151114707Y-50548194D01*
X151114704Y-50548205D01*
X151038026Y-50933697D01*
X150999500Y-51324871D01*
X94000500Y-51324871D01*
X93961973Y-50933697D01*
X93885295Y-50548205D01*
X93885292Y-50548194D01*
X93885291Y-50548191D01*
X93885290Y-50548185D01*
X93771190Y-50172047D01*
X93620771Y-49808903D01*
X93435482Y-49462251D01*
X93217107Y-49135431D01*
X92967750Y-48831588D01*
X92967749Y-48831587D01*
X92967745Y-48831582D01*
X92689817Y-48553654D01*
X92385974Y-48304297D01*
X92385973Y-48304296D01*
X92385969Y-48304293D01*
X92059149Y-48085918D01*
X92059144Y-48085915D01*
X92059137Y-48085911D01*
X91712504Y-47900632D01*
X91712499Y-47900630D01*
X91349354Y-47750210D01*
X90973205Y-47636107D01*
X90973194Y-47636104D01*
X90587702Y-47559426D01*
X90293089Y-47530410D01*
X90196532Y-47520900D01*
X89803468Y-47520900D01*
X89714251Y-47529687D01*
X89412297Y-47559426D01*
X89026805Y-47636104D01*
X89026794Y-47636107D01*
X88650645Y-47750210D01*
X88287500Y-47900630D01*
X88287495Y-47900632D01*
X87940862Y-48085911D01*
X87940844Y-48085922D01*
X87614039Y-48304287D01*
X87614025Y-48304297D01*
X87310182Y-48553654D01*
X87032254Y-48831582D01*
X86782897Y-49135425D01*
X86782887Y-49135439D01*
X86564522Y-49462244D01*
X86564511Y-49462262D01*
X86379232Y-49808895D01*
X86379230Y-49808900D01*
X86228810Y-50172045D01*
X86114707Y-50548194D01*
X86114704Y-50548205D01*
X86038026Y-50933697D01*
X85999500Y-51324871D01*
X85525500Y-51324871D01*
X85525500Y-47170900D01*
X85545185Y-47103861D01*
X85597989Y-47058106D01*
X85649500Y-47046900D01*
X145694444Y-47046900D01*
X145761483Y-47066585D01*
G37*
%TD.AperFunction*%
%TD*%
%TA.AperFunction,Conductor*%
%TO.N,GND1*%
G36*
X136643039Y-107141085D02*
G01*
X136688794Y-107193889D01*
X136700000Y-107245400D01*
X136700000Y-110678437D01*
X136680315Y-110745476D01*
X136627511Y-110791231D01*
X136608095Y-110798211D01*
X136515587Y-110822999D01*
X136515584Y-110823000D01*
X136273309Y-110923354D01*
X136273299Y-110923358D01*
X136046196Y-111054475D01*
X135838148Y-111214118D01*
X135652718Y-111399548D01*
X135493075Y-111607596D01*
X135361958Y-111834699D01*
X135361953Y-111834709D01*
X135261605Y-112076971D01*
X135261602Y-112076981D01*
X135193730Y-112330285D01*
X135163539Y-112559595D01*
X135135272Y-112623492D01*
X135128281Y-112631090D01*
X134674291Y-113085081D01*
X134612968Y-113118566D01*
X134586610Y-113121400D01*
X131524000Y-113121400D01*
X131456961Y-113101715D01*
X131411206Y-113048911D01*
X131400000Y-112997400D01*
X131400000Y-107245400D01*
X131419685Y-107178361D01*
X131472489Y-107132606D01*
X131524000Y-107121400D01*
X136576000Y-107121400D01*
X136643039Y-107141085D01*
G37*
%TD.AperFunction*%
%TD*%
%TA.AperFunction,Conductor*%
%TO.N,GND2*%
G36*
X99543039Y-109241085D02*
G01*
X99588794Y-109293889D01*
X99600000Y-109345400D01*
X99600000Y-113650510D01*
X99580315Y-113717549D01*
X99563681Y-113738191D01*
X98757984Y-114543888D01*
X98619157Y-114734965D01*
X98511933Y-114945403D01*
X98438946Y-115170031D01*
X98402000Y-115403302D01*
X98402000Y-115639496D01*
X98408099Y-115678001D01*
X98399145Y-115747294D01*
X98354149Y-115800747D01*
X98287398Y-115821387D01*
X98285626Y-115821400D01*
X93724000Y-115821400D01*
X93656961Y-115801715D01*
X93611206Y-115748911D01*
X93600000Y-115697400D01*
X93600000Y-109345400D01*
X93619685Y-109278361D01*
X93672489Y-109232606D01*
X93724000Y-109221400D01*
X99476000Y-109221400D01*
X99543039Y-109241085D01*
G37*
%TD.AperFunction*%
%TD*%
M02*
