M48
; DRILL file {KiCad 9.99.0-1132-g883a1f8d97} date 2025-07-04T12:47:47+0200
; FORMAT={-:-/ absolute / metric / decimal}
; #@! TF.CreationDate,2025-07-04T12:47:47+02:00
; #@! TF.GenerationSoftware,Kicad,Pcbnew,9.99.0-1132-g883a1f8d97
; #@! TF.FileFunction,Plated,1,2,PTH
FMAT,2
METRIC
; #@! TA.AperFunction,Plated,PTH,ViaDrill
T1C0.300
; #@! TA.AperFunction,Plated,PTH,ComponentDrill
T2C0.950
; #@! TA.AperFunction,Plated,PTH,ComponentDrill
T3C1.000
; #@! TA.AperFunction,Plated,PTH,ComponentDrill
T4C3.500
%
G90
G05
T1
X89.0Y-60.321
X90.0Y-81.521
X92.155Y-111.76
X95.4Y-113.03
X95.783Y-96.749
X96.2Y-54.521
X96.5Y-112.421
X96.52Y-115.021
X96.52Y-115.721
X97.1Y-113.17
X97.16Y-111.671
X97.725Y-112.421
X98.2Y-116.821
X98.8Y-113.03
X99.902Y-115.521
X100.0Y-51.521
X100.0Y-71.521
X100.0Y-81.521
X101.5Y-111.76
X101.9Y-120.421
X104.206Y-112.821
X105.0Y-51.521
X105.0Y-61.521
X109.3Y-118.921
X110.0Y-66.521
X111.0Y-118.221
X111.074Y-76.403
X111.2Y-116.921
X111.8Y-56.521
X114.809Y-116.331
X115.0Y-51.521
X115.0Y-56.521
X115.0Y-101.521
X115.0Y-106.521
X115.0Y-121.521
X116.0Y-90.521
X118.0Y-69.521
X119.0Y-116.521
X119.228Y-84.48
X120.0Y-81.521
X120.0Y-106.521
X120.2Y-59.821
X120.523Y-90.881
X122.145Y-102.026
X123.0Y-59.721
X123.8Y-69.521
X124.0Y-75.521
X125.0Y-66.521
X125.0Y-121.521
X125.73Y-87.84
X126.0Y-101.521
X127.0Y-87.63
X128.27Y-87.84
X128.5Y-73.521
X128.5Y-78.021
X128.549Y-111.76
X130.0Y-61.021
X130.0Y-116.521
X130.0Y-121.521
X130.061Y-109.664
X130.5Y-64.021
X131.0Y-73.521
X131.0Y-78.021
X133.0Y-66.021
X133.5Y-73.521
X133.5Y-78.021
X133.9Y-109.821
X134.4Y-109.08
X134.4Y-110.621
X134.62Y-111.821
X134.62Y-112.721
X134.982Y-109.821
X135.0Y-51.521
X135.0Y-62.021
X135.0Y-96.521
X135.0Y-121.521
X136.0Y-59.521
X136.0Y-67.021
X136.1Y-110.49
X137.16Y-112.721
X137.5Y-71.021
X138.5Y-64.521
X138.6Y-109.22
X139.6Y-74.121
X140.0Y-81.521
X140.0Y-91.521
X140.8Y-109.521
X142.9Y-76.321
X144.5Y-59.521
X144.5Y-70.021
X145.0Y-51.521
X145.0Y-121.521
X145.5Y-64.521
X145.5Y-67.021
X147.0Y-97.521
X147.1Y-116.021
X148.4Y-116.521
X149.5Y-59.521
X149.6Y-114.121
X150.0Y-98.521
X151.5Y-62.021
X151.5Y-70.021
X152.0Y-59.521
X152.0Y-64.521
X152.0Y-67.021
X157.0Y-103.521
X158.0Y-111.521
T2
X154.94Y-60.92
X154.94Y-63.42
X154.94Y-65.92
X154.94Y-68.42
T3
X92.0Y-59.9
X92.0Y-62.44
X92.0Y-64.98
X92.0Y-67.52
X92.0Y-70.06
X92.0Y-72.6
X92.0Y-75.14
X92.0Y-77.68
X92.0Y-80.22
X92.0Y-82.76
X92.0Y-85.3
X92.0Y-87.84
X92.0Y-90.38
X92.0Y-92.92
X92.0Y-95.46
X107.24Y-59.9
X107.24Y-62.44
X107.24Y-64.98
X107.24Y-67.52
X107.24Y-70.06
X107.24Y-72.6
X107.24Y-75.14
X107.24Y-77.68
X107.24Y-80.22
X107.24Y-82.76
X107.24Y-85.3
X107.24Y-87.84
X107.24Y-90.38
X107.24Y-92.92
X107.24Y-95.46
X122.169Y-79.96
X124.709Y-54.56
X124.709Y-79.96
X127.249Y-54.56
X127.249Y-79.96
X129.789Y-54.56
X129.789Y-79.96
X132.329Y-54.56
X132.329Y-79.96
X134.869Y-79.96
X154.94Y-76.16
X154.94Y-78.66
X154.94Y-86.36
X154.94Y-88.86
X154.94Y-96.48
X154.94Y-98.98
T4
X90.0Y-51.521
X90.0Y-121.521
X155.0Y-51.521
X155.0Y-121.521
M30
