%TF.GenerationSoftware,KiCad,Pcbnew,9.99.0-1132-g883a1f8d97*%
%TF.CreationDate,2025-07-04T12:47:25+02:00*%
%TF.ProjectId,BondheadSteering,426f6e64-6865-4616-9453-74656572696e,1*%
%TF.SameCoordinates,Original*%
%TF.FileFunction,Soldermask,Bot*%
%TF.FilePolarity,Negative*%
%FSLAX46Y46*%
G04 Gerber Fmt 4.6, Leading zero omitted, Abs format (unit mm)*
G04 Created by KiCad (PCBNEW 9.99.0-1132-g883a1f8d97) date 2025-07-04 12:47:25*
%MOMM*%
%LPD*%
G01*
G04 APERTURE LIST*
G04 Aperture macros list*
%AMRoundRect*
0 Rectangle with rounded corners*
0 $1 Rounding radius*
0 $2 $3 $4 $5 $6 $7 $8 $9 X,Y pos of 4 corners*
0 Add a 4 corners polygon primitive as box body*
4,1,4,$2,$3,$4,$5,$6,$7,$8,$9,$2,$3,0*
0 Add four circle primitives for the rounded corners*
1,1,$1+$1,$2,$3*
1,1,$1+$1,$4,$5*
1,1,$1+$1,$6,$7*
1,1,$1+$1,$8,$9*
0 Add four rect primitives between the rounded corners*
20,1,$1+$1,$2,$3,$4,$5,0*
20,1,$1+$1,$4,$5,$6,$7,0*
20,1,$1+$1,$6,$7,$8,$9,0*
20,1,$1+$1,$8,$9,$2,$3,0*%
G04 Aperture macros list end*
%ADD10R,1.700000X1.700000*%
%ADD11C,1.700000*%
%ADD12C,1.780000*%
%ADD13R,1.600000X1.600000*%
%ADD14O,1.600000X1.600000*%
%ADD15RoundRect,0.250000X0.750000X-0.600000X0.750000X0.600000X-0.750000X0.600000X-0.750000X-0.600000X0*%
%ADD16O,2.000000X1.700000*%
%ADD17C,7.000000*%
%ADD18RoundRect,0.250000X0.725000X-0.600000X0.725000X0.600000X-0.725000X0.600000X-0.725000X-0.600000X0*%
%ADD19O,1.950000X1.700000*%
G04 APERTURE END LIST*
D10*
%TO.C,J2*%
X122168824Y-79959956D03*
D11*
X124708824Y-79959956D03*
X127248824Y-79959956D03*
X129788824Y-79959956D03*
X132328824Y-79959956D03*
X134868824Y-79959956D03*
%TD*%
D12*
%TO.C,A1*%
X107240000Y-98000000D03*
X107240000Y-57360000D03*
X92000000Y-98000000D03*
X92000000Y-57360000D03*
D13*
X107240000Y-95460000D03*
D14*
X107240000Y-92920000D03*
X107240000Y-90380000D03*
X107240000Y-87840000D03*
X107240000Y-85300000D03*
X107240000Y-82760000D03*
X107240000Y-80220000D03*
X107240000Y-77680000D03*
X107240000Y-75140000D03*
X107240000Y-72600000D03*
X107240000Y-70060000D03*
X107240000Y-67520000D03*
X107240000Y-64980000D03*
X107240000Y-62440000D03*
X107240000Y-59900000D03*
X92000000Y-59900000D03*
X92000000Y-62440000D03*
X92000000Y-64980000D03*
X92000000Y-67520000D03*
X92000000Y-70060000D03*
X92000000Y-72600000D03*
X92000000Y-75140000D03*
X92000000Y-77680000D03*
X92000000Y-80220000D03*
X92000000Y-82760000D03*
X92000000Y-85300000D03*
X92000000Y-87840000D03*
X92000000Y-90380000D03*
X92000000Y-92920000D03*
X92000000Y-95460000D03*
%TD*%
D15*
%TO.C,J1*%
X154940000Y-78660000D03*
D16*
X154940000Y-76160000D03*
%TD*%
D15*
%TO.C,J5*%
X154940000Y-88860000D03*
D16*
X154940000Y-86360000D03*
%TD*%
D17*
%TO.C,H2*%
X155000000Y-121521400D03*
%TD*%
%TO.C,H3*%
X90000000Y-51521400D03*
%TD*%
D18*
%TO.C,J4*%
X154940000Y-68420000D03*
D19*
X154940000Y-65920000D03*
X154940000Y-63420000D03*
X154940000Y-60920000D03*
%TD*%
D15*
%TO.C,J6*%
X154940000Y-98980000D03*
D16*
X154940000Y-96480000D03*
%TD*%
D17*
%TO.C,H1*%
X90000000Y-121521400D03*
%TD*%
%TO.C,H4*%
X155000000Y-51521400D03*
%TD*%
D10*
%TO.C,J3*%
X124708824Y-54559956D03*
D11*
X127248824Y-54559956D03*
X129788824Y-54559956D03*
X132328824Y-54559956D03*
%TD*%
M02*
