%TF.GenerationSoftware,KiCad,Pcbnew,9.99.0-1132-g883a1f8d97*%
%TF.CreationDate,2025-07-04T12:47:25+02:00*%
%TF.ProjectId,BondheadSteering,426f6e64-6865-4616-9453-74656572696e,1*%
%TF.SameCoordinates,Original*%
%TF.FileFunction,Legend,Top*%
%TF.FilePolarity,Positive*%
%FSLAX46Y46*%
G04 Gerber Fmt 4.6, Leading zero omitted, Abs format (unit mm)*
G04 Created by KiCad (PCBNEW 9.99.0-1132-g883a1f8d97) date 2025-07-04 12:47:25*
%MOMM*%
%LPD*%
G01*
G04 APERTURE LIST*
%ADD10C,0.300000*%
%ADD11C,0.150000*%
%ADD12C,0.120000*%
G04 APERTURE END LIST*
D10*
X114554510Y-121136514D02*
X114768796Y-121207942D01*
X114768796Y-121207942D02*
X114840225Y-121279371D01*
X114840225Y-121279371D02*
X114911653Y-121422228D01*
X114911653Y-121422228D02*
X114911653Y-121636514D01*
X114911653Y-121636514D02*
X114840225Y-121779371D01*
X114840225Y-121779371D02*
X114768796Y-121850800D01*
X114768796Y-121850800D02*
X114625939Y-121922228D01*
X114625939Y-121922228D02*
X114054510Y-121922228D01*
X114054510Y-121922228D02*
X114054510Y-120422228D01*
X114054510Y-120422228D02*
X114554510Y-120422228D01*
X114554510Y-120422228D02*
X114697368Y-120493657D01*
X114697368Y-120493657D02*
X114768796Y-120565085D01*
X114768796Y-120565085D02*
X114840225Y-120707942D01*
X114840225Y-120707942D02*
X114840225Y-120850800D01*
X114840225Y-120850800D02*
X114768796Y-120993657D01*
X114768796Y-120993657D02*
X114697368Y-121065085D01*
X114697368Y-121065085D02*
X114554510Y-121136514D01*
X114554510Y-121136514D02*
X114054510Y-121136514D01*
X115768796Y-121922228D02*
X115625939Y-121850800D01*
X115625939Y-121850800D02*
X115554510Y-121779371D01*
X115554510Y-121779371D02*
X115483082Y-121636514D01*
X115483082Y-121636514D02*
X115483082Y-121207942D01*
X115483082Y-121207942D02*
X115554510Y-121065085D01*
X115554510Y-121065085D02*
X115625939Y-120993657D01*
X115625939Y-120993657D02*
X115768796Y-120922228D01*
X115768796Y-120922228D02*
X115983082Y-120922228D01*
X115983082Y-120922228D02*
X116125939Y-120993657D01*
X116125939Y-120993657D02*
X116197368Y-121065085D01*
X116197368Y-121065085D02*
X116268796Y-121207942D01*
X116268796Y-121207942D02*
X116268796Y-121636514D01*
X116268796Y-121636514D02*
X116197368Y-121779371D01*
X116197368Y-121779371D02*
X116125939Y-121850800D01*
X116125939Y-121850800D02*
X115983082Y-121922228D01*
X115983082Y-121922228D02*
X115768796Y-121922228D01*
X116911653Y-120922228D02*
X116911653Y-121922228D01*
X116911653Y-121065085D02*
X116983082Y-120993657D01*
X116983082Y-120993657D02*
X117125939Y-120922228D01*
X117125939Y-120922228D02*
X117340225Y-120922228D01*
X117340225Y-120922228D02*
X117483082Y-120993657D01*
X117483082Y-120993657D02*
X117554511Y-121136514D01*
X117554511Y-121136514D02*
X117554511Y-121922228D01*
X118911654Y-121922228D02*
X118911654Y-120422228D01*
X118911654Y-121850800D02*
X118768796Y-121922228D01*
X118768796Y-121922228D02*
X118483082Y-121922228D01*
X118483082Y-121922228D02*
X118340225Y-121850800D01*
X118340225Y-121850800D02*
X118268796Y-121779371D01*
X118268796Y-121779371D02*
X118197368Y-121636514D01*
X118197368Y-121636514D02*
X118197368Y-121207942D01*
X118197368Y-121207942D02*
X118268796Y-121065085D01*
X118268796Y-121065085D02*
X118340225Y-120993657D01*
X118340225Y-120993657D02*
X118483082Y-120922228D01*
X118483082Y-120922228D02*
X118768796Y-120922228D01*
X118768796Y-120922228D02*
X118911654Y-120993657D01*
X119625939Y-121922228D02*
X119625939Y-120422228D01*
X120268797Y-121922228D02*
X120268797Y-121136514D01*
X120268797Y-121136514D02*
X120197368Y-120993657D01*
X120197368Y-120993657D02*
X120054511Y-120922228D01*
X120054511Y-120922228D02*
X119840225Y-120922228D01*
X119840225Y-120922228D02*
X119697368Y-120993657D01*
X119697368Y-120993657D02*
X119625939Y-121065085D01*
X121554511Y-121850800D02*
X121411654Y-121922228D01*
X121411654Y-121922228D02*
X121125940Y-121922228D01*
X121125940Y-121922228D02*
X120983082Y-121850800D01*
X120983082Y-121850800D02*
X120911654Y-121707942D01*
X120911654Y-121707942D02*
X120911654Y-121136514D01*
X120911654Y-121136514D02*
X120983082Y-120993657D01*
X120983082Y-120993657D02*
X121125940Y-120922228D01*
X121125940Y-120922228D02*
X121411654Y-120922228D01*
X121411654Y-120922228D02*
X121554511Y-120993657D01*
X121554511Y-120993657D02*
X121625940Y-121136514D01*
X121625940Y-121136514D02*
X121625940Y-121279371D01*
X121625940Y-121279371D02*
X120911654Y-121422228D01*
X122911654Y-121922228D02*
X122911654Y-121136514D01*
X122911654Y-121136514D02*
X122840225Y-120993657D01*
X122840225Y-120993657D02*
X122697368Y-120922228D01*
X122697368Y-120922228D02*
X122411654Y-120922228D01*
X122411654Y-120922228D02*
X122268796Y-120993657D01*
X122911654Y-121850800D02*
X122768796Y-121922228D01*
X122768796Y-121922228D02*
X122411654Y-121922228D01*
X122411654Y-121922228D02*
X122268796Y-121850800D01*
X122268796Y-121850800D02*
X122197368Y-121707942D01*
X122197368Y-121707942D02*
X122197368Y-121565085D01*
X122197368Y-121565085D02*
X122268796Y-121422228D01*
X122268796Y-121422228D02*
X122411654Y-121350800D01*
X122411654Y-121350800D02*
X122768796Y-121350800D01*
X122768796Y-121350800D02*
X122911654Y-121279371D01*
X124268797Y-121922228D02*
X124268797Y-120422228D01*
X124268797Y-121850800D02*
X124125939Y-121922228D01*
X124125939Y-121922228D02*
X123840225Y-121922228D01*
X123840225Y-121922228D02*
X123697368Y-121850800D01*
X123697368Y-121850800D02*
X123625939Y-121779371D01*
X123625939Y-121779371D02*
X123554511Y-121636514D01*
X123554511Y-121636514D02*
X123554511Y-121207942D01*
X123554511Y-121207942D02*
X123625939Y-121065085D01*
X123625939Y-121065085D02*
X123697368Y-120993657D01*
X123697368Y-120993657D02*
X123840225Y-120922228D01*
X123840225Y-120922228D02*
X124125939Y-120922228D01*
X124125939Y-120922228D02*
X124268797Y-120993657D01*
X126125939Y-121922228D02*
X126125939Y-120422228D01*
X126125939Y-121136514D02*
X126983082Y-121136514D01*
X126983082Y-121922228D02*
X126983082Y-120422228D01*
X128268797Y-121850800D02*
X128125940Y-121922228D01*
X128125940Y-121922228D02*
X127840226Y-121922228D01*
X127840226Y-121922228D02*
X127697368Y-121850800D01*
X127697368Y-121850800D02*
X127625940Y-121707942D01*
X127625940Y-121707942D02*
X127625940Y-121136514D01*
X127625940Y-121136514D02*
X127697368Y-120993657D01*
X127697368Y-120993657D02*
X127840226Y-120922228D01*
X127840226Y-120922228D02*
X128125940Y-120922228D01*
X128125940Y-120922228D02*
X128268797Y-120993657D01*
X128268797Y-120993657D02*
X128340226Y-121136514D01*
X128340226Y-121136514D02*
X128340226Y-121279371D01*
X128340226Y-121279371D02*
X127625940Y-121422228D01*
X129625940Y-121922228D02*
X129625940Y-121136514D01*
X129625940Y-121136514D02*
X129554511Y-120993657D01*
X129554511Y-120993657D02*
X129411654Y-120922228D01*
X129411654Y-120922228D02*
X129125940Y-120922228D01*
X129125940Y-120922228D02*
X128983082Y-120993657D01*
X129625940Y-121850800D02*
X129483082Y-121922228D01*
X129483082Y-121922228D02*
X129125940Y-121922228D01*
X129125940Y-121922228D02*
X128983082Y-121850800D01*
X128983082Y-121850800D02*
X128911654Y-121707942D01*
X128911654Y-121707942D02*
X128911654Y-121565085D01*
X128911654Y-121565085D02*
X128983082Y-121422228D01*
X128983082Y-121422228D02*
X129125940Y-121350800D01*
X129125940Y-121350800D02*
X129483082Y-121350800D01*
X129483082Y-121350800D02*
X129625940Y-121279371D01*
X130125940Y-120922228D02*
X130697368Y-120922228D01*
X130340225Y-120422228D02*
X130340225Y-121707942D01*
X130340225Y-121707942D02*
X130411654Y-121850800D01*
X130411654Y-121850800D02*
X130554511Y-121922228D01*
X130554511Y-121922228D02*
X130697368Y-121922228D01*
X131768797Y-121850800D02*
X131625940Y-121922228D01*
X131625940Y-121922228D02*
X131340226Y-121922228D01*
X131340226Y-121922228D02*
X131197368Y-121850800D01*
X131197368Y-121850800D02*
X131125940Y-121707942D01*
X131125940Y-121707942D02*
X131125940Y-121136514D01*
X131125940Y-121136514D02*
X131197368Y-120993657D01*
X131197368Y-120993657D02*
X131340226Y-120922228D01*
X131340226Y-120922228D02*
X131625940Y-120922228D01*
X131625940Y-120922228D02*
X131768797Y-120993657D01*
X131768797Y-120993657D02*
X131840226Y-121136514D01*
X131840226Y-121136514D02*
X131840226Y-121279371D01*
X131840226Y-121279371D02*
X131125940Y-121422228D01*
X132483082Y-121922228D02*
X132483082Y-120922228D01*
X132483082Y-121207942D02*
X132554511Y-121065085D01*
X132554511Y-121065085D02*
X132625940Y-120993657D01*
X132625940Y-120993657D02*
X132768797Y-120922228D01*
X132768797Y-120922228D02*
X132911654Y-120922228D01*
X135411653Y-121779371D02*
X135340225Y-121850800D01*
X135340225Y-121850800D02*
X135125939Y-121922228D01*
X135125939Y-121922228D02*
X134983082Y-121922228D01*
X134983082Y-121922228D02*
X134768796Y-121850800D01*
X134768796Y-121850800D02*
X134625939Y-121707942D01*
X134625939Y-121707942D02*
X134554510Y-121565085D01*
X134554510Y-121565085D02*
X134483082Y-121279371D01*
X134483082Y-121279371D02*
X134483082Y-121065085D01*
X134483082Y-121065085D02*
X134554510Y-120779371D01*
X134554510Y-120779371D02*
X134625939Y-120636514D01*
X134625939Y-120636514D02*
X134768796Y-120493657D01*
X134768796Y-120493657D02*
X134983082Y-120422228D01*
X134983082Y-120422228D02*
X135125939Y-120422228D01*
X135125939Y-120422228D02*
X135340225Y-120493657D01*
X135340225Y-120493657D02*
X135411653Y-120565085D01*
X136268796Y-121922228D02*
X136125939Y-121850800D01*
X136125939Y-121850800D02*
X136054510Y-121779371D01*
X136054510Y-121779371D02*
X135983082Y-121636514D01*
X135983082Y-121636514D02*
X135983082Y-121207942D01*
X135983082Y-121207942D02*
X136054510Y-121065085D01*
X136054510Y-121065085D02*
X136125939Y-120993657D01*
X136125939Y-120993657D02*
X136268796Y-120922228D01*
X136268796Y-120922228D02*
X136483082Y-120922228D01*
X136483082Y-120922228D02*
X136625939Y-120993657D01*
X136625939Y-120993657D02*
X136697368Y-121065085D01*
X136697368Y-121065085D02*
X136768796Y-121207942D01*
X136768796Y-121207942D02*
X136768796Y-121636514D01*
X136768796Y-121636514D02*
X136697368Y-121779371D01*
X136697368Y-121779371D02*
X136625939Y-121850800D01*
X136625939Y-121850800D02*
X136483082Y-121922228D01*
X136483082Y-121922228D02*
X136268796Y-121922228D01*
X137411653Y-120922228D02*
X137411653Y-121922228D01*
X137411653Y-121065085D02*
X137483082Y-120993657D01*
X137483082Y-120993657D02*
X137625939Y-120922228D01*
X137625939Y-120922228D02*
X137840225Y-120922228D01*
X137840225Y-120922228D02*
X137983082Y-120993657D01*
X137983082Y-120993657D02*
X138054511Y-121136514D01*
X138054511Y-121136514D02*
X138054511Y-121922228D01*
X138554511Y-120922228D02*
X139125939Y-120922228D01*
X138768796Y-120422228D02*
X138768796Y-121707942D01*
X138768796Y-121707942D02*
X138840225Y-121850800D01*
X138840225Y-121850800D02*
X138983082Y-121922228D01*
X138983082Y-121922228D02*
X139125939Y-121922228D01*
X139625939Y-121922228D02*
X139625939Y-120922228D01*
X139625939Y-121207942D02*
X139697368Y-121065085D01*
X139697368Y-121065085D02*
X139768797Y-120993657D01*
X139768797Y-120993657D02*
X139911654Y-120922228D01*
X139911654Y-120922228D02*
X140054511Y-120922228D01*
X140768796Y-121922228D02*
X140625939Y-121850800D01*
X140625939Y-121850800D02*
X140554510Y-121779371D01*
X140554510Y-121779371D02*
X140483082Y-121636514D01*
X140483082Y-121636514D02*
X140483082Y-121207942D01*
X140483082Y-121207942D02*
X140554510Y-121065085D01*
X140554510Y-121065085D02*
X140625939Y-120993657D01*
X140625939Y-120993657D02*
X140768796Y-120922228D01*
X140768796Y-120922228D02*
X140983082Y-120922228D01*
X140983082Y-120922228D02*
X141125939Y-120993657D01*
X141125939Y-120993657D02*
X141197368Y-121065085D01*
X141197368Y-121065085D02*
X141268796Y-121207942D01*
X141268796Y-121207942D02*
X141268796Y-121636514D01*
X141268796Y-121636514D02*
X141197368Y-121779371D01*
X141197368Y-121779371D02*
X141125939Y-121850800D01*
X141125939Y-121850800D02*
X140983082Y-121922228D01*
X140983082Y-121922228D02*
X140768796Y-121922228D01*
X142125939Y-121922228D02*
X141983082Y-121850800D01*
X141983082Y-121850800D02*
X141911653Y-121707942D01*
X141911653Y-121707942D02*
X141911653Y-120422228D01*
X113854510Y-97922228D02*
X113854510Y-96422228D01*
X113854510Y-96993657D02*
X113997368Y-96922228D01*
X113997368Y-96922228D02*
X114283082Y-96922228D01*
X114283082Y-96922228D02*
X114425939Y-96993657D01*
X114425939Y-96993657D02*
X114497368Y-97065085D01*
X114497368Y-97065085D02*
X114568796Y-97207942D01*
X114568796Y-97207942D02*
X114568796Y-97636514D01*
X114568796Y-97636514D02*
X114497368Y-97779371D01*
X114497368Y-97779371D02*
X114425939Y-97850800D01*
X114425939Y-97850800D02*
X114283082Y-97922228D01*
X114283082Y-97922228D02*
X113997368Y-97922228D01*
X113997368Y-97922228D02*
X113854510Y-97850800D01*
X115068796Y-96922228D02*
X115425939Y-97922228D01*
X115783082Y-96922228D02*
X115425939Y-97922228D01*
X115425939Y-97922228D02*
X115283082Y-98279371D01*
X115283082Y-98279371D02*
X115211653Y-98350800D01*
X115211653Y-98350800D02*
X115068796Y-98422228D01*
X117497367Y-97922228D02*
X117497367Y-96422228D01*
X117497367Y-96422228D02*
X117997367Y-97493657D01*
X117997367Y-97493657D02*
X118497367Y-96422228D01*
X118497367Y-96422228D02*
X118497367Y-97922228D01*
X119854511Y-97922228D02*
X119854511Y-97136514D01*
X119854511Y-97136514D02*
X119783082Y-96993657D01*
X119783082Y-96993657D02*
X119640225Y-96922228D01*
X119640225Y-96922228D02*
X119354511Y-96922228D01*
X119354511Y-96922228D02*
X119211653Y-96993657D01*
X119854511Y-97850800D02*
X119711653Y-97922228D01*
X119711653Y-97922228D02*
X119354511Y-97922228D01*
X119354511Y-97922228D02*
X119211653Y-97850800D01*
X119211653Y-97850800D02*
X119140225Y-97707942D01*
X119140225Y-97707942D02*
X119140225Y-97565085D01*
X119140225Y-97565085D02*
X119211653Y-97422228D01*
X119211653Y-97422228D02*
X119354511Y-97350800D01*
X119354511Y-97350800D02*
X119711653Y-97350800D01*
X119711653Y-97350800D02*
X119854511Y-97279371D01*
X120568796Y-97922228D02*
X120568796Y-96922228D01*
X120568796Y-97207942D02*
X120640225Y-97065085D01*
X120640225Y-97065085D02*
X120711654Y-96993657D01*
X120711654Y-96993657D02*
X120854511Y-96922228D01*
X120854511Y-96922228D02*
X120997368Y-96922228D01*
X121283082Y-96922228D02*
X121854510Y-96922228D01*
X121497367Y-96422228D02*
X121497367Y-97707942D01*
X121497367Y-97707942D02*
X121568796Y-97850800D01*
X121568796Y-97850800D02*
X121711653Y-97922228D01*
X121711653Y-97922228D02*
X121854510Y-97922228D01*
X122354510Y-97922228D02*
X122354510Y-96922228D01*
X122354510Y-96422228D02*
X122283082Y-96493657D01*
X122283082Y-96493657D02*
X122354510Y-96565085D01*
X122354510Y-96565085D02*
X122425939Y-96493657D01*
X122425939Y-96493657D02*
X122354510Y-96422228D01*
X122354510Y-96422228D02*
X122354510Y-96565085D01*
X123068796Y-96922228D02*
X123068796Y-97922228D01*
X123068796Y-97065085D02*
X123140225Y-96993657D01*
X123140225Y-96993657D02*
X123283082Y-96922228D01*
X123283082Y-96922228D02*
X123497368Y-96922228D01*
X123497368Y-96922228D02*
X123640225Y-96993657D01*
X123640225Y-96993657D02*
X123711654Y-97136514D01*
X123711654Y-97136514D02*
X123711654Y-97922228D01*
X126354511Y-96493657D02*
X126211654Y-96422228D01*
X126211654Y-96422228D02*
X125997368Y-96422228D01*
X125997368Y-96422228D02*
X125783082Y-96493657D01*
X125783082Y-96493657D02*
X125640225Y-96636514D01*
X125640225Y-96636514D02*
X125568796Y-96779371D01*
X125568796Y-96779371D02*
X125497368Y-97065085D01*
X125497368Y-97065085D02*
X125497368Y-97279371D01*
X125497368Y-97279371D02*
X125568796Y-97565085D01*
X125568796Y-97565085D02*
X125640225Y-97707942D01*
X125640225Y-97707942D02*
X125783082Y-97850800D01*
X125783082Y-97850800D02*
X125997368Y-97922228D01*
X125997368Y-97922228D02*
X126140225Y-97922228D01*
X126140225Y-97922228D02*
X126354511Y-97850800D01*
X126354511Y-97850800D02*
X126425939Y-97779371D01*
X126425939Y-97779371D02*
X126425939Y-97279371D01*
X126425939Y-97279371D02*
X126140225Y-97279371D01*
X126925939Y-96922228D02*
X127283082Y-97922228D01*
X127640225Y-96922228D02*
X127283082Y-97922228D01*
X127283082Y-97922228D02*
X127140225Y-98279371D01*
X127140225Y-98279371D02*
X127068796Y-98350800D01*
X127068796Y-98350800D02*
X126925939Y-98422228D01*
X128854511Y-96922228D02*
X128854511Y-97922228D01*
X128211653Y-96922228D02*
X128211653Y-97707942D01*
X128211653Y-97707942D02*
X128283082Y-97850800D01*
X128283082Y-97850800D02*
X128425939Y-97922228D01*
X128425939Y-97922228D02*
X128640225Y-97922228D01*
X128640225Y-97922228D02*
X128783082Y-97850800D01*
X128783082Y-97850800D02*
X128854511Y-97779371D01*
X129568796Y-97922228D02*
X129568796Y-96922228D01*
X129568796Y-97207942D02*
X129640225Y-97065085D01*
X129640225Y-97065085D02*
X129711654Y-96993657D01*
X129711654Y-96993657D02*
X129854511Y-96922228D01*
X129854511Y-96922228D02*
X129997368Y-96922228D01*
X130497367Y-97922228D02*
X130497367Y-96422228D01*
X130640225Y-97350800D02*
X131068796Y-97922228D01*
X131068796Y-96922228D02*
X130497367Y-97493657D01*
X131925939Y-97922228D02*
X131783082Y-97850800D01*
X131783082Y-97850800D02*
X131711653Y-97779371D01*
X131711653Y-97779371D02*
X131640225Y-97636514D01*
X131640225Y-97636514D02*
X131640225Y-97207942D01*
X131640225Y-97207942D02*
X131711653Y-97065085D01*
X131711653Y-97065085D02*
X131783082Y-96993657D01*
X131783082Y-96993657D02*
X131925939Y-96922228D01*
X131925939Y-96922228D02*
X132140225Y-96922228D01*
X132140225Y-96922228D02*
X132283082Y-96993657D01*
X132283082Y-96993657D02*
X132354511Y-97065085D01*
X132354511Y-97065085D02*
X132425939Y-97207942D01*
X132425939Y-97207942D02*
X132425939Y-97636514D01*
X132425939Y-97636514D02*
X132354511Y-97779371D01*
X132354511Y-97779371D02*
X132283082Y-97850800D01*
X132283082Y-97850800D02*
X132140225Y-97922228D01*
X132140225Y-97922228D02*
X131925939Y-97922228D01*
X132211653Y-96350800D02*
X131997368Y-96565085D01*
D11*
X139533333Y-99874819D02*
X139057143Y-99874819D01*
X139057143Y-99874819D02*
X139057143Y-98874819D01*
X139771429Y-98874819D02*
X140390476Y-98874819D01*
X140390476Y-98874819D02*
X140057143Y-99255771D01*
X140057143Y-99255771D02*
X140200000Y-99255771D01*
X140200000Y-99255771D02*
X140295238Y-99303390D01*
X140295238Y-99303390D02*
X140342857Y-99351009D01*
X140342857Y-99351009D02*
X140390476Y-99446247D01*
X140390476Y-99446247D02*
X140390476Y-99684342D01*
X140390476Y-99684342D02*
X140342857Y-99779580D01*
X140342857Y-99779580D02*
X140295238Y-99827200D01*
X140295238Y-99827200D02*
X140200000Y-99874819D01*
X140200000Y-99874819D02*
X139914286Y-99874819D01*
X139914286Y-99874819D02*
X139819048Y-99827200D01*
X139819048Y-99827200D02*
X139771429Y-99779580D01*
X123709580Y-113177857D02*
X123757200Y-113225476D01*
X123757200Y-113225476D02*
X123804819Y-113368333D01*
X123804819Y-113368333D02*
X123804819Y-113463571D01*
X123804819Y-113463571D02*
X123757200Y-113606428D01*
X123757200Y-113606428D02*
X123661961Y-113701666D01*
X123661961Y-113701666D02*
X123566723Y-113749285D01*
X123566723Y-113749285D02*
X123376247Y-113796904D01*
X123376247Y-113796904D02*
X123233390Y-113796904D01*
X123233390Y-113796904D02*
X123042914Y-113749285D01*
X123042914Y-113749285D02*
X122947676Y-113701666D01*
X122947676Y-113701666D02*
X122852438Y-113606428D01*
X122852438Y-113606428D02*
X122804819Y-113463571D01*
X122804819Y-113463571D02*
X122804819Y-113368333D01*
X122804819Y-113368333D02*
X122852438Y-113225476D01*
X122852438Y-113225476D02*
X122900057Y-113177857D01*
X123804819Y-112225476D02*
X123804819Y-112796904D01*
X123804819Y-112511190D02*
X122804819Y-112511190D01*
X122804819Y-112511190D02*
X122947676Y-112606428D01*
X122947676Y-112606428D02*
X123042914Y-112701666D01*
X123042914Y-112701666D02*
X123090533Y-112796904D01*
X123804819Y-111273095D02*
X123804819Y-111844523D01*
X123804819Y-111558809D02*
X122804819Y-111558809D01*
X122804819Y-111558809D02*
X122947676Y-111654047D01*
X122947676Y-111654047D02*
X123042914Y-111749285D01*
X123042914Y-111749285D02*
X123090533Y-111844523D01*
X119243643Y-80293289D02*
X119957928Y-80293289D01*
X119957928Y-80293289D02*
X120100785Y-80340908D01*
X120100785Y-80340908D02*
X120196024Y-80436146D01*
X120196024Y-80436146D02*
X120243643Y-80579003D01*
X120243643Y-80579003D02*
X120243643Y-80674241D01*
X119338881Y-79864717D02*
X119291262Y-79817098D01*
X119291262Y-79817098D02*
X119243643Y-79721860D01*
X119243643Y-79721860D02*
X119243643Y-79483765D01*
X119243643Y-79483765D02*
X119291262Y-79388527D01*
X119291262Y-79388527D02*
X119338881Y-79340908D01*
X119338881Y-79340908D02*
X119434119Y-79293289D01*
X119434119Y-79293289D02*
X119529357Y-79293289D01*
X119529357Y-79293289D02*
X119672214Y-79340908D01*
X119672214Y-79340908D02*
X120243643Y-79912336D01*
X120243643Y-79912336D02*
X120243643Y-79293289D01*
X98905714Y-100709104D02*
X99381904Y-100709104D01*
X98810476Y-100994819D02*
X99143809Y-99994819D01*
X99143809Y-99994819D02*
X99477142Y-100994819D01*
X100334285Y-100994819D02*
X99762857Y-100994819D01*
X100048571Y-100994819D02*
X100048571Y-99994819D01*
X100048571Y-99994819D02*
X99953333Y-100137676D01*
X99953333Y-100137676D02*
X99858095Y-100232914D01*
X99858095Y-100232914D02*
X99762857Y-100280533D01*
X100881904Y-60445180D02*
X100881904Y-59635657D01*
X100881904Y-59635657D02*
X100834285Y-59540419D01*
X100834285Y-59540419D02*
X100786666Y-59492800D01*
X100786666Y-59492800D02*
X100691428Y-59445180D01*
X100691428Y-59445180D02*
X100500952Y-59445180D01*
X100500952Y-59445180D02*
X100405714Y-59492800D01*
X100405714Y-59492800D02*
X100358095Y-59540419D01*
X100358095Y-59540419D02*
X100310476Y-59635657D01*
X100310476Y-59635657D02*
X100310476Y-60445180D01*
X99881904Y-59492800D02*
X99739047Y-59445180D01*
X99739047Y-59445180D02*
X99500952Y-59445180D01*
X99500952Y-59445180D02*
X99405714Y-59492800D01*
X99405714Y-59492800D02*
X99358095Y-59540419D01*
X99358095Y-59540419D02*
X99310476Y-59635657D01*
X99310476Y-59635657D02*
X99310476Y-59730895D01*
X99310476Y-59730895D02*
X99358095Y-59826133D01*
X99358095Y-59826133D02*
X99405714Y-59873752D01*
X99405714Y-59873752D02*
X99500952Y-59921371D01*
X99500952Y-59921371D02*
X99691428Y-59968990D01*
X99691428Y-59968990D02*
X99786666Y-60016609D01*
X99786666Y-60016609D02*
X99834285Y-60064228D01*
X99834285Y-60064228D02*
X99881904Y-60159466D01*
X99881904Y-60159466D02*
X99881904Y-60254704D01*
X99881904Y-60254704D02*
X99834285Y-60349942D01*
X99834285Y-60349942D02*
X99786666Y-60397561D01*
X99786666Y-60397561D02*
X99691428Y-60445180D01*
X99691428Y-60445180D02*
X99453333Y-60445180D01*
X99453333Y-60445180D02*
X99310476Y-60397561D01*
X98548571Y-59968990D02*
X98405714Y-59921371D01*
X98405714Y-59921371D02*
X98358095Y-59873752D01*
X98358095Y-59873752D02*
X98310476Y-59778514D01*
X98310476Y-59778514D02*
X98310476Y-59635657D01*
X98310476Y-59635657D02*
X98358095Y-59540419D01*
X98358095Y-59540419D02*
X98405714Y-59492800D01*
X98405714Y-59492800D02*
X98500952Y-59445180D01*
X98500952Y-59445180D02*
X98881904Y-59445180D01*
X98881904Y-59445180D02*
X98881904Y-60445180D01*
X98881904Y-60445180D02*
X98548571Y-60445180D01*
X98548571Y-60445180D02*
X98453333Y-60397561D01*
X98453333Y-60397561D02*
X98405714Y-60349942D01*
X98405714Y-60349942D02*
X98358095Y-60254704D01*
X98358095Y-60254704D02*
X98358095Y-60159466D01*
X98358095Y-60159466D02*
X98405714Y-60064228D01*
X98405714Y-60064228D02*
X98453333Y-60016609D01*
X98453333Y-60016609D02*
X98548571Y-59968990D01*
X98548571Y-59968990D02*
X98881904Y-59968990D01*
X148234819Y-112658094D02*
X147234819Y-112658094D01*
X147234819Y-112658094D02*
X147234819Y-112419999D01*
X147234819Y-112419999D02*
X147282438Y-112277142D01*
X147282438Y-112277142D02*
X147377676Y-112181904D01*
X147377676Y-112181904D02*
X147472914Y-112134285D01*
X147472914Y-112134285D02*
X147663390Y-112086666D01*
X147663390Y-112086666D02*
X147806247Y-112086666D01*
X147806247Y-112086666D02*
X147996723Y-112134285D01*
X147996723Y-112134285D02*
X148091961Y-112181904D01*
X148091961Y-112181904D02*
X148187200Y-112277142D01*
X148187200Y-112277142D02*
X148234819Y-112419999D01*
X148234819Y-112419999D02*
X148234819Y-112658094D01*
X147330057Y-111705713D02*
X147282438Y-111658094D01*
X147282438Y-111658094D02*
X147234819Y-111562856D01*
X147234819Y-111562856D02*
X147234819Y-111324761D01*
X147234819Y-111324761D02*
X147282438Y-111229523D01*
X147282438Y-111229523D02*
X147330057Y-111181904D01*
X147330057Y-111181904D02*
X147425295Y-111134285D01*
X147425295Y-111134285D02*
X147520533Y-111134285D01*
X147520533Y-111134285D02*
X147663390Y-111181904D01*
X147663390Y-111181904D02*
X148234819Y-111753332D01*
X148234819Y-111753332D02*
X148234819Y-111134285D01*
X90454819Y-112888066D02*
X89978628Y-113221399D01*
X90454819Y-113459494D02*
X89454819Y-113459494D01*
X89454819Y-113459494D02*
X89454819Y-113078542D01*
X89454819Y-113078542D02*
X89502438Y-112983304D01*
X89502438Y-112983304D02*
X89550057Y-112935685D01*
X89550057Y-112935685D02*
X89645295Y-112888066D01*
X89645295Y-112888066D02*
X89788152Y-112888066D01*
X89788152Y-112888066D02*
X89883390Y-112935685D01*
X89883390Y-112935685D02*
X89931009Y-112983304D01*
X89931009Y-112983304D02*
X89978628Y-113078542D01*
X89978628Y-113078542D02*
X89978628Y-113459494D01*
X89788152Y-112030923D02*
X90454819Y-112030923D01*
X89407200Y-112269018D02*
X90121485Y-112507113D01*
X90121485Y-112507113D02*
X90121485Y-111888066D01*
X100333333Y-119980980D02*
X100285714Y-120028600D01*
X100285714Y-120028600D02*
X100142857Y-120076219D01*
X100142857Y-120076219D02*
X100047619Y-120076219D01*
X100047619Y-120076219D02*
X99904762Y-120028600D01*
X99904762Y-120028600D02*
X99809524Y-119933361D01*
X99809524Y-119933361D02*
X99761905Y-119838123D01*
X99761905Y-119838123D02*
X99714286Y-119647647D01*
X99714286Y-119647647D02*
X99714286Y-119504790D01*
X99714286Y-119504790D02*
X99761905Y-119314314D01*
X99761905Y-119314314D02*
X99809524Y-119219076D01*
X99809524Y-119219076D02*
X99904762Y-119123838D01*
X99904762Y-119123838D02*
X100047619Y-119076219D01*
X100047619Y-119076219D02*
X100142857Y-119076219D01*
X100142857Y-119076219D02*
X100285714Y-119123838D01*
X100285714Y-119123838D02*
X100333333Y-119171457D01*
X100666667Y-119076219D02*
X101333333Y-119076219D01*
X101333333Y-119076219D02*
X100904762Y-120076219D01*
X103659580Y-109988066D02*
X103707200Y-110035685D01*
X103707200Y-110035685D02*
X103754819Y-110178542D01*
X103754819Y-110178542D02*
X103754819Y-110273780D01*
X103754819Y-110273780D02*
X103707200Y-110416637D01*
X103707200Y-110416637D02*
X103611961Y-110511875D01*
X103611961Y-110511875D02*
X103516723Y-110559494D01*
X103516723Y-110559494D02*
X103326247Y-110607113D01*
X103326247Y-110607113D02*
X103183390Y-110607113D01*
X103183390Y-110607113D02*
X102992914Y-110559494D01*
X102992914Y-110559494D02*
X102897676Y-110511875D01*
X102897676Y-110511875D02*
X102802438Y-110416637D01*
X102802438Y-110416637D02*
X102754819Y-110273780D01*
X102754819Y-110273780D02*
X102754819Y-110178542D01*
X102754819Y-110178542D02*
X102802438Y-110035685D01*
X102802438Y-110035685D02*
X102850057Y-109988066D01*
X103183390Y-109416637D02*
X103135771Y-109511875D01*
X103135771Y-109511875D02*
X103088152Y-109559494D01*
X103088152Y-109559494D02*
X102992914Y-109607113D01*
X102992914Y-109607113D02*
X102945295Y-109607113D01*
X102945295Y-109607113D02*
X102850057Y-109559494D01*
X102850057Y-109559494D02*
X102802438Y-109511875D01*
X102802438Y-109511875D02*
X102754819Y-109416637D01*
X102754819Y-109416637D02*
X102754819Y-109226161D01*
X102754819Y-109226161D02*
X102802438Y-109130923D01*
X102802438Y-109130923D02*
X102850057Y-109083304D01*
X102850057Y-109083304D02*
X102945295Y-109035685D01*
X102945295Y-109035685D02*
X102992914Y-109035685D01*
X102992914Y-109035685D02*
X103088152Y-109083304D01*
X103088152Y-109083304D02*
X103135771Y-109130923D01*
X103135771Y-109130923D02*
X103183390Y-109226161D01*
X103183390Y-109226161D02*
X103183390Y-109416637D01*
X103183390Y-109416637D02*
X103231009Y-109511875D01*
X103231009Y-109511875D02*
X103278628Y-109559494D01*
X103278628Y-109559494D02*
X103373866Y-109607113D01*
X103373866Y-109607113D02*
X103564342Y-109607113D01*
X103564342Y-109607113D02*
X103659580Y-109559494D01*
X103659580Y-109559494D02*
X103707200Y-109511875D01*
X103707200Y-109511875D02*
X103754819Y-109416637D01*
X103754819Y-109416637D02*
X103754819Y-109226161D01*
X103754819Y-109226161D02*
X103707200Y-109130923D01*
X103707200Y-109130923D02*
X103659580Y-109083304D01*
X103659580Y-109083304D02*
X103564342Y-109035685D01*
X103564342Y-109035685D02*
X103373866Y-109035685D01*
X103373866Y-109035685D02*
X103278628Y-109083304D01*
X103278628Y-109083304D02*
X103231009Y-109130923D01*
X103231009Y-109130923D02*
X103183390Y-109226161D01*
X110954819Y-120864257D02*
X110478628Y-121197590D01*
X110954819Y-121435685D02*
X109954819Y-121435685D01*
X109954819Y-121435685D02*
X109954819Y-121054733D01*
X109954819Y-121054733D02*
X110002438Y-120959495D01*
X110002438Y-120959495D02*
X110050057Y-120911876D01*
X110050057Y-120911876D02*
X110145295Y-120864257D01*
X110145295Y-120864257D02*
X110288152Y-120864257D01*
X110288152Y-120864257D02*
X110383390Y-120911876D01*
X110383390Y-120911876D02*
X110431009Y-120959495D01*
X110431009Y-120959495D02*
X110478628Y-121054733D01*
X110478628Y-121054733D02*
X110478628Y-121435685D01*
X110954819Y-119911876D02*
X110954819Y-120483304D01*
X110954819Y-120197590D02*
X109954819Y-120197590D01*
X109954819Y-120197590D02*
X110097676Y-120292828D01*
X110097676Y-120292828D02*
X110192914Y-120388066D01*
X110192914Y-120388066D02*
X110240533Y-120483304D01*
X109954819Y-119578542D02*
X109954819Y-118959495D01*
X109954819Y-118959495D02*
X110335771Y-119292828D01*
X110335771Y-119292828D02*
X110335771Y-119149971D01*
X110335771Y-119149971D02*
X110383390Y-119054733D01*
X110383390Y-119054733D02*
X110431009Y-119007114D01*
X110431009Y-119007114D02*
X110526247Y-118959495D01*
X110526247Y-118959495D02*
X110764342Y-118959495D01*
X110764342Y-118959495D02*
X110859580Y-119007114D01*
X110859580Y-119007114D02*
X110907200Y-119054733D01*
X110907200Y-119054733D02*
X110954819Y-119149971D01*
X110954819Y-119149971D02*
X110954819Y-119435685D01*
X110954819Y-119435685D02*
X110907200Y-119530923D01*
X110907200Y-119530923D02*
X110859580Y-119578542D01*
X95440833Y-118724819D02*
X95107500Y-118248628D01*
X94869405Y-118724819D02*
X94869405Y-117724819D01*
X94869405Y-117724819D02*
X95250357Y-117724819D01*
X95250357Y-117724819D02*
X95345595Y-117772438D01*
X95345595Y-117772438D02*
X95393214Y-117820057D01*
X95393214Y-117820057D02*
X95440833Y-117915295D01*
X95440833Y-117915295D02*
X95440833Y-118058152D01*
X95440833Y-118058152D02*
X95393214Y-118153390D01*
X95393214Y-118153390D02*
X95345595Y-118201009D01*
X95345595Y-118201009D02*
X95250357Y-118248628D01*
X95250357Y-118248628D02*
X94869405Y-118248628D01*
X96297976Y-117724819D02*
X96107500Y-117724819D01*
X96107500Y-117724819D02*
X96012262Y-117772438D01*
X96012262Y-117772438D02*
X95964643Y-117820057D01*
X95964643Y-117820057D02*
X95869405Y-117962914D01*
X95869405Y-117962914D02*
X95821786Y-118153390D01*
X95821786Y-118153390D02*
X95821786Y-118534342D01*
X95821786Y-118534342D02*
X95869405Y-118629580D01*
X95869405Y-118629580D02*
X95917024Y-118677200D01*
X95917024Y-118677200D02*
X96012262Y-118724819D01*
X96012262Y-118724819D02*
X96202738Y-118724819D01*
X96202738Y-118724819D02*
X96297976Y-118677200D01*
X96297976Y-118677200D02*
X96345595Y-118629580D01*
X96345595Y-118629580D02*
X96393214Y-118534342D01*
X96393214Y-118534342D02*
X96393214Y-118296247D01*
X96393214Y-118296247D02*
X96345595Y-118201009D01*
X96345595Y-118201009D02*
X96297976Y-118153390D01*
X96297976Y-118153390D02*
X96202738Y-118105771D01*
X96202738Y-118105771D02*
X96012262Y-118105771D01*
X96012262Y-118105771D02*
X95917024Y-118153390D01*
X95917024Y-118153390D02*
X95869405Y-118201009D01*
X95869405Y-118201009D02*
X95821786Y-118296247D01*
X128352157Y-85559536D02*
X128304538Y-85607156D01*
X128304538Y-85607156D02*
X128161681Y-85654775D01*
X128161681Y-85654775D02*
X128066443Y-85654775D01*
X128066443Y-85654775D02*
X127923586Y-85607156D01*
X127923586Y-85607156D02*
X127828348Y-85511917D01*
X127828348Y-85511917D02*
X127780729Y-85416679D01*
X127780729Y-85416679D02*
X127733110Y-85226203D01*
X127733110Y-85226203D02*
X127733110Y-85083346D01*
X127733110Y-85083346D02*
X127780729Y-84892870D01*
X127780729Y-84892870D02*
X127828348Y-84797632D01*
X127828348Y-84797632D02*
X127923586Y-84702394D01*
X127923586Y-84702394D02*
X128066443Y-84654775D01*
X128066443Y-84654775D02*
X128161681Y-84654775D01*
X128161681Y-84654775D02*
X128304538Y-84702394D01*
X128304538Y-84702394D02*
X128352157Y-84750013D01*
X128733110Y-84750013D02*
X128780729Y-84702394D01*
X128780729Y-84702394D02*
X128875967Y-84654775D01*
X128875967Y-84654775D02*
X129114062Y-84654775D01*
X129114062Y-84654775D02*
X129209300Y-84702394D01*
X129209300Y-84702394D02*
X129256919Y-84750013D01*
X129256919Y-84750013D02*
X129304538Y-84845251D01*
X129304538Y-84845251D02*
X129304538Y-84940489D01*
X129304538Y-84940489D02*
X129256919Y-85083346D01*
X129256919Y-85083346D02*
X128685491Y-85654775D01*
X128685491Y-85654775D02*
X129304538Y-85654775D01*
X133633333Y-116976219D02*
X133300000Y-116500028D01*
X133061905Y-116976219D02*
X133061905Y-115976219D01*
X133061905Y-115976219D02*
X133442857Y-115976219D01*
X133442857Y-115976219D02*
X133538095Y-116023838D01*
X133538095Y-116023838D02*
X133585714Y-116071457D01*
X133585714Y-116071457D02*
X133633333Y-116166695D01*
X133633333Y-116166695D02*
X133633333Y-116309552D01*
X133633333Y-116309552D02*
X133585714Y-116404790D01*
X133585714Y-116404790D02*
X133538095Y-116452409D01*
X133538095Y-116452409D02*
X133442857Y-116500028D01*
X133442857Y-116500028D02*
X133061905Y-116500028D01*
X134109524Y-116976219D02*
X134300000Y-116976219D01*
X134300000Y-116976219D02*
X134395238Y-116928600D01*
X134395238Y-116928600D02*
X134442857Y-116880980D01*
X134442857Y-116880980D02*
X134538095Y-116738123D01*
X134538095Y-116738123D02*
X134585714Y-116547647D01*
X134585714Y-116547647D02*
X134585714Y-116166695D01*
X134585714Y-116166695D02*
X134538095Y-116071457D01*
X134538095Y-116071457D02*
X134490476Y-116023838D01*
X134490476Y-116023838D02*
X134395238Y-115976219D01*
X134395238Y-115976219D02*
X134204762Y-115976219D01*
X134204762Y-115976219D02*
X134109524Y-116023838D01*
X134109524Y-116023838D02*
X134061905Y-116071457D01*
X134061905Y-116071457D02*
X134014286Y-116166695D01*
X134014286Y-116166695D02*
X134014286Y-116404790D01*
X134014286Y-116404790D02*
X134061905Y-116500028D01*
X134061905Y-116500028D02*
X134109524Y-116547647D01*
X134109524Y-116547647D02*
X134204762Y-116595266D01*
X134204762Y-116595266D02*
X134395238Y-116595266D01*
X134395238Y-116595266D02*
X134490476Y-116547647D01*
X134490476Y-116547647D02*
X134538095Y-116500028D01*
X134538095Y-116500028D02*
X134585714Y-116404790D01*
X150884819Y-77743333D02*
X151599104Y-77743333D01*
X151599104Y-77743333D02*
X151741961Y-77790952D01*
X151741961Y-77790952D02*
X151837200Y-77886190D01*
X151837200Y-77886190D02*
X151884819Y-78029047D01*
X151884819Y-78029047D02*
X151884819Y-78124285D01*
X151884819Y-76743333D02*
X151884819Y-77314761D01*
X151884819Y-77029047D02*
X150884819Y-77029047D01*
X150884819Y-77029047D02*
X151027676Y-77124285D01*
X151027676Y-77124285D02*
X151122914Y-77219523D01*
X151122914Y-77219523D02*
X151170533Y-77314761D01*
X121297319Y-101330357D02*
X120821128Y-101663690D01*
X121297319Y-101901785D02*
X120297319Y-101901785D01*
X120297319Y-101901785D02*
X120297319Y-101520833D01*
X120297319Y-101520833D02*
X120344938Y-101425595D01*
X120344938Y-101425595D02*
X120392557Y-101377976D01*
X120392557Y-101377976D02*
X120487795Y-101330357D01*
X120487795Y-101330357D02*
X120630652Y-101330357D01*
X120630652Y-101330357D02*
X120725890Y-101377976D01*
X120725890Y-101377976D02*
X120773509Y-101425595D01*
X120773509Y-101425595D02*
X120821128Y-101520833D01*
X120821128Y-101520833D02*
X120821128Y-101901785D01*
X121297319Y-100377976D02*
X121297319Y-100949404D01*
X121297319Y-100663690D02*
X120297319Y-100663690D01*
X120297319Y-100663690D02*
X120440176Y-100758928D01*
X120440176Y-100758928D02*
X120535414Y-100854166D01*
X120535414Y-100854166D02*
X120583033Y-100949404D01*
X120297319Y-99758928D02*
X120297319Y-99663690D01*
X120297319Y-99663690D02*
X120344938Y-99568452D01*
X120344938Y-99568452D02*
X120392557Y-99520833D01*
X120392557Y-99520833D02*
X120487795Y-99473214D01*
X120487795Y-99473214D02*
X120678271Y-99425595D01*
X120678271Y-99425595D02*
X120916366Y-99425595D01*
X120916366Y-99425595D02*
X121106842Y-99473214D01*
X121106842Y-99473214D02*
X121202080Y-99520833D01*
X121202080Y-99520833D02*
X121249700Y-99568452D01*
X121249700Y-99568452D02*
X121297319Y-99663690D01*
X121297319Y-99663690D02*
X121297319Y-99758928D01*
X121297319Y-99758928D02*
X121249700Y-99854166D01*
X121249700Y-99854166D02*
X121202080Y-99901785D01*
X121202080Y-99901785D02*
X121106842Y-99949404D01*
X121106842Y-99949404D02*
X120916366Y-99997023D01*
X120916366Y-99997023D02*
X120678271Y-99997023D01*
X120678271Y-99997023D02*
X120487795Y-99949404D01*
X120487795Y-99949404D02*
X120392557Y-99901785D01*
X120392557Y-99901785D02*
X120344938Y-99854166D01*
X120344938Y-99854166D02*
X120297319Y-99758928D01*
X110759580Y-108464257D02*
X110807200Y-108511876D01*
X110807200Y-108511876D02*
X110854819Y-108654733D01*
X110854819Y-108654733D02*
X110854819Y-108749971D01*
X110854819Y-108749971D02*
X110807200Y-108892828D01*
X110807200Y-108892828D02*
X110711961Y-108988066D01*
X110711961Y-108988066D02*
X110616723Y-109035685D01*
X110616723Y-109035685D02*
X110426247Y-109083304D01*
X110426247Y-109083304D02*
X110283390Y-109083304D01*
X110283390Y-109083304D02*
X110092914Y-109035685D01*
X110092914Y-109035685D02*
X109997676Y-108988066D01*
X109997676Y-108988066D02*
X109902438Y-108892828D01*
X109902438Y-108892828D02*
X109854819Y-108749971D01*
X109854819Y-108749971D02*
X109854819Y-108654733D01*
X109854819Y-108654733D02*
X109902438Y-108511876D01*
X109902438Y-108511876D02*
X109950057Y-108464257D01*
X110854819Y-107511876D02*
X110854819Y-108083304D01*
X110854819Y-107797590D02*
X109854819Y-107797590D01*
X109854819Y-107797590D02*
X109997676Y-107892828D01*
X109997676Y-107892828D02*
X110092914Y-107988066D01*
X110092914Y-107988066D02*
X110140533Y-108083304D01*
X109854819Y-106892828D02*
X109854819Y-106797590D01*
X109854819Y-106797590D02*
X109902438Y-106702352D01*
X109902438Y-106702352D02*
X109950057Y-106654733D01*
X109950057Y-106654733D02*
X110045295Y-106607114D01*
X110045295Y-106607114D02*
X110235771Y-106559495D01*
X110235771Y-106559495D02*
X110473866Y-106559495D01*
X110473866Y-106559495D02*
X110664342Y-106607114D01*
X110664342Y-106607114D02*
X110759580Y-106654733D01*
X110759580Y-106654733D02*
X110807200Y-106702352D01*
X110807200Y-106702352D02*
X110854819Y-106797590D01*
X110854819Y-106797590D02*
X110854819Y-106892828D01*
X110854819Y-106892828D02*
X110807200Y-106988066D01*
X110807200Y-106988066D02*
X110759580Y-107035685D01*
X110759580Y-107035685D02*
X110664342Y-107083304D01*
X110664342Y-107083304D02*
X110473866Y-107130923D01*
X110473866Y-107130923D02*
X110235771Y-107130923D01*
X110235771Y-107130923D02*
X110045295Y-107083304D01*
X110045295Y-107083304D02*
X109950057Y-107035685D01*
X109950057Y-107035685D02*
X109902438Y-106988066D01*
X109902438Y-106988066D02*
X109854819Y-106892828D01*
X150884819Y-87943333D02*
X151599104Y-87943333D01*
X151599104Y-87943333D02*
X151741961Y-87990952D01*
X151741961Y-87990952D02*
X151837200Y-88086190D01*
X151837200Y-88086190D02*
X151884819Y-88229047D01*
X151884819Y-88229047D02*
X151884819Y-88324285D01*
X150884819Y-86990952D02*
X150884819Y-87467142D01*
X150884819Y-87467142D02*
X151361009Y-87514761D01*
X151361009Y-87514761D02*
X151313390Y-87467142D01*
X151313390Y-87467142D02*
X151265771Y-87371904D01*
X151265771Y-87371904D02*
X151265771Y-87133809D01*
X151265771Y-87133809D02*
X151313390Y-87038571D01*
X151313390Y-87038571D02*
X151361009Y-86990952D01*
X151361009Y-86990952D02*
X151456247Y-86943333D01*
X151456247Y-86943333D02*
X151694342Y-86943333D01*
X151694342Y-86943333D02*
X151789580Y-86990952D01*
X151789580Y-86990952D02*
X151837200Y-87038571D01*
X151837200Y-87038571D02*
X151884819Y-87133809D01*
X151884819Y-87133809D02*
X151884819Y-87371904D01*
X151884819Y-87371904D02*
X151837200Y-87467142D01*
X151837200Y-87467142D02*
X151789580Y-87514761D01*
X86929580Y-94304166D02*
X86977200Y-94351785D01*
X86977200Y-94351785D02*
X87024819Y-94494642D01*
X87024819Y-94494642D02*
X87024819Y-94589880D01*
X87024819Y-94589880D02*
X86977200Y-94732737D01*
X86977200Y-94732737D02*
X86881961Y-94827975D01*
X86881961Y-94827975D02*
X86786723Y-94875594D01*
X86786723Y-94875594D02*
X86596247Y-94923213D01*
X86596247Y-94923213D02*
X86453390Y-94923213D01*
X86453390Y-94923213D02*
X86262914Y-94875594D01*
X86262914Y-94875594D02*
X86167676Y-94827975D01*
X86167676Y-94827975D02*
X86072438Y-94732737D01*
X86072438Y-94732737D02*
X86024819Y-94589880D01*
X86024819Y-94589880D02*
X86024819Y-94494642D01*
X86024819Y-94494642D02*
X86072438Y-94351785D01*
X86072438Y-94351785D02*
X86120057Y-94304166D01*
X86024819Y-93447023D02*
X86024819Y-93637499D01*
X86024819Y-93637499D02*
X86072438Y-93732737D01*
X86072438Y-93732737D02*
X86120057Y-93780356D01*
X86120057Y-93780356D02*
X86262914Y-93875594D01*
X86262914Y-93875594D02*
X86453390Y-93923213D01*
X86453390Y-93923213D02*
X86834342Y-93923213D01*
X86834342Y-93923213D02*
X86929580Y-93875594D01*
X86929580Y-93875594D02*
X86977200Y-93827975D01*
X86977200Y-93827975D02*
X87024819Y-93732737D01*
X87024819Y-93732737D02*
X87024819Y-93542261D01*
X87024819Y-93542261D02*
X86977200Y-93447023D01*
X86977200Y-93447023D02*
X86929580Y-93399404D01*
X86929580Y-93399404D02*
X86834342Y-93351785D01*
X86834342Y-93351785D02*
X86596247Y-93351785D01*
X86596247Y-93351785D02*
X86501009Y-93399404D01*
X86501009Y-93399404D02*
X86453390Y-93447023D01*
X86453390Y-93447023D02*
X86405771Y-93542261D01*
X86405771Y-93542261D02*
X86405771Y-93732737D01*
X86405771Y-93732737D02*
X86453390Y-93827975D01*
X86453390Y-93827975D02*
X86501009Y-93875594D01*
X86501009Y-93875594D02*
X86596247Y-93923213D01*
X133618095Y-106009819D02*
X133618095Y-106819342D01*
X133618095Y-106819342D02*
X133665714Y-106914580D01*
X133665714Y-106914580D02*
X133713333Y-106962200D01*
X133713333Y-106962200D02*
X133808571Y-107009819D01*
X133808571Y-107009819D02*
X133999047Y-107009819D01*
X133999047Y-107009819D02*
X134094285Y-106962200D01*
X134094285Y-106962200D02*
X134141904Y-106914580D01*
X134141904Y-106914580D02*
X134189523Y-106819342D01*
X134189523Y-106819342D02*
X134189523Y-106009819D01*
X134618095Y-106105057D02*
X134665714Y-106057438D01*
X134665714Y-106057438D02*
X134760952Y-106009819D01*
X134760952Y-106009819D02*
X134999047Y-106009819D01*
X134999047Y-106009819D02*
X135094285Y-106057438D01*
X135094285Y-106057438D02*
X135141904Y-106105057D01*
X135141904Y-106105057D02*
X135189523Y-106200295D01*
X135189523Y-106200295D02*
X135189523Y-106295533D01*
X135189523Y-106295533D02*
X135141904Y-106438390D01*
X135141904Y-106438390D02*
X134570476Y-107009819D01*
X134570476Y-107009819D02*
X135189523Y-107009819D01*
X87820833Y-66884819D02*
X87487500Y-66408628D01*
X87249405Y-66884819D02*
X87249405Y-65884819D01*
X87249405Y-65884819D02*
X87630357Y-65884819D01*
X87630357Y-65884819D02*
X87725595Y-65932438D01*
X87725595Y-65932438D02*
X87773214Y-65980057D01*
X87773214Y-65980057D02*
X87820833Y-66075295D01*
X87820833Y-66075295D02*
X87820833Y-66218152D01*
X87820833Y-66218152D02*
X87773214Y-66313390D01*
X87773214Y-66313390D02*
X87725595Y-66361009D01*
X87725595Y-66361009D02*
X87630357Y-66408628D01*
X87630357Y-66408628D02*
X87249405Y-66408628D01*
X88773214Y-66884819D02*
X88201786Y-66884819D01*
X88487500Y-66884819D02*
X88487500Y-65884819D01*
X88487500Y-65884819D02*
X88392262Y-66027676D01*
X88392262Y-66027676D02*
X88297024Y-66122914D01*
X88297024Y-66122914D02*
X88201786Y-66170533D01*
X97128333Y-105609580D02*
X97080714Y-105657200D01*
X97080714Y-105657200D02*
X96937857Y-105704819D01*
X96937857Y-105704819D02*
X96842619Y-105704819D01*
X96842619Y-105704819D02*
X96699762Y-105657200D01*
X96699762Y-105657200D02*
X96604524Y-105561961D01*
X96604524Y-105561961D02*
X96556905Y-105466723D01*
X96556905Y-105466723D02*
X96509286Y-105276247D01*
X96509286Y-105276247D02*
X96509286Y-105133390D01*
X96509286Y-105133390D02*
X96556905Y-104942914D01*
X96556905Y-104942914D02*
X96604524Y-104847676D01*
X96604524Y-104847676D02*
X96699762Y-104752438D01*
X96699762Y-104752438D02*
X96842619Y-104704819D01*
X96842619Y-104704819D02*
X96937857Y-104704819D01*
X96937857Y-104704819D02*
X97080714Y-104752438D01*
X97080714Y-104752438D02*
X97128333Y-104800057D01*
X97604524Y-105704819D02*
X97795000Y-105704819D01*
X97795000Y-105704819D02*
X97890238Y-105657200D01*
X97890238Y-105657200D02*
X97937857Y-105609580D01*
X97937857Y-105609580D02*
X98033095Y-105466723D01*
X98033095Y-105466723D02*
X98080714Y-105276247D01*
X98080714Y-105276247D02*
X98080714Y-104895295D01*
X98080714Y-104895295D02*
X98033095Y-104800057D01*
X98033095Y-104800057D02*
X97985476Y-104752438D01*
X97985476Y-104752438D02*
X97890238Y-104704819D01*
X97890238Y-104704819D02*
X97699762Y-104704819D01*
X97699762Y-104704819D02*
X97604524Y-104752438D01*
X97604524Y-104752438D02*
X97556905Y-104800057D01*
X97556905Y-104800057D02*
X97509286Y-104895295D01*
X97509286Y-104895295D02*
X97509286Y-105133390D01*
X97509286Y-105133390D02*
X97556905Y-105228628D01*
X97556905Y-105228628D02*
X97604524Y-105276247D01*
X97604524Y-105276247D02*
X97699762Y-105323866D01*
X97699762Y-105323866D02*
X97890238Y-105323866D01*
X97890238Y-105323866D02*
X97985476Y-105276247D01*
X97985476Y-105276247D02*
X98033095Y-105228628D01*
X98033095Y-105228628D02*
X98080714Y-105133390D01*
X125444642Y-113644819D02*
X125111309Y-113168628D01*
X124873214Y-113644819D02*
X124873214Y-112644819D01*
X124873214Y-112644819D02*
X125254166Y-112644819D01*
X125254166Y-112644819D02*
X125349404Y-112692438D01*
X125349404Y-112692438D02*
X125397023Y-112740057D01*
X125397023Y-112740057D02*
X125444642Y-112835295D01*
X125444642Y-112835295D02*
X125444642Y-112978152D01*
X125444642Y-112978152D02*
X125397023Y-113073390D01*
X125397023Y-113073390D02*
X125349404Y-113121009D01*
X125349404Y-113121009D02*
X125254166Y-113168628D01*
X125254166Y-113168628D02*
X124873214Y-113168628D01*
X126397023Y-113644819D02*
X125825595Y-113644819D01*
X126111309Y-113644819D02*
X126111309Y-112644819D01*
X126111309Y-112644819D02*
X126016071Y-112787676D01*
X126016071Y-112787676D02*
X125920833Y-112882914D01*
X125920833Y-112882914D02*
X125825595Y-112930533D01*
X127349404Y-113644819D02*
X126777976Y-113644819D01*
X127063690Y-113644819D02*
X127063690Y-112644819D01*
X127063690Y-112644819D02*
X126968452Y-112787676D01*
X126968452Y-112787676D02*
X126873214Y-112882914D01*
X126873214Y-112882914D02*
X126777976Y-112930533D01*
X153959580Y-113464257D02*
X154007200Y-113511876D01*
X154007200Y-113511876D02*
X154054819Y-113654733D01*
X154054819Y-113654733D02*
X154054819Y-113749971D01*
X154054819Y-113749971D02*
X154007200Y-113892828D01*
X154007200Y-113892828D02*
X153911961Y-113988066D01*
X153911961Y-113988066D02*
X153816723Y-114035685D01*
X153816723Y-114035685D02*
X153626247Y-114083304D01*
X153626247Y-114083304D02*
X153483390Y-114083304D01*
X153483390Y-114083304D02*
X153292914Y-114035685D01*
X153292914Y-114035685D02*
X153197676Y-113988066D01*
X153197676Y-113988066D02*
X153102438Y-113892828D01*
X153102438Y-113892828D02*
X153054819Y-113749971D01*
X153054819Y-113749971D02*
X153054819Y-113654733D01*
X153054819Y-113654733D02*
X153102438Y-113511876D01*
X153102438Y-113511876D02*
X153150057Y-113464257D01*
X154054819Y-112511876D02*
X154054819Y-113083304D01*
X154054819Y-112797590D02*
X153054819Y-112797590D01*
X153054819Y-112797590D02*
X153197676Y-112892828D01*
X153197676Y-112892828D02*
X153292914Y-112988066D01*
X153292914Y-112988066D02*
X153340533Y-113083304D01*
X153054819Y-111607114D02*
X153054819Y-112083304D01*
X153054819Y-112083304D02*
X153531009Y-112130923D01*
X153531009Y-112130923D02*
X153483390Y-112083304D01*
X153483390Y-112083304D02*
X153435771Y-111988066D01*
X153435771Y-111988066D02*
X153435771Y-111749971D01*
X153435771Y-111749971D02*
X153483390Y-111654733D01*
X153483390Y-111654733D02*
X153531009Y-111607114D01*
X153531009Y-111607114D02*
X153626247Y-111559495D01*
X153626247Y-111559495D02*
X153864342Y-111559495D01*
X153864342Y-111559495D02*
X153959580Y-111607114D01*
X153959580Y-111607114D02*
X154007200Y-111654733D01*
X154007200Y-111654733D02*
X154054819Y-111749971D01*
X154054819Y-111749971D02*
X154054819Y-111988066D01*
X154054819Y-111988066D02*
X154007200Y-112083304D01*
X154007200Y-112083304D02*
X153959580Y-112130923D01*
X154238095Y-117526219D02*
X154238095Y-116526219D01*
X154238095Y-117002409D02*
X154809523Y-117002409D01*
X154809523Y-117526219D02*
X154809523Y-116526219D01*
X155238095Y-116621457D02*
X155285714Y-116573838D01*
X155285714Y-116573838D02*
X155380952Y-116526219D01*
X155380952Y-116526219D02*
X155619047Y-116526219D01*
X155619047Y-116526219D02*
X155714285Y-116573838D01*
X155714285Y-116573838D02*
X155761904Y-116621457D01*
X155761904Y-116621457D02*
X155809523Y-116716695D01*
X155809523Y-116716695D02*
X155809523Y-116811933D01*
X155809523Y-116811933D02*
X155761904Y-116954790D01*
X155761904Y-116954790D02*
X155190476Y-117526219D01*
X155190476Y-117526219D02*
X155809523Y-117526219D01*
X127944657Y-60159536D02*
X127897038Y-60207156D01*
X127897038Y-60207156D02*
X127754181Y-60254775D01*
X127754181Y-60254775D02*
X127658943Y-60254775D01*
X127658943Y-60254775D02*
X127516086Y-60207156D01*
X127516086Y-60207156D02*
X127420848Y-60111917D01*
X127420848Y-60111917D02*
X127373229Y-60016679D01*
X127373229Y-60016679D02*
X127325610Y-59826203D01*
X127325610Y-59826203D02*
X127325610Y-59683346D01*
X127325610Y-59683346D02*
X127373229Y-59492870D01*
X127373229Y-59492870D02*
X127420848Y-59397632D01*
X127420848Y-59397632D02*
X127516086Y-59302394D01*
X127516086Y-59302394D02*
X127658943Y-59254775D01*
X127658943Y-59254775D02*
X127754181Y-59254775D01*
X127754181Y-59254775D02*
X127897038Y-59302394D01*
X127897038Y-59302394D02*
X127944657Y-59350013D01*
X128277991Y-59254775D02*
X128897038Y-59254775D01*
X128897038Y-59254775D02*
X128563705Y-59635727D01*
X128563705Y-59635727D02*
X128706562Y-59635727D01*
X128706562Y-59635727D02*
X128801800Y-59683346D01*
X128801800Y-59683346D02*
X128849419Y-59730965D01*
X128849419Y-59730965D02*
X128897038Y-59826203D01*
X128897038Y-59826203D02*
X128897038Y-60064298D01*
X128897038Y-60064298D02*
X128849419Y-60159536D01*
X128849419Y-60159536D02*
X128801800Y-60207156D01*
X128801800Y-60207156D02*
X128706562Y-60254775D01*
X128706562Y-60254775D02*
X128420848Y-60254775D01*
X128420848Y-60254775D02*
X128325610Y-60207156D01*
X128325610Y-60207156D02*
X128277991Y-60159536D01*
X151649580Y-95416666D02*
X151697200Y-95464285D01*
X151697200Y-95464285D02*
X151744819Y-95607142D01*
X151744819Y-95607142D02*
X151744819Y-95702380D01*
X151744819Y-95702380D02*
X151697200Y-95845237D01*
X151697200Y-95845237D02*
X151601961Y-95940475D01*
X151601961Y-95940475D02*
X151506723Y-95988094D01*
X151506723Y-95988094D02*
X151316247Y-96035713D01*
X151316247Y-96035713D02*
X151173390Y-96035713D01*
X151173390Y-96035713D02*
X150982914Y-95988094D01*
X150982914Y-95988094D02*
X150887676Y-95940475D01*
X150887676Y-95940475D02*
X150792438Y-95845237D01*
X150792438Y-95845237D02*
X150744819Y-95702380D01*
X150744819Y-95702380D02*
X150744819Y-95607142D01*
X150744819Y-95607142D02*
X150792438Y-95464285D01*
X150792438Y-95464285D02*
X150840057Y-95416666D01*
X150744819Y-94511904D02*
X150744819Y-94988094D01*
X150744819Y-94988094D02*
X151221009Y-95035713D01*
X151221009Y-95035713D02*
X151173390Y-94988094D01*
X151173390Y-94988094D02*
X151125771Y-94892856D01*
X151125771Y-94892856D02*
X151125771Y-94654761D01*
X151125771Y-94654761D02*
X151173390Y-94559523D01*
X151173390Y-94559523D02*
X151221009Y-94511904D01*
X151221009Y-94511904D02*
X151316247Y-94464285D01*
X151316247Y-94464285D02*
X151554342Y-94464285D01*
X151554342Y-94464285D02*
X151649580Y-94511904D01*
X151649580Y-94511904D02*
X151697200Y-94559523D01*
X151697200Y-94559523D02*
X151744819Y-94654761D01*
X151744819Y-94654761D02*
X151744819Y-94892856D01*
X151744819Y-94892856D02*
X151697200Y-94988094D01*
X151697200Y-94988094D02*
X151649580Y-95035713D01*
X151554819Y-116764257D02*
X151078628Y-117097590D01*
X151554819Y-117335685D02*
X150554819Y-117335685D01*
X150554819Y-117335685D02*
X150554819Y-116954733D01*
X150554819Y-116954733D02*
X150602438Y-116859495D01*
X150602438Y-116859495D02*
X150650057Y-116811876D01*
X150650057Y-116811876D02*
X150745295Y-116764257D01*
X150745295Y-116764257D02*
X150888152Y-116764257D01*
X150888152Y-116764257D02*
X150983390Y-116811876D01*
X150983390Y-116811876D02*
X151031009Y-116859495D01*
X151031009Y-116859495D02*
X151078628Y-116954733D01*
X151078628Y-116954733D02*
X151078628Y-117335685D01*
X151554819Y-115811876D02*
X151554819Y-116383304D01*
X151554819Y-116097590D02*
X150554819Y-116097590D01*
X150554819Y-116097590D02*
X150697676Y-116192828D01*
X150697676Y-116192828D02*
X150792914Y-116288066D01*
X150792914Y-116288066D02*
X150840533Y-116383304D01*
X150650057Y-115430923D02*
X150602438Y-115383304D01*
X150602438Y-115383304D02*
X150554819Y-115288066D01*
X150554819Y-115288066D02*
X150554819Y-115049971D01*
X150554819Y-115049971D02*
X150602438Y-114954733D01*
X150602438Y-114954733D02*
X150650057Y-114907114D01*
X150650057Y-114907114D02*
X150745295Y-114859495D01*
X150745295Y-114859495D02*
X150840533Y-114859495D01*
X150840533Y-114859495D02*
X150983390Y-114907114D01*
X150983390Y-114907114D02*
X151554819Y-115478542D01*
X151554819Y-115478542D02*
X151554819Y-114859495D01*
X87463333Y-70369580D02*
X87415714Y-70417200D01*
X87415714Y-70417200D02*
X87272857Y-70464819D01*
X87272857Y-70464819D02*
X87177619Y-70464819D01*
X87177619Y-70464819D02*
X87034762Y-70417200D01*
X87034762Y-70417200D02*
X86939524Y-70321961D01*
X86939524Y-70321961D02*
X86891905Y-70226723D01*
X86891905Y-70226723D02*
X86844286Y-70036247D01*
X86844286Y-70036247D02*
X86844286Y-69893390D01*
X86844286Y-69893390D02*
X86891905Y-69702914D01*
X86891905Y-69702914D02*
X86939524Y-69607676D01*
X86939524Y-69607676D02*
X87034762Y-69512438D01*
X87034762Y-69512438D02*
X87177619Y-69464819D01*
X87177619Y-69464819D02*
X87272857Y-69464819D01*
X87272857Y-69464819D02*
X87415714Y-69512438D01*
X87415714Y-69512438D02*
X87463333Y-69560057D01*
X88415714Y-70464819D02*
X87844286Y-70464819D01*
X88130000Y-70464819D02*
X88130000Y-69464819D01*
X88130000Y-69464819D02*
X88034762Y-69607676D01*
X88034762Y-69607676D02*
X87939524Y-69702914D01*
X87939524Y-69702914D02*
X87844286Y-69750533D01*
X141739580Y-111132857D02*
X141787200Y-111180476D01*
X141787200Y-111180476D02*
X141834819Y-111323333D01*
X141834819Y-111323333D02*
X141834819Y-111418571D01*
X141834819Y-111418571D02*
X141787200Y-111561428D01*
X141787200Y-111561428D02*
X141691961Y-111656666D01*
X141691961Y-111656666D02*
X141596723Y-111704285D01*
X141596723Y-111704285D02*
X141406247Y-111751904D01*
X141406247Y-111751904D02*
X141263390Y-111751904D01*
X141263390Y-111751904D02*
X141072914Y-111704285D01*
X141072914Y-111704285D02*
X140977676Y-111656666D01*
X140977676Y-111656666D02*
X140882438Y-111561428D01*
X140882438Y-111561428D02*
X140834819Y-111418571D01*
X140834819Y-111418571D02*
X140834819Y-111323333D01*
X140834819Y-111323333D02*
X140882438Y-111180476D01*
X140882438Y-111180476D02*
X140930057Y-111132857D01*
X141834819Y-110180476D02*
X141834819Y-110751904D01*
X141834819Y-110466190D02*
X140834819Y-110466190D01*
X140834819Y-110466190D02*
X140977676Y-110561428D01*
X140977676Y-110561428D02*
X141072914Y-110656666D01*
X141072914Y-110656666D02*
X141120533Y-110751904D01*
X140834819Y-109847142D02*
X140834819Y-109228095D01*
X140834819Y-109228095D02*
X141215771Y-109561428D01*
X141215771Y-109561428D02*
X141215771Y-109418571D01*
X141215771Y-109418571D02*
X141263390Y-109323333D01*
X141263390Y-109323333D02*
X141311009Y-109275714D01*
X141311009Y-109275714D02*
X141406247Y-109228095D01*
X141406247Y-109228095D02*
X141644342Y-109228095D01*
X141644342Y-109228095D02*
X141739580Y-109275714D01*
X141739580Y-109275714D02*
X141787200Y-109323333D01*
X141787200Y-109323333D02*
X141834819Y-109418571D01*
X141834819Y-109418571D02*
X141834819Y-109704285D01*
X141834819Y-109704285D02*
X141787200Y-109799523D01*
X141787200Y-109799523D02*
X141739580Y-109847142D01*
X144774819Y-87258094D02*
X143774819Y-87258094D01*
X143774819Y-87258094D02*
X143774819Y-87019999D01*
X143774819Y-87019999D02*
X143822438Y-86877142D01*
X143822438Y-86877142D02*
X143917676Y-86781904D01*
X143917676Y-86781904D02*
X144012914Y-86734285D01*
X144012914Y-86734285D02*
X144203390Y-86686666D01*
X144203390Y-86686666D02*
X144346247Y-86686666D01*
X144346247Y-86686666D02*
X144536723Y-86734285D01*
X144536723Y-86734285D02*
X144631961Y-86781904D01*
X144631961Y-86781904D02*
X144727200Y-86877142D01*
X144727200Y-86877142D02*
X144774819Y-87019999D01*
X144774819Y-87019999D02*
X144774819Y-87258094D01*
X144108152Y-85829523D02*
X144774819Y-85829523D01*
X143727200Y-86067618D02*
X144441485Y-86305713D01*
X144441485Y-86305713D02*
X144441485Y-85686666D01*
X92838095Y-48476219D02*
X92838095Y-47476219D01*
X92838095Y-47952409D02*
X93409523Y-47952409D01*
X93409523Y-48476219D02*
X93409523Y-47476219D01*
X93790476Y-47476219D02*
X94409523Y-47476219D01*
X94409523Y-47476219D02*
X94076190Y-47857171D01*
X94076190Y-47857171D02*
X94219047Y-47857171D01*
X94219047Y-47857171D02*
X94314285Y-47904790D01*
X94314285Y-47904790D02*
X94361904Y-47952409D01*
X94361904Y-47952409D02*
X94409523Y-48047647D01*
X94409523Y-48047647D02*
X94409523Y-48285742D01*
X94409523Y-48285742D02*
X94361904Y-48380980D01*
X94361904Y-48380980D02*
X94314285Y-48428600D01*
X94314285Y-48428600D02*
X94219047Y-48476219D01*
X94219047Y-48476219D02*
X93933333Y-48476219D01*
X93933333Y-48476219D02*
X93838095Y-48428600D01*
X93838095Y-48428600D02*
X93790476Y-48380980D01*
X96360595Y-108549819D02*
X96360595Y-109359342D01*
X96360595Y-109359342D02*
X96408214Y-109454580D01*
X96408214Y-109454580D02*
X96455833Y-109502200D01*
X96455833Y-109502200D02*
X96551071Y-109549819D01*
X96551071Y-109549819D02*
X96741547Y-109549819D01*
X96741547Y-109549819D02*
X96836785Y-109502200D01*
X96836785Y-109502200D02*
X96884404Y-109454580D01*
X96884404Y-109454580D02*
X96932023Y-109359342D01*
X96932023Y-109359342D02*
X96932023Y-108549819D01*
X97932023Y-109549819D02*
X97360595Y-109549819D01*
X97646309Y-109549819D02*
X97646309Y-108549819D01*
X97646309Y-108549819D02*
X97551071Y-108692676D01*
X97551071Y-108692676D02*
X97455833Y-108787914D01*
X97455833Y-108787914D02*
X97360595Y-108835533D01*
X150884819Y-65003333D02*
X151599104Y-65003333D01*
X151599104Y-65003333D02*
X151741961Y-65050952D01*
X151741961Y-65050952D02*
X151837200Y-65146190D01*
X151837200Y-65146190D02*
X151884819Y-65289047D01*
X151884819Y-65289047D02*
X151884819Y-65384285D01*
X151218152Y-64098571D02*
X151884819Y-64098571D01*
X150837200Y-64336666D02*
X151551485Y-64574761D01*
X151551485Y-64574761D02*
X151551485Y-63955714D01*
X117254819Y-110388066D02*
X116778628Y-110721399D01*
X117254819Y-110959494D02*
X116254819Y-110959494D01*
X116254819Y-110959494D02*
X116254819Y-110578542D01*
X116254819Y-110578542D02*
X116302438Y-110483304D01*
X116302438Y-110483304D02*
X116350057Y-110435685D01*
X116350057Y-110435685D02*
X116445295Y-110388066D01*
X116445295Y-110388066D02*
X116588152Y-110388066D01*
X116588152Y-110388066D02*
X116683390Y-110435685D01*
X116683390Y-110435685D02*
X116731009Y-110483304D01*
X116731009Y-110483304D02*
X116778628Y-110578542D01*
X116778628Y-110578542D02*
X116778628Y-110959494D01*
X116254819Y-109483304D02*
X116254819Y-109959494D01*
X116254819Y-109959494D02*
X116731009Y-110007113D01*
X116731009Y-110007113D02*
X116683390Y-109959494D01*
X116683390Y-109959494D02*
X116635771Y-109864256D01*
X116635771Y-109864256D02*
X116635771Y-109626161D01*
X116635771Y-109626161D02*
X116683390Y-109530923D01*
X116683390Y-109530923D02*
X116731009Y-109483304D01*
X116731009Y-109483304D02*
X116826247Y-109435685D01*
X116826247Y-109435685D02*
X117064342Y-109435685D01*
X117064342Y-109435685D02*
X117159580Y-109483304D01*
X117159580Y-109483304D02*
X117207200Y-109530923D01*
X117207200Y-109530923D02*
X117254819Y-109626161D01*
X117254819Y-109626161D02*
X117254819Y-109864256D01*
X117254819Y-109864256D02*
X117207200Y-109959494D01*
X117207200Y-109959494D02*
X117159580Y-110007113D01*
X123024819Y-92166666D02*
X122548628Y-92499999D01*
X123024819Y-92738094D02*
X122024819Y-92738094D01*
X122024819Y-92738094D02*
X122024819Y-92357142D01*
X122024819Y-92357142D02*
X122072438Y-92261904D01*
X122072438Y-92261904D02*
X122120057Y-92214285D01*
X122120057Y-92214285D02*
X122215295Y-92166666D01*
X122215295Y-92166666D02*
X122358152Y-92166666D01*
X122358152Y-92166666D02*
X122453390Y-92214285D01*
X122453390Y-92214285D02*
X122501009Y-92261904D01*
X122501009Y-92261904D02*
X122548628Y-92357142D01*
X122548628Y-92357142D02*
X122548628Y-92738094D01*
X122024819Y-91833332D02*
X122024819Y-91214285D01*
X122024819Y-91214285D02*
X122405771Y-91547618D01*
X122405771Y-91547618D02*
X122405771Y-91404761D01*
X122405771Y-91404761D02*
X122453390Y-91309523D01*
X122453390Y-91309523D02*
X122501009Y-91261904D01*
X122501009Y-91261904D02*
X122596247Y-91214285D01*
X122596247Y-91214285D02*
X122834342Y-91214285D01*
X122834342Y-91214285D02*
X122929580Y-91261904D01*
X122929580Y-91261904D02*
X122977200Y-91309523D01*
X122977200Y-91309523D02*
X123024819Y-91404761D01*
X123024819Y-91404761D02*
X123024819Y-91690475D01*
X123024819Y-91690475D02*
X122977200Y-91785713D01*
X122977200Y-91785713D02*
X122929580Y-91833332D01*
X103973333Y-102414819D02*
X103497143Y-102414819D01*
X103497143Y-102414819D02*
X103497143Y-101414819D01*
X104259048Y-101510057D02*
X104306667Y-101462438D01*
X104306667Y-101462438D02*
X104401905Y-101414819D01*
X104401905Y-101414819D02*
X104640000Y-101414819D01*
X104640000Y-101414819D02*
X104735238Y-101462438D01*
X104735238Y-101462438D02*
X104782857Y-101510057D01*
X104782857Y-101510057D02*
X104830476Y-101605295D01*
X104830476Y-101605295D02*
X104830476Y-101700533D01*
X104830476Y-101700533D02*
X104782857Y-101843390D01*
X104782857Y-101843390D02*
X104211429Y-102414819D01*
X104211429Y-102414819D02*
X104830476Y-102414819D01*
X150884819Y-98063333D02*
X151599104Y-98063333D01*
X151599104Y-98063333D02*
X151741961Y-98110952D01*
X151741961Y-98110952D02*
X151837200Y-98206190D01*
X151837200Y-98206190D02*
X151884819Y-98349047D01*
X151884819Y-98349047D02*
X151884819Y-98444285D01*
X150884819Y-97158571D02*
X150884819Y-97349047D01*
X150884819Y-97349047D02*
X150932438Y-97444285D01*
X150932438Y-97444285D02*
X150980057Y-97491904D01*
X150980057Y-97491904D02*
X151122914Y-97587142D01*
X151122914Y-97587142D02*
X151313390Y-97634761D01*
X151313390Y-97634761D02*
X151694342Y-97634761D01*
X151694342Y-97634761D02*
X151789580Y-97587142D01*
X151789580Y-97587142D02*
X151837200Y-97539523D01*
X151837200Y-97539523D02*
X151884819Y-97444285D01*
X151884819Y-97444285D02*
X151884819Y-97253809D01*
X151884819Y-97253809D02*
X151837200Y-97158571D01*
X151837200Y-97158571D02*
X151789580Y-97110952D01*
X151789580Y-97110952D02*
X151694342Y-97063333D01*
X151694342Y-97063333D02*
X151456247Y-97063333D01*
X151456247Y-97063333D02*
X151361009Y-97110952D01*
X151361009Y-97110952D02*
X151313390Y-97158571D01*
X151313390Y-97158571D02*
X151265771Y-97253809D01*
X151265771Y-97253809D02*
X151265771Y-97444285D01*
X151265771Y-97444285D02*
X151313390Y-97539523D01*
X151313390Y-97539523D02*
X151361009Y-97587142D01*
X151361009Y-97587142D02*
X151456247Y-97634761D01*
X129054819Y-106188066D02*
X128578628Y-106521399D01*
X129054819Y-106759494D02*
X128054819Y-106759494D01*
X128054819Y-106759494D02*
X128054819Y-106378542D01*
X128054819Y-106378542D02*
X128102438Y-106283304D01*
X128102438Y-106283304D02*
X128150057Y-106235685D01*
X128150057Y-106235685D02*
X128245295Y-106188066D01*
X128245295Y-106188066D02*
X128388152Y-106188066D01*
X128388152Y-106188066D02*
X128483390Y-106235685D01*
X128483390Y-106235685D02*
X128531009Y-106283304D01*
X128531009Y-106283304D02*
X128578628Y-106378542D01*
X128578628Y-106378542D02*
X128578628Y-106759494D01*
X128054819Y-105854732D02*
X128054819Y-105188066D01*
X128054819Y-105188066D02*
X129054819Y-105616637D01*
X119245833Y-92024819D02*
X118912500Y-91548628D01*
X118674405Y-92024819D02*
X118674405Y-91024819D01*
X118674405Y-91024819D02*
X119055357Y-91024819D01*
X119055357Y-91024819D02*
X119150595Y-91072438D01*
X119150595Y-91072438D02*
X119198214Y-91120057D01*
X119198214Y-91120057D02*
X119245833Y-91215295D01*
X119245833Y-91215295D02*
X119245833Y-91358152D01*
X119245833Y-91358152D02*
X119198214Y-91453390D01*
X119198214Y-91453390D02*
X119150595Y-91501009D01*
X119150595Y-91501009D02*
X119055357Y-91548628D01*
X119055357Y-91548628D02*
X118674405Y-91548628D01*
X119626786Y-91120057D02*
X119674405Y-91072438D01*
X119674405Y-91072438D02*
X119769643Y-91024819D01*
X119769643Y-91024819D02*
X120007738Y-91024819D01*
X120007738Y-91024819D02*
X120102976Y-91072438D01*
X120102976Y-91072438D02*
X120150595Y-91120057D01*
X120150595Y-91120057D02*
X120198214Y-91215295D01*
X120198214Y-91215295D02*
X120198214Y-91310533D01*
X120198214Y-91310533D02*
X120150595Y-91453390D01*
X120150595Y-91453390D02*
X119579167Y-92024819D01*
X119579167Y-92024819D02*
X120198214Y-92024819D01*
X158459580Y-105664257D02*
X158507200Y-105711876D01*
X158507200Y-105711876D02*
X158554819Y-105854733D01*
X158554819Y-105854733D02*
X158554819Y-105949971D01*
X158554819Y-105949971D02*
X158507200Y-106092828D01*
X158507200Y-106092828D02*
X158411961Y-106188066D01*
X158411961Y-106188066D02*
X158316723Y-106235685D01*
X158316723Y-106235685D02*
X158126247Y-106283304D01*
X158126247Y-106283304D02*
X157983390Y-106283304D01*
X157983390Y-106283304D02*
X157792914Y-106235685D01*
X157792914Y-106235685D02*
X157697676Y-106188066D01*
X157697676Y-106188066D02*
X157602438Y-106092828D01*
X157602438Y-106092828D02*
X157554819Y-105949971D01*
X157554819Y-105949971D02*
X157554819Y-105854733D01*
X157554819Y-105854733D02*
X157602438Y-105711876D01*
X157602438Y-105711876D02*
X157650057Y-105664257D01*
X158554819Y-104711876D02*
X158554819Y-105283304D01*
X158554819Y-104997590D02*
X157554819Y-104997590D01*
X157554819Y-104997590D02*
X157697676Y-105092828D01*
X157697676Y-105092828D02*
X157792914Y-105188066D01*
X157792914Y-105188066D02*
X157840533Y-105283304D01*
X157554819Y-103854733D02*
X157554819Y-104045209D01*
X157554819Y-104045209D02*
X157602438Y-104140447D01*
X157602438Y-104140447D02*
X157650057Y-104188066D01*
X157650057Y-104188066D02*
X157792914Y-104283304D01*
X157792914Y-104283304D02*
X157983390Y-104330923D01*
X157983390Y-104330923D02*
X158364342Y-104330923D01*
X158364342Y-104330923D02*
X158459580Y-104283304D01*
X158459580Y-104283304D02*
X158507200Y-104235685D01*
X158507200Y-104235685D02*
X158554819Y-104140447D01*
X158554819Y-104140447D02*
X158554819Y-103949971D01*
X158554819Y-103949971D02*
X158507200Y-103854733D01*
X158507200Y-103854733D02*
X158459580Y-103807114D01*
X158459580Y-103807114D02*
X158364342Y-103759495D01*
X158364342Y-103759495D02*
X158126247Y-103759495D01*
X158126247Y-103759495D02*
X158031009Y-103807114D01*
X158031009Y-103807114D02*
X157983390Y-103854733D01*
X157983390Y-103854733D02*
X157935771Y-103949971D01*
X157935771Y-103949971D02*
X157935771Y-104140447D01*
X157935771Y-104140447D02*
X157983390Y-104235685D01*
X157983390Y-104235685D02*
X158031009Y-104283304D01*
X158031009Y-104283304D02*
X158126247Y-104330923D01*
X89884819Y-98291666D02*
X89884819Y-98767856D01*
X89884819Y-98767856D02*
X88884819Y-98767856D01*
X89884819Y-97434523D02*
X89884819Y-98005951D01*
X89884819Y-97720237D02*
X88884819Y-97720237D01*
X88884819Y-97720237D02*
X89027676Y-97815475D01*
X89027676Y-97815475D02*
X89122914Y-97910713D01*
X89122914Y-97910713D02*
X89170533Y-98005951D01*
X89238095Y-117526219D02*
X89238095Y-116526219D01*
X89238095Y-117002409D02*
X89809523Y-117002409D01*
X89809523Y-117526219D02*
X89809523Y-116526219D01*
X90809523Y-117526219D02*
X90238095Y-117526219D01*
X90523809Y-117526219D02*
X90523809Y-116526219D01*
X90523809Y-116526219D02*
X90428571Y-116669076D01*
X90428571Y-116669076D02*
X90333333Y-116764314D01*
X90333333Y-116764314D02*
X90238095Y-116811933D01*
X150359580Y-104564257D02*
X150407200Y-104611876D01*
X150407200Y-104611876D02*
X150454819Y-104754733D01*
X150454819Y-104754733D02*
X150454819Y-104849971D01*
X150454819Y-104849971D02*
X150407200Y-104992828D01*
X150407200Y-104992828D02*
X150311961Y-105088066D01*
X150311961Y-105088066D02*
X150216723Y-105135685D01*
X150216723Y-105135685D02*
X150026247Y-105183304D01*
X150026247Y-105183304D02*
X149883390Y-105183304D01*
X149883390Y-105183304D02*
X149692914Y-105135685D01*
X149692914Y-105135685D02*
X149597676Y-105088066D01*
X149597676Y-105088066D02*
X149502438Y-104992828D01*
X149502438Y-104992828D02*
X149454819Y-104849971D01*
X149454819Y-104849971D02*
X149454819Y-104754733D01*
X149454819Y-104754733D02*
X149502438Y-104611876D01*
X149502438Y-104611876D02*
X149550057Y-104564257D01*
X150454819Y-103611876D02*
X150454819Y-104183304D01*
X150454819Y-103897590D02*
X149454819Y-103897590D01*
X149454819Y-103897590D02*
X149597676Y-103992828D01*
X149597676Y-103992828D02*
X149692914Y-104088066D01*
X149692914Y-104088066D02*
X149740533Y-104183304D01*
X149454819Y-103278542D02*
X149454819Y-102611876D01*
X149454819Y-102611876D02*
X150454819Y-103040447D01*
X133839657Y-85559536D02*
X133792038Y-85607156D01*
X133792038Y-85607156D02*
X133649181Y-85654775D01*
X133649181Y-85654775D02*
X133553943Y-85654775D01*
X133553943Y-85654775D02*
X133411086Y-85607156D01*
X133411086Y-85607156D02*
X133315848Y-85511917D01*
X133315848Y-85511917D02*
X133268229Y-85416679D01*
X133268229Y-85416679D02*
X133220610Y-85226203D01*
X133220610Y-85226203D02*
X133220610Y-85083346D01*
X133220610Y-85083346D02*
X133268229Y-84892870D01*
X133268229Y-84892870D02*
X133315848Y-84797632D01*
X133315848Y-84797632D02*
X133411086Y-84702394D01*
X133411086Y-84702394D02*
X133553943Y-84654775D01*
X133553943Y-84654775D02*
X133649181Y-84654775D01*
X133649181Y-84654775D02*
X133792038Y-84702394D01*
X133792038Y-84702394D02*
X133839657Y-84750013D01*
X134696800Y-84988108D02*
X134696800Y-85654775D01*
X134458705Y-84607156D02*
X134220610Y-85321441D01*
X134220610Y-85321441D02*
X134839657Y-85321441D01*
X137057142Y-116480980D02*
X137009523Y-116528600D01*
X137009523Y-116528600D02*
X136866666Y-116576219D01*
X136866666Y-116576219D02*
X136771428Y-116576219D01*
X136771428Y-116576219D02*
X136628571Y-116528600D01*
X136628571Y-116528600D02*
X136533333Y-116433361D01*
X136533333Y-116433361D02*
X136485714Y-116338123D01*
X136485714Y-116338123D02*
X136438095Y-116147647D01*
X136438095Y-116147647D02*
X136438095Y-116004790D01*
X136438095Y-116004790D02*
X136485714Y-115814314D01*
X136485714Y-115814314D02*
X136533333Y-115719076D01*
X136533333Y-115719076D02*
X136628571Y-115623838D01*
X136628571Y-115623838D02*
X136771428Y-115576219D01*
X136771428Y-115576219D02*
X136866666Y-115576219D01*
X136866666Y-115576219D02*
X137009523Y-115623838D01*
X137009523Y-115623838D02*
X137057142Y-115671457D01*
X138009523Y-116576219D02*
X137438095Y-116576219D01*
X137723809Y-116576219D02*
X137723809Y-115576219D01*
X137723809Y-115576219D02*
X137628571Y-115719076D01*
X137628571Y-115719076D02*
X137533333Y-115814314D01*
X137533333Y-115814314D02*
X137438095Y-115861933D01*
X138390476Y-115671457D02*
X138438095Y-115623838D01*
X138438095Y-115623838D02*
X138533333Y-115576219D01*
X138533333Y-115576219D02*
X138771428Y-115576219D01*
X138771428Y-115576219D02*
X138866666Y-115623838D01*
X138866666Y-115623838D02*
X138914285Y-115671457D01*
X138914285Y-115671457D02*
X138961904Y-115766695D01*
X138961904Y-115766695D02*
X138961904Y-115861933D01*
X138961904Y-115861933D02*
X138914285Y-116004790D01*
X138914285Y-116004790D02*
X138342857Y-116576219D01*
X138342857Y-116576219D02*
X138961904Y-116576219D01*
X156254819Y-105988066D02*
X155778628Y-106321399D01*
X156254819Y-106559494D02*
X155254819Y-106559494D01*
X155254819Y-106559494D02*
X155254819Y-106178542D01*
X155254819Y-106178542D02*
X155302438Y-106083304D01*
X155302438Y-106083304D02*
X155350057Y-106035685D01*
X155350057Y-106035685D02*
X155445295Y-105988066D01*
X155445295Y-105988066D02*
X155588152Y-105988066D01*
X155588152Y-105988066D02*
X155683390Y-106035685D01*
X155683390Y-106035685D02*
X155731009Y-106083304D01*
X155731009Y-106083304D02*
X155778628Y-106178542D01*
X155778628Y-106178542D02*
X155778628Y-106559494D01*
X155683390Y-105416637D02*
X155635771Y-105511875D01*
X155635771Y-105511875D02*
X155588152Y-105559494D01*
X155588152Y-105559494D02*
X155492914Y-105607113D01*
X155492914Y-105607113D02*
X155445295Y-105607113D01*
X155445295Y-105607113D02*
X155350057Y-105559494D01*
X155350057Y-105559494D02*
X155302438Y-105511875D01*
X155302438Y-105511875D02*
X155254819Y-105416637D01*
X155254819Y-105416637D02*
X155254819Y-105226161D01*
X155254819Y-105226161D02*
X155302438Y-105130923D01*
X155302438Y-105130923D02*
X155350057Y-105083304D01*
X155350057Y-105083304D02*
X155445295Y-105035685D01*
X155445295Y-105035685D02*
X155492914Y-105035685D01*
X155492914Y-105035685D02*
X155588152Y-105083304D01*
X155588152Y-105083304D02*
X155635771Y-105130923D01*
X155635771Y-105130923D02*
X155683390Y-105226161D01*
X155683390Y-105226161D02*
X155683390Y-105416637D01*
X155683390Y-105416637D02*
X155731009Y-105511875D01*
X155731009Y-105511875D02*
X155778628Y-105559494D01*
X155778628Y-105559494D02*
X155873866Y-105607113D01*
X155873866Y-105607113D02*
X156064342Y-105607113D01*
X156064342Y-105607113D02*
X156159580Y-105559494D01*
X156159580Y-105559494D02*
X156207200Y-105511875D01*
X156207200Y-105511875D02*
X156254819Y-105416637D01*
X156254819Y-105416637D02*
X156254819Y-105226161D01*
X156254819Y-105226161D02*
X156207200Y-105130923D01*
X156207200Y-105130923D02*
X156159580Y-105083304D01*
X156159580Y-105083304D02*
X156064342Y-105035685D01*
X156064342Y-105035685D02*
X155873866Y-105035685D01*
X155873866Y-105035685D02*
X155778628Y-105083304D01*
X155778628Y-105083304D02*
X155731009Y-105130923D01*
X155731009Y-105130923D02*
X155683390Y-105226161D01*
X132212142Y-103689580D02*
X132164523Y-103737200D01*
X132164523Y-103737200D02*
X132021666Y-103784819D01*
X132021666Y-103784819D02*
X131926428Y-103784819D01*
X131926428Y-103784819D02*
X131783571Y-103737200D01*
X131783571Y-103737200D02*
X131688333Y-103641961D01*
X131688333Y-103641961D02*
X131640714Y-103546723D01*
X131640714Y-103546723D02*
X131593095Y-103356247D01*
X131593095Y-103356247D02*
X131593095Y-103213390D01*
X131593095Y-103213390D02*
X131640714Y-103022914D01*
X131640714Y-103022914D02*
X131688333Y-102927676D01*
X131688333Y-102927676D02*
X131783571Y-102832438D01*
X131783571Y-102832438D02*
X131926428Y-102784819D01*
X131926428Y-102784819D02*
X132021666Y-102784819D01*
X132021666Y-102784819D02*
X132164523Y-102832438D01*
X132164523Y-102832438D02*
X132212142Y-102880057D01*
X133164523Y-103784819D02*
X132593095Y-103784819D01*
X132878809Y-103784819D02*
X132878809Y-102784819D01*
X132878809Y-102784819D02*
X132783571Y-102927676D01*
X132783571Y-102927676D02*
X132688333Y-103022914D01*
X132688333Y-103022914D02*
X132593095Y-103070533D01*
X134021666Y-103118152D02*
X134021666Y-103784819D01*
X133783571Y-102737200D02*
X133545476Y-103451485D01*
X133545476Y-103451485D02*
X134164523Y-103451485D01*
X113459580Y-108364257D02*
X113507200Y-108411876D01*
X113507200Y-108411876D02*
X113554819Y-108554733D01*
X113554819Y-108554733D02*
X113554819Y-108649971D01*
X113554819Y-108649971D02*
X113507200Y-108792828D01*
X113507200Y-108792828D02*
X113411961Y-108888066D01*
X113411961Y-108888066D02*
X113316723Y-108935685D01*
X113316723Y-108935685D02*
X113126247Y-108983304D01*
X113126247Y-108983304D02*
X112983390Y-108983304D01*
X112983390Y-108983304D02*
X112792914Y-108935685D01*
X112792914Y-108935685D02*
X112697676Y-108888066D01*
X112697676Y-108888066D02*
X112602438Y-108792828D01*
X112602438Y-108792828D02*
X112554819Y-108649971D01*
X112554819Y-108649971D02*
X112554819Y-108554733D01*
X112554819Y-108554733D02*
X112602438Y-108411876D01*
X112602438Y-108411876D02*
X112650057Y-108364257D01*
X113554819Y-107411876D02*
X113554819Y-107983304D01*
X113554819Y-107697590D02*
X112554819Y-107697590D01*
X112554819Y-107697590D02*
X112697676Y-107792828D01*
X112697676Y-107792828D02*
X112792914Y-107888066D01*
X112792914Y-107888066D02*
X112840533Y-107983304D01*
X112983390Y-106840447D02*
X112935771Y-106935685D01*
X112935771Y-106935685D02*
X112888152Y-106983304D01*
X112888152Y-106983304D02*
X112792914Y-107030923D01*
X112792914Y-107030923D02*
X112745295Y-107030923D01*
X112745295Y-107030923D02*
X112650057Y-106983304D01*
X112650057Y-106983304D02*
X112602438Y-106935685D01*
X112602438Y-106935685D02*
X112554819Y-106840447D01*
X112554819Y-106840447D02*
X112554819Y-106649971D01*
X112554819Y-106649971D02*
X112602438Y-106554733D01*
X112602438Y-106554733D02*
X112650057Y-106507114D01*
X112650057Y-106507114D02*
X112745295Y-106459495D01*
X112745295Y-106459495D02*
X112792914Y-106459495D01*
X112792914Y-106459495D02*
X112888152Y-106507114D01*
X112888152Y-106507114D02*
X112935771Y-106554733D01*
X112935771Y-106554733D02*
X112983390Y-106649971D01*
X112983390Y-106649971D02*
X112983390Y-106840447D01*
X112983390Y-106840447D02*
X113031009Y-106935685D01*
X113031009Y-106935685D02*
X113078628Y-106983304D01*
X113078628Y-106983304D02*
X113173866Y-107030923D01*
X113173866Y-107030923D02*
X113364342Y-107030923D01*
X113364342Y-107030923D02*
X113459580Y-106983304D01*
X113459580Y-106983304D02*
X113507200Y-106935685D01*
X113507200Y-106935685D02*
X113554819Y-106840447D01*
X113554819Y-106840447D02*
X113554819Y-106649971D01*
X113554819Y-106649971D02*
X113507200Y-106554733D01*
X113507200Y-106554733D02*
X113459580Y-106507114D01*
X113459580Y-106507114D02*
X113364342Y-106459495D01*
X113364342Y-106459495D02*
X113173866Y-106459495D01*
X113173866Y-106459495D02*
X113078628Y-106507114D01*
X113078628Y-106507114D02*
X113031009Y-106554733D01*
X113031009Y-106554733D02*
X112983390Y-106649971D01*
X133779761Y-87990057D02*
X133684523Y-87942438D01*
X133684523Y-87942438D02*
X133589285Y-87847200D01*
X133589285Y-87847200D02*
X133446428Y-87704342D01*
X133446428Y-87704342D02*
X133351190Y-87656723D01*
X133351190Y-87656723D02*
X133255952Y-87656723D01*
X133303571Y-87894819D02*
X133208333Y-87847200D01*
X133208333Y-87847200D02*
X133113095Y-87751961D01*
X133113095Y-87751961D02*
X133065476Y-87561485D01*
X133065476Y-87561485D02*
X133065476Y-87228152D01*
X133065476Y-87228152D02*
X133113095Y-87037676D01*
X133113095Y-87037676D02*
X133208333Y-86942438D01*
X133208333Y-86942438D02*
X133303571Y-86894819D01*
X133303571Y-86894819D02*
X133494047Y-86894819D01*
X133494047Y-86894819D02*
X133589285Y-86942438D01*
X133589285Y-86942438D02*
X133684523Y-87037676D01*
X133684523Y-87037676D02*
X133732142Y-87228152D01*
X133732142Y-87228152D02*
X133732142Y-87561485D01*
X133732142Y-87561485D02*
X133684523Y-87751961D01*
X133684523Y-87751961D02*
X133589285Y-87847200D01*
X133589285Y-87847200D02*
X133494047Y-87894819D01*
X133494047Y-87894819D02*
X133303571Y-87894819D01*
X134684523Y-87894819D02*
X134113095Y-87894819D01*
X134398809Y-87894819D02*
X134398809Y-86894819D01*
X134398809Y-86894819D02*
X134303571Y-87037676D01*
X134303571Y-87037676D02*
X134208333Y-87132914D01*
X134208333Y-87132914D02*
X134113095Y-87180533D01*
X106354819Y-120959494D02*
X105354819Y-120959494D01*
X105354819Y-120959494D02*
X105354819Y-120721399D01*
X105354819Y-120721399D02*
X105402438Y-120578542D01*
X105402438Y-120578542D02*
X105497676Y-120483304D01*
X105497676Y-120483304D02*
X105592914Y-120435685D01*
X105592914Y-120435685D02*
X105783390Y-120388066D01*
X105783390Y-120388066D02*
X105926247Y-120388066D01*
X105926247Y-120388066D02*
X106116723Y-120435685D01*
X106116723Y-120435685D02*
X106211961Y-120483304D01*
X106211961Y-120483304D02*
X106307200Y-120578542D01*
X106307200Y-120578542D02*
X106354819Y-120721399D01*
X106354819Y-120721399D02*
X106354819Y-120959494D01*
X105354819Y-120054732D02*
X105354819Y-119435685D01*
X105354819Y-119435685D02*
X105735771Y-119769018D01*
X105735771Y-119769018D02*
X105735771Y-119626161D01*
X105735771Y-119626161D02*
X105783390Y-119530923D01*
X105783390Y-119530923D02*
X105831009Y-119483304D01*
X105831009Y-119483304D02*
X105926247Y-119435685D01*
X105926247Y-119435685D02*
X106164342Y-119435685D01*
X106164342Y-119435685D02*
X106259580Y-119483304D01*
X106259580Y-119483304D02*
X106307200Y-119530923D01*
X106307200Y-119530923D02*
X106354819Y-119626161D01*
X106354819Y-119626161D02*
X106354819Y-119911875D01*
X106354819Y-119911875D02*
X106307200Y-120007113D01*
X106307200Y-120007113D02*
X106259580Y-120054732D01*
X150338095Y-48476219D02*
X150338095Y-47476219D01*
X150338095Y-47952409D02*
X150909523Y-47952409D01*
X150909523Y-48476219D02*
X150909523Y-47476219D01*
X151814285Y-47809552D02*
X151814285Y-48476219D01*
X151576190Y-47428600D02*
X151338095Y-48142885D01*
X151338095Y-48142885D02*
X151957142Y-48142885D01*
X121783643Y-54893289D02*
X122497928Y-54893289D01*
X122497928Y-54893289D02*
X122640785Y-54940908D01*
X122640785Y-54940908D02*
X122736024Y-55036146D01*
X122736024Y-55036146D02*
X122783643Y-55179003D01*
X122783643Y-55179003D02*
X122783643Y-55274241D01*
X121783643Y-54512336D02*
X121783643Y-53893289D01*
X121783643Y-53893289D02*
X122164595Y-54226622D01*
X122164595Y-54226622D02*
X122164595Y-54083765D01*
X122164595Y-54083765D02*
X122212214Y-53988527D01*
X122212214Y-53988527D02*
X122259833Y-53940908D01*
X122259833Y-53940908D02*
X122355071Y-53893289D01*
X122355071Y-53893289D02*
X122593166Y-53893289D01*
X122593166Y-53893289D02*
X122688404Y-53940908D01*
X122688404Y-53940908D02*
X122736024Y-53988527D01*
X122736024Y-53988527D02*
X122783643Y-54083765D01*
X122783643Y-54083765D02*
X122783643Y-54369479D01*
X122783643Y-54369479D02*
X122736024Y-54464717D01*
X122736024Y-54464717D02*
X122688404Y-54512336D01*
D12*
%TO.C,L3*%
X136250000Y-100320000D02*
X143150000Y-100320000D01*
X136250000Y-105420000D02*
X143150000Y-105420000D01*
%TO.C,C11*%
X121410000Y-112394420D02*
X121410000Y-112675580D01*
X122430000Y-112394420D02*
X122430000Y-112675580D01*
%TO.C,J2*%
X120788824Y-81339956D02*
X120788824Y-79959956D01*
X122168824Y-81339956D02*
X120788824Y-81339956D01*
X123438824Y-78579956D02*
X136248824Y-78579956D01*
X123438824Y-81339956D02*
X123438824Y-78579956D01*
X123438824Y-81339956D02*
X136248824Y-81339956D01*
X136248824Y-81339956D02*
X136248824Y-78579956D01*
%TO.C,A1*%
X90600000Y-55960000D02*
X90600000Y-99400000D01*
X90600000Y-55960000D02*
X95680000Y-55960000D01*
X90600000Y-99400000D02*
X108640000Y-99400000D01*
X93270000Y-58630000D02*
X90600000Y-58630000D01*
X93270000Y-96730000D02*
X90600000Y-96730000D01*
X93270000Y-96730000D02*
X93270000Y-58630000D01*
X95680000Y-53420000D02*
X103560000Y-53420000D01*
X95680000Y-63840000D02*
X95680000Y-53420000D01*
X103560000Y-53420000D02*
X103560000Y-63840000D01*
X103560000Y-63840000D02*
X95680000Y-63840000D01*
X105970000Y-58630000D02*
X108640000Y-58630000D01*
X105970000Y-94190000D02*
X105970000Y-58630000D01*
X105970000Y-94190000D02*
X105970000Y-96730000D01*
X105970000Y-94190000D02*
X108640000Y-94190000D01*
X105970000Y-96730000D02*
X108640000Y-96730000D01*
X108640000Y-55960000D02*
X103560000Y-55960000D01*
X108640000Y-94190000D02*
X108640000Y-55960000D01*
X108640000Y-99400000D02*
X108640000Y-96730000D01*
%TO.C,D2*%
X142630000Y-107210000D02*
X142630000Y-114620000D01*
X146930000Y-107210000D02*
X142630000Y-107210000D01*
X146930000Y-107210000D02*
X146930000Y-114620000D01*
%TO.C,R4*%
X90917500Y-109877776D02*
X90917500Y-110387224D01*
X91962500Y-109877776D02*
X91962500Y-110387224D01*
%TO.C,C7*%
X100684420Y-116330000D02*
X100965580Y-116330000D01*
X100684420Y-117350000D02*
X100965580Y-117350000D01*
%TO.C,C8*%
X102135000Y-112536248D02*
X102135000Y-113058752D01*
X103605000Y-112536248D02*
X103605000Y-113058752D01*
%TO.C,R13*%
X109477500Y-117176124D02*
X109477500Y-116666676D01*
X110522500Y-117176124D02*
X110522500Y-116666676D01*
%TO.C,R6*%
X95862224Y-116317500D02*
X95352776Y-116317500D01*
X95862224Y-117362500D02*
X95352776Y-117362500D01*
%TO.C,C2*%
X128665091Y-83259956D02*
X128372557Y-83259956D01*
X128665091Y-84279956D02*
X128372557Y-84279956D01*
%TO.C,R9*%
X133962224Y-113777500D02*
X133452776Y-113777500D01*
X133962224Y-114822500D02*
X133452776Y-114822500D01*
%TO.C,J1*%
X152530000Y-73600000D02*
X152530000Y-75020000D01*
X152530000Y-75020000D02*
X157030000Y-75020000D01*
X152530000Y-79800000D02*
X157030000Y-79800000D01*
X152530000Y-81220000D02*
X152530000Y-79800000D01*
X152840000Y-78360000D02*
X153440000Y-78660000D01*
X152840000Y-78960000D02*
X152840000Y-78360000D01*
X153440000Y-78660000D02*
X152840000Y-78960000D01*
X157030000Y-75020000D02*
X157030000Y-77410000D01*
X157030000Y-79800000D02*
X157030000Y-77410000D01*
X158140000Y-75910000D02*
X158140000Y-76410000D01*
X158140000Y-76410000D02*
X163640000Y-76410000D01*
X158140000Y-78410000D02*
X158140000Y-78910000D01*
X158140000Y-78910000D02*
X163640000Y-78910000D01*
X163640000Y-75910000D02*
X158140000Y-75910000D01*
X163640000Y-76410000D02*
X163640000Y-75910000D01*
X163640000Y-78410000D02*
X158140000Y-78410000D01*
X163640000Y-78910000D02*
X163640000Y-78410000D01*
X164250000Y-73600000D02*
X152530000Y-73600000D01*
X164250000Y-77410000D02*
X164250000Y-73600000D01*
X164250000Y-77410000D02*
X164250000Y-81220000D01*
X164250000Y-81220000D02*
X152530000Y-81220000D01*
%TO.C,R10*%
X118890000Y-100432776D02*
X118890000Y-100942224D01*
X119935000Y-100432776D02*
X119935000Y-100942224D01*
%TO.C,C10*%
X109590000Y-111047648D02*
X109590000Y-112470152D01*
X111410000Y-111047648D02*
X111410000Y-112470152D01*
%TO.C,J5*%
X152530000Y-83800000D02*
X152530000Y-85220000D01*
X152530000Y-85220000D02*
X157030000Y-85220000D01*
X152530000Y-90000000D02*
X157030000Y-90000000D01*
X152530000Y-91420000D02*
X152530000Y-90000000D01*
X152840000Y-88560000D02*
X153440000Y-88860000D01*
X152840000Y-89160000D02*
X152840000Y-88560000D01*
X153440000Y-88860000D02*
X152840000Y-89160000D01*
X157030000Y-85220000D02*
X157030000Y-87610000D01*
X157030000Y-90000000D02*
X157030000Y-87610000D01*
X158140000Y-86110000D02*
X158140000Y-86610000D01*
X158140000Y-86610000D02*
X163640000Y-86610000D01*
X158140000Y-88610000D02*
X158140000Y-89110000D01*
X158140000Y-89110000D02*
X163640000Y-89110000D01*
X163640000Y-86110000D02*
X158140000Y-86110000D01*
X163640000Y-86610000D02*
X163640000Y-86110000D01*
X163640000Y-88610000D02*
X158140000Y-88610000D01*
X163640000Y-89110000D02*
X163640000Y-88610000D01*
X164250000Y-83800000D02*
X152530000Y-83800000D01*
X164250000Y-87610000D02*
X164250000Y-83800000D01*
X164250000Y-87610000D02*
X164250000Y-91420000D01*
X164250000Y-91420000D02*
X152530000Y-91420000D01*
%TO.C,C6*%
X87490000Y-94283767D02*
X87490000Y-93991233D01*
X88510000Y-94283767D02*
X88510000Y-93991233D01*
D11*
%TO.C,U2*%
X132305000Y-107280000D02*
X136455000Y-107280000D01*
X132305000Y-112430000D02*
X136455000Y-112430000D01*
D12*
X131880000Y-107355000D02*
X131640000Y-107025000D01*
X132120000Y-107025000D01*
X131880000Y-107355000D01*
G36*
X131880000Y-107355000D02*
G01*
X131640000Y-107025000D01*
X132120000Y-107025000D01*
X131880000Y-107355000D01*
G37*
%TO.C,R1*%
X88242224Y-64477500D02*
X87732776Y-64477500D01*
X88242224Y-65522500D02*
X87732776Y-65522500D01*
%TO.C,C9*%
X97154420Y-106170000D02*
X97435580Y-106170000D01*
X97154420Y-107190000D02*
X97435580Y-107190000D01*
%TO.C,R11*%
X126342224Y-111237500D02*
X125832776Y-111237500D01*
X126342224Y-112282500D02*
X125832776Y-112282500D01*
%TO.C,C15*%
X152300000Y-107531248D02*
X152300000Y-108953752D01*
X154120000Y-107531248D02*
X154120000Y-108953752D01*
%TO.C,C3*%
X128257591Y-57859956D02*
X127965057Y-57859956D01*
X128257591Y-58879956D02*
X127965057Y-58879956D01*
%TO.C,C5*%
X149350000Y-95103733D02*
X149350000Y-95396267D01*
X150370000Y-95103733D02*
X150370000Y-95396267D01*
%TO.C,R12*%
X147877500Y-114688624D02*
X147877500Y-114179176D01*
X148922500Y-114688624D02*
X148922500Y-114179176D01*
%TO.C,C1*%
X87776267Y-68070000D02*
X87483733Y-68070000D01*
X87776267Y-69090000D02*
X87483733Y-69090000D01*
%TO.C,C13*%
X138965000Y-110228748D02*
X138965000Y-110751252D01*
X140435000Y-110228748D02*
X140435000Y-110751252D01*
%TO.C,D4*%
X145170000Y-91230000D02*
X145170000Y-83820000D01*
X145170000Y-91230000D02*
X149470000Y-91230000D01*
X149470000Y-91230000D02*
X149470000Y-83820000D01*
D11*
%TO.C,U1*%
X95047500Y-109820000D02*
X99197500Y-109820000D01*
X95047500Y-114970000D02*
X99197500Y-114970000D01*
D12*
X94622500Y-109895000D02*
X94382500Y-109565000D01*
X94862500Y-109565000D01*
X94622500Y-109895000D01*
G36*
X94622500Y-109895000D02*
G01*
X94382500Y-109565000D01*
X94862500Y-109565000D01*
X94622500Y-109895000D01*
G37*
%TO.C,J4*%
X152530000Y-58360000D02*
X152530000Y-59780000D01*
X152530000Y-59780000D02*
X157030000Y-59780000D01*
X152530000Y-69560000D02*
X157030000Y-69560000D01*
X152530000Y-70980000D02*
X152530000Y-69560000D01*
X152840000Y-68120000D02*
X153440000Y-68420000D01*
X152840000Y-68720000D02*
X152840000Y-68120000D01*
X153440000Y-68420000D02*
X152840000Y-68720000D01*
X157030000Y-59780000D02*
X157030000Y-64670000D01*
X157030000Y-69560000D02*
X157030000Y-64670000D01*
X158140000Y-60670000D02*
X158140000Y-61170000D01*
X158140000Y-61170000D02*
X163640000Y-61170000D01*
X158140000Y-63170000D02*
X158140000Y-63670000D01*
X158140000Y-63670000D02*
X163640000Y-63670000D01*
X158140000Y-65670000D02*
X158140000Y-66170000D01*
X158140000Y-66170000D02*
X163640000Y-66170000D01*
X158140000Y-68170000D02*
X158140000Y-68670000D01*
X158140000Y-68670000D02*
X163640000Y-68670000D01*
X163640000Y-60670000D02*
X158140000Y-60670000D01*
X163640000Y-61170000D02*
X163640000Y-60670000D01*
X163640000Y-63170000D02*
X158140000Y-63170000D01*
X163640000Y-63670000D02*
X163640000Y-63170000D01*
X163640000Y-65670000D02*
X158140000Y-65670000D01*
X163640000Y-66170000D02*
X163640000Y-65670000D01*
X163640000Y-68170000D02*
X158140000Y-68170000D01*
X163640000Y-68670000D02*
X163640000Y-68170000D01*
X164250000Y-58360000D02*
X152530000Y-58360000D01*
X164250000Y-64670000D02*
X164250000Y-58360000D01*
X164250000Y-64670000D02*
X164250000Y-70980000D01*
X164250000Y-70980000D02*
X152530000Y-70980000D01*
%TO.C,R5*%
X116317500Y-113642224D02*
X116317500Y-113132776D01*
X117362500Y-113642224D02*
X117362500Y-113132776D01*
%TO.C,R3*%
X123477500Y-92254724D02*
X123477500Y-91745276D01*
X124522500Y-92254724D02*
X124522500Y-91745276D01*
%TO.C,L2*%
X100690000Y-102860000D02*
X107590000Y-102860000D01*
X100690000Y-107960000D02*
X107590000Y-107960000D01*
%TO.C,J6*%
X152530000Y-93920000D02*
X152530000Y-95340000D01*
X152530000Y-95340000D02*
X157030000Y-95340000D01*
X152530000Y-100120000D02*
X157030000Y-100120000D01*
X152530000Y-101540000D02*
X152530000Y-100120000D01*
X152840000Y-98680000D02*
X153440000Y-98980000D01*
X152840000Y-99280000D02*
X152840000Y-98680000D01*
X153440000Y-98980000D02*
X152840000Y-99280000D01*
X157030000Y-95340000D02*
X157030000Y-97730000D01*
X157030000Y-100120000D02*
X157030000Y-97730000D01*
X158140000Y-96230000D02*
X158140000Y-96730000D01*
X158140000Y-96730000D02*
X163640000Y-96730000D01*
X158140000Y-98730000D02*
X158140000Y-99230000D01*
X158140000Y-99230000D02*
X163640000Y-99230000D01*
X163640000Y-96230000D02*
X158140000Y-96230000D01*
X163640000Y-96730000D02*
X163640000Y-96230000D01*
X163640000Y-98730000D02*
X158140000Y-98730000D01*
X163640000Y-99230000D02*
X163640000Y-98730000D01*
X164250000Y-93920000D02*
X152530000Y-93920000D01*
X164250000Y-97730000D02*
X164250000Y-93920000D01*
X164250000Y-97730000D02*
X164250000Y-101540000D01*
X164250000Y-101540000D02*
X152530000Y-101540000D01*
%TO.C,R7*%
X128105000Y-108965276D02*
X128105000Y-109474724D01*
X129150000Y-108965276D02*
X129150000Y-109474724D01*
%TO.C,R2*%
X119157776Y-92477500D02*
X119667224Y-92477500D01*
X119157776Y-93522500D02*
X119667224Y-93522500D01*
%TO.C,C16*%
X157590000Y-108580820D02*
X157590000Y-108861980D01*
X158610000Y-108580820D02*
X158610000Y-108861980D01*
%TO.C,L1*%
X87490000Y-97953733D02*
X87490000Y-98296267D01*
X88510000Y-97953733D02*
X88510000Y-98296267D01*
%TO.C,C17*%
X148950000Y-107531248D02*
X148950000Y-108953752D01*
X150770000Y-107531248D02*
X150770000Y-108953752D01*
%TO.C,C4*%
X134152591Y-83259956D02*
X133860057Y-83259956D01*
X134152591Y-84279956D02*
X133860057Y-84279956D01*
%TO.C,C12*%
X137514420Y-113790000D02*
X137795580Y-113790000D01*
X137514420Y-114810000D02*
X137795580Y-114810000D01*
%TO.C,R8*%
X155277500Y-108876124D02*
X155277500Y-108366676D01*
X156322500Y-108876124D02*
X156322500Y-108366676D01*
%TO.C,C14*%
X132714420Y-104250000D02*
X132995580Y-104250000D01*
X132714420Y-105270000D02*
X132995580Y-105270000D01*
%TO.C,C18*%
X112390000Y-111047648D02*
X112390000Y-112470152D01*
X114210000Y-111047648D02*
X114210000Y-112470152D01*
%TO.C,Q1*%
X132756750Y-88880000D02*
X131771750Y-88880000D01*
X132756750Y-94000000D02*
X131771750Y-94000000D01*
X136952750Y-88880000D02*
X134182750Y-88880000D01*
X136952750Y-94000000D02*
X134182750Y-94000000D01*
X136982750Y-90170000D02*
X136982750Y-92710000D01*
X131125000Y-88890000D02*
X130885000Y-88560000D01*
X131365000Y-88560000D01*
X131125000Y-88890000D01*
G36*
X131125000Y-88890000D02*
G01*
X130885000Y-88560000D01*
X131365000Y-88560000D01*
X131125000Y-88890000D01*
G37*
%TO.C,D3*%
X104530000Y-109750000D02*
X104530000Y-117160000D01*
X108830000Y-109750000D02*
X104530000Y-109750000D01*
X108830000Y-109750000D02*
X108830000Y-117160000D01*
%TO.C,J3*%
X123328824Y-55939956D02*
X123328824Y-54559956D01*
X124708824Y-55939956D02*
X123328824Y-55939956D01*
X125978824Y-53179956D02*
X133708824Y-53179956D01*
X125978824Y-55939956D02*
X125978824Y-53179956D01*
X125978824Y-55939956D02*
X133708824Y-55939956D01*
X133708824Y-55939956D02*
X133708824Y-53179956D01*
%TD*%
M02*
