%TF.GenerationSoftware,KiCad,Pcbnew,9.99.0-1132-g883a1f8d97*%
%TF.CreationDate,2025-07-04T12:47:25+02:00*%
%TF.ProjectId,BondheadSteering,426f6e64-6865-4616-9453-74656572696e,1*%
%TF.SameCoordinates,Original*%
%TF.FileFunction,Copper,L1,Top*%
%TF.FilePolarity,Positive*%
%FSLAX46Y46*%
G04 Gerber Fmt 4.6, Leading zero omitted, Abs format (unit mm)*
G04 Created by KiCad (PCBNEW 9.99.0-1132-g883a1f8d97) date 2025-07-04 12:47:25*
%MOMM*%
%LPD*%
G01*
G04 APERTURE LIST*
G04 Aperture macros list*
%AMRoundRect*
0 Rectangle with rounded corners*
0 $1 Rounding radius*
0 $2 $3 $4 $5 $6 $7 $8 $9 X,Y pos of 4 corners*
0 Add a 4 corners polygon primitive as box body*
4,1,4,$2,$3,$4,$5,$6,$7,$8,$9,$2,$3,0*
0 Add four circle primitives for the rounded corners*
1,1,$1+$1,$2,$3*
1,1,$1+$1,$4,$5*
1,1,$1+$1,$6,$7*
1,1,$1+$1,$8,$9*
0 Add four rect primitives between the rounded corners*
20,1,$1+$1,$2,$3,$4,$5,0*
20,1,$1+$1,$4,$5,$6,$7,0*
20,1,$1+$1,$6,$7,$8,$9,0*
20,1,$1+$1,$8,$9,$2,$3,0*%
%AMFreePoly0*
4,1,18,-0.697500,2.280000,2.027500,2.280000,2.502500,2.280000,2.502500,1.530000,2.027500,1.530000,2.027500,-1.530000,2.502500,-1.530000,2.502500,-2.280000,-0.697500,-2.280000,-0.697500,-2.775000,-1.602500,-2.775000,-1.602500,-2.280000,-2.027500,-2.280000,-2.027500,2.280000,-1.602500,2.280000,-1.602500,2.775000,-0.697500,2.775000,-0.697500,2.280000,-0.697500,2.280000,$1*%
G04 Aperture macros list end*
%ADD10C,0.300000*%
%TA.AperFunction,NonConductor*%
%ADD11C,0.300000*%
%TD*%
%TA.AperFunction,SMDPad,CuDef*%
%ADD12R,2.400000X4.200000*%
%TD*%
%TA.AperFunction,SMDPad,CuDef*%
%ADD13RoundRect,0.225000X-0.250000X0.225000X-0.250000X-0.225000X0.250000X-0.225000X0.250000X0.225000X0*%
%TD*%
%TA.AperFunction,ComponentPad*%
%ADD14R,1.700000X1.700000*%
%TD*%
%TA.AperFunction,ComponentPad*%
%ADD15C,1.700000*%
%TD*%
%TA.AperFunction,ComponentPad*%
%ADD16R,1.600000X1.600000*%
%TD*%
%TA.AperFunction,ComponentPad*%
%ADD17O,1.600000X1.600000*%
%TD*%
%TA.AperFunction,SMDPad,CuDef*%
%ADD18RoundRect,0.250000X-0.900000X1.500000X-0.900000X-1.500000X0.900000X-1.500000X0.900000X1.500000X0*%
%TD*%
%TA.AperFunction,SMDPad,CuDef*%
%ADD19RoundRect,0.237500X-0.237500X0.250000X-0.237500X-0.250000X0.237500X-0.250000X0.237500X0.250000X0*%
%TD*%
%TA.AperFunction,SMDPad,CuDef*%
%ADD20RoundRect,0.225000X-0.225000X-0.250000X0.225000X-0.250000X0.225000X0.250000X-0.225000X0.250000X0*%
%TD*%
%TA.AperFunction,SMDPad,CuDef*%
%ADD21RoundRect,0.250000X-0.475000X0.337500X-0.475000X-0.337500X0.475000X-0.337500X0.475000X0.337500X0*%
%TD*%
%TA.AperFunction,SMDPad,CuDef*%
%ADD22RoundRect,0.237500X0.237500X-0.250000X0.237500X0.250000X-0.237500X0.250000X-0.237500X-0.250000X0*%
%TD*%
%TA.AperFunction,SMDPad,CuDef*%
%ADD23RoundRect,0.237500X0.250000X0.237500X-0.250000X0.237500X-0.250000X-0.237500X0.250000X-0.237500X0*%
%TD*%
%TA.AperFunction,SMDPad,CuDef*%
%ADD24RoundRect,0.237500X0.300000X0.237500X-0.300000X0.237500X-0.300000X-0.237500X0.300000X-0.237500X0*%
%TD*%
%TA.AperFunction,ComponentPad*%
%ADD25RoundRect,0.250000X0.750000X-0.600000X0.750000X0.600000X-0.750000X0.600000X-0.750000X-0.600000X0*%
%TD*%
%TA.AperFunction,ComponentPad*%
%ADD26O,2.000000X1.700000*%
%TD*%
%TA.AperFunction,SMDPad,CuDef*%
%ADD27RoundRect,0.250000X-0.650000X0.412500X-0.650000X-0.412500X0.650000X-0.412500X0.650000X0.412500X0*%
%TD*%
%TA.AperFunction,SMDPad,CuDef*%
%ADD28RoundRect,0.237500X0.237500X-0.300000X0.237500X0.300000X-0.237500X0.300000X-0.237500X-0.300000X0*%
%TD*%
%TA.AperFunction,SMDPad,CuDef*%
%ADD29R,1.910000X0.610000*%
%TD*%
%TA.AperFunction,SMDPad,CuDef*%
%ADD30R,1.205000X1.550000*%
%TD*%
%TA.AperFunction,ComponentPad*%
%ADD31C,7.000000*%
%TD*%
%TA.AperFunction,SMDPad,CuDef*%
%ADD32RoundRect,0.237500X-0.237500X0.300000X-0.237500X-0.300000X0.237500X-0.300000X0.237500X0.300000X0*%
%TD*%
%TA.AperFunction,SMDPad,CuDef*%
%ADD33RoundRect,0.250000X0.900000X-1.500000X0.900000X1.500000X-0.900000X1.500000X-0.900000X-1.500000X0*%
%TD*%
%TA.AperFunction,ComponentPad*%
%ADD34RoundRect,0.250000X0.725000X-0.600000X0.725000X0.600000X-0.725000X0.600000X-0.725000X-0.600000X0*%
%TD*%
%TA.AperFunction,ComponentPad*%
%ADD35O,1.950000X1.700000*%
%TD*%
%TA.AperFunction,SMDPad,CuDef*%
%ADD36RoundRect,0.237500X-0.250000X-0.237500X0.250000X-0.237500X0.250000X0.237500X-0.250000X0.237500X0*%
%TD*%
%TA.AperFunction,SMDPad,CuDef*%
%ADD37RoundRect,0.237500X-0.237500X0.287500X-0.237500X-0.287500X0.237500X-0.287500X0.237500X0.287500X0*%
%TD*%
%TA.AperFunction,SMDPad,CuDef*%
%ADD38RoundRect,0.187500X-0.312500X-0.187500X0.312500X-0.187500X0.312500X0.187500X-0.312500X0.187500X0*%
%TD*%
%TA.AperFunction,SMDPad,CuDef*%
%ADD39FreePoly0,0.000000*%
%TD*%
%TA.AperFunction,ViaPad*%
%ADD40C,0.600000*%
%TD*%
%TA.AperFunction,Conductor*%
%ADD41C,1.000000*%
%TD*%
%TA.AperFunction,Conductor*%
%ADD42C,0.750000*%
%TD*%
%TA.AperFunction,Conductor*%
%ADD43C,2.000000*%
%TD*%
%TA.AperFunction,Conductor*%
%ADD44C,3.000000*%
%TD*%
%TA.AperFunction,Conductor*%
%ADD45C,1.500000*%
%TD*%
G04 APERTURE END LIST*
D10*
D11*
X139625939Y-55335884D02*
X139483082Y-55407312D01*
X139483082Y-55407312D02*
X139197368Y-55407312D01*
X139197368Y-55407312D02*
X139054510Y-55335884D01*
X139054510Y-55335884D02*
X138983082Y-55193026D01*
X138983082Y-55193026D02*
X138983082Y-54621598D01*
X138983082Y-54621598D02*
X139054510Y-54478741D01*
X139054510Y-54478741D02*
X139197368Y-54407312D01*
X139197368Y-54407312D02*
X139483082Y-54407312D01*
X139483082Y-54407312D02*
X139625939Y-54478741D01*
X139625939Y-54478741D02*
X139697368Y-54621598D01*
X139697368Y-54621598D02*
X139697368Y-54764455D01*
X139697368Y-54764455D02*
X138983082Y-54907312D01*
X140340224Y-54407312D02*
X140340224Y-55407312D01*
X140340224Y-54550169D02*
X140411653Y-54478741D01*
X140411653Y-54478741D02*
X140554510Y-54407312D01*
X140554510Y-54407312D02*
X140768796Y-54407312D01*
X140768796Y-54407312D02*
X140911653Y-54478741D01*
X140911653Y-54478741D02*
X140983082Y-54621598D01*
X140983082Y-54621598D02*
X140983082Y-55407312D01*
X142483082Y-53978741D02*
X142340225Y-53907312D01*
X142340225Y-53907312D02*
X142125939Y-53907312D01*
X142125939Y-53907312D02*
X141911653Y-53978741D01*
X141911653Y-53978741D02*
X141768796Y-54121598D01*
X141768796Y-54121598D02*
X141697367Y-54264455D01*
X141697367Y-54264455D02*
X141625939Y-54550169D01*
X141625939Y-54550169D02*
X141625939Y-54764455D01*
X141625939Y-54764455D02*
X141697367Y-55050169D01*
X141697367Y-55050169D02*
X141768796Y-55193026D01*
X141768796Y-55193026D02*
X141911653Y-55335884D01*
X141911653Y-55335884D02*
X142125939Y-55407312D01*
X142125939Y-55407312D02*
X142268796Y-55407312D01*
X142268796Y-55407312D02*
X142483082Y-55335884D01*
X142483082Y-55335884D02*
X142554510Y-55264455D01*
X142554510Y-55264455D02*
X142554510Y-54764455D01*
X142554510Y-54764455D02*
X142268796Y-54764455D01*
X143483082Y-54693026D02*
X143483082Y-55407312D01*
X142983082Y-53907312D02*
X143483082Y-54693026D01*
X143483082Y-54693026D02*
X143983082Y-53907312D01*
X144483081Y-54407312D02*
X144483081Y-55407312D01*
X144483081Y-54550169D02*
X144554510Y-54478741D01*
X144554510Y-54478741D02*
X144697367Y-54407312D01*
X144697367Y-54407312D02*
X144911653Y-54407312D01*
X144911653Y-54407312D02*
X145054510Y-54478741D01*
X145054510Y-54478741D02*
X145125939Y-54621598D01*
X145125939Y-54621598D02*
X145125939Y-55407312D01*
X146411653Y-55335884D02*
X146268796Y-55407312D01*
X146268796Y-55407312D02*
X145983082Y-55407312D01*
X145983082Y-55407312D02*
X145840224Y-55335884D01*
X145840224Y-55335884D02*
X145768796Y-55193026D01*
X145768796Y-55193026D02*
X145768796Y-54621598D01*
X145768796Y-54621598D02*
X145840224Y-54478741D01*
X145840224Y-54478741D02*
X145983082Y-54407312D01*
X145983082Y-54407312D02*
X146268796Y-54407312D01*
X146268796Y-54407312D02*
X146411653Y-54478741D01*
X146411653Y-54478741D02*
X146483082Y-54621598D01*
X146483082Y-54621598D02*
X146483082Y-54764455D01*
X146483082Y-54764455D02*
X145768796Y-54907312D01*
X147697367Y-55335884D02*
X147554510Y-55407312D01*
X147554510Y-55407312D02*
X147268796Y-55407312D01*
X147268796Y-55407312D02*
X147125938Y-55335884D01*
X147125938Y-55335884D02*
X147054510Y-55193026D01*
X147054510Y-55193026D02*
X147054510Y-54621598D01*
X147054510Y-54621598D02*
X147125938Y-54478741D01*
X147125938Y-54478741D02*
X147268796Y-54407312D01*
X147268796Y-54407312D02*
X147554510Y-54407312D01*
X147554510Y-54407312D02*
X147697367Y-54478741D01*
X147697367Y-54478741D02*
X147768796Y-54621598D01*
X147768796Y-54621598D02*
X147768796Y-54764455D01*
X147768796Y-54764455D02*
X147054510Y-54907312D01*
X148411652Y-55407312D02*
X148411652Y-54407312D01*
X148411652Y-54693026D02*
X148483081Y-54550169D01*
X148483081Y-54550169D02*
X148554510Y-54478741D01*
X148554510Y-54478741D02*
X148697367Y-54407312D01*
X148697367Y-54407312D02*
X148840224Y-54407312D01*
X138911653Y-56322228D02*
X139840225Y-56322228D01*
X139840225Y-56322228D02*
X139340225Y-56893657D01*
X139340225Y-56893657D02*
X139554510Y-56893657D01*
X139554510Y-56893657D02*
X139697368Y-56965085D01*
X139697368Y-56965085D02*
X139768796Y-57036514D01*
X139768796Y-57036514D02*
X139840225Y-57179371D01*
X139840225Y-57179371D02*
X139840225Y-57536514D01*
X139840225Y-57536514D02*
X139768796Y-57679371D01*
X139768796Y-57679371D02*
X139697368Y-57750800D01*
X139697368Y-57750800D02*
X139554510Y-57822228D01*
X139554510Y-57822228D02*
X139125939Y-57822228D01*
X139125939Y-57822228D02*
X138983082Y-57750800D01*
X138983082Y-57750800D02*
X138911653Y-57679371D01*
X140483081Y-57679371D02*
X140554510Y-57750800D01*
X140554510Y-57750800D02*
X140483081Y-57822228D01*
X140483081Y-57822228D02*
X140411653Y-57750800D01*
X140411653Y-57750800D02*
X140483081Y-57679371D01*
X140483081Y-57679371D02*
X140483081Y-57822228D01*
X141054510Y-56322228D02*
X142054510Y-56322228D01*
X142054510Y-56322228D02*
X141411653Y-57822228D01*
X142625938Y-57679371D02*
X142697367Y-57750800D01*
X142697367Y-57750800D02*
X142625938Y-57822228D01*
X142625938Y-57822228D02*
X142554510Y-57750800D01*
X142554510Y-57750800D02*
X142625938Y-57679371D01*
X142625938Y-57679371D02*
X142625938Y-57822228D01*
X143268796Y-56465085D02*
X143340224Y-56393657D01*
X143340224Y-56393657D02*
X143483082Y-56322228D01*
X143483082Y-56322228D02*
X143840224Y-56322228D01*
X143840224Y-56322228D02*
X143983082Y-56393657D01*
X143983082Y-56393657D02*
X144054510Y-56465085D01*
X144054510Y-56465085D02*
X144125939Y-56607942D01*
X144125939Y-56607942D02*
X144125939Y-56750800D01*
X144125939Y-56750800D02*
X144054510Y-56965085D01*
X144054510Y-56965085D02*
X143197367Y-57822228D01*
X143197367Y-57822228D02*
X144125939Y-57822228D01*
X145054510Y-56322228D02*
X145197367Y-56322228D01*
X145197367Y-56322228D02*
X145340224Y-56393657D01*
X145340224Y-56393657D02*
X145411653Y-56465085D01*
X145411653Y-56465085D02*
X145483081Y-56607942D01*
X145483081Y-56607942D02*
X145554510Y-56893657D01*
X145554510Y-56893657D02*
X145554510Y-57250800D01*
X145554510Y-57250800D02*
X145483081Y-57536514D01*
X145483081Y-57536514D02*
X145411653Y-57679371D01*
X145411653Y-57679371D02*
X145340224Y-57750800D01*
X145340224Y-57750800D02*
X145197367Y-57822228D01*
X145197367Y-57822228D02*
X145054510Y-57822228D01*
X145054510Y-57822228D02*
X144911653Y-57750800D01*
X144911653Y-57750800D02*
X144840224Y-57679371D01*
X144840224Y-57679371D02*
X144768795Y-57536514D01*
X144768795Y-57536514D02*
X144697367Y-57250800D01*
X144697367Y-57250800D02*
X144697367Y-56893657D01*
X144697367Y-56893657D02*
X144768795Y-56607942D01*
X144768795Y-56607942D02*
X144840224Y-56465085D01*
X144840224Y-56465085D02*
X144911653Y-56393657D01*
X144911653Y-56393657D02*
X145054510Y-56322228D01*
X146125938Y-56465085D02*
X146197366Y-56393657D01*
X146197366Y-56393657D02*
X146340224Y-56322228D01*
X146340224Y-56322228D02*
X146697366Y-56322228D01*
X146697366Y-56322228D02*
X146840224Y-56393657D01*
X146840224Y-56393657D02*
X146911652Y-56465085D01*
X146911652Y-56465085D02*
X146983081Y-56607942D01*
X146983081Y-56607942D02*
X146983081Y-56750800D01*
X146983081Y-56750800D02*
X146911652Y-56965085D01*
X146911652Y-56965085D02*
X146054509Y-57822228D01*
X146054509Y-57822228D02*
X146983081Y-57822228D01*
X148340223Y-56322228D02*
X147625937Y-56322228D01*
X147625937Y-56322228D02*
X147554509Y-57036514D01*
X147554509Y-57036514D02*
X147625937Y-56965085D01*
X147625937Y-56965085D02*
X147768795Y-56893657D01*
X147768795Y-56893657D02*
X148125937Y-56893657D01*
X148125937Y-56893657D02*
X148268795Y-56965085D01*
X148268795Y-56965085D02*
X148340223Y-57036514D01*
X148340223Y-57036514D02*
X148411652Y-57179371D01*
X148411652Y-57179371D02*
X148411652Y-57536514D01*
X148411652Y-57536514D02*
X148340223Y-57679371D01*
X148340223Y-57679371D02*
X148268795Y-57750800D01*
X148268795Y-57750800D02*
X148125937Y-57822228D01*
X148125937Y-57822228D02*
X147768795Y-57822228D01*
X147768795Y-57822228D02*
X147625937Y-57750800D01*
X147625937Y-57750800D02*
X147554509Y-57679371D01*
X149054508Y-57679371D02*
X149125937Y-57750800D01*
X149125937Y-57750800D02*
X149054508Y-57822228D01*
X149054508Y-57822228D02*
X148983080Y-57750800D01*
X148983080Y-57750800D02*
X149054508Y-57679371D01*
X149054508Y-57679371D02*
X149054508Y-57822228D01*
D10*
D11*
X146340225Y-47822228D02*
X147197368Y-47822228D01*
X146768796Y-49322228D02*
X146768796Y-47822228D01*
X147911653Y-49322228D02*
X147768796Y-49250800D01*
X147768796Y-49250800D02*
X147697367Y-49179371D01*
X147697367Y-49179371D02*
X147625939Y-49036514D01*
X147625939Y-49036514D02*
X147625939Y-48607942D01*
X147625939Y-48607942D02*
X147697367Y-48465085D01*
X147697367Y-48465085D02*
X147768796Y-48393657D01*
X147768796Y-48393657D02*
X147911653Y-48322228D01*
X147911653Y-48322228D02*
X148125939Y-48322228D01*
X148125939Y-48322228D02*
X148268796Y-48393657D01*
X148268796Y-48393657D02*
X148340225Y-48465085D01*
X148340225Y-48465085D02*
X148411653Y-48607942D01*
X148411653Y-48607942D02*
X148411653Y-49036514D01*
X148411653Y-49036514D02*
X148340225Y-49179371D01*
X148340225Y-49179371D02*
X148268796Y-49250800D01*
X148268796Y-49250800D02*
X148125939Y-49322228D01*
X148125939Y-49322228D02*
X147911653Y-49322228D01*
X149054510Y-48322228D02*
X149054510Y-49822228D01*
X149054510Y-48393657D02*
X149197368Y-48322228D01*
X149197368Y-48322228D02*
X149483082Y-48322228D01*
X149483082Y-48322228D02*
X149625939Y-48393657D01*
X149625939Y-48393657D02*
X149697368Y-48465085D01*
X149697368Y-48465085D02*
X149768796Y-48607942D01*
X149768796Y-48607942D02*
X149768796Y-49036514D01*
X149768796Y-49036514D02*
X149697368Y-49179371D01*
X149697368Y-49179371D02*
X149625939Y-49250800D01*
X149625939Y-49250800D02*
X149483082Y-49322228D01*
X149483082Y-49322228D02*
X149197368Y-49322228D01*
X149197368Y-49322228D02*
X149054510Y-49250800D01*
D12*
%TO.P,L3,1,1*%
%TO.N,/Switch12*%
X137450000Y-102870000D03*
%TO.P,L3,2,2*%
%TO.N,+12V*%
X141950000Y-102870000D03*
%TD*%
D13*
%TO.P,C11,1*%
%TO.N,+5V*%
X121920000Y-111760000D03*
%TO.P,C11,2*%
%TO.N,/FB5*%
X121920000Y-113310000D03*
%TD*%
D14*
%TO.P,J2,1,Pin_1*%
%TO.N,unconnected-(J2-Pin_1-Pad1)*%
X122168824Y-79959956D03*
D15*
%TO.P,J2,2,Pin_2*%
%TO.N,unconnected-(J2-Pin_2-Pad2)*%
X124708824Y-79959956D03*
%TO.P,J2,3,Pin_3*%
%TO.N,Net-(J2-Pin_3)*%
X127248824Y-79959956D03*
%TO.P,J2,4,Pin_4*%
%TO.N,Net-(J2-Pin_4)*%
X129788824Y-79959956D03*
%TO.P,J2,5,Pin_5*%
%TO.N,Net-(J2-Pin_5)*%
X132328824Y-79959956D03*
%TO.P,J2,6,Pin_6*%
%TO.N,Net-(J2-Pin_6)*%
X134868824Y-79959956D03*
%TD*%
D16*
%TO.P,A1,1,D1/TX*%
%TO.N,unconnected-(A1-D1{slash}TX-Pad1)*%
X107240000Y-95460000D03*
D17*
%TO.P,A1,2,D0/RX*%
%TO.N,unconnected-(A1-D0{slash}RX-Pad2)*%
X107240000Y-92920000D03*
%TO.P,A1,3,~{RESET}*%
%TO.N,unconnected-(A1-~{RESET}-Pad3)*%
X107240000Y-90380000D03*
%TO.P,A1,4,GND*%
%TO.N,GNDD*%
X107240000Y-87840000D03*
%TO.P,A1,5,D2*%
%TO.N,PGood5*%
X107240000Y-85300000D03*
%TO.P,A1,6,D3*%
%TO.N,PGood12*%
X107240000Y-82760000D03*
%TO.P,A1,7,D4*%
%TO.N,Net-(A1-D4)*%
X107240000Y-80220000D03*
%TO.P,A1,8,D5*%
%TO.N,Net-(A1-D5)*%
X107240000Y-77680000D03*
%TO.P,A1,9,D6*%
%TO.N,Net-(A1-D6)*%
X107240000Y-75140000D03*
%TO.P,A1,10,D7*%
%TO.N,Net-(A1-D7)*%
X107240000Y-72600000D03*
%TO.P,A1,11,D8*%
%TO.N,unconnected-(A1-D8-Pad11)*%
X107240000Y-70060000D03*
%TO.P,A1,12,D9*%
%TO.N,unconnected-(A1-D9-Pad12)*%
X107240000Y-67520000D03*
%TO.P,A1,13,D10/CS*%
%TO.N,unconnected-(A1-D10{slash}CS-Pad13)*%
X107240000Y-64980000D03*
%TO.P,A1,14,D11/COPI*%
%TO.N,unconnected-(A1-D11{slash}COPI-Pad14)*%
X107240000Y-62440000D03*
%TO.P,A1,15,D12/CIPO*%
%TO.N,unconnected-(A1-D12{slash}CIPO-Pad15)*%
X107240000Y-59900000D03*
%TO.P,A1,16,D13/SCK*%
%TO.N,unconnected-(A1-D13{slash}SCK-Pad16)*%
X92000000Y-59900000D03*
%TO.P,A1,17,3V3*%
%TO.N,/3V3*%
X92000000Y-62440000D03*
%TO.P,A1,18,REF*%
%TO.N,unconnected-(A1-REF-Pad18)*%
X92000000Y-64980000D03*
%TO.P,A1,19,A0*%
%TO.N,/TempIn*%
X92000000Y-67520000D03*
%TO.P,A1,20,A1*%
%TO.N,unconnected-(A1-A1-Pad20)*%
X92000000Y-70060000D03*
%TO.P,A1,21,A2*%
%TO.N,unconnected-(A1-A2-Pad21)*%
X92000000Y-72600000D03*
%TO.P,A1,22,A3*%
%TO.N,unconnected-(A1-A3-Pad22)*%
X92000000Y-75140000D03*
%TO.P,A1,23,SDA/A4*%
%TO.N,unconnected-(A1-SDA{slash}A4-Pad23)*%
X92000000Y-77680000D03*
%TO.P,A1,24,SCL/A5*%
%TO.N,unconnected-(A1-SCL{slash}A5-Pad24)*%
X92000000Y-80220000D03*
%TO.P,A1,25,A6*%
%TO.N,unconnected-(A1-A6-Pad25)*%
X92000000Y-82760000D03*
%TO.P,A1,26,A7*%
%TO.N,unconnected-(A1-A7-Pad26)*%
X92000000Y-85300000D03*
%TO.P,A1,27,VUSB/5V*%
%TO.N,unconnected-(A1-VUSB{slash}5V-Pad27)*%
X92000000Y-87840000D03*
%TO.P,A1,28,REC*%
%TO.N,unconnected-(A1-REC-Pad28)*%
X92000000Y-90380000D03*
%TO.P,A1,29,GND*%
%TO.N,GNDD*%
X92000000Y-92920000D03*
%TO.P,A1,30,VIN*%
%TO.N,Net-(A1-VIN)*%
X92000000Y-95460000D03*
%TD*%
D18*
%TO.P,D2,1,K*%
%TO.N,/Switch12*%
X144780000Y-109220000D03*
%TO.P,D2,2,A*%
%TO.N,GND1*%
X144780000Y-114620000D03*
%TD*%
D19*
%TO.P,R4,1*%
%TO.N,+5V*%
X91440000Y-109220000D03*
%TO.P,R4,2*%
%TO.N,PGood5*%
X91440000Y-111045000D03*
%TD*%
D20*
%TO.P,C7,1*%
%TO.N,+24V*%
X100050000Y-116840000D03*
%TO.P,C7,2*%
%TO.N,GND2*%
X101600000Y-116840000D03*
%TD*%
D21*
%TO.P,C8,1*%
%TO.N,+24V*%
X102870000Y-111760000D03*
%TO.P,C8,2*%
%TO.N,GND2*%
X102870000Y-113835000D03*
%TD*%
D22*
%TO.P,R13,1*%
%TO.N,GNDD*%
X110000000Y-117833900D03*
%TO.P,R13,2*%
%TO.N,GND2*%
X110000000Y-116008900D03*
%TD*%
D23*
%TO.P,R6,1*%
%TO.N,GND2*%
X96520000Y-116840000D03*
%TO.P,R6,2*%
%TO.N,/FB5*%
X94695000Y-116840000D03*
%TD*%
D24*
%TO.P,C2,1*%
%TO.N,Net-(J2-Pin_4)*%
X129381324Y-83769956D03*
%TO.P,C2,2*%
%TO.N,Net-(J2-Pin_3)*%
X127656324Y-83769956D03*
%TD*%
D23*
%TO.P,R9,1*%
%TO.N,GND1*%
X134620000Y-114300000D03*
%TO.P,R9,2*%
%TO.N,/FB12*%
X132795000Y-114300000D03*
%TD*%
D25*
%TO.P,J1,1,Pin_1*%
%TO.N,/TempIn*%
X154940000Y-78660000D03*
D26*
%TO.P,J1,2,Pin_2*%
%TO.N,/3V3*%
X154940000Y-76160000D03*
%TD*%
D19*
%TO.P,R10,1*%
%TO.N,Net-(A1-D7)*%
X119412500Y-99775000D03*
%TO.P,R10,2*%
%TO.N,Net-(U2-~{EN1})*%
X119412500Y-101600000D03*
%TD*%
D27*
%TO.P,C10,1*%
%TO.N,+5V*%
X110500000Y-110196400D03*
%TO.P,C10,2*%
%TO.N,GND2*%
X110500000Y-113321400D03*
%TD*%
D25*
%TO.P,J5,1,Pin_1*%
%TO.N,+12V*%
X154940000Y-88860000D03*
D26*
%TO.P,J5,2,Pin_2*%
%TO.N,Net-(D4-A)*%
X154940000Y-86360000D03*
%TD*%
D28*
%TO.P,C6,1*%
%TO.N,Net-(A1-VIN)*%
X88000000Y-95000000D03*
%TO.P,C6,2*%
%TO.N,GNDD*%
X88000000Y-93275000D03*
%TD*%
D29*
%TO.P,U2,1,BOOT*%
%TO.N,/Boot12*%
X131600000Y-107950000D03*
%TO.P,U2,2,PG*%
%TO.N,PGood12*%
X131600000Y-109220000D03*
%TO.P,U2,3,~{EN1}*%
%TO.N,Net-(U2-~{EN1})*%
X131600000Y-110490000D03*
%TO.P,U2,4,FB*%
%TO.N,/FB12*%
X131600000Y-111760000D03*
%TO.P,U2,5,EN2*%
%TO.N,+24V*%
X137160000Y-111760000D03*
%TO.P,U2,6,GND*%
%TO.N,GND1*%
X137160000Y-110490000D03*
%TO.P,U2,7,VIN*%
%TO.N,+24V*%
X137160000Y-109220000D03*
%TO.P,U2,8,SW*%
%TO.N,/Switch12*%
X137160000Y-107950000D03*
D30*
%TO.P,U2,9,PADGND*%
%TO.N,GND1*%
X133777500Y-109080000D03*
X133777500Y-110630000D03*
X134982500Y-109080000D03*
X134982500Y-110630000D03*
%TD*%
D23*
%TO.P,R1,1*%
%TO.N,/TempIn*%
X88900000Y-65000000D03*
%TO.P,R1,2*%
%TO.N,GNDD*%
X87075000Y-65000000D03*
%TD*%
D20*
%TO.P,C9,1*%
%TO.N,/Boot5*%
X96520000Y-106680000D03*
%TO.P,C9,2*%
%TO.N,/Switch5*%
X98070000Y-106680000D03*
%TD*%
D23*
%TO.P,R11,1*%
%TO.N,Net-(U2-~{EN1})*%
X127000000Y-111760000D03*
%TO.P,R11,2*%
%TO.N,+5V*%
X125175000Y-111760000D03*
%TD*%
D27*
%TO.P,C15,1*%
%TO.N,+12V*%
X153210000Y-106680000D03*
%TO.P,C15,2*%
%TO.N,GND1*%
X153210000Y-109805000D03*
%TD*%
D31*
%TO.P,H2,1*%
%TO.N,N/C*%
X155000000Y-121521400D03*
%TD*%
D24*
%TO.P,C3,1*%
%TO.N,GNDD*%
X128973824Y-58369956D03*
%TO.P,C3,2*%
%TO.N,/3V3*%
X127248824Y-58369956D03*
%TD*%
D32*
%TO.P,C5,1*%
%TO.N,+12V*%
X149860000Y-94387500D03*
%TO.P,C5,2*%
%TO.N,GNDD*%
X149860000Y-96112500D03*
%TD*%
D22*
%TO.P,R12,1*%
%TO.N,GNDD*%
X148400000Y-115346400D03*
%TO.P,R12,2*%
%TO.N,GND1*%
X148400000Y-113521400D03*
%TD*%
D24*
%TO.P,C1,1*%
%TO.N,/TempIn*%
X88492500Y-68580000D03*
%TO.P,C1,2*%
%TO.N,GNDD*%
X86767500Y-68580000D03*
%TD*%
D21*
%TO.P,C13,1*%
%TO.N,+24V*%
X139700000Y-109452500D03*
%TO.P,C13,2*%
%TO.N,GND1*%
X139700000Y-111527500D03*
%TD*%
D33*
%TO.P,D4,1,K*%
%TO.N,+12V*%
X147320000Y-89220000D03*
%TO.P,D4,2,A*%
%TO.N,Net-(D4-A)*%
X147320000Y-83820000D03*
%TD*%
D31*
%TO.P,H3,1*%
%TO.N,N/C*%
X90000000Y-51521400D03*
%TD*%
D29*
%TO.P,U1,1,BOOT*%
%TO.N,/Boot5*%
X94342500Y-110490000D03*
%TO.P,U1,2,PG*%
%TO.N,PGood5*%
X94342500Y-111760000D03*
%TO.P,U1,3,~{EN1}*%
%TO.N,GND2*%
X94342500Y-113030000D03*
%TO.P,U1,4,FB*%
%TO.N,/FB5*%
X94342500Y-114300000D03*
%TO.P,U1,5,EN2*%
%TO.N,+24V*%
X99902500Y-114300000D03*
%TO.P,U1,6,GND*%
%TO.N,GND2*%
X99902500Y-113030000D03*
%TO.P,U1,7,VIN*%
%TO.N,+24V*%
X99902500Y-111760000D03*
%TO.P,U1,8,SW*%
%TO.N,/Switch5*%
X99902500Y-110490000D03*
D30*
%TO.P,U1,9,PADGND*%
%TO.N,GND2*%
X96520000Y-111620000D03*
X96520000Y-113170000D03*
X97725000Y-111620000D03*
X97725000Y-113170000D03*
%TD*%
D34*
%TO.P,J4,1,Pin_1*%
%TO.N,Net-(J2-Pin_6)*%
X154940000Y-68420000D03*
D35*
%TO.P,J4,2,Pin_2*%
%TO.N,Net-(J2-Pin_5)*%
X154940000Y-65920000D03*
%TO.P,J4,3,Pin_3*%
%TO.N,Net-(J2-Pin_4)*%
X154940000Y-63420000D03*
%TO.P,J4,4,Pin_4*%
%TO.N,Net-(J2-Pin_3)*%
X154940000Y-60920000D03*
%TD*%
D22*
%TO.P,R5,1*%
%TO.N,/FB5*%
X116840000Y-114300000D03*
%TO.P,R5,2*%
%TO.N,+5V*%
X116840000Y-112475000D03*
%TD*%
%TO.P,R3,1*%
%TO.N,Net-(Q1-G)*%
X124000000Y-92912500D03*
%TO.P,R3,2*%
%TO.N,GNDD*%
X124000000Y-91087500D03*
%TD*%
D12*
%TO.P,L2,1,1*%
%TO.N,/Switch5*%
X101890000Y-105410000D03*
%TO.P,L2,2,2*%
%TO.N,+5V*%
X106390000Y-105410000D03*
%TD*%
D25*
%TO.P,J6,1,Pin_1*%
%TO.N,+24V*%
X154940000Y-98980000D03*
D26*
%TO.P,J6,2,Pin_2*%
%TO.N,GNDD*%
X154940000Y-96480000D03*
%TD*%
D19*
%TO.P,R7,1*%
%TO.N,+5V*%
X128627500Y-108307500D03*
%TO.P,R7,2*%
%TO.N,PGood12*%
X128627500Y-110132500D03*
%TD*%
D36*
%TO.P,R2,1*%
%TO.N,Net-(A1-D6)*%
X118500000Y-93000000D03*
%TO.P,R2,2*%
%TO.N,Net-(Q1-G)*%
X120325000Y-93000000D03*
%TD*%
D13*
%TO.P,C16,1*%
%TO.N,+12V*%
X158100000Y-107946400D03*
%TO.P,C16,2*%
%TO.N,/FB12*%
X158100000Y-109496400D03*
%TD*%
D37*
%TO.P,L1,1,1*%
%TO.N,Net-(A1-VIN)*%
X88000000Y-97250000D03*
%TO.P,L1,2,2*%
%TO.N,+5V*%
X88000000Y-99000000D03*
%TD*%
D31*
%TO.P,H1,1*%
%TO.N,N/C*%
X90000000Y-121521400D03*
%TD*%
D27*
%TO.P,C17,1*%
%TO.N,+12V*%
X149860000Y-106680000D03*
%TO.P,C17,2*%
%TO.N,GND1*%
X149860000Y-109805000D03*
%TD*%
D24*
%TO.P,C4,1*%
%TO.N,Net-(J2-Pin_6)*%
X134868824Y-83769956D03*
%TO.P,C4,2*%
%TO.N,Net-(J2-Pin_5)*%
X133143824Y-83769956D03*
%TD*%
D20*
%TO.P,C12,1*%
%TO.N,+24V*%
X136880000Y-114300000D03*
%TO.P,C12,2*%
%TO.N,GND1*%
X138430000Y-114300000D03*
%TD*%
D22*
%TO.P,R8,1*%
%TO.N,/FB12*%
X155800000Y-109533900D03*
%TO.P,R8,2*%
%TO.N,+12V*%
X155800000Y-107708900D03*
%TD*%
D20*
%TO.P,C14,1*%
%TO.N,/Boot12*%
X132080000Y-104760000D03*
%TO.P,C14,2*%
%TO.N,/Switch12*%
X133630000Y-104760000D03*
%TD*%
D27*
%TO.P,C18,1*%
%TO.N,+5V*%
X113300000Y-110196400D03*
%TO.P,C18,2*%
%TO.N,GND2*%
X113300000Y-113321400D03*
%TD*%
D38*
%TO.P,Q1,1,S*%
%TO.N,GNDD*%
X131127750Y-89535000D03*
%TO.P,Q1,2,S*%
X131127750Y-90805000D03*
%TO.P,Q1,3,S*%
X131127750Y-92075000D03*
%TO.P,Q1,4,G*%
%TO.N,Net-(Q1-G)*%
X131127750Y-93345000D03*
D39*
%TO.P,Q1,5,D*%
%TO.N,Net-(D4-A)*%
X134620000Y-91440000D03*
%TD*%
D18*
%TO.P,D3,1,K*%
%TO.N,/Switch5*%
X106680000Y-111760000D03*
%TO.P,D3,2,A*%
%TO.N,GND2*%
X106680000Y-117160000D03*
%TD*%
D31*
%TO.P,H4,1*%
%TO.N,N/C*%
X155000000Y-51521400D03*
%TD*%
D14*
%TO.P,J3,1,Pin_1*%
%TO.N,/3V3*%
X124708824Y-54559956D03*
D15*
%TO.P,J3,2,Pin_2*%
%TO.N,Net-(A1-D4)*%
X127248824Y-54559956D03*
%TO.P,J3,3,Pin_3*%
%TO.N,Net-(A1-D5)*%
X129788824Y-54559956D03*
%TO.P,J3,4,Pin_4*%
%TO.N,GNDD*%
X132328824Y-54559956D03*
%TD*%
D40*
%TO.N,GNDD*%
X149500000Y-59521400D03*
X144500000Y-59521400D03*
X144500000Y-70021400D03*
X151500000Y-70021400D03*
X145500000Y-67021400D03*
X152000000Y-67021400D03*
X152000000Y-64521400D03*
X145500000Y-64521400D03*
X138500000Y-64521400D03*
X152000000Y-59521400D03*
X136000000Y-59521400D03*
X130000000Y-61021400D03*
X137500000Y-71021400D03*
X136000000Y-67021400D03*
X133000000Y-66021400D03*
X130500000Y-64021400D03*
X131000000Y-73521400D03*
X133500000Y-73521400D03*
X133500000Y-78021400D03*
X131000000Y-78021400D03*
X128500000Y-78021400D03*
X128500000Y-73521400D03*
X135000000Y-62021400D03*
X151500000Y-62021400D03*
X147000000Y-97521400D03*
X150000000Y-98521400D03*
X157000000Y-103521400D03*
X158000000Y-111521400D03*
X119000000Y-116521400D03*
X130000000Y-116521400D03*
X126000000Y-101521400D03*
X116000000Y-90521400D03*
X124000000Y-75521400D03*
X118000000Y-69521400D03*
X110000000Y-66521400D03*
X105000000Y-61521400D03*
X100000000Y-51521400D03*
X105000000Y-51521400D03*
X115000000Y-51521400D03*
X135000000Y-51521400D03*
X145000000Y-51521400D03*
X145000000Y-121521400D03*
X100000000Y-81521400D03*
X90000000Y-81521400D03*
X100000000Y-71521400D03*
X120000000Y-81521400D03*
X140000000Y-81521400D03*
X140000000Y-91521400D03*
X135000000Y-96521400D03*
X120000000Y-106521400D03*
X115000000Y-101521400D03*
X115000000Y-106521400D03*
%TO.N,/FB5*%
X114809300Y-116330700D03*
%TO.N,GNDD*%
X135000000Y-121521400D03*
X130000000Y-121521400D03*
X125000000Y-121521400D03*
X115000000Y-121521400D03*
%TO.N,PGood12*%
X120523000Y-90881200D03*
X119227600Y-84480400D03*
X130060700Y-109664500D03*
%TO.N,GNDD*%
X111200000Y-116921400D03*
X111000000Y-118221400D03*
X128270000Y-87840000D03*
X101900000Y-120421400D03*
X115000000Y-56521400D03*
X120200000Y-59821400D03*
X125730000Y-87840000D03*
X139600000Y-74121400D03*
X109300000Y-118921400D03*
X142900000Y-76321400D03*
X125000000Y-66521400D03*
X149600000Y-114121400D03*
X147100000Y-116021400D03*
X123000000Y-59721400D03*
X111800000Y-56521400D03*
X148400000Y-116521400D03*
X96200000Y-54521400D03*
X98200000Y-116821400D03*
X89000000Y-60321400D03*
X123800000Y-69521400D03*
X127000000Y-87630000D03*
%TO.N,PGood5*%
X92155000Y-111760000D03*
X95783400Y-96748600D03*
%TO.N,Net-(A1-D7)*%
X111074200Y-76403200D03*
%TO.N,GND2*%
X96520000Y-115721400D03*
X95400000Y-113030000D03*
X96520000Y-115021400D03*
X97725000Y-112421400D03*
X96500000Y-112421400D03*
X97100000Y-113170000D03*
X97160000Y-111671400D03*
X98800000Y-113030000D03*
%TO.N,+24V*%
X138600000Y-109220000D03*
X101500000Y-111760000D03*
X99902500Y-115521400D03*
X137160000Y-112721400D03*
X140800000Y-109521400D03*
X104206486Y-112821400D03*
%TO.N,GND1*%
X136100000Y-110490000D03*
X133900000Y-109821400D03*
X134620000Y-111821400D03*
X134400000Y-110621400D03*
X134982500Y-109821400D03*
X134400000Y-109080000D03*
X134620000Y-112721400D03*
%TO.N,Net-(U2-~{EN1})*%
X122144548Y-102026171D03*
X128549400Y-111760000D03*
%TD*%
D41*
%TO.N,/FB5*%
X114809300Y-116330700D02*
X109067600Y-122072400D01*
D42*
%TO.N,PGood12*%
X120523000Y-85775800D02*
X120523000Y-90881200D01*
D41*
X130060700Y-109664500D02*
X130505200Y-109220000D01*
D42*
X119227600Y-84480400D02*
X120523000Y-85775800D01*
D41*
X129592700Y-110132500D02*
X130060700Y-109664500D01*
X130505200Y-109220000D02*
X131600000Y-109220000D01*
X128627500Y-110132500D02*
X129592700Y-110132500D01*
D43*
%TO.N,GNDD*%
X131127750Y-90805000D02*
X128270000Y-90805000D01*
X127000000Y-90805000D02*
X125730000Y-90805000D01*
D44*
X92000000Y-92920000D02*
X89205534Y-92920000D01*
D43*
X128270000Y-90805000D02*
X127000000Y-90805000D01*
D44*
X89047034Y-92761500D02*
X88000000Y-92761500D01*
D41*
X87075000Y-65000000D02*
X87075000Y-68272500D01*
D43*
X124282500Y-90805000D02*
X124000000Y-91087500D01*
D41*
X128973824Y-58369956D02*
X131058824Y-58369956D01*
X87075000Y-68272500D02*
X86767500Y-68580000D01*
D43*
X127000000Y-90805000D02*
X127000000Y-87630000D01*
D41*
X131058824Y-58369956D02*
X132328824Y-57099956D01*
D43*
X125730000Y-90805000D02*
X124282500Y-90805000D01*
X125730000Y-90805000D02*
X125730000Y-87840000D01*
D41*
X132328824Y-57099956D02*
X132328824Y-54559956D01*
X131127750Y-92075000D02*
X131127750Y-89535000D01*
D45*
X154572500Y-96112500D02*
X154940000Y-96480000D01*
X149860000Y-96112500D02*
X154572500Y-96112500D01*
D43*
X128270000Y-90805000D02*
X128270000Y-87840000D01*
D44*
X89205534Y-92920000D02*
X89047034Y-92761500D01*
D41*
%TO.N,Net-(A1-VIN)*%
X88000000Y-95250000D02*
X88000000Y-95000000D01*
X88000000Y-97250000D02*
X88000000Y-95250000D01*
X92000000Y-95460000D02*
X88210000Y-95460000D01*
X88210000Y-95460000D02*
X88000000Y-95250000D01*
%TO.N,Net-(A1-D6)*%
X115874800Y-86664800D02*
X118500000Y-89290000D01*
X118500000Y-89290000D02*
X118500000Y-93000000D01*
X107240000Y-75140000D02*
X112935200Y-75140000D01*
X115874800Y-78079600D02*
X115874800Y-86664800D01*
X112935200Y-75140000D02*
X115874800Y-78079600D01*
D42*
%TO.N,PGood5*%
X101186800Y-85300000D02*
X98628200Y-87858600D01*
X97739200Y-90982800D02*
X97739200Y-94792800D01*
D41*
X91440000Y-111045000D02*
X92155000Y-111760000D01*
D42*
X97739200Y-94792800D02*
X95783400Y-96748600D01*
X107240000Y-85300000D02*
X101186800Y-85300000D01*
X97739200Y-88747600D02*
X97739200Y-90982800D01*
D41*
X92155000Y-111760000D02*
X94342500Y-111760000D01*
D42*
X98628200Y-87858600D02*
X97739200Y-88747600D01*
D41*
%TO.N,/3V3*%
X124708824Y-57099956D02*
X124708824Y-54559956D01*
X138582400Y-68732400D02*
X129616200Y-68732400D01*
X125978824Y-58369956D02*
X124708824Y-57099956D01*
X102463200Y-53721400D02*
X93744600Y-62440000D01*
X154940000Y-76160000D02*
X146010000Y-76160000D01*
X124708824Y-54559956D02*
X123870268Y-53721400D01*
X146010000Y-76160000D02*
X138582400Y-68732400D01*
X127248824Y-66365024D02*
X127248824Y-58369956D01*
X93744600Y-62440000D02*
X92000000Y-62440000D01*
X127248824Y-58369956D02*
X125978824Y-58369956D01*
X123870268Y-53721400D02*
X102463200Y-53721400D01*
X129616200Y-68732400D02*
X127248824Y-66365024D01*
D42*
%TO.N,Net-(A1-D7)*%
X111048800Y-84404200D02*
X111048800Y-76428600D01*
X119412500Y-99775000D02*
X111048800Y-91411300D01*
X111048800Y-91411300D02*
X111048800Y-84404200D01*
X111048800Y-76428600D02*
X111074200Y-76403200D01*
D44*
%TO.N,GND2*%
X106680000Y-117160000D02*
X106680000Y-117141400D01*
D41*
X102870000Y-115570000D02*
X101600000Y-116840000D01*
D43*
X113300000Y-113321400D02*
X110500000Y-113321400D01*
D41*
X96520000Y-113170000D02*
X96520000Y-115021400D01*
D44*
X106680000Y-117160000D02*
X104460000Y-117160000D01*
D41*
X102065000Y-113030000D02*
X102870000Y-113835000D01*
X95400000Y-113030000D02*
X96380000Y-113030000D01*
X99902500Y-113030000D02*
X98800000Y-113030000D01*
X99902500Y-113030000D02*
X102065000Y-113030000D01*
X96520000Y-115021400D02*
X96520000Y-115721400D01*
D44*
X106680000Y-117141400D02*
X110500000Y-113321400D01*
D41*
X102870000Y-113835000D02*
X102870000Y-115570000D01*
X97725000Y-113170000D02*
X97865000Y-113030000D01*
X96520000Y-115721400D02*
X96520000Y-116840000D01*
X96435700Y-113085700D02*
X96520000Y-113170000D01*
X97865000Y-113030000D02*
X98800000Y-113030000D01*
X96380000Y-113030000D02*
X96435700Y-113085700D01*
D44*
X104460000Y-117160000D02*
X102870000Y-115570000D01*
D41*
X94342500Y-113030000D02*
X95400000Y-113030000D01*
%TO.N,Net-(J2-Pin_3)*%
X127656324Y-83769956D02*
X127656324Y-80367456D01*
X127656324Y-80367456D02*
X127248824Y-79959956D01*
%TO.N,Net-(J2-Pin_4)*%
X129381324Y-80367456D02*
X129788824Y-79959956D01*
X129381324Y-83769956D02*
X129381324Y-80367456D01*
%TO.N,Net-(J2-Pin_5)*%
X133143824Y-80774956D02*
X132328824Y-79959956D01*
X133143824Y-83769956D02*
X133143824Y-80774956D01*
%TO.N,Net-(J2-Pin_6)*%
X134868824Y-83769956D02*
X134868824Y-79959956D01*
D43*
%TO.N,+12V*%
X155800000Y-107708900D02*
X155864900Y-107644000D01*
D44*
X147320000Y-91440000D02*
X147320000Y-89220000D01*
X141950000Y-96810000D02*
X141950000Y-102870000D01*
X147320000Y-91440000D02*
X149860000Y-91440000D01*
X141950000Y-102870000D02*
X146126000Y-102870000D01*
D45*
X149860000Y-94387500D02*
X149860000Y-91440000D01*
D43*
X155864900Y-107644000D02*
X158132801Y-107644000D01*
X154771100Y-106680000D02*
X153210000Y-106680000D01*
X155800000Y-107708900D02*
X154771100Y-106680000D01*
X149860000Y-106680000D02*
X153210000Y-106680000D01*
D44*
X152411000Y-91440000D02*
X154940000Y-88911000D01*
X149860000Y-91440000D02*
X152411000Y-91440000D01*
X146126000Y-102870000D02*
X149860000Y-106604000D01*
X147320000Y-91440000D02*
X141950000Y-96810000D01*
D43*
X158132801Y-107644000D02*
X158267601Y-107778800D01*
D41*
%TO.N,Net-(Q1-G)*%
X124000000Y-92912500D02*
X124432500Y-93345000D01*
X124432500Y-93345000D02*
X131127750Y-93345000D01*
X123912500Y-93000000D02*
X124000000Y-92912500D01*
X120325000Y-93000000D02*
X123912500Y-93000000D01*
%TO.N,+24V*%
X99902500Y-111760000D02*
X101500000Y-111760000D01*
X99902500Y-115521400D02*
X99902500Y-116692500D01*
D42*
X137160000Y-112721400D02*
X137160000Y-114020000D01*
D41*
X139467500Y-109220000D02*
X139700000Y-109452500D01*
X99902500Y-114300000D02*
X99902500Y-115521400D01*
X138600000Y-109220000D02*
X139467500Y-109220000D01*
X139768900Y-109521400D02*
X139700000Y-109452500D01*
D42*
X137160000Y-114020000D02*
X136880000Y-114300000D01*
D41*
X102870000Y-111760000D02*
X103145086Y-111760000D01*
X101500000Y-111760000D02*
X102870000Y-111760000D01*
X137160000Y-109220000D02*
X138600000Y-109220000D01*
D42*
X137160000Y-111760000D02*
X137160000Y-112721400D01*
D41*
X99902500Y-116692500D02*
X100050000Y-116840000D01*
X140800000Y-109521400D02*
X139768900Y-109521400D01*
X103145086Y-111760000D02*
X104206486Y-112821400D01*
D44*
%TO.N,GND1*%
X143100000Y-114620000D02*
X141620200Y-114620000D01*
X145045000Y-114620000D02*
X147971800Y-111693200D01*
D41*
X139610656Y-111527500D02*
X138504156Y-110421000D01*
X133917500Y-110490000D02*
X133777500Y-110630000D01*
D44*
X140810800Y-113810600D02*
X140716000Y-113715800D01*
D41*
X138430000Y-114300000D02*
X139446000Y-114300000D01*
D44*
X140030200Y-113715800D02*
X139816000Y-113501600D01*
X147971800Y-111693200D02*
X149860000Y-109805000D01*
X144780000Y-114620000D02*
X143100000Y-114620000D01*
D41*
X138430000Y-112797500D02*
X139700000Y-111527500D01*
X137160000Y-110490000D02*
X136100000Y-110490000D01*
D44*
X140716000Y-113715800D02*
X140030200Y-113715800D01*
D41*
X134620000Y-112721400D02*
X134620000Y-111821400D01*
X138504156Y-110421000D02*
X138353800Y-110421000D01*
D44*
X139816000Y-113501600D02*
X139816000Y-111741000D01*
D41*
X134800000Y-110490000D02*
X133917500Y-110490000D01*
D44*
X141620200Y-114620000D02*
X140810800Y-113810600D01*
D41*
X134620000Y-111821400D02*
X134620000Y-110992500D01*
X138430000Y-114300000D02*
X138430000Y-112797500D01*
D44*
X151600000Y-109805000D02*
X153210000Y-109805000D01*
D41*
X134620000Y-114300000D02*
X134620000Y-112721400D01*
X136100000Y-110490000D02*
X134800000Y-110490000D01*
X139700000Y-111527500D02*
X139610656Y-111527500D01*
D44*
X144780000Y-114620000D02*
X145045000Y-114620000D01*
D41*
X134620000Y-110992500D02*
X134982500Y-110630000D01*
X139446000Y-114300000D02*
X140030200Y-113715800D01*
D44*
X149860000Y-109805000D02*
X151600000Y-109805000D01*
D41*
%TO.N,+5V*%
X125175000Y-110435400D02*
X127302900Y-108307500D01*
D44*
X108513600Y-105410000D02*
X106390000Y-105410000D01*
D41*
X125175000Y-111760000D02*
X121920000Y-111760000D01*
X121920000Y-111760000D02*
X117555000Y-111760000D01*
X117555000Y-111760000D02*
X116840000Y-112475000D01*
X91440000Y-105410000D02*
X93446600Y-105410000D01*
X104267000Y-101803200D02*
X105232200Y-102768400D01*
X105232200Y-102768400D02*
X105232200Y-104252200D01*
X88000000Y-101970000D02*
X91440000Y-105410000D01*
X93446600Y-105410000D02*
X97053400Y-101803200D01*
X127302900Y-108307500D02*
X128627500Y-108307500D01*
X88000000Y-99000000D02*
X88000000Y-101970000D01*
X115578600Y-112475000D02*
X113300000Y-110196400D01*
X116840000Y-112475000D02*
X115578600Y-112475000D01*
D43*
X113300000Y-110196400D02*
X110500000Y-110196400D01*
D41*
X105232200Y-104252200D02*
X106390000Y-105410000D01*
X125175000Y-111760000D02*
X125175000Y-110435400D01*
X91440000Y-105410000D02*
X91440000Y-109220000D01*
D44*
X113300000Y-110196400D02*
X108513600Y-105410000D01*
D41*
X97053400Y-101803200D02*
X104267000Y-101803200D01*
%TO.N,/TempIn*%
X90170000Y-67310000D02*
X90380000Y-67520000D01*
X142160000Y-78660000D02*
X139700000Y-76200000D01*
X107919724Y-55719000D02*
X103801000Y-55719000D01*
X88492500Y-68580000D02*
X88900000Y-68580000D01*
X88900000Y-66040000D02*
X90170000Y-67310000D01*
X154940000Y-78660000D02*
X142160000Y-78660000D01*
X90380000Y-67520000D02*
X92000000Y-67520000D01*
X88900000Y-65000000D02*
X88900000Y-66040000D01*
X128400724Y-76200000D02*
X107919724Y-55719000D01*
X103801000Y-55719000D02*
X92000000Y-67520000D01*
X88900000Y-68580000D02*
X90170000Y-67310000D01*
X139700000Y-76200000D02*
X128400724Y-76200000D01*
D42*
%TO.N,Net-(U2-~{EN1})*%
X128549400Y-111760000D02*
X127000000Y-111760000D01*
X121869200Y-101600000D02*
X119412500Y-101600000D01*
X122144548Y-101875348D02*
X121869200Y-101600000D01*
X129486894Y-111760000D02*
X128549400Y-111760000D01*
X130756894Y-110490000D02*
X129486894Y-111760000D01*
X131600000Y-110490000D02*
X130756894Y-110490000D01*
X122144548Y-102026171D02*
X122144548Y-101875348D01*
D44*
%TO.N,Net-(D4-A)*%
X142240000Y-83820000D02*
X147320000Y-83820000D01*
X151130000Y-83820000D02*
X153317051Y-86007051D01*
D43*
X153670000Y-86360000D02*
X153579000Y-86269000D01*
D44*
X134620000Y-91440000D02*
X142240000Y-83820000D01*
X147320000Y-83820000D02*
X151130000Y-83820000D01*
D41*
X154940000Y-86360000D02*
X153670000Y-86360000D01*
%TO.N,/FB5*%
X94342500Y-114300000D02*
X94342500Y-116487500D01*
X116840000Y-114300000D02*
X114809300Y-116330700D01*
X99927400Y-122072400D02*
X94695000Y-116840000D01*
X109067600Y-122072400D02*
X99927400Y-122072400D01*
X94342500Y-116487500D02*
X94695000Y-116840000D01*
X120930000Y-114300000D02*
X121920000Y-113310000D01*
X116840000Y-114300000D02*
X120930000Y-114300000D01*
%TO.N,/FB12*%
X131805000Y-113310000D02*
X132795000Y-114300000D01*
D42*
X155800000Y-110925400D02*
X155800000Y-109533900D01*
X155800000Y-109533900D02*
X158062500Y-109533900D01*
X148183600Y-118541800D02*
X155800000Y-110925400D01*
X148183600Y-118541800D02*
X135382000Y-118541800D01*
D41*
X131600000Y-113105000D02*
X131805000Y-113310000D01*
D42*
X158062500Y-109533900D02*
X158100000Y-109496400D01*
X132795000Y-115954800D02*
X132795000Y-114300000D01*
X157480000Y-109220000D02*
X157480000Y-109245400D01*
D41*
X131600000Y-111760000D02*
X131600000Y-113105000D01*
D42*
X135382000Y-118541800D02*
X132795000Y-115954800D01*
D41*
%TO.N,/Switch5*%
X99902500Y-110490000D02*
X99902500Y-108512500D01*
D44*
X101890000Y-106525000D02*
X99902500Y-108512500D01*
X106680000Y-111760000D02*
X101890000Y-106970000D01*
X101890000Y-106970000D02*
X101890000Y-106525000D01*
X101890000Y-105410000D02*
X101890000Y-106525000D01*
D41*
X99902500Y-108512500D02*
X98070000Y-106680000D01*
%TO.N,/Boot5*%
X94342500Y-108857500D02*
X96520000Y-106680000D01*
X94342500Y-110490000D02*
X94342500Y-108857500D01*
%TO.N,/Boot12*%
X131600000Y-105265000D02*
X132080000Y-104785000D01*
X131600000Y-107950000D02*
X131600000Y-105265000D01*
%TO.N,/Switch12*%
X133630000Y-102837400D02*
X133883400Y-102584000D01*
D44*
X144780000Y-109220000D02*
X142231000Y-106671000D01*
X142231000Y-106671000D02*
X139049000Y-106671000D01*
X137164000Y-102584000D02*
X137450000Y-102870000D01*
D41*
X137770000Y-107950000D02*
X139049000Y-106671000D01*
D44*
X139049000Y-106671000D02*
X137450000Y-105072000D01*
D41*
X137160000Y-107950000D02*
X137770000Y-107950000D01*
D44*
X137450000Y-105072000D02*
X137450000Y-102870000D01*
X133883400Y-102584000D02*
X137164000Y-102584000D01*
D41*
X133630000Y-104760000D02*
X133630000Y-102837400D01*
%TD*%
%TA.AperFunction,Conductor*%
%TO.N,GNDD*%
G36*
X145627764Y-47066585D02*
G01*
X145673519Y-47119389D01*
X145684725Y-47170900D01*
X145684725Y-50477728D01*
X150426021Y-50477728D01*
X150426021Y-47170900D01*
X150445706Y-47103861D01*
X150498510Y-47058106D01*
X150550021Y-47046900D01*
X159350500Y-47046900D01*
X159417539Y-47066585D01*
X159463294Y-47119389D01*
X159474500Y-47170900D01*
X159474500Y-106564310D01*
X159454815Y-106631349D01*
X159402011Y-106677104D01*
X159332853Y-106687048D01*
X159269297Y-106658023D01*
X159262819Y-106651991D01*
X159110312Y-106499484D01*
X159063741Y-106465648D01*
X158919235Y-106360657D01*
X158892626Y-106347099D01*
X158708797Y-106253433D01*
X158484169Y-106180446D01*
X158250898Y-106143500D01*
X158250893Y-106143500D01*
X156407989Y-106143500D01*
X156340950Y-106123815D01*
X156320308Y-106107181D01*
X155748611Y-105535484D01*
X155680519Y-105486012D01*
X155557534Y-105396657D01*
X155347096Y-105289433D01*
X155122468Y-105216446D01*
X154889197Y-105179500D01*
X154889192Y-105179500D01*
X153328092Y-105179500D01*
X151315997Y-105179500D01*
X151248958Y-105159815D01*
X151228316Y-105143181D01*
X147447856Y-101362721D01*
X147447849Y-101362715D01*
X147309340Y-101256434D01*
X147309338Y-101256432D01*
X147239802Y-101203075D01*
X147012700Y-101071958D01*
X147012690Y-101071953D01*
X146770428Y-100971605D01*
X146770417Y-100971601D01*
X146762570Y-100969499D01*
X146762569Y-100969498D01*
X146517112Y-100903728D01*
X146387118Y-100886615D01*
X146257127Y-100869500D01*
X146257120Y-100869500D01*
X144074500Y-100869500D01*
X144007461Y-100849815D01*
X143961706Y-100797011D01*
X143950500Y-100745500D01*
X143950500Y-98329983D01*
X153439500Y-98329983D01*
X153439500Y-99630001D01*
X153439501Y-99630018D01*
X153450000Y-99732796D01*
X153450001Y-99732799D01*
X153505185Y-99899331D01*
X153505186Y-99899334D01*
X153597288Y-100048656D01*
X153721344Y-100172712D01*
X153870666Y-100264814D01*
X154037203Y-100319999D01*
X154139991Y-100330500D01*
X155740008Y-100330499D01*
X155842797Y-100319999D01*
X156009334Y-100264814D01*
X156158656Y-100172712D01*
X156282712Y-100048656D01*
X156374814Y-99899334D01*
X156429999Y-99732797D01*
X156440500Y-99630009D01*
X156440499Y-98329992D01*
X156429999Y-98227203D01*
X156374814Y-98060666D01*
X156282712Y-97911344D01*
X156158656Y-97787288D01*
X156009334Y-97695186D01*
X156009332Y-97695185D01*
X156003440Y-97691551D01*
X155956716Y-97639603D01*
X155945493Y-97570641D01*
X155973337Y-97506558D01*
X155980856Y-97498330D01*
X156119728Y-97359458D01*
X156244620Y-97187557D01*
X156341095Y-96998217D01*
X156406757Y-96796129D01*
X156406757Y-96796126D01*
X156417231Y-96730000D01*
X155373012Y-96730000D01*
X155405925Y-96672993D01*
X155440000Y-96545826D01*
X155440000Y-96414174D01*
X155405925Y-96287007D01*
X155373012Y-96230000D01*
X156417231Y-96230000D01*
X156406757Y-96163873D01*
X156406757Y-96163870D01*
X156341095Y-95961782D01*
X156244620Y-95772442D01*
X156119727Y-95600540D01*
X156119723Y-95600535D01*
X155969464Y-95450276D01*
X155969459Y-95450272D01*
X155797557Y-95325379D01*
X155608217Y-95228904D01*
X155406129Y-95163242D01*
X155196246Y-95130000D01*
X155190000Y-95130000D01*
X155190000Y-96046988D01*
X155132993Y-96014075D01*
X155005826Y-95980000D01*
X154874174Y-95980000D01*
X154747007Y-96014075D01*
X154690000Y-96046988D01*
X154690000Y-95130000D01*
X154683754Y-95130000D01*
X154473872Y-95163242D01*
X154473869Y-95163242D01*
X154271782Y-95228904D01*
X154082442Y-95325379D01*
X153910540Y-95450272D01*
X153910535Y-95450276D01*
X153760276Y-95600535D01*
X153760272Y-95600540D01*
X153635379Y-95772442D01*
X153538904Y-95961782D01*
X153473242Y-96163870D01*
X153473242Y-96163873D01*
X153462769Y-96230000D01*
X154506988Y-96230000D01*
X154474075Y-96287007D01*
X154440000Y-96414174D01*
X154440000Y-96545826D01*
X154474075Y-96672993D01*
X154506988Y-96730000D01*
X153462769Y-96730000D01*
X153473242Y-96796126D01*
X153473242Y-96796129D01*
X153538904Y-96998217D01*
X153635379Y-97187557D01*
X153760272Y-97359459D01*
X153760276Y-97359464D01*
X153899143Y-97498331D01*
X153932628Y-97559654D01*
X153927644Y-97629346D01*
X153885772Y-97685279D01*
X153876559Y-97691551D01*
X153721342Y-97787289D01*
X153597289Y-97911342D01*
X153505187Y-98060663D01*
X153505185Y-98060668D01*
X153492602Y-98098642D01*
X153450001Y-98227203D01*
X153450001Y-98227204D01*
X153450000Y-98227204D01*
X153439500Y-98329983D01*
X143950500Y-98329983D01*
X143950500Y-97689996D01*
X143970185Y-97622957D01*
X143986819Y-97602315D01*
X145127480Y-96461654D01*
X148885001Y-96461654D01*
X148895319Y-96562652D01*
X148949546Y-96726300D01*
X148949551Y-96726311D01*
X149040052Y-96873034D01*
X149040055Y-96873038D01*
X149161961Y-96994944D01*
X149161965Y-96994947D01*
X149308688Y-97085448D01*
X149308699Y-97085453D01*
X149472347Y-97139680D01*
X149573352Y-97149999D01*
X149610000Y-97149999D01*
X150110000Y-97149999D01*
X150146640Y-97149999D01*
X150146654Y-97149998D01*
X150247652Y-97139680D01*
X150411300Y-97085453D01*
X150411311Y-97085448D01*
X150558034Y-96994947D01*
X150558038Y-96994944D01*
X150679944Y-96873038D01*
X150679947Y-96873034D01*
X150770448Y-96726311D01*
X150770453Y-96726300D01*
X150824680Y-96562652D01*
X150834999Y-96461654D01*
X150835000Y-96461641D01*
X150835000Y-96362500D01*
X150110000Y-96362500D01*
X150110000Y-97149999D01*
X149610000Y-97149999D01*
X149610000Y-96362500D01*
X148885001Y-96362500D01*
X148885001Y-96461654D01*
X145127480Y-96461654D01*
X148112315Y-93476819D01*
X148173638Y-93443334D01*
X148199996Y-93440500D01*
X148485500Y-93440500D01*
X148552539Y-93460185D01*
X148598294Y-93512989D01*
X148609500Y-93564500D01*
X148609500Y-94485922D01*
X148640290Y-94680326D01*
X148701117Y-94867529D01*
X148748629Y-94960776D01*
X148790476Y-95042905D01*
X148906172Y-95202146D01*
X148976802Y-95272776D01*
X148976804Y-95272778D01*
X149010288Y-95334102D01*
X149005303Y-95403793D01*
X148994661Y-95425556D01*
X148949548Y-95498694D01*
X148949546Y-95498699D01*
X148895319Y-95662347D01*
X148885000Y-95763345D01*
X148885000Y-95862500D01*
X150834999Y-95862500D01*
X150834999Y-95763360D01*
X150834998Y-95763345D01*
X150824680Y-95662347D01*
X150770453Y-95498699D01*
X150770451Y-95498694D01*
X150725338Y-95425555D01*
X150706898Y-95358163D01*
X150727820Y-95291499D01*
X150743186Y-95272787D01*
X150813828Y-95202146D01*
X150929524Y-95042905D01*
X151018884Y-94867525D01*
X151079709Y-94680326D01*
X151086056Y-94640254D01*
X151110500Y-94485922D01*
X151110500Y-93564500D01*
X151130185Y-93497461D01*
X151182989Y-93451706D01*
X151234500Y-93440500D01*
X152542113Y-93440500D01*
X152542120Y-93440500D01*
X152672118Y-93423385D01*
X152802116Y-93406271D01*
X153055419Y-93338398D01*
X153297697Y-93238043D01*
X153343366Y-93211676D01*
X153524803Y-93106924D01*
X153649761Y-93011040D01*
X153732851Y-92947283D01*
X156447283Y-90232851D01*
X156606924Y-90024802D01*
X156738043Y-89797697D01*
X156838398Y-89555419D01*
X156906271Y-89302116D01*
X156940499Y-89042120D01*
X156940499Y-88779881D01*
X156906271Y-88519884D01*
X156838398Y-88266581D01*
X156738043Y-88024303D01*
X156712469Y-87980008D01*
X156606924Y-87797198D01*
X156447284Y-87589150D01*
X156447278Y-87589143D01*
X156261856Y-87403721D01*
X156261849Y-87403715D01*
X156190207Y-87348742D01*
X156149004Y-87292314D01*
X156144849Y-87222568D01*
X156165373Y-87177483D01*
X156245051Y-87067816D01*
X156341557Y-86878412D01*
X156407246Y-86676243D01*
X156440500Y-86466287D01*
X156440500Y-86253713D01*
X156407246Y-86043757D01*
X156341557Y-85841588D01*
X156245051Y-85652184D01*
X156245049Y-85652181D01*
X156245048Y-85652179D01*
X156120109Y-85480213D01*
X155969786Y-85329890D01*
X155797820Y-85204951D01*
X155608414Y-85108444D01*
X155608413Y-85108443D01*
X155608412Y-85108443D01*
X155406243Y-85042754D01*
X155406241Y-85042753D01*
X155406240Y-85042753D01*
X155244957Y-85017208D01*
X155196287Y-85009500D01*
X155196286Y-85009500D01*
X155122683Y-85009500D01*
X155055644Y-84989815D01*
X155015296Y-84947500D01*
X154985046Y-84895105D01*
X154983974Y-84893249D01*
X154983970Y-84893244D01*
X154983967Y-84893239D01*
X154824335Y-84685201D01*
X154824329Y-84685194D01*
X152451856Y-82312721D01*
X152451849Y-82312715D01*
X152334131Y-82222388D01*
X152334130Y-82222387D01*
X152243803Y-82153075D01*
X152016700Y-82021958D01*
X152016690Y-82021954D01*
X151774419Y-81921602D01*
X151521112Y-81853728D01*
X151391118Y-81836615D01*
X151261127Y-81819500D01*
X151261120Y-81819500D01*
X148832230Y-81819500D01*
X148765191Y-81799815D01*
X148744549Y-81783181D01*
X148688657Y-81727289D01*
X148688656Y-81727288D01*
X148539334Y-81635186D01*
X148372797Y-81580001D01*
X148372795Y-81580000D01*
X148270010Y-81569500D01*
X146369998Y-81569500D01*
X146369981Y-81569501D01*
X146267203Y-81580000D01*
X146267200Y-81580001D01*
X146100668Y-81635185D01*
X146100663Y-81635187D01*
X145951342Y-81727289D01*
X145895451Y-81783181D01*
X145834128Y-81816666D01*
X145807770Y-81819500D01*
X142108872Y-81819500D01*
X141978882Y-81836615D01*
X141978881Y-81836615D01*
X141848887Y-81853728D01*
X141595580Y-81921602D01*
X141353309Y-82021954D01*
X141353299Y-82021958D01*
X141126197Y-82153075D01*
X141022172Y-82232897D01*
X140918145Y-82312719D01*
X140918140Y-82312723D01*
X134619423Y-88611442D01*
X134558100Y-88644927D01*
X134488408Y-88639943D01*
X134432475Y-88598071D01*
X134412765Y-88558697D01*
X134402161Y-88522584D01*
X134382319Y-88455008D01*
X134308408Y-88340000D01*
X134304532Y-88333969D01*
X134304528Y-88333965D01*
X134195799Y-88239750D01*
X134195797Y-88239748D01*
X134195794Y-88239746D01*
X134195790Y-88239744D01*
X134064919Y-88179976D01*
X134064914Y-88179975D01*
X133922500Y-88159500D01*
X133017500Y-88159500D01*
X133017497Y-88159500D01*
X132945559Y-88164644D01*
X132807505Y-88205182D01*
X132686469Y-88282967D01*
X132686465Y-88282971D01*
X132592250Y-88391700D01*
X132592244Y-88391709D01*
X132532476Y-88522582D01*
X132523766Y-88583156D01*
X132494740Y-88646711D01*
X132435965Y-88684483D01*
X132382513Y-88700178D01*
X132382504Y-88700183D01*
X132261469Y-88777967D01*
X132261465Y-88777971D01*
X132167247Y-88886703D01*
X132166114Y-88888467D01*
X132164531Y-88889838D01*
X132161438Y-88893408D01*
X132160924Y-88892963D01*
X132113307Y-88934218D01*
X132044148Y-88944157D01*
X131980594Y-88915127D01*
X131974122Y-88909101D01*
X131867357Y-88802336D01*
X131867352Y-88802332D01*
X131724482Y-88715965D01*
X131724478Y-88715963D01*
X131565085Y-88666295D01*
X131565087Y-88666295D01*
X131495809Y-88660000D01*
X131377750Y-88660000D01*
X131377750Y-91951000D01*
X131358065Y-92018039D01*
X131305261Y-92063794D01*
X131253750Y-92075000D01*
X131127750Y-92075000D01*
X131127750Y-92201000D01*
X131108065Y-92268039D01*
X131055261Y-92313794D01*
X131003750Y-92325000D01*
X130113016Y-92325000D01*
X130087707Y-92340348D01*
X130055886Y-92344500D01*
X124977658Y-92344500D01*
X124910619Y-92324815D01*
X124872120Y-92285597D01*
X124820342Y-92201653D01*
X124820339Y-92201649D01*
X124706017Y-92087327D01*
X124672532Y-92026004D01*
X124677516Y-91956312D01*
X124706017Y-91911964D01*
X124792982Y-91824999D01*
X130128379Y-91824999D01*
X130128380Y-91825000D01*
X130877750Y-91825000D01*
X130877750Y-91055000D01*
X130128380Y-91055000D01*
X130134045Y-91117337D01*
X130183713Y-91276728D01*
X130183715Y-91276732D01*
X130243634Y-91375851D01*
X130261470Y-91443406D01*
X130243634Y-91504149D01*
X130183715Y-91603267D01*
X130183713Y-91603271D01*
X130134045Y-91762662D01*
X130128379Y-91824999D01*
X124792982Y-91824999D01*
X124819948Y-91798033D01*
X124910448Y-91651311D01*
X124910453Y-91651300D01*
X124964680Y-91487652D01*
X124974999Y-91386654D01*
X124975000Y-91386641D01*
X124975000Y-91337500D01*
X123025001Y-91337500D01*
X123025001Y-91386654D01*
X123035319Y-91487652D01*
X123089546Y-91651300D01*
X123089551Y-91651311D01*
X123180052Y-91798035D01*
X123180489Y-91798587D01*
X123180670Y-91799036D01*
X123183846Y-91804185D01*
X123182966Y-91804727D01*
X123206631Y-91863381D01*
X123193593Y-91932024D01*
X123145513Y-91982720D01*
X123083225Y-91999500D01*
X120226459Y-91999500D01*
X120193569Y-92006041D01*
X120112745Y-92022118D01*
X120088557Y-92024500D01*
X120025832Y-92024500D01*
X120025812Y-92024501D01*
X119924747Y-92034825D01*
X119760984Y-92089092D01*
X119760977Y-92089095D01*
X119689596Y-92133124D01*
X119622204Y-92151564D01*
X119555540Y-92130641D01*
X119510771Y-92076999D01*
X119500500Y-92027585D01*
X119500500Y-91323849D01*
X119520185Y-91256810D01*
X119572989Y-91211055D01*
X119642147Y-91201111D01*
X119705703Y-91230136D01*
X119739061Y-91276397D01*
X119747138Y-91295898D01*
X119747145Y-91295911D01*
X119842954Y-91439298D01*
X119842957Y-91439302D01*
X119964897Y-91561242D01*
X119964901Y-91561245D01*
X120108288Y-91657054D01*
X120108301Y-91657061D01*
X120267621Y-91723053D01*
X120267626Y-91723055D01*
X120326618Y-91734789D01*
X120410626Y-91751500D01*
X120410629Y-91751500D01*
X120436771Y-91756700D01*
X120609229Y-91756700D01*
X120635371Y-91751500D01*
X120635374Y-91751500D01*
X120712621Y-91736134D01*
X120778374Y-91723055D01*
X120937705Y-91657058D01*
X121081099Y-91561245D01*
X121203045Y-91439299D01*
X121298858Y-91295905D01*
X121306939Y-91276397D01*
X121364853Y-91136578D01*
X121364855Y-91136574D01*
X121398500Y-90967429D01*
X121398500Y-90788345D01*
X123025000Y-90788345D01*
X123025000Y-90837500D01*
X123750000Y-90837500D01*
X124250000Y-90837500D01*
X124974999Y-90837500D01*
X124974999Y-90788360D01*
X124974998Y-90788345D01*
X124964680Y-90687347D01*
X124920825Y-90554999D01*
X130128379Y-90554999D01*
X130128380Y-90555000D01*
X130877750Y-90555000D01*
X130877750Y-89785000D01*
X130128380Y-89785000D01*
X130134045Y-89847337D01*
X130183713Y-90006728D01*
X130183715Y-90006732D01*
X130243634Y-90105851D01*
X130261470Y-90173406D01*
X130243634Y-90234149D01*
X130183715Y-90333267D01*
X130183713Y-90333271D01*
X130134045Y-90492662D01*
X130128379Y-90554999D01*
X124920825Y-90554999D01*
X124910453Y-90523699D01*
X124910448Y-90523688D01*
X124819947Y-90376965D01*
X124819944Y-90376961D01*
X124698038Y-90255055D01*
X124698034Y-90255052D01*
X124551311Y-90164551D01*
X124551300Y-90164546D01*
X124387652Y-90110319D01*
X124286654Y-90100000D01*
X124250000Y-90100000D01*
X124250000Y-90837500D01*
X123750000Y-90837500D01*
X123750000Y-90100000D01*
X123713361Y-90100000D01*
X123713343Y-90100001D01*
X123612347Y-90110319D01*
X123448699Y-90164546D01*
X123448688Y-90164551D01*
X123301965Y-90255052D01*
X123301961Y-90255055D01*
X123180055Y-90376961D01*
X123180052Y-90376965D01*
X123089551Y-90523688D01*
X123089546Y-90523699D01*
X123035319Y-90687347D01*
X123025000Y-90788345D01*
X121398500Y-90788345D01*
X121398500Y-89284999D01*
X130128379Y-89284999D01*
X130128380Y-89285000D01*
X130877750Y-89285000D01*
X130877750Y-88660000D01*
X130759691Y-88660000D01*
X130690413Y-88666295D01*
X130531021Y-88715963D01*
X130531017Y-88715965D01*
X130388147Y-88802332D01*
X130388142Y-88802336D01*
X130270086Y-88920392D01*
X130270082Y-88920397D01*
X130183715Y-89063267D01*
X130183713Y-89063271D01*
X130134045Y-89222662D01*
X130128379Y-89284999D01*
X121398500Y-89284999D01*
X121398500Y-85689571D01*
X121398500Y-85689568D01*
X121398499Y-85689566D01*
X121364856Y-85520433D01*
X121364855Y-85520426D01*
X121348196Y-85480208D01*
X121298861Y-85361101D01*
X121298854Y-85361088D01*
X121203046Y-85217702D01*
X121182992Y-85197648D01*
X121081099Y-85095755D01*
X120438125Y-84452781D01*
X119785702Y-83800357D01*
X119785698Y-83800354D01*
X119642311Y-83704545D01*
X119642298Y-83704538D01*
X119482978Y-83638546D01*
X119482966Y-83638543D01*
X119313832Y-83604900D01*
X119313829Y-83604900D01*
X119141371Y-83604900D01*
X119141368Y-83604900D01*
X118972233Y-83638543D01*
X118972221Y-83638546D01*
X118812901Y-83704538D01*
X118812888Y-83704545D01*
X118669501Y-83800354D01*
X118669497Y-83800357D01*
X118547557Y-83922297D01*
X118547554Y-83922301D01*
X118451745Y-84065688D01*
X118451738Y-84065701D01*
X118385746Y-84225021D01*
X118385743Y-84225033D01*
X118352100Y-84394166D01*
X118352100Y-84566633D01*
X118385743Y-84735766D01*
X118385746Y-84735778D01*
X118451738Y-84895098D01*
X118451745Y-84895111D01*
X118547554Y-85038498D01*
X118547557Y-85038502D01*
X119611181Y-86102125D01*
X119644666Y-86163448D01*
X119647500Y-86189806D01*
X119647500Y-88822488D01*
X119627815Y-88889527D01*
X119575011Y-88935282D01*
X119505853Y-88945226D01*
X119442297Y-88916201D01*
X119408939Y-88869940D01*
X119386635Y-88816093D01*
X119386634Y-88816092D01*
X119386632Y-88816086D01*
X119361162Y-88777967D01*
X119277140Y-88652219D01*
X119208077Y-88583156D01*
X119137782Y-88512861D01*
X119137781Y-88512860D01*
X116911619Y-86286698D01*
X116878134Y-86225375D01*
X116875300Y-86199017D01*
X116875300Y-79062091D01*
X120818324Y-79062091D01*
X120818324Y-80857826D01*
X120818325Y-80857832D01*
X120824732Y-80917439D01*
X120875026Y-81052284D01*
X120875030Y-81052291D01*
X120961276Y-81167500D01*
X120961279Y-81167503D01*
X121076488Y-81253749D01*
X121076495Y-81253753D01*
X121211341Y-81304047D01*
X121211340Y-81304047D01*
X121218268Y-81304791D01*
X121270951Y-81310456D01*
X123066696Y-81310455D01*
X123126307Y-81304047D01*
X123261155Y-81253752D01*
X123376370Y-81167502D01*
X123462620Y-81052287D01*
X123511634Y-80920872D01*
X123553505Y-80864940D01*
X123618969Y-80840522D01*
X123687242Y-80855373D01*
X123715497Y-80876525D01*
X123829037Y-80990065D01*
X124001003Y-81115004D01*
X124001005Y-81115005D01*
X124001008Y-81115007D01*
X124190412Y-81211513D01*
X124392581Y-81277202D01*
X124602537Y-81310456D01*
X124602538Y-81310456D01*
X124815110Y-81310456D01*
X124815111Y-81310456D01*
X125025067Y-81277202D01*
X125227236Y-81211513D01*
X125416640Y-81115007D01*
X125482415Y-81067219D01*
X125588610Y-80990065D01*
X125588612Y-80990062D01*
X125588616Y-80990060D01*
X125738928Y-80839748D01*
X125738930Y-80839744D01*
X125738933Y-80839742D01*
X125863872Y-80667776D01*
X125863871Y-80667776D01*
X125863875Y-80667772D01*
X125868338Y-80659010D01*
X125916312Y-80608215D01*
X125984132Y-80591419D01*
X126050268Y-80613955D01*
X126089310Y-80659012D01*
X126093775Y-80667776D01*
X126218714Y-80839742D01*
X126218720Y-80839748D01*
X126369032Y-80990060D01*
X126541008Y-81115007D01*
X126588119Y-81139011D01*
X126638914Y-81186984D01*
X126655824Y-81249495D01*
X126655824Y-83280186D01*
X126649530Y-83319190D01*
X126628650Y-83382201D01*
X126618324Y-83483271D01*
X126618324Y-84056625D01*
X126618325Y-84056643D01*
X126628649Y-84157708D01*
X126638592Y-84187713D01*
X126682916Y-84321472D01*
X126773484Y-84468306D01*
X126895474Y-84590296D01*
X127042308Y-84680864D01*
X127206071Y-84735130D01*
X127307147Y-84745456D01*
X127419886Y-84745455D01*
X127444080Y-84747838D01*
X127557782Y-84770456D01*
X127557783Y-84770456D01*
X127754867Y-84770456D01*
X127868571Y-84747838D01*
X127892763Y-84745455D01*
X128005494Y-84745455D01*
X128005500Y-84745455D01*
X128106577Y-84735130D01*
X128270340Y-84680864D01*
X128417174Y-84590296D01*
X128431143Y-84576327D01*
X128492466Y-84542842D01*
X128562158Y-84547826D01*
X128606505Y-84576327D01*
X128620474Y-84590296D01*
X128767308Y-84680864D01*
X128931071Y-84735130D01*
X129032147Y-84745456D01*
X129144886Y-84745455D01*
X129169080Y-84747838D01*
X129282782Y-84770456D01*
X129282783Y-84770456D01*
X129479867Y-84770456D01*
X129593571Y-84747838D01*
X129617763Y-84745455D01*
X129730494Y-84745455D01*
X129730500Y-84745455D01*
X129831577Y-84735130D01*
X129995340Y-84680864D01*
X130142174Y-84590296D01*
X130264164Y-84468306D01*
X130354732Y-84321472D01*
X130408998Y-84157709D01*
X130419324Y-84056633D01*
X130419323Y-83483280D01*
X130415066Y-83441610D01*
X130408998Y-83382203D01*
X130408997Y-83382199D01*
X130388118Y-83319190D01*
X130381824Y-83280186D01*
X130381824Y-81249495D01*
X130401509Y-81182456D01*
X130449528Y-81139011D01*
X130496640Y-81115007D01*
X130668616Y-80990060D01*
X130818928Y-80839748D01*
X130818930Y-80839744D01*
X130818933Y-80839742D01*
X130943872Y-80667776D01*
X130943871Y-80667776D01*
X130943875Y-80667772D01*
X130948338Y-80659010D01*
X130996312Y-80608215D01*
X131064132Y-80591419D01*
X131130268Y-80613955D01*
X131169310Y-80659012D01*
X131173775Y-80667776D01*
X131298714Y-80839742D01*
X131449037Y-80990065D01*
X131621003Y-81115004D01*
X131621005Y-81115005D01*
X131621008Y-81115007D01*
X131668117Y-81139010D01*
X131810407Y-81211511D01*
X131810409Y-81211511D01*
X131810412Y-81211513D01*
X132012581Y-81277202D01*
X132038724Y-81281342D01*
X132101856Y-81311270D01*
X132138788Y-81370581D01*
X132143324Y-81403815D01*
X132143324Y-83280186D01*
X132137030Y-83319190D01*
X132116150Y-83382201D01*
X132105824Y-83483271D01*
X132105824Y-84056625D01*
X132105825Y-84056643D01*
X132116149Y-84157708D01*
X132126092Y-84187713D01*
X132170416Y-84321472D01*
X132260984Y-84468306D01*
X132382974Y-84590296D01*
X132529808Y-84680864D01*
X132693571Y-84735130D01*
X132794647Y-84745456D01*
X132907386Y-84745455D01*
X132931580Y-84747838D01*
X133045282Y-84770456D01*
X133045283Y-84770456D01*
X133242367Y-84770456D01*
X133356071Y-84747838D01*
X133380263Y-84745455D01*
X133492994Y-84745455D01*
X133493000Y-84745455D01*
X133594077Y-84735130D01*
X133757840Y-84680864D01*
X133904674Y-84590296D01*
X133918643Y-84576327D01*
X133979966Y-84542842D01*
X134049658Y-84547826D01*
X134094005Y-84576327D01*
X134107974Y-84590296D01*
X134254808Y-84680864D01*
X134418571Y-84735130D01*
X134519647Y-84745456D01*
X134632386Y-84745455D01*
X134656580Y-84747838D01*
X134770282Y-84770456D01*
X134770283Y-84770456D01*
X134967367Y-84770456D01*
X135081071Y-84747838D01*
X135105263Y-84745455D01*
X135217994Y-84745455D01*
X135218000Y-84745455D01*
X135319077Y-84735130D01*
X135482840Y-84680864D01*
X135629674Y-84590296D01*
X135751664Y-84468306D01*
X135842232Y-84321472D01*
X135896498Y-84157709D01*
X135906824Y-84056633D01*
X135906823Y-83483280D01*
X135902566Y-83441610D01*
X135896498Y-83382203D01*
X135896497Y-83382199D01*
X135875618Y-83319190D01*
X135869324Y-83280186D01*
X135869324Y-80920155D01*
X135889009Y-80853116D01*
X135898295Y-80840620D01*
X136023872Y-80667776D01*
X136023871Y-80667776D01*
X136023875Y-80667772D01*
X136120381Y-80478368D01*
X136186070Y-80276199D01*
X136219324Y-80066243D01*
X136219324Y-79853669D01*
X136186070Y-79643713D01*
X136120381Y-79441544D01*
X136023875Y-79252140D01*
X136023873Y-79252137D01*
X136023872Y-79252135D01*
X135898933Y-79080169D01*
X135748610Y-78929846D01*
X135576644Y-78804907D01*
X135387238Y-78708400D01*
X135387237Y-78708399D01*
X135387236Y-78708399D01*
X135185067Y-78642710D01*
X135185065Y-78642709D01*
X135185064Y-78642709D01*
X135023781Y-78617164D01*
X134975111Y-78609456D01*
X134762537Y-78609456D01*
X134713866Y-78617164D01*
X134552584Y-78642709D01*
X134350409Y-78708400D01*
X134161003Y-78804907D01*
X133989037Y-78929846D01*
X133838714Y-79080169D01*
X133713773Y-79252138D01*
X133709308Y-79260902D01*
X133661333Y-79311698D01*
X133593512Y-79328492D01*
X133527377Y-79305954D01*
X133488340Y-79260902D01*
X133483874Y-79252138D01*
X133358933Y-79080169D01*
X133208610Y-78929846D01*
X133036644Y-78804907D01*
X132847238Y-78708400D01*
X132847237Y-78708399D01*
X132847236Y-78708399D01*
X132645067Y-78642710D01*
X132645065Y-78642709D01*
X132645064Y-78642709D01*
X132483781Y-78617164D01*
X132435111Y-78609456D01*
X132222537Y-78609456D01*
X132173866Y-78617164D01*
X132012584Y-78642709D01*
X131810409Y-78708400D01*
X131621003Y-78804907D01*
X131449037Y-78929846D01*
X131298714Y-79080169D01*
X131173773Y-79252138D01*
X131169308Y-79260902D01*
X131121333Y-79311698D01*
X131053512Y-79328492D01*
X130987377Y-79305954D01*
X130948340Y-79260902D01*
X130943874Y-79252138D01*
X130818933Y-79080169D01*
X130668610Y-78929846D01*
X130496644Y-78804907D01*
X130307238Y-78708400D01*
X130307237Y-78708399D01*
X130307236Y-78708399D01*
X130105067Y-78642710D01*
X130105065Y-78642709D01*
X130105064Y-78642709D01*
X129943781Y-78617164D01*
X129895111Y-78609456D01*
X129682537Y-78609456D01*
X129633866Y-78617164D01*
X129472584Y-78642709D01*
X129270409Y-78708400D01*
X129081003Y-78804907D01*
X128909037Y-78929846D01*
X128758714Y-79080169D01*
X128633773Y-79252138D01*
X128629308Y-79260902D01*
X128581333Y-79311698D01*
X128513512Y-79328492D01*
X128447377Y-79305954D01*
X128408340Y-79260902D01*
X128403874Y-79252138D01*
X128278933Y-79080169D01*
X128128610Y-78929846D01*
X127956644Y-78804907D01*
X127767238Y-78708400D01*
X127767237Y-78708399D01*
X127767236Y-78708399D01*
X127565067Y-78642710D01*
X127565065Y-78642709D01*
X127565064Y-78642709D01*
X127403781Y-78617164D01*
X127355111Y-78609456D01*
X127142537Y-78609456D01*
X127093866Y-78617164D01*
X126932584Y-78642709D01*
X126730409Y-78708400D01*
X126541003Y-78804907D01*
X126369037Y-78929846D01*
X126218714Y-79080169D01*
X126093773Y-79252138D01*
X126089308Y-79260902D01*
X126041333Y-79311698D01*
X125973512Y-79328492D01*
X125907377Y-79305954D01*
X125868340Y-79260902D01*
X125863874Y-79252138D01*
X125738933Y-79080169D01*
X125588610Y-78929846D01*
X125416644Y-78804907D01*
X125227238Y-78708400D01*
X125227237Y-78708399D01*
X125227236Y-78708399D01*
X125025067Y-78642710D01*
X125025065Y-78642709D01*
X125025064Y-78642709D01*
X124863781Y-78617164D01*
X124815111Y-78609456D01*
X124602537Y-78609456D01*
X124553866Y-78617164D01*
X124392584Y-78642709D01*
X124190409Y-78708400D01*
X124001003Y-78804907D01*
X123829039Y-78929845D01*
X123715497Y-79043387D01*
X123654174Y-79076871D01*
X123584482Y-79071887D01*
X123528549Y-79030015D01*
X123511634Y-78999038D01*
X123462621Y-78867627D01*
X123462617Y-78867620D01*
X123376371Y-78752411D01*
X123376368Y-78752408D01*
X123261159Y-78666162D01*
X123261152Y-78666158D01*
X123126306Y-78615864D01*
X123126307Y-78615864D01*
X123066707Y-78609457D01*
X123066705Y-78609456D01*
X123066697Y-78609456D01*
X123066688Y-78609456D01*
X121270953Y-78609456D01*
X121270947Y-78609457D01*
X121211340Y-78615864D01*
X121076495Y-78666158D01*
X121076488Y-78666162D01*
X120961279Y-78752408D01*
X120961276Y-78752411D01*
X120875030Y-78867620D01*
X120875026Y-78867627D01*
X120824732Y-79002473D01*
X120818325Y-79062072D01*
X120818324Y-79062091D01*
X116875300Y-79062091D01*
X116875300Y-77981056D01*
X116875299Y-77981054D01*
X116836853Y-77787773D01*
X116836851Y-77787767D01*
X116836851Y-77787765D01*
X116833030Y-77778541D01*
X116783722Y-77659500D01*
X116761432Y-77605686D01*
X116742698Y-77577648D01*
X116651939Y-77441817D01*
X116509486Y-77299364D01*
X116509455Y-77299335D01*
X113716679Y-74506559D01*
X113716659Y-74506537D01*
X113572985Y-74362863D01*
X113572981Y-74362860D01*
X113409120Y-74253371D01*
X113409111Y-74253366D01*
X113336515Y-74223296D01*
X113280365Y-74200038D01*
X113227036Y-74177949D01*
X113227032Y-74177948D01*
X113227028Y-74177946D01*
X113130388Y-74158724D01*
X113033744Y-74139500D01*
X113033741Y-74139500D01*
X108115762Y-74139500D01*
X108048723Y-74119815D01*
X108042877Y-74115818D01*
X107921613Y-74027715D01*
X107921612Y-74027714D01*
X107921610Y-74027713D01*
X107828917Y-73980483D01*
X107778123Y-73932511D01*
X107761328Y-73864690D01*
X107783865Y-73798555D01*
X107828917Y-73759516D01*
X107921610Y-73712287D01*
X107942770Y-73696913D01*
X108087213Y-73591971D01*
X108087215Y-73591968D01*
X108087219Y-73591966D01*
X108231966Y-73447219D01*
X108231968Y-73447215D01*
X108231971Y-73447213D01*
X108284732Y-73374590D01*
X108352287Y-73281610D01*
X108445220Y-73099219D01*
X108508477Y-72904534D01*
X108540500Y-72702352D01*
X108540500Y-72497648D01*
X108508477Y-72295466D01*
X108445220Y-72100781D01*
X108445218Y-72100778D01*
X108445218Y-72100776D01*
X108411503Y-72034607D01*
X108352287Y-71918390D01*
X108344556Y-71907749D01*
X108231971Y-71752786D01*
X108087213Y-71608028D01*
X107921614Y-71487715D01*
X107915006Y-71484348D01*
X107828917Y-71440483D01*
X107778123Y-71392511D01*
X107761328Y-71324690D01*
X107783865Y-71258555D01*
X107828917Y-71219516D01*
X107921610Y-71172287D01*
X107942770Y-71156913D01*
X108087213Y-71051971D01*
X108087215Y-71051968D01*
X108087219Y-71051966D01*
X108231966Y-70907219D01*
X108231968Y-70907215D01*
X108231971Y-70907213D01*
X108284732Y-70834590D01*
X108352287Y-70741610D01*
X108445220Y-70559219D01*
X108508477Y-70364534D01*
X108540500Y-70162352D01*
X108540500Y-69957648D01*
X108508477Y-69755466D01*
X108445220Y-69560781D01*
X108445218Y-69560778D01*
X108445218Y-69560776D01*
X108408470Y-69488656D01*
X108352287Y-69378390D01*
X108323913Y-69339336D01*
X108231971Y-69212786D01*
X108087213Y-69068028D01*
X107921614Y-68947715D01*
X107915006Y-68944348D01*
X107828917Y-68900483D01*
X107778123Y-68852511D01*
X107761328Y-68784690D01*
X107783865Y-68718555D01*
X107828917Y-68679516D01*
X107921610Y-68632287D01*
X108025484Y-68556819D01*
X108087213Y-68511971D01*
X108087215Y-68511968D01*
X108087219Y-68511966D01*
X108231966Y-68367219D01*
X108231968Y-68367215D01*
X108231971Y-68367213D01*
X108285654Y-68293323D01*
X108352287Y-68201610D01*
X108445220Y-68019219D01*
X108508477Y-67824534D01*
X108540500Y-67622352D01*
X108540500Y-67417648D01*
X108508477Y-67215465D01*
X108445218Y-67020776D01*
X108403347Y-66938601D01*
X108352287Y-66838390D01*
X108324240Y-66799786D01*
X108231971Y-66672786D01*
X108087213Y-66528028D01*
X107921614Y-66407715D01*
X107915006Y-66404348D01*
X107828917Y-66360483D01*
X107778123Y-66312511D01*
X107761328Y-66244690D01*
X107783865Y-66178555D01*
X107828917Y-66139516D01*
X107921610Y-66092287D01*
X108012452Y-66026287D01*
X108087213Y-65971971D01*
X108087215Y-65971968D01*
X108087219Y-65971966D01*
X108231966Y-65827219D01*
X108231968Y-65827215D01*
X108231971Y-65827213D01*
X108284732Y-65754590D01*
X108352287Y-65661610D01*
X108445220Y-65479219D01*
X108508477Y-65284534D01*
X108540500Y-65082352D01*
X108540500Y-64877648D01*
X108530509Y-64814570D01*
X108508477Y-64675465D01*
X108445218Y-64480776D01*
X108367102Y-64327467D01*
X108352287Y-64298390D01*
X108344556Y-64287749D01*
X108231971Y-64132786D01*
X108087213Y-63988028D01*
X107921614Y-63867715D01*
X107915006Y-63864348D01*
X107828917Y-63820483D01*
X107778123Y-63772511D01*
X107761328Y-63704690D01*
X107783865Y-63638555D01*
X107828917Y-63599516D01*
X107921610Y-63552287D01*
X107957398Y-63526286D01*
X108087213Y-63431971D01*
X108087215Y-63431968D01*
X108087219Y-63431966D01*
X108231966Y-63287219D01*
X108231968Y-63287215D01*
X108231971Y-63287213D01*
X108284732Y-63214590D01*
X108352287Y-63121610D01*
X108445220Y-62939219D01*
X108508477Y-62744534D01*
X108540500Y-62542352D01*
X108540500Y-62337648D01*
X108527635Y-62256420D01*
X108508477Y-62135465D01*
X108448251Y-61950109D01*
X108445220Y-61940781D01*
X108445218Y-61940778D01*
X108445218Y-61940776D01*
X108373379Y-61799786D01*
X108352287Y-61758390D01*
X108344556Y-61747749D01*
X108231971Y-61592786D01*
X108087213Y-61448028D01*
X107921614Y-61327715D01*
X107915006Y-61324348D01*
X107828917Y-61280483D01*
X107778123Y-61232511D01*
X107761328Y-61164690D01*
X107783865Y-61098555D01*
X107828917Y-61059516D01*
X107921610Y-61012287D01*
X107942770Y-60996913D01*
X108087213Y-60891971D01*
X108087215Y-60891968D01*
X108087219Y-60891966D01*
X108231966Y-60747219D01*
X108231968Y-60747215D01*
X108231971Y-60747213D01*
X108336196Y-60603757D01*
X108352287Y-60581610D01*
X108445220Y-60399219D01*
X108508477Y-60204534D01*
X108540500Y-60002352D01*
X108540500Y-59797648D01*
X108508477Y-59595466D01*
X108445220Y-59400781D01*
X108445218Y-59400778D01*
X108445218Y-59400776D01*
X108383887Y-59280409D01*
X108352287Y-59218390D01*
X108300489Y-59147095D01*
X108231971Y-59052786D01*
X108087213Y-58908028D01*
X107921613Y-58787715D01*
X107921612Y-58787714D01*
X107921610Y-58787713D01*
X107862526Y-58757608D01*
X107739223Y-58694781D01*
X107643916Y-58663814D01*
X107586241Y-58624376D01*
X107559043Y-58560017D01*
X107570958Y-58491171D01*
X107618203Y-58439695D01*
X107643914Y-58427952D01*
X107677800Y-58416943D01*
X107837752Y-58335443D01*
X107919293Y-58276200D01*
X107982980Y-58229930D01*
X107982982Y-58229927D01*
X107982986Y-58229925D01*
X108109925Y-58102986D01*
X108109927Y-58102982D01*
X108109930Y-58102980D01*
X108156200Y-58039293D01*
X108215443Y-57957752D01*
X108296943Y-57797800D01*
X108296944Y-57797797D01*
X108304714Y-57773885D01*
X108344151Y-57716210D01*
X108408510Y-57689011D01*
X108477356Y-57700925D01*
X108510326Y-57724522D01*
X127620459Y-76834655D01*
X127620488Y-76834686D01*
X127762938Y-76977136D01*
X127762942Y-76977139D01*
X127926803Y-77086628D01*
X127926816Y-77086635D01*
X128055557Y-77139961D01*
X128108883Y-77162049D01*
X128108888Y-77162051D01*
X128163616Y-77172937D01*
X128192086Y-77178600D01*
X128302180Y-77200500D01*
X128302183Y-77200500D01*
X128302184Y-77200500D01*
X128499264Y-77200500D01*
X139234218Y-77200500D01*
X139301257Y-77220185D01*
X139321898Y-77236818D01*
X141382860Y-79297781D01*
X141382861Y-79297782D01*
X141457860Y-79372781D01*
X141522219Y-79437140D01*
X141686079Y-79546628D01*
X141686081Y-79546629D01*
X141686086Y-79546632D01*
X141771999Y-79582218D01*
X141868164Y-79622051D01*
X142061454Y-79660499D01*
X142061457Y-79660500D01*
X142061459Y-79660500D01*
X153486042Y-79660500D01*
X153553081Y-79680185D01*
X153591580Y-79719402D01*
X153592427Y-79720776D01*
X153597288Y-79728656D01*
X153721344Y-79852712D01*
X153870666Y-79944814D01*
X154037203Y-79999999D01*
X154139991Y-80010500D01*
X155740008Y-80010499D01*
X155842797Y-79999999D01*
X156009334Y-79944814D01*
X156158656Y-79852712D01*
X156282712Y-79728656D01*
X156374814Y-79579334D01*
X156429999Y-79412797D01*
X156440500Y-79310009D01*
X156440499Y-78009992D01*
X156437898Y-77984534D01*
X156429999Y-77907203D01*
X156429998Y-77907200D01*
X156374814Y-77740666D01*
X156282712Y-77591344D01*
X156158656Y-77467288D01*
X156009334Y-77375186D01*
X156009333Y-77375185D01*
X156003878Y-77371821D01*
X155957154Y-77319873D01*
X155945931Y-77250910D01*
X155973775Y-77186828D01*
X155981272Y-77178623D01*
X156120104Y-77039792D01*
X156245051Y-76867816D01*
X156341557Y-76678412D01*
X156407246Y-76476243D01*
X156440500Y-76266287D01*
X156440500Y-76053713D01*
X156407246Y-75843757D01*
X156341557Y-75641588D01*
X156245051Y-75452184D01*
X156245049Y-75452181D01*
X156245048Y-75452179D01*
X156120109Y-75280213D01*
X155969786Y-75129890D01*
X155797820Y-75004951D01*
X155608414Y-74908444D01*
X155608413Y-74908443D01*
X155608412Y-74908443D01*
X155406243Y-74842754D01*
X155406241Y-74842753D01*
X155406240Y-74842753D01*
X155244957Y-74817208D01*
X155196287Y-74809500D01*
X154683713Y-74809500D01*
X154635042Y-74817208D01*
X154473760Y-74842753D01*
X154271585Y-74908444D01*
X154082179Y-75004951D01*
X153906266Y-75132759D01*
X153905635Y-75131891D01*
X153846581Y-75158359D01*
X153829800Y-75159500D01*
X146475783Y-75159500D01*
X146408744Y-75139815D01*
X146388102Y-75123181D01*
X139366609Y-68101689D01*
X139366606Y-68101685D01*
X139366606Y-68101686D01*
X139359539Y-68094619D01*
X139359539Y-68094618D01*
X139220182Y-67955261D01*
X139220181Y-67955260D01*
X139220180Y-67955259D01*
X139056320Y-67845771D01*
X139056307Y-67845764D01*
X138914867Y-67787178D01*
X138914859Y-67787175D01*
X138906984Y-67783914D01*
X138874236Y-67770349D01*
X138777588Y-67751124D01*
X138774008Y-67750412D01*
X138773997Y-67750409D01*
X138680944Y-67731900D01*
X138680941Y-67731900D01*
X130081982Y-67731900D01*
X130014943Y-67712215D01*
X129994301Y-67695581D01*
X128285643Y-65986923D01*
X128252158Y-65925600D01*
X128249324Y-65899242D01*
X128249324Y-60813713D01*
X153464500Y-60813713D01*
X153464500Y-61026287D01*
X153497754Y-61236243D01*
X153557400Y-61419815D01*
X153563444Y-61438414D01*
X153659951Y-61627820D01*
X153784890Y-61799786D01*
X153935209Y-61950105D01*
X153935214Y-61950109D01*
X154099793Y-62069682D01*
X154142459Y-62125011D01*
X154148438Y-62194625D01*
X154115833Y-62256420D01*
X154099793Y-62270318D01*
X153935214Y-62389890D01*
X153935209Y-62389894D01*
X153784890Y-62540213D01*
X153659951Y-62712179D01*
X153563444Y-62901585D01*
X153497753Y-63103760D01*
X153464500Y-63313713D01*
X153464500Y-63526286D01*
X153494438Y-63715311D01*
X153497754Y-63736243D01*
X153540471Y-63867713D01*
X153563444Y-63938414D01*
X153659951Y-64127820D01*
X153784890Y-64299786D01*
X153935209Y-64450105D01*
X153935214Y-64450109D01*
X154099793Y-64569682D01*
X154142459Y-64625011D01*
X154148438Y-64694625D01*
X154115833Y-64756420D01*
X154099793Y-64770318D01*
X153935214Y-64889890D01*
X153935209Y-64889894D01*
X153784890Y-65040213D01*
X153659951Y-65212179D01*
X153563444Y-65401585D01*
X153497753Y-65603760D01*
X153464500Y-65813713D01*
X153464500Y-66026286D01*
X153489672Y-66185220D01*
X153497754Y-66236243D01*
X153553468Y-66407713D01*
X153563444Y-66438414D01*
X153659951Y-66627820D01*
X153784890Y-66799786D01*
X153923705Y-66938601D01*
X153957190Y-66999924D01*
X153952206Y-67069616D01*
X153910334Y-67125549D01*
X153901121Y-67131821D01*
X153746342Y-67227289D01*
X153622289Y-67351342D01*
X153530187Y-67500663D01*
X153530186Y-67500666D01*
X153475001Y-67667203D01*
X153475001Y-67667204D01*
X153475000Y-67667204D01*
X153464500Y-67769983D01*
X153464500Y-69070001D01*
X153464501Y-69070018D01*
X153475000Y-69172796D01*
X153475001Y-69172799D01*
X153509873Y-69278034D01*
X153530186Y-69339334D01*
X153622288Y-69488656D01*
X153746344Y-69612712D01*
X153895666Y-69704814D01*
X154062203Y-69759999D01*
X154164991Y-69770500D01*
X155715008Y-69770499D01*
X155727539Y-69769219D01*
X155732895Y-69768671D01*
X155817797Y-69759999D01*
X155984334Y-69704814D01*
X156133656Y-69612712D01*
X156257712Y-69488656D01*
X156349814Y-69339334D01*
X156404999Y-69172797D01*
X156415500Y-69070009D01*
X156415499Y-67769992D01*
X156404999Y-67667203D01*
X156349814Y-67500666D01*
X156257712Y-67351344D01*
X156133656Y-67227288D01*
X155984334Y-67135186D01*
X155984333Y-67135185D01*
X155978878Y-67131821D01*
X155932154Y-67079873D01*
X155920931Y-67010910D01*
X155948775Y-66946828D01*
X155956272Y-66938623D01*
X156095104Y-66799792D01*
X156220051Y-66627816D01*
X156316557Y-66438412D01*
X156382246Y-66236243D01*
X156415500Y-66026287D01*
X156415500Y-65813713D01*
X156382246Y-65603757D01*
X156316557Y-65401588D01*
X156220051Y-65212184D01*
X156220049Y-65212181D01*
X156220048Y-65212179D01*
X156095109Y-65040213D01*
X155944792Y-64889896D01*
X155927934Y-64877648D01*
X155780204Y-64770316D01*
X155737540Y-64714989D01*
X155731561Y-64645376D01*
X155764166Y-64583580D01*
X155780199Y-64569686D01*
X155944792Y-64450104D01*
X156095104Y-64299792D01*
X156095106Y-64299788D01*
X156095109Y-64299786D01*
X156220048Y-64127820D01*
X156220047Y-64127820D01*
X156220051Y-64127816D01*
X156316557Y-63938412D01*
X156382246Y-63736243D01*
X156415500Y-63526287D01*
X156415500Y-63313713D01*
X156382246Y-63103757D01*
X156316557Y-62901588D01*
X156220051Y-62712184D01*
X156220049Y-62712181D01*
X156220048Y-62712179D01*
X156095109Y-62540213D01*
X155944792Y-62389896D01*
X155872878Y-62337648D01*
X155780204Y-62270316D01*
X155737540Y-62214989D01*
X155731561Y-62145376D01*
X155764166Y-62083580D01*
X155780199Y-62069686D01*
X155944792Y-61950104D01*
X156095104Y-61799792D01*
X156095106Y-61799788D01*
X156095109Y-61799786D01*
X156220048Y-61627820D01*
X156220047Y-61627820D01*
X156220051Y-61627816D01*
X156316557Y-61438412D01*
X156382246Y-61236243D01*
X156415500Y-61026287D01*
X156415500Y-60813713D01*
X156382246Y-60603757D01*
X156316557Y-60401588D01*
X156220051Y-60212184D01*
X156220049Y-60212181D01*
X156220048Y-60212179D01*
X156095109Y-60040213D01*
X155944786Y-59889890D01*
X155772820Y-59764951D01*
X155583414Y-59668444D01*
X155583413Y-59668443D01*
X155583412Y-59668443D01*
X155381243Y-59602754D01*
X155381241Y-59602753D01*
X155381240Y-59602753D01*
X155219957Y-59577208D01*
X155171287Y-59569500D01*
X154708713Y-59569500D01*
X154660042Y-59577208D01*
X154498760Y-59602753D01*
X154296585Y-59668444D01*
X154107179Y-59764951D01*
X153935213Y-59889890D01*
X153784890Y-60040213D01*
X153659951Y-60212179D01*
X153563444Y-60401585D01*
X153497753Y-60603760D01*
X153475032Y-60747219D01*
X153464500Y-60813713D01*
X128249324Y-60813713D01*
X128249324Y-59415447D01*
X128269009Y-59348408D01*
X128321813Y-59302653D01*
X128390971Y-59292709D01*
X128412328Y-59297741D01*
X128523672Y-59334636D01*
X128624675Y-59344955D01*
X129223824Y-59344955D01*
X129322964Y-59344955D01*
X129322978Y-59344954D01*
X129423976Y-59334636D01*
X129587624Y-59280409D01*
X129587635Y-59280404D01*
X129734358Y-59189903D01*
X129734362Y-59189900D01*
X129856268Y-59067994D01*
X129856271Y-59067990D01*
X129946772Y-58921267D01*
X129946777Y-58921256D01*
X130001004Y-58757608D01*
X130011323Y-58656610D01*
X130011324Y-58656597D01*
X130011324Y-58619956D01*
X129223824Y-58619956D01*
X129223824Y-59344955D01*
X128624675Y-59344955D01*
X128723824Y-59344954D01*
X128723824Y-58479453D01*
X138256153Y-58479453D01*
X149781437Y-58479453D01*
X149781437Y-53248987D01*
X138256153Y-53248987D01*
X138256153Y-58479453D01*
X128723824Y-58479453D01*
X128723824Y-58119956D01*
X129223824Y-58119956D01*
X130011323Y-58119956D01*
X130011323Y-58083316D01*
X130011322Y-58083301D01*
X130001004Y-57982303D01*
X129946777Y-57818655D01*
X129946772Y-57818644D01*
X129856271Y-57671921D01*
X129856268Y-57671917D01*
X129734362Y-57550011D01*
X129734358Y-57550008D01*
X129587635Y-57459507D01*
X129587624Y-57459502D01*
X129423976Y-57405275D01*
X129322978Y-57394956D01*
X129223824Y-57394956D01*
X129223824Y-58119956D01*
X128723824Y-58119956D01*
X128723824Y-57394955D01*
X128624684Y-57394956D01*
X128624668Y-57394957D01*
X128523671Y-57405275D01*
X128360023Y-57459502D01*
X128360012Y-57459507D01*
X128213289Y-57550008D01*
X128199356Y-57563941D01*
X128138032Y-57597424D01*
X128068340Y-57592438D01*
X128023996Y-57563938D01*
X128009675Y-57549617D01*
X128009674Y-57549616D01*
X127918453Y-57493351D01*
X127862842Y-57459049D01*
X127862837Y-57459047D01*
X127861393Y-57458568D01*
X127699077Y-57404782D01*
X127699075Y-57404781D01*
X127598008Y-57394456D01*
X127598001Y-57394456D01*
X127485258Y-57394456D01*
X127461067Y-57392073D01*
X127423375Y-57384575D01*
X127347367Y-57369456D01*
X127347365Y-57369456D01*
X126444606Y-57369456D01*
X126377567Y-57349771D01*
X126356925Y-57333137D01*
X125745643Y-56721855D01*
X125712158Y-56660532D01*
X125709324Y-56634174D01*
X125709324Y-55974097D01*
X125729009Y-55907058D01*
X125781813Y-55861303D01*
X125789973Y-55857922D01*
X125801155Y-55853752D01*
X125916370Y-55767502D01*
X126002620Y-55652287D01*
X126051634Y-55520872D01*
X126093505Y-55464940D01*
X126158969Y-55440522D01*
X126227242Y-55455373D01*
X126255497Y-55476525D01*
X126369037Y-55590065D01*
X126541003Y-55715004D01*
X126541005Y-55715005D01*
X126541008Y-55715007D01*
X126730412Y-55811513D01*
X126932581Y-55877202D01*
X127142537Y-55910456D01*
X127142538Y-55910456D01*
X127355110Y-55910456D01*
X127355111Y-55910456D01*
X127565067Y-55877202D01*
X127767236Y-55811513D01*
X127956640Y-55715007D01*
X128042962Y-55652291D01*
X128128610Y-55590065D01*
X128128612Y-55590062D01*
X128128616Y-55590060D01*
X128278928Y-55439748D01*
X128278930Y-55439744D01*
X128278933Y-55439742D01*
X128403872Y-55267776D01*
X128403871Y-55267776D01*
X128403875Y-55267772D01*
X128408338Y-55259010D01*
X128456312Y-55208215D01*
X128524132Y-55191419D01*
X128590268Y-55213955D01*
X128629310Y-55259012D01*
X128633775Y-55267776D01*
X128758714Y-55439742D01*
X128909037Y-55590065D01*
X129081003Y-55715004D01*
X129081005Y-55715005D01*
X129081008Y-55715007D01*
X129270412Y-55811513D01*
X129472581Y-55877202D01*
X129682537Y-55910456D01*
X129682538Y-55910456D01*
X129895110Y-55910456D01*
X129895111Y-55910456D01*
X130105067Y-55877202D01*
X130307236Y-55811513D01*
X130496640Y-55715007D01*
X130582962Y-55652291D01*
X130668610Y-55590065D01*
X130668612Y-55590062D01*
X130668616Y-55590060D01*
X130818928Y-55439748D01*
X130818930Y-55439744D01*
X130818933Y-55439742D01*
X130904714Y-55321673D01*
X130943875Y-55267772D01*
X130948617Y-55258464D01*
X130996587Y-55207667D01*
X131064407Y-55190867D01*
X131130543Y-55213401D01*
X131169587Y-55258456D01*
X131174197Y-55267503D01*
X131213552Y-55321672D01*
X131845861Y-54689364D01*
X131862899Y-54752949D01*
X131928725Y-54866963D01*
X132021817Y-54960055D01*
X132135831Y-55025881D01*
X132199414Y-55042918D01*
X131567106Y-55675225D01*
X131567106Y-55675226D01*
X131621273Y-55714580D01*
X131810606Y-55811051D01*
X132012694Y-55876713D01*
X132222578Y-55909956D01*
X132435070Y-55909956D01*
X132644951Y-55876713D01*
X132644954Y-55876713D01*
X132847041Y-55811051D01*
X133036378Y-55714578D01*
X133090540Y-55675226D01*
X133090541Y-55675226D01*
X132458232Y-55042918D01*
X132521817Y-55025881D01*
X132635831Y-54960055D01*
X132728923Y-54866963D01*
X132794749Y-54752949D01*
X132811786Y-54689365D01*
X133444094Y-55321673D01*
X133444094Y-55321672D01*
X133483446Y-55267510D01*
X133579919Y-55078173D01*
X133645581Y-54876086D01*
X133645581Y-54876083D01*
X133678824Y-54666202D01*
X133678824Y-54453709D01*
X133645581Y-54243828D01*
X133645581Y-54243825D01*
X133579919Y-54041738D01*
X133483448Y-53852405D01*
X133444094Y-53798238D01*
X133444093Y-53798238D01*
X132811786Y-54430546D01*
X132794749Y-54366963D01*
X132728923Y-54252949D01*
X132635831Y-54159857D01*
X132521817Y-54094031D01*
X132458233Y-54076993D01*
X133090540Y-53444684D01*
X133036374Y-53405331D01*
X132847040Y-53308860D01*
X132644953Y-53243198D01*
X132435070Y-53209956D01*
X132222578Y-53209956D01*
X132012696Y-53243198D01*
X132012693Y-53243198D01*
X131810606Y-53308860D01*
X131621263Y-53405336D01*
X131567106Y-53444683D01*
X131567106Y-53444684D01*
X132199415Y-54076993D01*
X132135831Y-54094031D01*
X132021817Y-54159857D01*
X131928725Y-54252949D01*
X131862899Y-54366963D01*
X131845861Y-54430547D01*
X131213552Y-53798238D01*
X131213551Y-53798238D01*
X131174204Y-53852396D01*
X131174200Y-53852402D01*
X131169584Y-53861461D01*
X131121605Y-53912253D01*
X131053783Y-53929043D01*
X130987650Y-53906499D01*
X130948618Y-53861449D01*
X130943875Y-53852140D01*
X130943873Y-53852137D01*
X130943872Y-53852135D01*
X130818933Y-53680169D01*
X130668610Y-53529846D01*
X130496644Y-53404907D01*
X130307238Y-53308400D01*
X130307237Y-53308399D01*
X130307236Y-53308399D01*
X130105067Y-53242710D01*
X130105065Y-53242709D01*
X130105064Y-53242709D01*
X129943781Y-53217164D01*
X129895111Y-53209456D01*
X129682537Y-53209456D01*
X129633866Y-53217164D01*
X129472584Y-53242709D01*
X129270409Y-53308400D01*
X129081003Y-53404907D01*
X128909037Y-53529846D01*
X128758714Y-53680169D01*
X128633773Y-53852138D01*
X128629308Y-53860902D01*
X128581333Y-53911698D01*
X128513512Y-53928492D01*
X128447377Y-53905954D01*
X128408340Y-53860902D01*
X128403874Y-53852138D01*
X128278933Y-53680169D01*
X128128610Y-53529846D01*
X127956644Y-53404907D01*
X127767238Y-53308400D01*
X127767237Y-53308399D01*
X127767236Y-53308399D01*
X127565067Y-53242710D01*
X127565065Y-53242709D01*
X127565064Y-53242709D01*
X127403781Y-53217164D01*
X127355111Y-53209456D01*
X127142537Y-53209456D01*
X127093866Y-53217164D01*
X126932584Y-53242709D01*
X126730409Y-53308400D01*
X126541003Y-53404907D01*
X126369039Y-53529845D01*
X126255497Y-53643387D01*
X126194174Y-53676871D01*
X126124482Y-53671887D01*
X126068549Y-53630015D01*
X126051634Y-53599038D01*
X126002621Y-53467627D01*
X126002617Y-53467620D01*
X125916371Y-53352411D01*
X125916368Y-53352408D01*
X125801159Y-53266162D01*
X125801152Y-53266158D01*
X125666306Y-53215864D01*
X125666307Y-53215864D01*
X125606707Y-53209457D01*
X125606705Y-53209456D01*
X125606697Y-53209456D01*
X125606689Y-53209456D01*
X124824606Y-53209456D01*
X124795165Y-53200811D01*
X124765179Y-53194288D01*
X124760163Y-53190533D01*
X124757567Y-53189771D01*
X124736925Y-53173137D01*
X124654477Y-53090689D01*
X124654475Y-53090686D01*
X124654474Y-53090685D01*
X124654474Y-53090686D01*
X124647407Y-53083619D01*
X124647407Y-53083618D01*
X124508050Y-52944261D01*
X124508049Y-52944260D01*
X124508048Y-52944259D01*
X124344184Y-52834769D01*
X124344175Y-52834764D01*
X124206121Y-52777581D01*
X124206115Y-52777579D01*
X124198425Y-52774394D01*
X124162104Y-52759349D01*
X124065456Y-52740124D01*
X124061663Y-52739369D01*
X124061661Y-52739369D01*
X123968812Y-52720900D01*
X123968809Y-52720900D01*
X102561740Y-52720900D01*
X102364659Y-52720900D01*
X102364656Y-52720900D01*
X102171371Y-52759346D01*
X102171367Y-52759348D01*
X102171365Y-52759348D01*
X102171364Y-52759349D01*
X102095945Y-52790588D01*
X102095943Y-52790589D01*
X101989285Y-52834768D01*
X101989285Y-52834769D01*
X101989284Y-52834769D01*
X101825422Y-52944257D01*
X101825414Y-52944263D01*
X93366499Y-61403181D01*
X93305176Y-61436666D01*
X93278818Y-61439500D01*
X92875762Y-61439500D01*
X92808723Y-61419815D01*
X92802877Y-61415818D01*
X92681613Y-61327715D01*
X92681612Y-61327714D01*
X92681610Y-61327713D01*
X92588917Y-61280483D01*
X92538123Y-61232511D01*
X92521328Y-61164690D01*
X92543865Y-61098555D01*
X92588917Y-61059516D01*
X92681610Y-61012287D01*
X92702770Y-60996913D01*
X92847213Y-60891971D01*
X92847215Y-60891968D01*
X92847219Y-60891966D01*
X92991966Y-60747219D01*
X92991968Y-60747215D01*
X92991971Y-60747213D01*
X93096196Y-60603757D01*
X93112287Y-60581610D01*
X93205220Y-60399219D01*
X93268477Y-60204534D01*
X93300500Y-60002352D01*
X93300500Y-59797648D01*
X93268477Y-59595466D01*
X93205220Y-59400781D01*
X93205218Y-59400778D01*
X93205218Y-59400776D01*
X93143887Y-59280409D01*
X93112287Y-59218390D01*
X93060489Y-59147095D01*
X92991971Y-59052786D01*
X92847213Y-58908028D01*
X92681613Y-58787715D01*
X92681612Y-58787714D01*
X92681610Y-58787713D01*
X92622526Y-58757608D01*
X92499223Y-58694781D01*
X92403916Y-58663814D01*
X92346241Y-58624376D01*
X92319043Y-58560017D01*
X92330958Y-58491171D01*
X92378203Y-58439695D01*
X92403914Y-58427952D01*
X92437800Y-58416943D01*
X92597752Y-58335443D01*
X92679293Y-58276200D01*
X92742980Y-58229930D01*
X92742982Y-58229927D01*
X92742986Y-58229925D01*
X92869925Y-58102986D01*
X92869927Y-58102982D01*
X92869930Y-58102980D01*
X92916200Y-58039293D01*
X92975443Y-57957752D01*
X93056943Y-57797800D01*
X93112417Y-57627068D01*
X93140500Y-57449759D01*
X93140500Y-57270241D01*
X93112417Y-57092932D01*
X93056943Y-56922200D01*
X92975443Y-56762248D01*
X92944385Y-56719500D01*
X92869930Y-56617019D01*
X92742980Y-56490069D01*
X92597755Y-56384559D01*
X92597754Y-56384558D01*
X92597752Y-56384557D01*
X92517776Y-56343807D01*
X92437797Y-56303055D01*
X92267069Y-56247583D01*
X92178413Y-56233541D01*
X92089759Y-56219500D01*
X91910241Y-56219500D01*
X91851138Y-56228861D01*
X91732930Y-56247583D01*
X91562202Y-56303055D01*
X91402244Y-56384559D01*
X91257019Y-56490069D01*
X91130069Y-56617019D01*
X91024559Y-56762244D01*
X90943055Y-56922202D01*
X90887583Y-57092930D01*
X90887583Y-57092932D01*
X90859500Y-57270241D01*
X90859500Y-57449759D01*
X90861043Y-57459502D01*
X90887583Y-57627069D01*
X90943055Y-57797797D01*
X91024559Y-57957755D01*
X91130069Y-58102980D01*
X91257019Y-58229930D01*
X91392916Y-58328663D01*
X91402248Y-58335443D01*
X91562200Y-58416943D01*
X91596080Y-58427951D01*
X91653756Y-58467388D01*
X91680956Y-58531746D01*
X91669042Y-58600593D01*
X91621799Y-58652069D01*
X91596083Y-58663814D01*
X91500777Y-58694781D01*
X91318386Y-58787715D01*
X91152786Y-58908028D01*
X91008028Y-59052786D01*
X90887715Y-59218386D01*
X90794781Y-59400776D01*
X90731522Y-59595465D01*
X90699500Y-59797648D01*
X90699500Y-60002351D01*
X90731522Y-60204534D01*
X90794781Y-60399223D01*
X90887715Y-60581613D01*
X91008028Y-60747213D01*
X91152786Y-60891971D01*
X91307749Y-61004556D01*
X91318390Y-61012287D01*
X91409840Y-61058883D01*
X91411080Y-61059515D01*
X91461876Y-61107490D01*
X91478671Y-61175311D01*
X91456134Y-61241446D01*
X91411080Y-61280485D01*
X91318386Y-61327715D01*
X91152786Y-61448028D01*
X91008028Y-61592786D01*
X90887715Y-61758386D01*
X90794781Y-61940776D01*
X90731522Y-62135465D01*
X90699500Y-62337648D01*
X90699500Y-62542351D01*
X90731522Y-62744534D01*
X90794781Y-62939223D01*
X90858691Y-63064653D01*
X90878616Y-63103757D01*
X90887715Y-63121613D01*
X91008028Y-63287213D01*
X91152786Y-63431971D01*
X91307749Y-63544556D01*
X91318390Y-63552287D01*
X91409840Y-63598883D01*
X91411080Y-63599515D01*
X91461876Y-63647490D01*
X91478671Y-63715311D01*
X91456134Y-63781446D01*
X91411080Y-63820485D01*
X91318386Y-63867715D01*
X91152786Y-63988028D01*
X91008028Y-64132786D01*
X90887715Y-64298386D01*
X90794781Y-64480776D01*
X90731522Y-64675465D01*
X90699500Y-64877648D01*
X90699500Y-65082351D01*
X90731522Y-65284534D01*
X90794781Y-65479223D01*
X90887715Y-65661613D01*
X91008028Y-65827213D01*
X91152786Y-65971971D01*
X91307749Y-66084556D01*
X91318390Y-66092287D01*
X91409166Y-66138540D01*
X91411080Y-66139515D01*
X91461876Y-66187490D01*
X91478671Y-66255311D01*
X91456134Y-66321446D01*
X91411080Y-66360485D01*
X91318386Y-66407715D01*
X91197123Y-66495818D01*
X91131317Y-66519298D01*
X91124238Y-66519500D01*
X90845782Y-66519500D01*
X90778743Y-66499815D01*
X90758101Y-66483181D01*
X89936819Y-65661899D01*
X89903334Y-65600576D01*
X89900500Y-65574218D01*
X89900500Y-64901456D01*
X89890382Y-64850593D01*
X89887999Y-64826401D01*
X89887999Y-64713330D01*
X89887998Y-64713313D01*
X89877674Y-64612247D01*
X89875153Y-64604639D01*
X89823408Y-64448484D01*
X89732840Y-64301650D01*
X89610850Y-64179660D01*
X89519629Y-64123395D01*
X89464018Y-64089093D01*
X89464013Y-64089091D01*
X89462569Y-64088612D01*
X89300253Y-64034826D01*
X89300251Y-64034825D01*
X89199184Y-64024500D01*
X89199177Y-64024500D01*
X89136434Y-64024500D01*
X89112243Y-64022117D01*
X89074551Y-64014619D01*
X88998543Y-63999500D01*
X88998541Y-63999500D01*
X88801459Y-63999500D01*
X88768569Y-64006041D01*
X88687745Y-64022118D01*
X88663557Y-64024500D01*
X88600832Y-64024500D01*
X88600812Y-64024501D01*
X88499747Y-64034825D01*
X88335984Y-64089092D01*
X88335981Y-64089093D01*
X88189151Y-64179659D01*
X88074827Y-64293983D01*
X88013504Y-64327467D01*
X87943812Y-64322483D01*
X87899465Y-64293982D01*
X87785538Y-64180055D01*
X87785534Y-64180052D01*
X87638811Y-64089551D01*
X87638800Y-64089546D01*
X87475152Y-64035319D01*
X87374154Y-64025000D01*
X87325000Y-64025000D01*
X87325000Y-65974999D01*
X87374140Y-65974999D01*
X87374154Y-65974998D01*
X87475152Y-65964680D01*
X87638800Y-65910453D01*
X87638807Y-65910450D01*
X87710402Y-65866289D01*
X87777794Y-65847848D01*
X87844458Y-65868770D01*
X87889228Y-65922411D01*
X87899500Y-65971827D01*
X87899500Y-66138544D01*
X87937947Y-66331828D01*
X87937949Y-66331836D01*
X87958758Y-66382073D01*
X87958758Y-66382074D01*
X88013364Y-66513907D01*
X88013371Y-66513920D01*
X88122860Y-66677781D01*
X88122863Y-66677785D01*
X88266537Y-66821459D01*
X88266559Y-66821479D01*
X88667399Y-67222319D01*
X88671737Y-67230264D01*
X88678985Y-67235690D01*
X88688219Y-67260449D01*
X88700884Y-67283642D01*
X88700238Y-67292671D01*
X88703402Y-67301154D01*
X88697785Y-67326974D01*
X88695900Y-67353334D01*
X88690081Y-67362387D01*
X88688550Y-67369427D01*
X88667399Y-67397681D01*
X88521899Y-67543181D01*
X88460576Y-67576666D01*
X88434218Y-67579500D01*
X88393959Y-67579500D01*
X88347685Y-67588704D01*
X88280246Y-67602118D01*
X88256057Y-67604500D01*
X88143331Y-67604500D01*
X88143312Y-67604501D01*
X88042247Y-67614825D01*
X87878484Y-67669092D01*
X87878481Y-67669093D01*
X87731648Y-67759661D01*
X87717325Y-67773984D01*
X87656001Y-67807468D01*
X87586309Y-67802482D01*
X87541965Y-67773982D01*
X87528038Y-67760055D01*
X87528034Y-67760052D01*
X87381311Y-67669551D01*
X87381300Y-67669546D01*
X87217652Y-67615319D01*
X87116654Y-67605000D01*
X87017500Y-67605000D01*
X87017500Y-69554999D01*
X87116640Y-69554999D01*
X87116654Y-69554998D01*
X87217652Y-69544680D01*
X87381300Y-69490453D01*
X87381311Y-69490448D01*
X87528035Y-69399947D01*
X87541960Y-69386021D01*
X87603282Y-69352533D01*
X87672973Y-69357514D01*
X87717327Y-69386017D01*
X87731650Y-69400340D01*
X87878484Y-69490908D01*
X88042247Y-69545174D01*
X88143323Y-69555500D01*
X88256062Y-69555499D01*
X88280256Y-69557882D01*
X88393958Y-69580500D01*
X88393959Y-69580500D01*
X88998543Y-69580500D01*
X89028504Y-69574539D01*
X89124228Y-69555499D01*
X89191836Y-69542051D01*
X89245165Y-69519961D01*
X89373914Y-69466632D01*
X89537782Y-69357139D01*
X89677139Y-69217782D01*
X89677140Y-69217779D01*
X89684206Y-69210714D01*
X89684208Y-69210710D01*
X90338101Y-68556819D01*
X90399424Y-68523334D01*
X90425782Y-68520500D01*
X90478540Y-68520500D01*
X91124238Y-68520500D01*
X91191277Y-68540185D01*
X91197119Y-68544179D01*
X91318390Y-68632287D01*
X91409840Y-68678883D01*
X91411080Y-68679515D01*
X91461876Y-68727490D01*
X91478671Y-68795311D01*
X91456134Y-68861446D01*
X91411080Y-68900485D01*
X91318386Y-68947715D01*
X91152786Y-69068028D01*
X91008028Y-69212786D01*
X90887715Y-69378386D01*
X90794781Y-69560776D01*
X90731522Y-69755465D01*
X90699500Y-69957648D01*
X90699500Y-70162351D01*
X90731522Y-70364534D01*
X90794781Y-70559223D01*
X90887715Y-70741613D01*
X91008028Y-70907213D01*
X91152786Y-71051971D01*
X91307749Y-71164556D01*
X91318390Y-71172287D01*
X91409840Y-71218883D01*
X91411080Y-71219515D01*
X91461876Y-71267490D01*
X91478671Y-71335311D01*
X91456134Y-71401446D01*
X91411080Y-71440485D01*
X91318386Y-71487715D01*
X91152786Y-71608028D01*
X91008028Y-71752786D01*
X90887715Y-71918386D01*
X90794781Y-72100776D01*
X90731522Y-72295465D01*
X90699500Y-72497648D01*
X90699500Y-72702351D01*
X90731522Y-72904534D01*
X90794781Y-73099223D01*
X90887715Y-73281613D01*
X91008028Y-73447213D01*
X91152786Y-73591971D01*
X91307749Y-73704556D01*
X91318390Y-73712287D01*
X91409840Y-73758883D01*
X91411080Y-73759515D01*
X91461876Y-73807490D01*
X91478671Y-73875311D01*
X91456134Y-73941446D01*
X91411080Y-73980485D01*
X91318386Y-74027715D01*
X91152786Y-74148028D01*
X91008028Y-74292786D01*
X90887715Y-74458386D01*
X90794781Y-74640776D01*
X90731522Y-74835465D01*
X90699500Y-75037648D01*
X90699500Y-75242351D01*
X90731522Y-75444534D01*
X90794781Y-75639223D01*
X90887715Y-75821613D01*
X91008028Y-75987213D01*
X91152786Y-76131971D01*
X91307749Y-76244556D01*
X91318390Y-76252287D01*
X91389833Y-76288689D01*
X91411080Y-76299515D01*
X91461876Y-76347490D01*
X91478671Y-76415311D01*
X91456134Y-76481446D01*
X91411080Y-76520485D01*
X91318386Y-76567715D01*
X91152786Y-76688028D01*
X91008028Y-76832786D01*
X90887715Y-76998386D01*
X90794781Y-77180776D01*
X90731522Y-77375465D01*
X90699500Y-77577648D01*
X90699500Y-77782351D01*
X90731522Y-77984534D01*
X90794781Y-78179223D01*
X90887715Y-78361613D01*
X91008028Y-78527213D01*
X91152786Y-78671971D01*
X91307749Y-78784556D01*
X91318390Y-78792287D01*
X91409840Y-78838883D01*
X91411080Y-78839515D01*
X91461876Y-78887490D01*
X91478671Y-78955311D01*
X91456134Y-79021446D01*
X91411080Y-79060485D01*
X91318386Y-79107715D01*
X91152786Y-79228028D01*
X91008028Y-79372786D01*
X90887715Y-79538386D01*
X90794781Y-79720776D01*
X90731522Y-79915465D01*
X90699500Y-80117648D01*
X90699500Y-80322351D01*
X90731522Y-80524534D01*
X90794781Y-80719223D01*
X90856190Y-80839742D01*
X90865405Y-80857829D01*
X90887715Y-80901613D01*
X91008028Y-81067213D01*
X91152786Y-81211971D01*
X91288342Y-81310456D01*
X91318390Y-81332287D01*
X91393546Y-81370581D01*
X91411080Y-81379515D01*
X91461876Y-81427490D01*
X91478671Y-81495311D01*
X91456134Y-81561446D01*
X91411080Y-81600485D01*
X91318386Y-81647715D01*
X91152786Y-81768028D01*
X91008028Y-81912786D01*
X90887715Y-82078386D01*
X90794781Y-82260776D01*
X90731522Y-82455465D01*
X90699500Y-82657648D01*
X90699500Y-82862351D01*
X90731522Y-83064534D01*
X90794781Y-83259223D01*
X90887715Y-83441613D01*
X91008028Y-83607213D01*
X91152786Y-83751971D01*
X91307749Y-83864556D01*
X91318390Y-83872287D01*
X91409840Y-83918883D01*
X91411080Y-83919515D01*
X91461876Y-83967490D01*
X91478671Y-84035311D01*
X91456134Y-84101446D01*
X91411080Y-84140485D01*
X91318386Y-84187715D01*
X91152786Y-84308028D01*
X91008028Y-84452786D01*
X90887715Y-84618386D01*
X90794781Y-84800776D01*
X90731522Y-84995465D01*
X90699500Y-85197648D01*
X90699500Y-85402351D01*
X90731522Y-85604534D01*
X90794781Y-85799223D01*
X90887715Y-85981613D01*
X91008028Y-86147213D01*
X91152786Y-86291971D01*
X91307749Y-86404556D01*
X91318390Y-86412287D01*
X91409840Y-86458883D01*
X91411080Y-86459515D01*
X91461876Y-86507490D01*
X91478671Y-86575311D01*
X91456134Y-86641446D01*
X91411080Y-86680485D01*
X91318386Y-86727715D01*
X91152786Y-86848028D01*
X91008028Y-86992786D01*
X90887715Y-87158386D01*
X90794781Y-87340776D01*
X90731522Y-87535465D01*
X90709586Y-87673967D01*
X90699500Y-87737648D01*
X90699500Y-87942352D01*
X90703878Y-87969995D01*
X90731522Y-88144534D01*
X90794781Y-88339223D01*
X90858691Y-88464653D01*
X90886835Y-88519887D01*
X90887715Y-88521613D01*
X91008028Y-88687213D01*
X91152786Y-88831971D01*
X91293520Y-88934218D01*
X91318390Y-88952287D01*
X91408429Y-88998164D01*
X91411080Y-88999515D01*
X91461876Y-89047490D01*
X91478671Y-89115311D01*
X91456134Y-89181446D01*
X91411080Y-89220485D01*
X91318386Y-89267715D01*
X91152786Y-89388028D01*
X91008028Y-89532786D01*
X90887715Y-89698386D01*
X90794781Y-89880776D01*
X90731522Y-90075465D01*
X90699500Y-90277648D01*
X90699500Y-90482351D01*
X90731522Y-90684534D01*
X90794781Y-90879223D01*
X90839725Y-90967429D01*
X90868372Y-91023652D01*
X90887715Y-91061613D01*
X91008028Y-91227213D01*
X91152786Y-91371971D01*
X91307749Y-91484556D01*
X91318390Y-91492287D01*
X91390424Y-91528990D01*
X91411629Y-91539795D01*
X91462425Y-91587770D01*
X91479220Y-91655591D01*
X91456682Y-91721726D01*
X91411629Y-91760765D01*
X91318650Y-91808140D01*
X91153105Y-91928417D01*
X91153104Y-91928417D01*
X91008417Y-92073104D01*
X91008417Y-92073105D01*
X90888140Y-92238650D01*
X90795244Y-92420970D01*
X90732009Y-92615586D01*
X90723391Y-92670000D01*
X91566988Y-92670000D01*
X91534075Y-92727007D01*
X91500000Y-92854174D01*
X91500000Y-92985826D01*
X91534075Y-93112993D01*
X91566988Y-93170000D01*
X90723391Y-93170000D01*
X90732009Y-93224413D01*
X90795244Y-93419029D01*
X90888140Y-93601349D01*
X91008417Y-93766894D01*
X91008417Y-93766895D01*
X91153104Y-93911582D01*
X91318652Y-94031861D01*
X91411628Y-94079234D01*
X91462425Y-94127208D01*
X91479220Y-94195029D01*
X91456683Y-94261164D01*
X91411630Y-94300203D01*
X91318388Y-94347713D01*
X91197123Y-94435818D01*
X91131317Y-94459298D01*
X91124238Y-94459500D01*
X89024186Y-94459500D01*
X88957147Y-94439815D01*
X88920592Y-94403650D01*
X88912874Y-94391918D01*
X88910908Y-94385984D01*
X88820340Y-94239150D01*
X88797060Y-94215870D01*
X88790104Y-94205296D01*
X88783450Y-94183499D01*
X88772532Y-94163504D01*
X88773445Y-94150724D01*
X88769705Y-94138470D01*
X88775890Y-94116540D01*
X88777516Y-94093812D01*
X88786044Y-94080541D01*
X88788673Y-94071224D01*
X88796470Y-94064320D01*
X88806021Y-94049460D01*
X88819947Y-94035535D01*
X88910448Y-93888811D01*
X88910453Y-93888800D01*
X88964680Y-93725152D01*
X88974999Y-93624154D01*
X88975000Y-93624141D01*
X88975000Y-93525000D01*
X87025001Y-93525000D01*
X87025001Y-93624154D01*
X87035319Y-93725152D01*
X87089546Y-93888800D01*
X87089551Y-93888811D01*
X87180052Y-94035534D01*
X87180055Y-94035538D01*
X87193982Y-94049465D01*
X87227467Y-94110788D01*
X87222483Y-94180480D01*
X87193984Y-94224825D01*
X87179661Y-94239148D01*
X87089093Y-94385981D01*
X87089091Y-94385986D01*
X87071254Y-94439815D01*
X87034826Y-94549747D01*
X87034826Y-94549748D01*
X87034825Y-94549748D01*
X87024500Y-94650815D01*
X87024500Y-94763564D01*
X87022117Y-94787756D01*
X86999500Y-94901456D01*
X86999500Y-97348544D01*
X87022117Y-97462247D01*
X87024500Y-97486437D01*
X87024500Y-97586668D01*
X87024501Y-97586687D01*
X87034825Y-97687752D01*
X87089092Y-97851515D01*
X87089093Y-97851518D01*
X87179661Y-97998351D01*
X87218629Y-98037319D01*
X87252114Y-98098642D01*
X87247130Y-98168334D01*
X87218629Y-98212681D01*
X87179661Y-98251648D01*
X87089093Y-98398481D01*
X87089092Y-98398484D01*
X87034826Y-98562247D01*
X87034826Y-98562248D01*
X87034825Y-98562248D01*
X87024500Y-98663315D01*
X87024500Y-98763564D01*
X87022117Y-98787756D01*
X86999500Y-98901456D01*
X86999500Y-102068544D01*
X87037947Y-102261833D01*
X87037949Y-102261837D01*
X87060038Y-102315164D01*
X87113366Y-102443911D01*
X87113371Y-102443920D01*
X87222859Y-102607780D01*
X87222860Y-102607781D01*
X87222861Y-102607782D01*
X87362218Y-102747139D01*
X87362219Y-102747139D01*
X87369286Y-102754206D01*
X87369285Y-102754206D01*
X87369289Y-102754209D01*
X90403181Y-105788101D01*
X90436666Y-105849424D01*
X90439500Y-105875782D01*
X90439500Y-109318544D01*
X90462117Y-109432247D01*
X90464500Y-109456436D01*
X90464500Y-109519167D01*
X90464501Y-109519187D01*
X90474825Y-109620252D01*
X90490262Y-109666837D01*
X90529092Y-109784016D01*
X90615514Y-109924129D01*
X90619661Y-109930851D01*
X90733629Y-110044819D01*
X90767114Y-110106142D01*
X90762130Y-110175834D01*
X90733629Y-110220181D01*
X90619661Y-110334148D01*
X90529093Y-110480981D01*
X90529092Y-110480984D01*
X90474826Y-110644747D01*
X90474826Y-110644748D01*
X90474825Y-110644748D01*
X90464500Y-110745815D01*
X90464500Y-110808564D01*
X90462117Y-110832755D01*
X90439500Y-110946456D01*
X90439500Y-111143538D01*
X90462118Y-111257253D01*
X90464500Y-111281441D01*
X90464500Y-111344167D01*
X90464501Y-111344187D01*
X90474825Y-111445252D01*
X90508488Y-111546837D01*
X90526888Y-111602366D01*
X90529092Y-111609015D01*
X90529093Y-111609018D01*
X90539065Y-111625185D01*
X90619660Y-111755850D01*
X90741650Y-111877840D01*
X90888484Y-111968408D01*
X90950329Y-111988901D01*
X90999006Y-112018926D01*
X91517215Y-112537137D01*
X91517219Y-112537140D01*
X91681079Y-112646628D01*
X91681085Y-112646631D01*
X91681086Y-112646632D01*
X91863165Y-112722052D01*
X92022515Y-112753748D01*
X92045144Y-112758249D01*
X92056458Y-112760500D01*
X92056459Y-112760500D01*
X92056460Y-112760500D01*
X92253540Y-112760500D01*
X93063000Y-112760500D01*
X93130039Y-112780185D01*
X93175794Y-112832989D01*
X93187000Y-112884500D01*
X93187000Y-113354752D01*
X93198631Y-113413229D01*
X93198632Y-113413230D01*
X93242947Y-113479552D01*
X93309269Y-113523867D01*
X93309270Y-113523868D01*
X93367747Y-113535499D01*
X93367750Y-113535500D01*
X93367752Y-113535500D01*
X93410694Y-113535500D01*
X93418319Y-113537738D01*
X93426163Y-113536469D01*
X93451364Y-113547442D01*
X93477733Y-113555185D01*
X93484568Y-113561899D01*
X93490223Y-113564362D01*
X93513802Y-113590618D01*
X93516490Y-113594642D01*
X93517479Y-113596122D01*
X93538349Y-113662802D01*
X93519855Y-113730180D01*
X93517479Y-113733878D01*
X93513803Y-113739379D01*
X93460198Y-113784190D01*
X93410694Y-113794500D01*
X93367747Y-113794500D01*
X93309270Y-113806131D01*
X93309269Y-113806132D01*
X93242947Y-113850447D01*
X93198632Y-113916769D01*
X93198631Y-113916770D01*
X93187000Y-113975247D01*
X93187000Y-114624752D01*
X93198631Y-114683229D01*
X93198632Y-114683230D01*
X93242947Y-114749552D01*
X93286891Y-114778914D01*
X93331696Y-114832526D01*
X93342000Y-114882016D01*
X93342000Y-116586042D01*
X93351708Y-116634844D01*
X93351708Y-116634846D01*
X93380447Y-116779328D01*
X93380450Y-116779340D01*
X93401559Y-116830301D01*
X93455864Y-116961407D01*
X93455871Y-116961420D01*
X93565359Y-117125280D01*
X93565360Y-117125281D01*
X93565361Y-117125282D01*
X93704718Y-117264639D01*
X93704719Y-117264639D01*
X93711786Y-117271706D01*
X93711785Y-117271706D01*
X93711789Y-117271709D01*
X93721072Y-117280992D01*
X93751096Y-117329667D01*
X93771590Y-117391513D01*
X93776021Y-117398697D01*
X93862160Y-117538350D01*
X93984150Y-117660340D01*
X94130984Y-117750908D01*
X94192829Y-117771401D01*
X94241506Y-117801426D01*
X99147135Y-122707055D01*
X99147164Y-122707086D01*
X99289614Y-122849536D01*
X99289618Y-122849539D01*
X99453479Y-122959028D01*
X99453492Y-122959035D01*
X99566232Y-123005733D01*
X99566234Y-123005733D01*
X99572773Y-123008442D01*
X99635564Y-123034451D01*
X99732212Y-123053675D01*
X99779277Y-123063037D01*
X99828858Y-123072900D01*
X99828859Y-123072900D01*
X109166142Y-123072900D01*
X109198312Y-123066500D01*
X109262788Y-123053675D01*
X109359436Y-123034451D01*
X109422227Y-123008442D01*
X109541514Y-122959032D01*
X109705382Y-122849539D01*
X109844739Y-122710182D01*
X109844740Y-122710180D01*
X109851806Y-122703114D01*
X109851808Y-122703110D01*
X111230047Y-121324871D01*
X150999500Y-121324871D01*
X150999500Y-121717928D01*
X151038026Y-122109102D01*
X151114704Y-122494594D01*
X151114707Y-122494605D01*
X151228810Y-122870754D01*
X151379230Y-123233899D01*
X151379232Y-123233904D01*
X151564511Y-123580537D01*
X151564522Y-123580555D01*
X151782887Y-123907360D01*
X151782897Y-123907374D01*
X152032254Y-124211217D01*
X152310182Y-124489145D01*
X152310187Y-124489149D01*
X152310188Y-124489150D01*
X152614031Y-124738507D01*
X152940851Y-124956882D01*
X152940860Y-124956887D01*
X152940862Y-124956888D01*
X153287495Y-125142167D01*
X153287497Y-125142167D01*
X153287503Y-125142171D01*
X153650647Y-125292590D01*
X154026785Y-125406690D01*
X154026791Y-125406691D01*
X154026794Y-125406692D01*
X154026805Y-125406695D01*
X154412297Y-125483373D01*
X154803468Y-125521900D01*
X154803471Y-125521900D01*
X155196529Y-125521900D01*
X155196532Y-125521900D01*
X155587703Y-125483373D01*
X155662748Y-125468445D01*
X155973194Y-125406695D01*
X155973205Y-125406692D01*
X155973205Y-125406691D01*
X155973215Y-125406690D01*
X156349353Y-125292590D01*
X156712497Y-125142171D01*
X157059149Y-124956882D01*
X157385969Y-124738507D01*
X157689812Y-124489150D01*
X157967750Y-124211212D01*
X158217107Y-123907369D01*
X158435482Y-123580549D01*
X158620771Y-123233897D01*
X158771190Y-122870753D01*
X158885290Y-122494615D01*
X158885292Y-122494605D01*
X158885295Y-122494594D01*
X158961973Y-122109102D01*
X159000500Y-121717928D01*
X159000500Y-121324871D01*
X158961973Y-120933697D01*
X158885295Y-120548205D01*
X158885292Y-120548194D01*
X158885291Y-120548191D01*
X158885290Y-120548185D01*
X158771190Y-120172047D01*
X158620771Y-119808903D01*
X158435482Y-119462251D01*
X158217107Y-119135431D01*
X157967750Y-118831588D01*
X157967749Y-118831587D01*
X157967745Y-118831582D01*
X157689817Y-118553654D01*
X157385974Y-118304297D01*
X157385973Y-118304296D01*
X157385969Y-118304293D01*
X157059149Y-118085918D01*
X157059144Y-118085915D01*
X157059137Y-118085911D01*
X156712504Y-117900632D01*
X156712499Y-117900630D01*
X156349354Y-117750210D01*
X155973205Y-117636107D01*
X155973194Y-117636104D01*
X155587702Y-117559426D01*
X155293089Y-117530410D01*
X155196532Y-117520900D01*
X154803468Y-117520900D01*
X154714251Y-117529687D01*
X154412297Y-117559426D01*
X154026805Y-117636104D01*
X154026794Y-117636107D01*
X153650645Y-117750210D01*
X153287500Y-117900630D01*
X153287495Y-117900632D01*
X152940862Y-118085911D01*
X152940844Y-118085922D01*
X152614039Y-118304287D01*
X152614025Y-118304297D01*
X152310182Y-118553654D01*
X152032254Y-118831582D01*
X151782897Y-119135425D01*
X151782887Y-119135439D01*
X151564522Y-119462244D01*
X151564511Y-119462262D01*
X151379232Y-119808895D01*
X151379230Y-119808900D01*
X151228810Y-120172045D01*
X151114707Y-120548194D01*
X151114704Y-120548205D01*
X151038026Y-120933697D01*
X150999500Y-121324871D01*
X111230047Y-121324871D01*
X115586439Y-116968481D01*
X115644998Y-116909922D01*
X115645010Y-116909908D01*
X117218102Y-115336819D01*
X117279425Y-115303334D01*
X117305783Y-115300500D01*
X121028542Y-115300500D01*
X121059566Y-115294328D01*
X121125188Y-115281275D01*
X121221836Y-115262051D01*
X121275165Y-115239961D01*
X121403914Y-115186632D01*
X121567782Y-115077139D01*
X121707139Y-114937782D01*
X121707139Y-114937780D01*
X121717347Y-114927573D01*
X121717348Y-114927570D01*
X122411883Y-114233036D01*
X122460562Y-114203012D01*
X122461944Y-114202554D01*
X122478697Y-114197003D01*
X122623044Y-114107968D01*
X122742968Y-113988044D01*
X122832003Y-113843697D01*
X122885349Y-113682708D01*
X122895500Y-113583345D01*
X122895499Y-113546435D01*
X122897882Y-113522242D01*
X122898721Y-113518029D01*
X122919567Y-113413230D01*
X122920500Y-113408542D01*
X122920500Y-113211457D01*
X122897882Y-113097752D01*
X122896258Y-113087258D01*
X122895499Y-113080429D01*
X122895499Y-113036656D01*
X122885349Y-112937292D01*
X122876683Y-112911141D01*
X122875245Y-112898198D01*
X122879149Y-112876101D01*
X122878378Y-112853678D01*
X122885111Y-112842362D01*
X122887403Y-112829394D01*
X122902634Y-112812916D01*
X122914108Y-112793635D01*
X122925891Y-112787755D01*
X122934830Y-112778086D01*
X122956551Y-112772458D01*
X122976628Y-112762442D01*
X122998486Y-112760500D01*
X125273543Y-112760500D01*
X125387247Y-112737882D01*
X125411439Y-112735499D01*
X125474170Y-112735499D01*
X125474176Y-112735499D01*
X125575253Y-112725174D01*
X125739016Y-112670908D01*
X125885850Y-112580340D01*
X125999819Y-112466371D01*
X126061142Y-112432886D01*
X126130834Y-112437870D01*
X126175181Y-112466371D01*
X126289150Y-112580340D01*
X126435984Y-112670908D01*
X126599747Y-112725174D01*
X126700823Y-112735500D01*
X127299176Y-112735499D01*
X127299184Y-112735498D01*
X127299187Y-112735498D01*
X127354530Y-112729844D01*
X127400253Y-112725174D01*
X127564016Y-112670908D01*
X127591490Y-112653961D01*
X127656587Y-112635500D01*
X129573125Y-112635500D01*
X129573126Y-112635499D01*
X129742268Y-112601855D01*
X129901599Y-112535858D01*
X130044993Y-112440045D01*
X130303503Y-112181534D01*
X130364822Y-112148052D01*
X130434514Y-112153036D01*
X130472215Y-112175359D01*
X130484943Y-112186348D01*
X130500448Y-112209552D01*
X130550749Y-112243163D01*
X130556534Y-112248157D01*
X130571496Y-112271347D01*
X130589196Y-112292526D01*
X130591118Y-112301759D01*
X130594414Y-112306867D01*
X130594433Y-112317681D01*
X130599500Y-112342016D01*
X130599500Y-113203542D01*
X130605970Y-113236068D01*
X130605970Y-113236069D01*
X130637946Y-113396828D01*
X130637949Y-113396837D01*
X130647330Y-113419484D01*
X130713364Y-113578907D01*
X130713371Y-113578920D01*
X130822860Y-113742781D01*
X130822863Y-113742785D01*
X130966537Y-113886459D01*
X130966559Y-113886479D01*
X131027861Y-113947781D01*
X131821072Y-114740993D01*
X131851096Y-114789668D01*
X131871590Y-114851513D01*
X131871593Y-114851519D01*
X131901038Y-114899256D01*
X131919500Y-114964353D01*
X131919500Y-116041033D01*
X131953143Y-116210166D01*
X131953146Y-116210178D01*
X132019138Y-116369498D01*
X132019145Y-116369511D01*
X132114954Y-116512898D01*
X132114957Y-116512902D01*
X134823897Y-119221842D01*
X134823901Y-119221845D01*
X134967288Y-119317654D01*
X134967301Y-119317661D01*
X135032855Y-119344814D01*
X135126626Y-119383655D01*
X135261575Y-119410498D01*
X135295766Y-119417299D01*
X135295769Y-119417300D01*
X135295771Y-119417300D01*
X148269831Y-119417300D01*
X148269832Y-119417299D01*
X148438974Y-119383655D01*
X148598305Y-119317658D01*
X148741699Y-119221845D01*
X156480045Y-111483499D01*
X156575858Y-111340105D01*
X156641855Y-111180774D01*
X156675500Y-111011629D01*
X156675500Y-110839171D01*
X156675500Y-110533400D01*
X156695185Y-110466361D01*
X156747989Y-110420606D01*
X156799500Y-110409400D01*
X157599748Y-110409400D01*
X157638750Y-110415693D01*
X157702292Y-110436749D01*
X157801655Y-110446900D01*
X158398344Y-110446899D01*
X158398352Y-110446898D01*
X158398355Y-110446898D01*
X158452760Y-110441340D01*
X158497708Y-110436749D01*
X158658697Y-110383403D01*
X158803044Y-110294368D01*
X158922968Y-110174444D01*
X159012003Y-110030097D01*
X159065349Y-109869108D01*
X159075500Y-109769745D01*
X159075499Y-109223056D01*
X159065965Y-109129722D01*
X159067822Y-109119729D01*
X159065538Y-109109824D01*
X159074101Y-109085957D01*
X159078735Y-109061031D01*
X159086328Y-109051877D01*
X159089134Y-109044059D01*
X159110550Y-109022680D01*
X159113776Y-109018792D01*
X159115063Y-109017803D01*
X159245111Y-108923317D01*
X159268543Y-108899884D01*
X159274953Y-108894960D01*
X159300297Y-108885144D01*
X159324142Y-108872124D01*
X159332392Y-108872713D01*
X159340107Y-108869726D01*
X159366729Y-108875169D01*
X159393834Y-108877108D01*
X159400456Y-108882065D01*
X159408561Y-108883723D01*
X159428014Y-108902696D01*
X159449767Y-108918980D01*
X159452657Y-108926729D01*
X159458580Y-108932506D01*
X159464687Y-108958984D01*
X159474184Y-108984444D01*
X159474500Y-108993290D01*
X159474500Y-125871900D01*
X159454815Y-125938939D01*
X159402011Y-125984694D01*
X159350500Y-125995900D01*
X85649500Y-125995900D01*
X85582461Y-125976215D01*
X85536706Y-125923411D01*
X85525500Y-125871900D01*
X85525500Y-121324871D01*
X85999500Y-121324871D01*
X85999500Y-121717928D01*
X86038026Y-122109102D01*
X86114704Y-122494594D01*
X86114707Y-122494605D01*
X86228810Y-122870754D01*
X86379230Y-123233899D01*
X86379232Y-123233904D01*
X86564511Y-123580537D01*
X86564522Y-123580555D01*
X86782887Y-123907360D01*
X86782897Y-123907374D01*
X87032254Y-124211217D01*
X87310182Y-124489145D01*
X87310187Y-124489149D01*
X87310188Y-124489150D01*
X87614031Y-124738507D01*
X87940851Y-124956882D01*
X87940860Y-124956887D01*
X87940862Y-124956888D01*
X88287495Y-125142167D01*
X88287497Y-125142167D01*
X88287503Y-125142171D01*
X88650647Y-125292590D01*
X89026785Y-125406690D01*
X89026791Y-125406691D01*
X89026794Y-125406692D01*
X89026805Y-125406695D01*
X89412297Y-125483373D01*
X89803468Y-125521900D01*
X89803471Y-125521900D01*
X90196529Y-125521900D01*
X90196532Y-125521900D01*
X90587703Y-125483373D01*
X90662748Y-125468445D01*
X90973194Y-125406695D01*
X90973205Y-125406692D01*
X90973205Y-125406691D01*
X90973215Y-125406690D01*
X91349353Y-125292590D01*
X91712497Y-125142171D01*
X92059149Y-124956882D01*
X92385969Y-124738507D01*
X92689812Y-124489150D01*
X92967750Y-124211212D01*
X93217107Y-123907369D01*
X93435482Y-123580549D01*
X93620771Y-123233897D01*
X93771190Y-122870753D01*
X93885290Y-122494615D01*
X93885292Y-122494605D01*
X93885295Y-122494594D01*
X93961973Y-122109102D01*
X94000500Y-121717928D01*
X94000500Y-121324871D01*
X93961973Y-120933697D01*
X93885295Y-120548205D01*
X93885292Y-120548194D01*
X93885291Y-120548191D01*
X93885290Y-120548185D01*
X93771190Y-120172047D01*
X93620771Y-119808903D01*
X93435482Y-119462251D01*
X93217107Y-119135431D01*
X92967750Y-118831588D01*
X92967749Y-118831587D01*
X92967745Y-118831582D01*
X92689817Y-118553654D01*
X92385974Y-118304297D01*
X92385973Y-118304296D01*
X92385969Y-118304293D01*
X92059149Y-118085918D01*
X92059144Y-118085915D01*
X92059137Y-118085911D01*
X91712504Y-117900632D01*
X91712499Y-117900630D01*
X91349354Y-117750210D01*
X90973205Y-117636107D01*
X90973194Y-117636104D01*
X90587702Y-117559426D01*
X90293089Y-117530410D01*
X90196532Y-117520900D01*
X89803468Y-117520900D01*
X89714251Y-117529687D01*
X89412297Y-117559426D01*
X89026805Y-117636104D01*
X89026794Y-117636107D01*
X88650645Y-117750210D01*
X88287500Y-117900630D01*
X88287495Y-117900632D01*
X87940862Y-118085911D01*
X87940844Y-118085922D01*
X87614039Y-118304287D01*
X87614025Y-118304297D01*
X87310182Y-118553654D01*
X87032254Y-118831582D01*
X86782897Y-119135425D01*
X86782887Y-119135439D01*
X86564522Y-119462244D01*
X86564511Y-119462262D01*
X86379232Y-119808895D01*
X86379230Y-119808900D01*
X86228810Y-120172045D01*
X86114707Y-120548194D01*
X86114704Y-120548205D01*
X86038026Y-120933697D01*
X85999500Y-121324871D01*
X85525500Y-121324871D01*
X85525500Y-92925845D01*
X87025000Y-92925845D01*
X87025000Y-93025000D01*
X87750000Y-93025000D01*
X88250000Y-93025000D01*
X88974999Y-93025000D01*
X88974999Y-92925860D01*
X88974998Y-92925845D01*
X88964680Y-92824847D01*
X88910453Y-92661199D01*
X88910448Y-92661188D01*
X88819947Y-92514465D01*
X88819944Y-92514461D01*
X88698038Y-92392555D01*
X88698034Y-92392552D01*
X88551311Y-92302051D01*
X88551300Y-92302046D01*
X88387652Y-92247819D01*
X88286654Y-92237500D01*
X88250000Y-92237500D01*
X88250000Y-93025000D01*
X87750000Y-93025000D01*
X87750000Y-92237500D01*
X87713361Y-92237500D01*
X87713343Y-92237501D01*
X87612347Y-92247819D01*
X87448699Y-92302046D01*
X87448688Y-92302051D01*
X87301965Y-92392552D01*
X87301961Y-92392555D01*
X87180055Y-92514461D01*
X87180052Y-92514465D01*
X87089551Y-92661188D01*
X87089546Y-92661199D01*
X87035319Y-92824847D01*
X87025000Y-92925845D01*
X85525500Y-92925845D01*
X85525500Y-69087795D01*
X85545185Y-69020756D01*
X85597989Y-68975001D01*
X85667147Y-68965057D01*
X85730703Y-68994082D01*
X85767206Y-69048791D01*
X85794546Y-69131300D01*
X85794551Y-69131311D01*
X85885052Y-69278034D01*
X85885055Y-69278038D01*
X86006961Y-69399944D01*
X86006965Y-69399947D01*
X86153688Y-69490448D01*
X86153699Y-69490453D01*
X86317347Y-69544680D01*
X86418351Y-69554999D01*
X86517500Y-69554998D01*
X86517500Y-67604999D01*
X86418360Y-67605000D01*
X86418344Y-67605001D01*
X86317347Y-67615319D01*
X86153699Y-67669546D01*
X86153688Y-67669551D01*
X86006965Y-67760052D01*
X86006961Y-67760055D01*
X85885055Y-67881961D01*
X85885052Y-67881965D01*
X85794551Y-68028688D01*
X85794546Y-68028699D01*
X85767206Y-68111208D01*
X85727433Y-68168653D01*
X85662918Y-68195476D01*
X85594142Y-68183161D01*
X85542942Y-68135618D01*
X85525500Y-68072204D01*
X85525500Y-65286654D01*
X86087501Y-65286654D01*
X86097819Y-65387652D01*
X86152046Y-65551300D01*
X86152051Y-65551311D01*
X86242552Y-65698034D01*
X86242555Y-65698038D01*
X86364461Y-65819944D01*
X86364465Y-65819947D01*
X86511188Y-65910448D01*
X86511199Y-65910453D01*
X86674847Y-65964680D01*
X86775851Y-65974999D01*
X86824999Y-65974998D01*
X86825000Y-65974998D01*
X86825000Y-65250000D01*
X86087501Y-65250000D01*
X86087501Y-65286654D01*
X85525500Y-65286654D01*
X85525500Y-64713345D01*
X86087500Y-64713345D01*
X86087500Y-64750000D01*
X86825000Y-64750000D01*
X86825000Y-64025000D01*
X86824999Y-64024999D01*
X86775861Y-64025000D01*
X86775843Y-64025001D01*
X86674847Y-64035319D01*
X86511199Y-64089546D01*
X86511188Y-64089551D01*
X86364465Y-64180052D01*
X86364461Y-64180055D01*
X86242555Y-64301961D01*
X86242552Y-64301965D01*
X86152051Y-64448688D01*
X86152046Y-64448699D01*
X86097819Y-64612347D01*
X86087500Y-64713345D01*
X85525500Y-64713345D01*
X85525500Y-51324871D01*
X85999500Y-51324871D01*
X85999500Y-51717928D01*
X86038026Y-52109102D01*
X86114704Y-52494594D01*
X86114707Y-52494605D01*
X86204492Y-52790589D01*
X86228810Y-52870753D01*
X86371759Y-53215864D01*
X86379230Y-53233899D01*
X86379232Y-53233904D01*
X86564511Y-53580537D01*
X86564522Y-53580555D01*
X86782887Y-53907360D01*
X86782897Y-53907374D01*
X87032254Y-54211217D01*
X87310182Y-54489145D01*
X87310187Y-54489149D01*
X87310188Y-54489150D01*
X87614031Y-54738507D01*
X87940851Y-54956882D01*
X87940860Y-54956887D01*
X87940862Y-54956888D01*
X88287495Y-55142167D01*
X88287497Y-55142167D01*
X88287503Y-55142171D01*
X88650647Y-55292590D01*
X89026785Y-55406690D01*
X89026791Y-55406691D01*
X89026794Y-55406692D01*
X89026805Y-55406695D01*
X89412297Y-55483373D01*
X89803468Y-55521900D01*
X89803471Y-55521900D01*
X90196529Y-55521900D01*
X90196532Y-55521900D01*
X90587703Y-55483373D01*
X90680372Y-55464940D01*
X90973194Y-55406695D01*
X90973205Y-55406692D01*
X90973205Y-55406691D01*
X90973215Y-55406690D01*
X91349353Y-55292590D01*
X91712497Y-55142171D01*
X92059149Y-54956882D01*
X92385969Y-54738507D01*
X92689812Y-54489150D01*
X92967750Y-54211212D01*
X93217107Y-53907369D01*
X93435482Y-53580549D01*
X93620771Y-53233897D01*
X93771190Y-52870753D01*
X93885290Y-52494615D01*
X93885292Y-52494605D01*
X93885295Y-52494594D01*
X93961973Y-52109102D01*
X94000500Y-51717928D01*
X94000500Y-51324871D01*
X150999500Y-51324871D01*
X150999500Y-51717928D01*
X151038026Y-52109102D01*
X151114704Y-52494594D01*
X151114707Y-52494605D01*
X151204492Y-52790589D01*
X151228810Y-52870753D01*
X151371759Y-53215864D01*
X151379230Y-53233899D01*
X151379232Y-53233904D01*
X151564511Y-53580537D01*
X151564522Y-53580555D01*
X151782887Y-53907360D01*
X151782897Y-53907374D01*
X152032254Y-54211217D01*
X152310182Y-54489145D01*
X152310187Y-54489149D01*
X152310188Y-54489150D01*
X152614031Y-54738507D01*
X152940851Y-54956882D01*
X152940860Y-54956887D01*
X152940862Y-54956888D01*
X153287495Y-55142167D01*
X153287497Y-55142167D01*
X153287503Y-55142171D01*
X153650647Y-55292590D01*
X154026785Y-55406690D01*
X154026791Y-55406691D01*
X154026794Y-55406692D01*
X154026805Y-55406695D01*
X154412297Y-55483373D01*
X154803468Y-55521900D01*
X154803471Y-55521900D01*
X155196529Y-55521900D01*
X155196532Y-55521900D01*
X155587703Y-55483373D01*
X155680372Y-55464940D01*
X155973194Y-55406695D01*
X155973205Y-55406692D01*
X155973205Y-55406691D01*
X155973215Y-55406690D01*
X156349353Y-55292590D01*
X156712497Y-55142171D01*
X157059149Y-54956882D01*
X157385969Y-54738507D01*
X157689812Y-54489150D01*
X157967750Y-54211212D01*
X158217107Y-53907369D01*
X158435482Y-53580549D01*
X158620771Y-53233897D01*
X158771190Y-52870753D01*
X158885290Y-52494615D01*
X158885292Y-52494605D01*
X158885295Y-52494594D01*
X158961973Y-52109102D01*
X159000500Y-51717928D01*
X159000500Y-51324871D01*
X158961973Y-50933697D01*
X158885295Y-50548205D01*
X158885292Y-50548194D01*
X158885291Y-50548191D01*
X158885290Y-50548185D01*
X158771190Y-50172047D01*
X158620771Y-49808903D01*
X158435482Y-49462251D01*
X158217107Y-49135431D01*
X157967750Y-48831588D01*
X157967749Y-48831587D01*
X157967745Y-48831582D01*
X157689817Y-48553654D01*
X157385974Y-48304297D01*
X157385973Y-48304296D01*
X157385969Y-48304293D01*
X157059149Y-48085918D01*
X157059144Y-48085915D01*
X157059137Y-48085911D01*
X156712504Y-47900632D01*
X156712499Y-47900630D01*
X156349354Y-47750210D01*
X155973205Y-47636107D01*
X155973194Y-47636104D01*
X155587702Y-47559426D01*
X155293089Y-47530410D01*
X155196532Y-47520900D01*
X154803468Y-47520900D01*
X154714251Y-47529687D01*
X154412297Y-47559426D01*
X154026805Y-47636104D01*
X154026794Y-47636107D01*
X153650645Y-47750210D01*
X153287500Y-47900630D01*
X153287495Y-47900632D01*
X152940862Y-48085911D01*
X152940844Y-48085922D01*
X152614039Y-48304287D01*
X152614025Y-48304297D01*
X152310182Y-48553654D01*
X152032254Y-48831582D01*
X151782897Y-49135425D01*
X151782887Y-49135439D01*
X151564522Y-49462244D01*
X151564511Y-49462262D01*
X151379232Y-49808895D01*
X151379230Y-49808900D01*
X151228810Y-50172045D01*
X151114707Y-50548194D01*
X151114704Y-50548205D01*
X151038026Y-50933697D01*
X150999500Y-51324871D01*
X94000500Y-51324871D01*
X93961973Y-50933697D01*
X93885295Y-50548205D01*
X93885292Y-50548194D01*
X93885291Y-50548191D01*
X93885290Y-50548185D01*
X93771190Y-50172047D01*
X93620771Y-49808903D01*
X93435482Y-49462251D01*
X93217107Y-49135431D01*
X92967750Y-48831588D01*
X92967749Y-48831587D01*
X92967745Y-48831582D01*
X92689817Y-48553654D01*
X92385974Y-48304297D01*
X92385973Y-48304296D01*
X92385969Y-48304293D01*
X92059149Y-48085918D01*
X92059144Y-48085915D01*
X92059137Y-48085911D01*
X91712504Y-47900632D01*
X91712499Y-47900630D01*
X91349354Y-47750210D01*
X90973205Y-47636107D01*
X90973194Y-47636104D01*
X90587702Y-47559426D01*
X90293089Y-47530410D01*
X90196532Y-47520900D01*
X89803468Y-47520900D01*
X89714251Y-47529687D01*
X89412297Y-47559426D01*
X89026805Y-47636104D01*
X89026794Y-47636107D01*
X88650645Y-47750210D01*
X88287500Y-47900630D01*
X88287495Y-47900632D01*
X87940862Y-48085911D01*
X87940844Y-48085922D01*
X87614039Y-48304287D01*
X87614025Y-48304297D01*
X87310182Y-48553654D01*
X87032254Y-48831582D01*
X86782897Y-49135425D01*
X86782887Y-49135439D01*
X86564522Y-49462244D01*
X86564511Y-49462262D01*
X86379232Y-49808895D01*
X86379230Y-49808900D01*
X86228810Y-50172045D01*
X86114707Y-50548194D01*
X86114704Y-50548205D01*
X86038026Y-50933697D01*
X85999500Y-51324871D01*
X85525500Y-51324871D01*
X85525500Y-47170900D01*
X85545185Y-47103861D01*
X85597989Y-47058106D01*
X85649500Y-47046900D01*
X145560725Y-47046900D01*
X145627764Y-47066585D01*
G37*
%TD.AperFunction*%
%TA.AperFunction,Conductor*%
G36*
X114993390Y-113287266D02*
G01*
X115104686Y-113361632D01*
X115219476Y-113409179D01*
X115286764Y-113437051D01*
X115364527Y-113452519D01*
X115414443Y-113462448D01*
X115480056Y-113475500D01*
X115480059Y-113475500D01*
X115480060Y-113475500D01*
X115677140Y-113475500D01*
X115867585Y-113475500D01*
X115868835Y-113475867D01*
X115870094Y-113475525D01*
X115902287Y-113485689D01*
X115934624Y-113495185D01*
X115935476Y-113496169D01*
X115936721Y-113496562D01*
X115958316Y-113522527D01*
X115980379Y-113547989D01*
X115980564Y-113549277D01*
X115981399Y-113550281D01*
X115985526Y-113583785D01*
X115990323Y-113617147D01*
X115989833Y-113618753D01*
X115989941Y-113619627D01*
X115987925Y-113625016D01*
X115979314Y-113653283D01*
X115976511Y-113659104D01*
X115929092Y-113735984D01*
X115906088Y-113805401D01*
X115902620Y-113812607D01*
X115892706Y-113823591D01*
X115878572Y-113846505D01*
X114171519Y-115553561D01*
X108689499Y-121035581D01*
X108628176Y-121069066D01*
X108601818Y-121071900D01*
X100393182Y-121071900D01*
X100326143Y-121052215D01*
X100305501Y-121035581D01*
X97155825Y-117885905D01*
X97122340Y-117824582D01*
X97127324Y-117754890D01*
X97169196Y-117698957D01*
X97178410Y-117692685D01*
X97230850Y-117660340D01*
X97352840Y-117538350D01*
X97443408Y-117391516D01*
X97497674Y-117227753D01*
X97508000Y-117126677D01*
X97507999Y-117013596D01*
X97510382Y-116989402D01*
X97511392Y-116984328D01*
X97520500Y-116938541D01*
X97520500Y-115622859D01*
X97520500Y-114922859D01*
X97520500Y-114294500D01*
X97540185Y-114227461D01*
X97592989Y-114181706D01*
X97644500Y-114170500D01*
X97823542Y-114170500D01*
X97915811Y-114152146D01*
X97937243Y-114147882D01*
X97961434Y-114145500D01*
X98347250Y-114145500D01*
X98347251Y-114145499D01*
X98362068Y-114142552D01*
X98405729Y-114133868D01*
X98405729Y-114133867D01*
X98405731Y-114133867D01*
X98472052Y-114089552D01*
X98474687Y-114085609D01*
X98480778Y-114080518D01*
X98484076Y-114073297D01*
X98507203Y-114058433D01*
X98528299Y-114040804D01*
X98537673Y-114038852D01*
X98542854Y-114035523D01*
X98577789Y-114030500D01*
X98623000Y-114030500D01*
X98690039Y-114050185D01*
X98735794Y-114102989D01*
X98747000Y-114154500D01*
X98747000Y-114624752D01*
X98758631Y-114683229D01*
X98758632Y-114683230D01*
X98802947Y-114749552D01*
X98846891Y-114778914D01*
X98891696Y-114832526D01*
X98902000Y-114882016D01*
X98902000Y-116791044D01*
X98940447Y-116984328D01*
X98940449Y-116984336D01*
X98958900Y-117028880D01*
X98958900Y-117028881D01*
X99015864Y-117166407D01*
X99015871Y-117166420D01*
X99125360Y-117330281D01*
X99125363Y-117330285D01*
X99126962Y-117331884D01*
X99127829Y-117333290D01*
X99129226Y-117334992D01*
X99128995Y-117335181D01*
X99156986Y-117380559D01*
X99162994Y-117398691D01*
X99162999Y-117398702D01*
X99252031Y-117543043D01*
X99371955Y-117662967D01*
X99371959Y-117662970D01*
X99516294Y-117751998D01*
X99516297Y-117751999D01*
X99516303Y-117752003D01*
X99677292Y-117805349D01*
X99776655Y-117815500D01*
X99813558Y-117815499D01*
X99837749Y-117817881D01*
X99871433Y-117824582D01*
X99951459Y-117840501D01*
X99951460Y-117840501D01*
X100148543Y-117840501D01*
X100228570Y-117824582D01*
X100262253Y-117817881D01*
X100286444Y-117815499D01*
X100323338Y-117815499D01*
X100323344Y-117815499D01*
X100323352Y-117815498D01*
X100323355Y-117815498D01*
X100377760Y-117809940D01*
X100422708Y-117805349D01*
X100583697Y-117752003D01*
X100728044Y-117662968D01*
X100737319Y-117653693D01*
X100798642Y-117620208D01*
X100868334Y-117625192D01*
X100912681Y-117653693D01*
X100921955Y-117662967D01*
X100921959Y-117662970D01*
X101066294Y-117751998D01*
X101066297Y-117751999D01*
X101066303Y-117752003D01*
X101227292Y-117805349D01*
X101326655Y-117815500D01*
X101363563Y-117815499D01*
X101387754Y-117817881D01*
X101421438Y-117824582D01*
X101501459Y-117840500D01*
X101501460Y-117840500D01*
X101698542Y-117840500D01*
X101778564Y-117824582D01*
X101812247Y-117817881D01*
X101836438Y-117815499D01*
X101873338Y-117815499D01*
X101873344Y-117815499D01*
X101873352Y-117815498D01*
X101873355Y-117815498D01*
X101927760Y-117809940D01*
X101972708Y-117805349D01*
X102128075Y-117753865D01*
X102197900Y-117751464D01*
X102254757Y-117783891D01*
X103138143Y-118667278D01*
X103138150Y-118667284D01*
X103255868Y-118757611D01*
X103255869Y-118757612D01*
X103346196Y-118826924D01*
X103541087Y-118939443D01*
X103573303Y-118958043D01*
X103573305Y-118958044D01*
X103573311Y-118958047D01*
X103704015Y-119012186D01*
X103815581Y-119058398D01*
X104068885Y-119126271D01*
X104181766Y-119141130D01*
X104181767Y-119141131D01*
X104181768Y-119141131D01*
X104328880Y-119160500D01*
X105167770Y-119160500D01*
X105234809Y-119180185D01*
X105255451Y-119196819D01*
X105311344Y-119252712D01*
X105460666Y-119344814D01*
X105627203Y-119399999D01*
X105729991Y-119410500D01*
X107630008Y-119410499D01*
X107732797Y-119399999D01*
X107899334Y-119344814D01*
X108048656Y-119252712D01*
X108172712Y-119128656D01*
X108264814Y-118979334D01*
X108319999Y-118812797D01*
X108330500Y-118710009D01*
X108330499Y-118371394D01*
X108350183Y-118304356D01*
X108366813Y-118283719D01*
X108517478Y-118133054D01*
X109025001Y-118133054D01*
X109035319Y-118234052D01*
X109089546Y-118397700D01*
X109089551Y-118397711D01*
X109180052Y-118544434D01*
X109180055Y-118544438D01*
X109301961Y-118666344D01*
X109301965Y-118666347D01*
X109448688Y-118756848D01*
X109448699Y-118756853D01*
X109612347Y-118811080D01*
X109713352Y-118821399D01*
X109750000Y-118821399D01*
X110250000Y-118821399D01*
X110286640Y-118821399D01*
X110286654Y-118821398D01*
X110387652Y-118811080D01*
X110551300Y-118756853D01*
X110551311Y-118756848D01*
X110698034Y-118666347D01*
X110698038Y-118666344D01*
X110819944Y-118544438D01*
X110819947Y-118544434D01*
X110910448Y-118397711D01*
X110910453Y-118397700D01*
X110964680Y-118234052D01*
X110974999Y-118133054D01*
X110975000Y-118133041D01*
X110975000Y-118083900D01*
X110250000Y-118083900D01*
X110250000Y-118821399D01*
X109750000Y-118821399D01*
X109750000Y-118083900D01*
X109025001Y-118083900D01*
X109025001Y-118133054D01*
X108517478Y-118133054D01*
X109030314Y-117620219D01*
X109091637Y-117586734D01*
X109117995Y-117583900D01*
X110974999Y-117583900D01*
X110974999Y-117534760D01*
X110974998Y-117534745D01*
X110964680Y-117433747D01*
X110910453Y-117270099D01*
X110910448Y-117270088D01*
X110819947Y-117123365D01*
X110819944Y-117123361D01*
X110706017Y-117009434D01*
X110672532Y-116948111D01*
X110677516Y-116878419D01*
X110706013Y-116834076D01*
X110820340Y-116719750D01*
X110910908Y-116572916D01*
X110965174Y-116409153D01*
X110975500Y-116308077D01*
X110975499Y-115726395D01*
X110995183Y-115659357D01*
X111011818Y-115638715D01*
X111792315Y-114858219D01*
X111853638Y-114824734D01*
X111879996Y-114821900D01*
X113418097Y-114821900D01*
X113651368Y-114784953D01*
X113722702Y-114761775D01*
X113875992Y-114711968D01*
X114086433Y-114604743D01*
X114277510Y-114465917D01*
X114404762Y-114338663D01*
X114415544Y-114329071D01*
X114418646Y-114326617D01*
X114418656Y-114326612D01*
X114542712Y-114202556D01*
X114634814Y-114053234D01*
X114675850Y-113929391D01*
X114683071Y-113912105D01*
X114690566Y-113897395D01*
X114690568Y-113897392D01*
X114763553Y-113672768D01*
X114772108Y-113618753D01*
X114800500Y-113439497D01*
X114800500Y-113390369D01*
X114820185Y-113323330D01*
X114872989Y-113277575D01*
X114942147Y-113267631D01*
X114993390Y-113287266D01*
G37*
%TD.AperFunction*%
%TA.AperFunction,Conductor*%
G36*
X135947539Y-111510185D02*
G01*
X135993294Y-111562989D01*
X136004500Y-111614500D01*
X136004500Y-112084752D01*
X136016131Y-112143229D01*
X136016132Y-112143230D01*
X136060447Y-112209552D01*
X136126769Y-112253867D01*
X136126770Y-112253868D01*
X136184691Y-112265389D01*
X136246602Y-112297773D01*
X136281176Y-112358489D01*
X136284500Y-112387006D01*
X136284500Y-113356911D01*
X136264815Y-113423950D01*
X136225599Y-113462448D01*
X136201956Y-113477031D01*
X136082029Y-113596959D01*
X135993001Y-113741294D01*
X135992996Y-113741305D01*
X135939651Y-113902290D01*
X135929500Y-114001647D01*
X135929500Y-114598337D01*
X135929501Y-114598355D01*
X135939650Y-114697707D01*
X135939651Y-114697710D01*
X135992996Y-114858694D01*
X135993001Y-114858705D01*
X136082029Y-115003040D01*
X136082032Y-115003044D01*
X136201955Y-115122967D01*
X136201959Y-115122970D01*
X136346294Y-115211998D01*
X136346297Y-115211999D01*
X136346303Y-115212003D01*
X136507292Y-115265349D01*
X136606655Y-115275500D01*
X137153344Y-115275499D01*
X137153352Y-115275498D01*
X137153355Y-115275498D01*
X137207760Y-115269940D01*
X137252708Y-115265349D01*
X137413697Y-115212003D01*
X137558044Y-115122968D01*
X137567319Y-115113693D01*
X137628642Y-115080208D01*
X137698334Y-115085192D01*
X137742681Y-115113693D01*
X137751955Y-115122967D01*
X137751959Y-115122970D01*
X137896294Y-115211998D01*
X137896297Y-115211999D01*
X137896303Y-115212003D01*
X138057292Y-115265349D01*
X138156655Y-115275500D01*
X138193563Y-115275499D01*
X138217754Y-115277881D01*
X138283596Y-115290979D01*
X138331458Y-115300500D01*
X138331459Y-115300500D01*
X138528541Y-115300500D01*
X138767148Y-115300500D01*
X138834187Y-115320185D01*
X138842634Y-115326124D01*
X138916395Y-115382723D01*
X138916397Y-115382724D01*
X139131126Y-115506697D01*
X139143503Y-115513843D01*
X139385781Y-115614198D01*
X139639085Y-115682071D01*
X139751968Y-115696931D01*
X139843859Y-115709029D01*
X139872123Y-115721532D01*
X139907752Y-115737294D01*
X139915352Y-115744286D01*
X140298340Y-116127276D01*
X140298345Y-116127280D01*
X140298348Y-116127283D01*
X140365545Y-116178844D01*
X140396007Y-116202218D01*
X140396008Y-116202219D01*
X140506396Y-116286924D01*
X140698179Y-116397649D01*
X140718105Y-116409153D01*
X140733503Y-116418043D01*
X140975781Y-116518398D01*
X141229084Y-116586271D01*
X141359082Y-116603385D01*
X141489080Y-116620500D01*
X142968880Y-116620500D01*
X143267770Y-116620500D01*
X143334809Y-116640185D01*
X143355451Y-116656819D01*
X143411344Y-116712712D01*
X143560666Y-116804814D01*
X143727203Y-116859999D01*
X143829991Y-116870500D01*
X145730008Y-116870499D01*
X145832797Y-116859999D01*
X145999334Y-116804814D01*
X146148656Y-116712712D01*
X146272712Y-116588656D01*
X146364814Y-116439334D01*
X146419999Y-116272797D01*
X146430500Y-116170009D01*
X146430499Y-116114995D01*
X146450182Y-116047957D01*
X146466813Y-116027319D01*
X146848578Y-115645554D01*
X147425001Y-115645554D01*
X147435319Y-115746552D01*
X147489546Y-115910200D01*
X147489551Y-115910211D01*
X147580052Y-116056934D01*
X147580055Y-116056938D01*
X147701961Y-116178844D01*
X147701965Y-116178847D01*
X147848688Y-116269348D01*
X147848699Y-116269353D01*
X148012347Y-116323580D01*
X148113352Y-116333899D01*
X148150000Y-116333899D01*
X148150000Y-115596400D01*
X147425001Y-115596400D01*
X147425001Y-115645554D01*
X146848578Y-115645554D01*
X147361415Y-115132717D01*
X147422736Y-115099234D01*
X147449094Y-115096400D01*
X149374999Y-115096400D01*
X149374999Y-115047260D01*
X149374998Y-115047245D01*
X149364680Y-114946247D01*
X149310453Y-114782599D01*
X149310448Y-114782588D01*
X149219947Y-114635865D01*
X149219944Y-114635861D01*
X149106017Y-114521934D01*
X149072532Y-114460611D01*
X149077516Y-114390919D01*
X149106013Y-114346576D01*
X149220340Y-114232250D01*
X149310908Y-114085416D01*
X149365174Y-113921653D01*
X149375500Y-113820577D01*
X149375499Y-113222224D01*
X149371885Y-113186852D01*
X149384653Y-113118163D01*
X149407558Y-113086574D01*
X149479083Y-113015051D01*
X150652315Y-111841819D01*
X150713638Y-111808334D01*
X150739996Y-111805500D01*
X153341113Y-111805500D01*
X153341120Y-111805500D01*
X153371232Y-111801535D01*
X153440266Y-111812299D01*
X153492522Y-111858678D01*
X153511409Y-111925947D01*
X153490930Y-111992748D01*
X153475099Y-112012155D01*
X149548286Y-115938969D01*
X149486963Y-115972454D01*
X149417271Y-115967470D01*
X149361338Y-115925598D01*
X149336921Y-115860134D01*
X149342899Y-115812283D01*
X149364681Y-115746550D01*
X149374999Y-115645554D01*
X149375000Y-115645541D01*
X149375000Y-115596400D01*
X148650000Y-115596400D01*
X148650000Y-116333899D01*
X148686640Y-116333899D01*
X148686654Y-116333898D01*
X148787650Y-116323581D01*
X148853383Y-116301799D01*
X148923212Y-116299397D01*
X148983254Y-116335128D01*
X149014447Y-116397649D01*
X149006887Y-116467108D01*
X148980069Y-116507186D01*
X147857275Y-117629981D01*
X147795952Y-117663466D01*
X147769594Y-117666300D01*
X135796006Y-117666300D01*
X135728967Y-117646615D01*
X135708325Y-117629981D01*
X133706819Y-115628475D01*
X133673334Y-115567152D01*
X133670500Y-115540794D01*
X133670500Y-115181052D01*
X133690185Y-115114013D01*
X133742989Y-115068258D01*
X133812147Y-115058314D01*
X133875703Y-115087339D01*
X133882181Y-115093371D01*
X133909150Y-115120340D01*
X134055984Y-115210908D01*
X134219747Y-115265174D01*
X134320823Y-115275500D01*
X134383563Y-115275499D01*
X134407754Y-115277881D01*
X134473596Y-115290979D01*
X134521458Y-115300500D01*
X134521459Y-115300500D01*
X134718543Y-115300500D01*
X134832247Y-115277882D01*
X134856439Y-115275499D01*
X134919170Y-115275499D01*
X134919176Y-115275499D01*
X135020253Y-115265174D01*
X135184016Y-115210908D01*
X135330850Y-115120340D01*
X135452840Y-114998350D01*
X135543408Y-114851516D01*
X135597674Y-114687753D01*
X135608000Y-114586677D01*
X135607999Y-114473596D01*
X135610382Y-114449402D01*
X135620500Y-114398541D01*
X135620500Y-111688697D01*
X135621022Y-111686916D01*
X135620552Y-111685123D01*
X135630827Y-111653524D01*
X135640185Y-111621658D01*
X135641768Y-111619883D01*
X135642160Y-111618678D01*
X135647962Y-111612939D01*
X135666032Y-111592682D01*
X135670638Y-111588917D01*
X135729552Y-111549552D01*
X135742478Y-111530206D01*
X135756821Y-111518485D01*
X135772631Y-111511808D01*
X135785799Y-111500804D01*
X135811227Y-111495509D01*
X135821187Y-111491304D01*
X135826775Y-111492272D01*
X135835289Y-111490500D01*
X135880500Y-111490500D01*
X135947539Y-111510185D01*
G37*
%TD.AperFunction*%
%TA.AperFunction,Conductor*%
G36*
X106151027Y-56739185D02*
G01*
X106196782Y-56791989D01*
X106206726Y-56861147D01*
X106194472Y-56899796D01*
X106183056Y-56922200D01*
X106127583Y-57092930D01*
X106127583Y-57092932D01*
X106099500Y-57270241D01*
X106099500Y-57449759D01*
X106101043Y-57459502D01*
X106127583Y-57627069D01*
X106183055Y-57797797D01*
X106264559Y-57957755D01*
X106370069Y-58102980D01*
X106497019Y-58229930D01*
X106632916Y-58328663D01*
X106642248Y-58335443D01*
X106802200Y-58416943D01*
X106836080Y-58427951D01*
X106893756Y-58467388D01*
X106920956Y-58531746D01*
X106909042Y-58600593D01*
X106861799Y-58652069D01*
X106836083Y-58663814D01*
X106740777Y-58694781D01*
X106558386Y-58787715D01*
X106392786Y-58908028D01*
X106248028Y-59052786D01*
X106127715Y-59218386D01*
X106034781Y-59400776D01*
X105971522Y-59595465D01*
X105939500Y-59797648D01*
X105939500Y-60002351D01*
X105971522Y-60204534D01*
X106034781Y-60399223D01*
X106127715Y-60581613D01*
X106248028Y-60747213D01*
X106392786Y-60891971D01*
X106547749Y-61004556D01*
X106558390Y-61012287D01*
X106649840Y-61058883D01*
X106651080Y-61059515D01*
X106701876Y-61107490D01*
X106718671Y-61175311D01*
X106696134Y-61241446D01*
X106651080Y-61280485D01*
X106558386Y-61327715D01*
X106392786Y-61448028D01*
X106248028Y-61592786D01*
X106127715Y-61758386D01*
X106034781Y-61940776D01*
X105971522Y-62135465D01*
X105939500Y-62337648D01*
X105939500Y-62542351D01*
X105971522Y-62744534D01*
X106034781Y-62939223D01*
X106098691Y-63064653D01*
X106118616Y-63103757D01*
X106127715Y-63121613D01*
X106248028Y-63287213D01*
X106392786Y-63431971D01*
X106547749Y-63544556D01*
X106558390Y-63552287D01*
X106649840Y-63598883D01*
X106651080Y-63599515D01*
X106701876Y-63647490D01*
X106718671Y-63715311D01*
X106696134Y-63781446D01*
X106651080Y-63820485D01*
X106558386Y-63867715D01*
X106392786Y-63988028D01*
X106248028Y-64132786D01*
X106127715Y-64298386D01*
X106034781Y-64480776D01*
X105971522Y-64675465D01*
X105939500Y-64877648D01*
X105939500Y-65082351D01*
X105971522Y-65284534D01*
X106034781Y-65479223D01*
X106127715Y-65661613D01*
X106248028Y-65827213D01*
X106392786Y-65971971D01*
X106547749Y-66084556D01*
X106558390Y-66092287D01*
X106649166Y-66138540D01*
X106651080Y-66139515D01*
X106701876Y-66187490D01*
X106718671Y-66255311D01*
X106696134Y-66321446D01*
X106651080Y-66360485D01*
X106558386Y-66407715D01*
X106392786Y-66528028D01*
X106248028Y-66672786D01*
X106127715Y-66838386D01*
X106034781Y-67020776D01*
X105971522Y-67215465D01*
X105939500Y-67417648D01*
X105939500Y-67622351D01*
X105971522Y-67824534D01*
X106034781Y-68019223D01*
X106081651Y-68111208D01*
X106122942Y-68192247D01*
X106127715Y-68201613D01*
X106248028Y-68367213D01*
X106392786Y-68511971D01*
X106547749Y-68624556D01*
X106558390Y-68632287D01*
X106649840Y-68678883D01*
X106651080Y-68679515D01*
X106701876Y-68727490D01*
X106718671Y-68795311D01*
X106696134Y-68861446D01*
X106651080Y-68900485D01*
X106558386Y-68947715D01*
X106392786Y-69068028D01*
X106248028Y-69212786D01*
X106127715Y-69378386D01*
X106034781Y-69560776D01*
X105971522Y-69755465D01*
X105939500Y-69957648D01*
X105939500Y-70162351D01*
X105971522Y-70364534D01*
X106034781Y-70559223D01*
X106127715Y-70741613D01*
X106248028Y-70907213D01*
X106392786Y-71051971D01*
X106547749Y-71164556D01*
X106558390Y-71172287D01*
X106649840Y-71218883D01*
X106651080Y-71219515D01*
X106701876Y-71267490D01*
X106718671Y-71335311D01*
X106696134Y-71401446D01*
X106651080Y-71440485D01*
X106558386Y-71487715D01*
X106392786Y-71608028D01*
X106248028Y-71752786D01*
X106127715Y-71918386D01*
X106034781Y-72100776D01*
X105971522Y-72295465D01*
X105939500Y-72497648D01*
X105939500Y-72702351D01*
X105971522Y-72904534D01*
X106034781Y-73099223D01*
X106127715Y-73281613D01*
X106248028Y-73447213D01*
X106392786Y-73591971D01*
X106547749Y-73704556D01*
X106558390Y-73712287D01*
X106649840Y-73758883D01*
X106651080Y-73759515D01*
X106701876Y-73807490D01*
X106718671Y-73875311D01*
X106696134Y-73941446D01*
X106651080Y-73980485D01*
X106558386Y-74027715D01*
X106392786Y-74148028D01*
X106248028Y-74292786D01*
X106127715Y-74458386D01*
X106034781Y-74640776D01*
X105971522Y-74835465D01*
X105939500Y-75037648D01*
X105939500Y-75242351D01*
X105971522Y-75444534D01*
X106034781Y-75639223D01*
X106127715Y-75821613D01*
X106248028Y-75987213D01*
X106392786Y-76131971D01*
X106547749Y-76244556D01*
X106558390Y-76252287D01*
X106629833Y-76288689D01*
X106651080Y-76299515D01*
X106701876Y-76347490D01*
X106718671Y-76415311D01*
X106696134Y-76481446D01*
X106651080Y-76520485D01*
X106558386Y-76567715D01*
X106392786Y-76688028D01*
X106248028Y-76832786D01*
X106127715Y-76998386D01*
X106034781Y-77180776D01*
X105971522Y-77375465D01*
X105939500Y-77577648D01*
X105939500Y-77782351D01*
X105971522Y-77984534D01*
X106034781Y-78179223D01*
X106127715Y-78361613D01*
X106248028Y-78527213D01*
X106392786Y-78671971D01*
X106547749Y-78784556D01*
X106558390Y-78792287D01*
X106649840Y-78838883D01*
X106651080Y-78839515D01*
X106701876Y-78887490D01*
X106718671Y-78955311D01*
X106696134Y-79021446D01*
X106651080Y-79060485D01*
X106558386Y-79107715D01*
X106392786Y-79228028D01*
X106248028Y-79372786D01*
X106127715Y-79538386D01*
X106034781Y-79720776D01*
X105971522Y-79915465D01*
X105939500Y-80117648D01*
X105939500Y-80322351D01*
X105971522Y-80524534D01*
X106034781Y-80719223D01*
X106096190Y-80839742D01*
X106105405Y-80857829D01*
X106127715Y-80901613D01*
X106248028Y-81067213D01*
X106392786Y-81211971D01*
X106528342Y-81310456D01*
X106558390Y-81332287D01*
X106633546Y-81370581D01*
X106651080Y-81379515D01*
X106701876Y-81427490D01*
X106718671Y-81495311D01*
X106696134Y-81561446D01*
X106651080Y-81600485D01*
X106558386Y-81647715D01*
X106392786Y-81768028D01*
X106248028Y-81912786D01*
X106127715Y-82078386D01*
X106034781Y-82260776D01*
X105971522Y-82455465D01*
X105939500Y-82657648D01*
X105939500Y-82862351D01*
X105971522Y-83064534D01*
X106034781Y-83259223D01*
X106127715Y-83441613D01*
X106248028Y-83607213D01*
X106392786Y-83751971D01*
X106547749Y-83864556D01*
X106558390Y-83872287D01*
X106649840Y-83918883D01*
X106651080Y-83919515D01*
X106701876Y-83967490D01*
X106718671Y-84035311D01*
X106696134Y-84101446D01*
X106651080Y-84140485D01*
X106558386Y-84187715D01*
X106392786Y-84308028D01*
X106392782Y-84308032D01*
X106312634Y-84388181D01*
X106251311Y-84421666D01*
X106224953Y-84424500D01*
X101100568Y-84424500D01*
X100931433Y-84458143D01*
X100931421Y-84458146D01*
X100772101Y-84524138D01*
X100772088Y-84524145D01*
X100628701Y-84619954D01*
X100628697Y-84619957D01*
X98683966Y-86564690D01*
X98070101Y-87178555D01*
X97181101Y-88067555D01*
X97142459Y-88106197D01*
X97059153Y-88189502D01*
X96963345Y-88332888D01*
X96963338Y-88332901D01*
X96897346Y-88492221D01*
X96897343Y-88492233D01*
X96863700Y-88661366D01*
X96863700Y-94378793D01*
X96844015Y-94445832D01*
X96827381Y-94466474D01*
X95103357Y-96190497D01*
X95103354Y-96190501D01*
X95007545Y-96333888D01*
X95007538Y-96333901D01*
X94941546Y-96493221D01*
X94941543Y-96493233D01*
X94907900Y-96662366D01*
X94907900Y-96834833D01*
X94941543Y-97003966D01*
X94941546Y-97003978D01*
X95007538Y-97163298D01*
X95007545Y-97163311D01*
X95103354Y-97306698D01*
X95103357Y-97306702D01*
X95225297Y-97428642D01*
X95225301Y-97428645D01*
X95368688Y-97524454D01*
X95368701Y-97524461D01*
X95518929Y-97586687D01*
X95528026Y-97590455D01*
X95691425Y-97622957D01*
X95697166Y-97624099D01*
X95697169Y-97624100D01*
X95697171Y-97624100D01*
X95869631Y-97624100D01*
X95869632Y-97624099D01*
X96038774Y-97590455D01*
X96198105Y-97524458D01*
X96341499Y-97428645D01*
X98419245Y-95350899D01*
X98515058Y-95207505D01*
X98581055Y-95048174D01*
X98614700Y-94879029D01*
X98614700Y-94706571D01*
X98614700Y-90896571D01*
X98614700Y-89161606D01*
X98634385Y-89094567D01*
X98651019Y-89073925D01*
X101513125Y-86211819D01*
X101574448Y-86178334D01*
X101600806Y-86175500D01*
X106224953Y-86175500D01*
X106291992Y-86195185D01*
X106312634Y-86211819D01*
X106392786Y-86291971D01*
X106547749Y-86404556D01*
X106558390Y-86412287D01*
X106630424Y-86448990D01*
X106651629Y-86459795D01*
X106702425Y-86507770D01*
X106719220Y-86575591D01*
X106696682Y-86641726D01*
X106651629Y-86680765D01*
X106558650Y-86728140D01*
X106393105Y-86848417D01*
X106393104Y-86848417D01*
X106248417Y-86993104D01*
X106248417Y-86993105D01*
X106128140Y-87158650D01*
X106035244Y-87340970D01*
X105972009Y-87535586D01*
X105963391Y-87590000D01*
X106806988Y-87590000D01*
X106774075Y-87647007D01*
X106740000Y-87774174D01*
X106740000Y-87905826D01*
X106774075Y-88032993D01*
X106806988Y-88090000D01*
X105963391Y-88090000D01*
X105972009Y-88144413D01*
X106035244Y-88339029D01*
X106128140Y-88521349D01*
X106248417Y-88686894D01*
X106248417Y-88686895D01*
X106393104Y-88831582D01*
X106558652Y-88951861D01*
X106651628Y-88999234D01*
X106702425Y-89047208D01*
X106719220Y-89115029D01*
X106696683Y-89181164D01*
X106651630Y-89220203D01*
X106558388Y-89267713D01*
X106392786Y-89388028D01*
X106248028Y-89532786D01*
X106127715Y-89698386D01*
X106034781Y-89880776D01*
X105971522Y-90075465D01*
X105939500Y-90277648D01*
X105939500Y-90482351D01*
X105971522Y-90684534D01*
X106034781Y-90879223D01*
X106079725Y-90967429D01*
X106108372Y-91023652D01*
X106127715Y-91061613D01*
X106248028Y-91227213D01*
X106392786Y-91371971D01*
X106547749Y-91484556D01*
X106558390Y-91492287D01*
X106649840Y-91538883D01*
X106651080Y-91539515D01*
X106701876Y-91587490D01*
X106718671Y-91655311D01*
X106696134Y-91721446D01*
X106651080Y-91760485D01*
X106558386Y-91807715D01*
X106392786Y-91928028D01*
X106248028Y-92072786D01*
X106127715Y-92238386D01*
X106034781Y-92420776D01*
X105971522Y-92615465D01*
X105953856Y-92727007D01*
X105939500Y-92817648D01*
X105939500Y-93022352D01*
X105943878Y-93049995D01*
X105971522Y-93224534D01*
X106034781Y-93419223D01*
X106074646Y-93497461D01*
X106108804Y-93564500D01*
X106127715Y-93601613D01*
X106248028Y-93767213D01*
X106392784Y-93911969D01*
X106429068Y-93938330D01*
X106471735Y-93993659D01*
X106477715Y-94063273D01*
X106445109Y-94125068D01*
X106384271Y-94159426D01*
X106369440Y-94161938D01*
X106332519Y-94165907D01*
X106197671Y-94216202D01*
X106197664Y-94216206D01*
X106082455Y-94302452D01*
X106082452Y-94302455D01*
X105996206Y-94417664D01*
X105996202Y-94417671D01*
X105945908Y-94552517D01*
X105941123Y-94597028D01*
X105939501Y-94612123D01*
X105939500Y-94612135D01*
X105939500Y-96307870D01*
X105939501Y-96307876D01*
X105945908Y-96367483D01*
X105996202Y-96502328D01*
X105996206Y-96502335D01*
X106082452Y-96617544D01*
X106082455Y-96617547D01*
X106197664Y-96703793D01*
X106197671Y-96703797D01*
X106332517Y-96754091D01*
X106332516Y-96754091D01*
X106339444Y-96754835D01*
X106392127Y-96760500D01*
X106643993Y-96760499D01*
X106711030Y-96780183D01*
X106756785Y-96832987D01*
X106766729Y-96902146D01*
X106737704Y-96965701D01*
X106700288Y-96994983D01*
X106642244Y-97024558D01*
X106497019Y-97130069D01*
X106370069Y-97257019D01*
X106264559Y-97402244D01*
X106183055Y-97562202D01*
X106127583Y-97732930D01*
X106099500Y-97910241D01*
X106099500Y-98089758D01*
X106127583Y-98267069D01*
X106183055Y-98437797D01*
X106264559Y-98597755D01*
X106370069Y-98742980D01*
X106497019Y-98869930D01*
X106632916Y-98968663D01*
X106642248Y-98975443D01*
X106802200Y-99056943D01*
X106802202Y-99056944D01*
X106887566Y-99084680D01*
X106972932Y-99112417D01*
X107150241Y-99140500D01*
X107150242Y-99140500D01*
X107329758Y-99140500D01*
X107329759Y-99140500D01*
X107507068Y-99112417D01*
X107677800Y-99056943D01*
X107837752Y-98975443D01*
X107939587Y-98901456D01*
X107982980Y-98869930D01*
X107982982Y-98869927D01*
X107982986Y-98869925D01*
X108109925Y-98742986D01*
X108109927Y-98742982D01*
X108109930Y-98742980D01*
X108167810Y-98663313D01*
X108215443Y-98597752D01*
X108296943Y-98437800D01*
X108352417Y-98267068D01*
X108380500Y-98089759D01*
X108380500Y-97910241D01*
X108352417Y-97732932D01*
X108318760Y-97629346D01*
X108296944Y-97562202D01*
X108264399Y-97498330D01*
X108215443Y-97402248D01*
X108184359Y-97359464D01*
X108109930Y-97257019D01*
X107982980Y-97130069D01*
X107837755Y-97024559D01*
X107837754Y-97024558D01*
X107837752Y-97024557D01*
X107779712Y-96994984D01*
X107728916Y-96947009D01*
X107712121Y-96879188D01*
X107734659Y-96813053D01*
X107789374Y-96769602D01*
X107836006Y-96760499D01*
X108087872Y-96760499D01*
X108147483Y-96754091D01*
X108282331Y-96703796D01*
X108397546Y-96617546D01*
X108483796Y-96502331D01*
X108534091Y-96367483D01*
X108540500Y-96307873D01*
X108540499Y-94612128D01*
X108534091Y-94552517D01*
X108533058Y-94549748D01*
X108483797Y-94417671D01*
X108483793Y-94417664D01*
X108397547Y-94302455D01*
X108397544Y-94302452D01*
X108282335Y-94216206D01*
X108282328Y-94216202D01*
X108147482Y-94165908D01*
X108147483Y-94165908D01*
X108110560Y-94161939D01*
X108046009Y-94135201D01*
X108006160Y-94077809D01*
X108003667Y-94007984D01*
X108039319Y-93947895D01*
X108050930Y-93938331D01*
X108087219Y-93911966D01*
X108231966Y-93767219D01*
X108231968Y-93767215D01*
X108231971Y-93767213D01*
X108300502Y-93672886D01*
X108352287Y-93601610D01*
X108445220Y-93419219D01*
X108508477Y-93224534D01*
X108540500Y-93022352D01*
X108540500Y-92817648D01*
X108526144Y-92727007D01*
X108508477Y-92615465D01*
X108445218Y-92420776D01*
X108376340Y-92285597D01*
X108352287Y-92238390D01*
X108325594Y-92201650D01*
X108231971Y-92072786D01*
X108087213Y-91928028D01*
X107921614Y-91807715D01*
X107881932Y-91787496D01*
X107828917Y-91760483D01*
X107778123Y-91712511D01*
X107761328Y-91644690D01*
X107783865Y-91578555D01*
X107828917Y-91539516D01*
X107921610Y-91492287D01*
X107942770Y-91476913D01*
X108087213Y-91371971D01*
X108087215Y-91371968D01*
X108087219Y-91371966D01*
X108231966Y-91227219D01*
X108231968Y-91227215D01*
X108231971Y-91227213D01*
X108335311Y-91084975D01*
X108352287Y-91061610D01*
X108445220Y-90879219D01*
X108508477Y-90684534D01*
X108540500Y-90482352D01*
X108540500Y-90277648D01*
X108533404Y-90232849D01*
X108508477Y-90075465D01*
X108445218Y-89880776D01*
X108402888Y-89797700D01*
X108352287Y-89698390D01*
X108330281Y-89668101D01*
X108231971Y-89532786D01*
X108087213Y-89388028D01*
X107921611Y-89267713D01*
X107828369Y-89220203D01*
X107777574Y-89172229D01*
X107760779Y-89104407D01*
X107783317Y-89038273D01*
X107828371Y-88999234D01*
X107921347Y-88951861D01*
X108086894Y-88831582D01*
X108086895Y-88831582D01*
X108231582Y-88686895D01*
X108231582Y-88686894D01*
X108351859Y-88521349D01*
X108444755Y-88339029D01*
X108507990Y-88144413D01*
X108516609Y-88090000D01*
X107673012Y-88090000D01*
X107705925Y-88032993D01*
X107740000Y-87905826D01*
X107740000Y-87774174D01*
X107705925Y-87647007D01*
X107673012Y-87590000D01*
X108516609Y-87590000D01*
X108507990Y-87535586D01*
X108444755Y-87340970D01*
X108351859Y-87158650D01*
X108231582Y-86993105D01*
X108231582Y-86993104D01*
X108086895Y-86848417D01*
X107921349Y-86728140D01*
X107828370Y-86680765D01*
X107777574Y-86632790D01*
X107760779Y-86564969D01*
X107783316Y-86498835D01*
X107828370Y-86459795D01*
X107828920Y-86459515D01*
X107921610Y-86412287D01*
X107942770Y-86396913D01*
X108087213Y-86291971D01*
X108087215Y-86291968D01*
X108087219Y-86291966D01*
X108231966Y-86147219D01*
X108231968Y-86147215D01*
X108231971Y-86147213D01*
X108287707Y-86070498D01*
X108352287Y-85981610D01*
X108445220Y-85799219D01*
X108508477Y-85604534D01*
X108540500Y-85402352D01*
X108540500Y-85197648D01*
X108524362Y-85095756D01*
X108508477Y-84995465D01*
X108445218Y-84800776D01*
X108384119Y-84680864D01*
X108352287Y-84618390D01*
X108283815Y-84524145D01*
X108231971Y-84452786D01*
X108087213Y-84308028D01*
X107921614Y-84187715D01*
X107915006Y-84184348D01*
X107828917Y-84140483D01*
X107778123Y-84092511D01*
X107761328Y-84024690D01*
X107783865Y-83958555D01*
X107828917Y-83919516D01*
X107921610Y-83872287D01*
X108020617Y-83800355D01*
X108087213Y-83751971D01*
X108087215Y-83751968D01*
X108087219Y-83751966D01*
X108231966Y-83607219D01*
X108231968Y-83607215D01*
X108231971Y-83607213D01*
X108284732Y-83534590D01*
X108352287Y-83441610D01*
X108445220Y-83259219D01*
X108508477Y-83064534D01*
X108540500Y-82862352D01*
X108540500Y-82657648D01*
X108508477Y-82455466D01*
X108445220Y-82260781D01*
X108445218Y-82260778D01*
X108445218Y-82260776D01*
X108390341Y-82153075D01*
X108352287Y-82078390D01*
X108311287Y-82021958D01*
X108231971Y-81912786D01*
X108087213Y-81768028D01*
X107921614Y-81647715D01*
X107897022Y-81635185D01*
X107828917Y-81600483D01*
X107778123Y-81552511D01*
X107761328Y-81484690D01*
X107783865Y-81418555D01*
X107828917Y-81379516D01*
X107921610Y-81332287D01*
X108029704Y-81253753D01*
X108087213Y-81211971D01*
X108087215Y-81211968D01*
X108087219Y-81211966D01*
X108231966Y-81067219D01*
X108231968Y-81067215D01*
X108231971Y-81067213D01*
X108288026Y-80990059D01*
X108352287Y-80901610D01*
X108445220Y-80719219D01*
X108508477Y-80524534D01*
X108540500Y-80322352D01*
X108540500Y-80117648D01*
X108508477Y-79915466D01*
X108445220Y-79720781D01*
X108445218Y-79720778D01*
X108445218Y-79720776D01*
X108394914Y-79622050D01*
X108352287Y-79538390D01*
X108323164Y-79498305D01*
X108231971Y-79372786D01*
X108087213Y-79228028D01*
X107921614Y-79107715D01*
X107915006Y-79104348D01*
X107828917Y-79060483D01*
X107778123Y-79012511D01*
X107761328Y-78944690D01*
X107783865Y-78878555D01*
X107828917Y-78839516D01*
X107921610Y-78792287D01*
X107976495Y-78752411D01*
X108087213Y-78671971D01*
X108087215Y-78671968D01*
X108087219Y-78671966D01*
X108231966Y-78527219D01*
X108231968Y-78527215D01*
X108231971Y-78527213D01*
X108284732Y-78454590D01*
X108352287Y-78361610D01*
X108445220Y-78179219D01*
X108508477Y-77984534D01*
X108540500Y-77782352D01*
X108540500Y-77577648D01*
X108508477Y-77375466D01*
X108445220Y-77180781D01*
X108445218Y-77180778D01*
X108445218Y-77180776D01*
X108397250Y-77086635D01*
X108352287Y-76998390D01*
X108307787Y-76937140D01*
X108231971Y-76832786D01*
X108087213Y-76688028D01*
X107921614Y-76567715D01*
X107915006Y-76564348D01*
X107828917Y-76520483D01*
X107778123Y-76472511D01*
X107761328Y-76404690D01*
X107783865Y-76338555D01*
X107828917Y-76299516D01*
X107921610Y-76252287D01*
X108042877Y-76164181D01*
X108108683Y-76140702D01*
X108115762Y-76140500D01*
X110062360Y-76140500D01*
X110129399Y-76160185D01*
X110175154Y-76212989D01*
X110185098Y-76282147D01*
X110183977Y-76288691D01*
X110173300Y-76342366D01*
X110173300Y-91497533D01*
X110206943Y-91666666D01*
X110206946Y-91666678D01*
X110272938Y-91825998D01*
X110272945Y-91826011D01*
X110368754Y-91969398D01*
X110368757Y-91969402D01*
X118401650Y-100002294D01*
X118435135Y-100063617D01*
X118437327Y-100077373D01*
X118447066Y-100172710D01*
X118447326Y-100175253D01*
X118498769Y-100330498D01*
X118501592Y-100339015D01*
X118501593Y-100339018D01*
X118592161Y-100485851D01*
X118706129Y-100599819D01*
X118739614Y-100661142D01*
X118734630Y-100730834D01*
X118706129Y-100775181D01*
X118592161Y-100889148D01*
X118501593Y-101035981D01*
X118501591Y-101035986D01*
X118489671Y-101071958D01*
X118447326Y-101199747D01*
X118447326Y-101199748D01*
X118447325Y-101199748D01*
X118437000Y-101300815D01*
X118437000Y-101899169D01*
X118437001Y-101899187D01*
X118447325Y-102000252D01*
X118501592Y-102164015D01*
X118501593Y-102164018D01*
X118535895Y-102219629D01*
X118592160Y-102310850D01*
X118714150Y-102432840D01*
X118860984Y-102523408D01*
X119024747Y-102577674D01*
X119125823Y-102588000D01*
X119699176Y-102587999D01*
X119699184Y-102587998D01*
X119699187Y-102587998D01*
X119754530Y-102582344D01*
X119800253Y-102577674D01*
X119964016Y-102523408D01*
X119980089Y-102513493D01*
X120011758Y-102493961D01*
X120076854Y-102475500D01*
X121325546Y-102475500D01*
X121392585Y-102495185D01*
X121428647Y-102530608D01*
X121451184Y-102564337D01*
X121464504Y-102584272D01*
X121586445Y-102706213D01*
X121586449Y-102706216D01*
X121729836Y-102802025D01*
X121729849Y-102802032D01*
X121884770Y-102866202D01*
X121889174Y-102868026D01*
X122056670Y-102901343D01*
X122058314Y-102901670D01*
X122058317Y-102901671D01*
X122058319Y-102901671D01*
X122230779Y-102901671D01*
X122230780Y-102901670D01*
X122399922Y-102868026D01*
X122541214Y-102809501D01*
X122559246Y-102802032D01*
X122559246Y-102802031D01*
X122559253Y-102802029D01*
X122702647Y-102706216D01*
X122824593Y-102584270D01*
X122920406Y-102440876D01*
X122923736Y-102432838D01*
X122972477Y-102315165D01*
X122986403Y-102281545D01*
X123020048Y-102112400D01*
X123020048Y-101789119D01*
X123020048Y-101789116D01*
X123020047Y-101789114D01*
X123001786Y-101697309D01*
X122986403Y-101619974D01*
X122938455Y-101504217D01*
X122920409Y-101460649D01*
X122920402Y-101460636D01*
X122824594Y-101317250D01*
X122763776Y-101256432D01*
X122702647Y-101195303D01*
X122579297Y-101071953D01*
X122427302Y-100919957D01*
X122427298Y-100919954D01*
X122283911Y-100824145D01*
X122283898Y-100824138D01*
X122124578Y-100758146D01*
X122124566Y-100758143D01*
X121955432Y-100724500D01*
X121955429Y-100724500D01*
X120293552Y-100724500D01*
X120226513Y-100704815D01*
X120180758Y-100652011D01*
X120170814Y-100582853D01*
X120199839Y-100519297D01*
X120205871Y-100512819D01*
X120232840Y-100485850D01*
X120323408Y-100339016D01*
X120377674Y-100175253D01*
X120388000Y-100074177D01*
X120387999Y-99475824D01*
X120377674Y-99374747D01*
X120323408Y-99210984D01*
X120232840Y-99064150D01*
X120110850Y-98942160D01*
X119964016Y-98851592D01*
X119800253Y-98797326D01*
X119800251Y-98797325D01*
X119702371Y-98787326D01*
X119637680Y-98760930D01*
X119627293Y-98751649D01*
X111960619Y-91084975D01*
X111927134Y-91023652D01*
X111924300Y-90997294D01*
X111924300Y-76629334D01*
X111926683Y-76605142D01*
X111949700Y-76489431D01*
X111949700Y-76316970D01*
X111944075Y-76288689D01*
X111950304Y-76219098D01*
X111993168Y-76163921D01*
X112059058Y-76140678D01*
X112065693Y-76140500D01*
X112469418Y-76140500D01*
X112536457Y-76160185D01*
X112557099Y-76176819D01*
X114837981Y-78457701D01*
X114871466Y-78519024D01*
X114874300Y-78545382D01*
X114874300Y-86763344D01*
X114912747Y-86956633D01*
X114912749Y-86956637D01*
X114922426Y-86980000D01*
X114934838Y-87009965D01*
X114953692Y-87055483D01*
X114988166Y-87138711D01*
X114988171Y-87138720D01*
X115097659Y-87302580D01*
X115097660Y-87302581D01*
X115097661Y-87302582D01*
X115237018Y-87441939D01*
X115237019Y-87441939D01*
X115244086Y-87449006D01*
X115244085Y-87449006D01*
X115244089Y-87449009D01*
X117463181Y-89668101D01*
X117496666Y-89729424D01*
X117499500Y-89755782D01*
X117499500Y-93098541D01*
X117502375Y-93112993D01*
X117509618Y-93149409D01*
X117512000Y-93173598D01*
X117512000Y-93286668D01*
X117512001Y-93286687D01*
X117522325Y-93387752D01*
X117543518Y-93451706D01*
X117567805Y-93525000D01*
X117576592Y-93551515D01*
X117576593Y-93551518D01*
X117607329Y-93601349D01*
X117667160Y-93698350D01*
X117789150Y-93820340D01*
X117935984Y-93910908D01*
X118099747Y-93965174D01*
X118200823Y-93975500D01*
X118263563Y-93975499D01*
X118287754Y-93977881D01*
X118339862Y-93988247D01*
X118401458Y-94000500D01*
X118401459Y-94000500D01*
X118598543Y-94000500D01*
X118712247Y-93977882D01*
X118736439Y-93975499D01*
X118799170Y-93975499D01*
X118799176Y-93975499D01*
X118900253Y-93965174D01*
X119064016Y-93910908D01*
X119210850Y-93820340D01*
X119324819Y-93706371D01*
X119386142Y-93672886D01*
X119455834Y-93677870D01*
X119500181Y-93706371D01*
X119614150Y-93820340D01*
X119760984Y-93910908D01*
X119924747Y-93965174D01*
X120025823Y-93975500D01*
X120088563Y-93975499D01*
X120112754Y-93977881D01*
X120164862Y-93988247D01*
X120226458Y-94000500D01*
X120226459Y-94000500D01*
X123621717Y-94000500D01*
X123688756Y-94020185D01*
X123709393Y-94036814D01*
X123753120Y-94080541D01*
X123794719Y-94122140D01*
X123903806Y-94195029D01*
X123958586Y-94231632D01*
X124001722Y-94249499D01*
X124001723Y-94249500D01*
X124001724Y-94249500D01*
X124140664Y-94307051D01*
X124333954Y-94345499D01*
X124333957Y-94345500D01*
X124333959Y-94345500D01*
X131226293Y-94345500D01*
X131356332Y-94319632D01*
X131419585Y-94307051D01*
X131601664Y-94231632D01*
X131667545Y-94187610D01*
X131699545Y-94172329D01*
X131724688Y-94164495D01*
X131867669Y-94078060D01*
X131978126Y-93967602D01*
X132039445Y-93934120D01*
X132109137Y-93939104D01*
X132165071Y-93980975D01*
X132170111Y-93988234D01*
X132210469Y-94051032D01*
X132210470Y-94051033D01*
X132210471Y-94051034D01*
X132298380Y-94127208D01*
X132319206Y-94145254D01*
X132319210Y-94145256D01*
X132319212Y-94145257D01*
X132448240Y-94204182D01*
X132501044Y-94249936D01*
X132515706Y-94282040D01*
X132523050Y-94307050D01*
X132555531Y-94417671D01*
X132557682Y-94424994D01*
X132635467Y-94546030D01*
X132635471Y-94546034D01*
X132744200Y-94640249D01*
X132744206Y-94640254D01*
X132767349Y-94650823D01*
X132875080Y-94700023D01*
X132875083Y-94700023D01*
X132875084Y-94700024D01*
X133017500Y-94720500D01*
X133017503Y-94720500D01*
X133922500Y-94720500D01*
X133994440Y-94715355D01*
X134132492Y-94674819D01*
X134253532Y-94597031D01*
X134347754Y-94488294D01*
X134394477Y-94385986D01*
X134407523Y-94357419D01*
X134407523Y-94357417D01*
X134407524Y-94357416D01*
X134411199Y-94331855D01*
X134440223Y-94268299D01*
X134499000Y-94230523D01*
X134533937Y-94225500D01*
X137122500Y-94225500D01*
X137194440Y-94220355D01*
X137332492Y-94179819D01*
X137453532Y-94102031D01*
X137547754Y-93993294D01*
X137607524Y-93862416D01*
X137628000Y-93720000D01*
X137628000Y-92970000D01*
X137622855Y-92898060D01*
X137582319Y-92760008D01*
X137563086Y-92730081D01*
X137504532Y-92638969D01*
X137504528Y-92638965D01*
X137395799Y-92544750D01*
X137395797Y-92544748D01*
X137395794Y-92544746D01*
X137395790Y-92544744D01*
X137264919Y-92484976D01*
X137264915Y-92484975D01*
X137259352Y-92484176D01*
X137195797Y-92455151D01*
X137158023Y-92396372D01*
X137153000Y-92361438D01*
X137153000Y-91787496D01*
X137172685Y-91720457D01*
X137189319Y-91699815D01*
X143032316Y-85856819D01*
X143093639Y-85823334D01*
X143119997Y-85820500D01*
X145807770Y-85820500D01*
X145874809Y-85840185D01*
X145895451Y-85856819D01*
X145951344Y-85912712D01*
X146100666Y-86004814D01*
X146267203Y-86059999D01*
X146369991Y-86070500D01*
X148270008Y-86070499D01*
X148372797Y-86059999D01*
X148539334Y-86004814D01*
X148688656Y-85912712D01*
X148744549Y-85856819D01*
X148805872Y-85823334D01*
X148832230Y-85820500D01*
X150250004Y-85820500D01*
X150317043Y-85840185D01*
X150337685Y-85856819D01*
X151995194Y-87514329D01*
X151995201Y-87514335D01*
X152203239Y-87673967D01*
X152203243Y-87673969D01*
X152203249Y-87673974D01*
X152430354Y-87805094D01*
X152672632Y-87905449D01*
X152815180Y-87943645D01*
X152874838Y-87980008D01*
X152905367Y-88042855D01*
X152897072Y-88112230D01*
X152870765Y-88151099D01*
X151618685Y-89403181D01*
X151557362Y-89436666D01*
X151531004Y-89439500D01*
X149444500Y-89439500D01*
X149377461Y-89419815D01*
X149331706Y-89367011D01*
X149320500Y-89315500D01*
X149320500Y-89088886D01*
X149320499Y-89088872D01*
X149315051Y-89047490D01*
X149286270Y-88828884D01*
X149218398Y-88575581D01*
X149218394Y-88575571D01*
X149118046Y-88333309D01*
X149118037Y-88333292D01*
X148987112Y-88106520D01*
X148970499Y-88044521D01*
X148970499Y-87669998D01*
X148970498Y-87669981D01*
X148959999Y-87567203D01*
X148959998Y-87567200D01*
X148920832Y-87449006D01*
X148904814Y-87400666D01*
X148812712Y-87251344D01*
X148688656Y-87127288D01*
X148539334Y-87035186D01*
X148372797Y-86980001D01*
X148372795Y-86980000D01*
X148270010Y-86969500D01*
X146369998Y-86969500D01*
X146369981Y-86969501D01*
X146267203Y-86980000D01*
X146267200Y-86980001D01*
X146100668Y-87035185D01*
X146100663Y-87035187D01*
X145951342Y-87127289D01*
X145827289Y-87251342D01*
X145735187Y-87400663D01*
X145735185Y-87400668D01*
X145722185Y-87439901D01*
X145680001Y-87567203D01*
X145680001Y-87567204D01*
X145680000Y-87567204D01*
X145669500Y-87669983D01*
X145669500Y-88044523D01*
X145652887Y-88106522D01*
X145521962Y-88333292D01*
X145521953Y-88333309D01*
X145421605Y-88575571D01*
X145421602Y-88575581D01*
X145357158Y-88816093D01*
X145353730Y-88828885D01*
X145319500Y-89088872D01*
X145319500Y-90560003D01*
X145299815Y-90627042D01*
X145283181Y-90647684D01*
X140442721Y-95488143D01*
X140442717Y-95488148D01*
X140381885Y-95567427D01*
X140381874Y-95567441D01*
X140380941Y-95568658D01*
X140283076Y-95696197D01*
X140267074Y-95723914D01*
X140263795Y-95729592D01*
X140263790Y-95729600D01*
X140151958Y-95923299D01*
X140151954Y-95923309D01*
X140051602Y-96165580D01*
X139983729Y-96418884D01*
X139983728Y-96418889D01*
X139971062Y-96515102D01*
X139971062Y-96515103D01*
X139949500Y-96678872D01*
X139949500Y-103001127D01*
X139968640Y-103146501D01*
X139983730Y-103261116D01*
X140032661Y-103443729D01*
X140051602Y-103514418D01*
X140051605Y-103514428D01*
X140151953Y-103756690D01*
X140151958Y-103756700D01*
X140232887Y-103896873D01*
X140249500Y-103958873D01*
X140249500Y-104284725D01*
X140249501Y-104546500D01*
X140246950Y-104555186D01*
X140248239Y-104564147D01*
X140237261Y-104588183D01*
X140229817Y-104613539D01*
X140222974Y-104619467D01*
X140219214Y-104627703D01*
X140196982Y-104641989D01*
X140177013Y-104659294D01*
X140166497Y-104661581D01*
X140160436Y-104665477D01*
X140125501Y-104670500D01*
X139928997Y-104670500D01*
X139861958Y-104650815D01*
X139841316Y-104634181D01*
X139486819Y-104279684D01*
X139453334Y-104218361D01*
X139450500Y-104192003D01*
X139450500Y-102738886D01*
X139450499Y-102738872D01*
X139429627Y-102580339D01*
X139429627Y-102580338D01*
X139421902Y-102521662D01*
X139416271Y-102478884D01*
X139348398Y-102225581D01*
X139248043Y-101983303D01*
X139229259Y-101950768D01*
X139229259Y-101950767D01*
X139167112Y-101843124D01*
X139150499Y-101781125D01*
X139150499Y-100722129D01*
X139150498Y-100722123D01*
X139146776Y-100687500D01*
X139144091Y-100662517D01*
X139143578Y-100661142D01*
X139093797Y-100527671D01*
X139093793Y-100527664D01*
X139007547Y-100412455D01*
X139007544Y-100412452D01*
X138892335Y-100326206D01*
X138892328Y-100326202D01*
X138757482Y-100275908D01*
X138757483Y-100275908D01*
X138697883Y-100269501D01*
X138697881Y-100269500D01*
X138697873Y-100269500D01*
X138697864Y-100269500D01*
X136202129Y-100269500D01*
X136202123Y-100269501D01*
X136142516Y-100275908D01*
X136007671Y-100326202D01*
X136007664Y-100326206D01*
X135892455Y-100412452D01*
X135892452Y-100412455D01*
X135801605Y-100533811D01*
X135745671Y-100575682D01*
X135702339Y-100583500D01*
X133752272Y-100583500D01*
X133521172Y-100613926D01*
X133492284Y-100617730D01*
X133325140Y-100662516D01*
X133238981Y-100685602D01*
X133238971Y-100685605D01*
X132996709Y-100785953D01*
X132996699Y-100785958D01*
X132769596Y-100917075D01*
X132561548Y-101076718D01*
X132376118Y-101262148D01*
X132216475Y-101470196D01*
X132085358Y-101697299D01*
X132085353Y-101697309D01*
X131985005Y-101939571D01*
X131985002Y-101939581D01*
X131924866Y-102164015D01*
X131917130Y-102192885D01*
X131882900Y-102452872D01*
X131882900Y-102715127D01*
X131908564Y-102910053D01*
X131917130Y-102975116D01*
X131978062Y-103202517D01*
X131985002Y-103228418D01*
X131985005Y-103228428D01*
X132085353Y-103470690D01*
X132085358Y-103470700D01*
X132159143Y-103598499D01*
X132160574Y-103604397D01*
X132164550Y-103608986D01*
X132168715Y-103637955D01*
X132175616Y-103666399D01*
X132173630Y-103672136D01*
X132174494Y-103678144D01*
X132162336Y-103704766D01*
X132152763Y-103732426D01*
X132147991Y-103736178D01*
X132145470Y-103741700D01*
X132120850Y-103757522D01*
X132097842Y-103775617D01*
X132090492Y-103777033D01*
X132086692Y-103779476D01*
X132051763Y-103784497D01*
X132051758Y-103784499D01*
X131981460Y-103784499D01*
X131981451Y-103784499D01*
X131978012Y-103784500D01*
X131978011Y-103784499D01*
X131978011Y-103784500D01*
X131806663Y-103784500D01*
X131806644Y-103784501D01*
X131707292Y-103794650D01*
X131707289Y-103794651D01*
X131546305Y-103847996D01*
X131546294Y-103848001D01*
X131401959Y-103937029D01*
X131401955Y-103937032D01*
X131282031Y-104056956D01*
X131192999Y-104201297D01*
X131192995Y-104201306D01*
X131174595Y-104256832D01*
X131144571Y-104305506D01*
X130962220Y-104487859D01*
X130962218Y-104487861D01*
X130926780Y-104523299D01*
X130822859Y-104627219D01*
X130713371Y-104791080D01*
X130713364Y-104791093D01*
X130675073Y-104883537D01*
X130675073Y-104883540D01*
X130639470Y-104969493D01*
X130639469Y-104969496D01*
X130637949Y-104973164D01*
X130599500Y-105166456D01*
X130599500Y-107367983D01*
X130579815Y-107435022D01*
X130544392Y-107471084D01*
X130500448Y-107500446D01*
X130456132Y-107566769D01*
X130456131Y-107566770D01*
X130444500Y-107625247D01*
X130444500Y-108110209D01*
X130436410Y-108137756D01*
X130431238Y-108166004D01*
X130426689Y-108170863D01*
X130424815Y-108177248D01*
X130403115Y-108196050D01*
X130383493Y-108217016D01*
X130375320Y-108220135D01*
X130372011Y-108223003D01*
X130350851Y-108230437D01*
X130347785Y-108231210D01*
X130213364Y-108257949D01*
X130177231Y-108272916D01*
X130168892Y-108276369D01*
X130168884Y-108276372D01*
X130031292Y-108333364D01*
X130031279Y-108333371D01*
X129867418Y-108442860D01*
X129867414Y-108442863D01*
X129839681Y-108470597D01*
X129778358Y-108504082D01*
X129708666Y-108499098D01*
X129652733Y-108457226D01*
X129628316Y-108391762D01*
X129628000Y-108382916D01*
X129628000Y-108208956D01*
X129605382Y-108095252D01*
X129602999Y-108071060D01*
X129602999Y-108008330D01*
X129602998Y-108008313D01*
X129592674Y-107907247D01*
X129538408Y-107743484D01*
X129447840Y-107596650D01*
X129325850Y-107474660D01*
X129205882Y-107400663D01*
X129179018Y-107384093D01*
X129179013Y-107384091D01*
X129177569Y-107383612D01*
X129015253Y-107329826D01*
X129015251Y-107329825D01*
X128914184Y-107319500D01*
X128914177Y-107319500D01*
X128801094Y-107319500D01*
X128776903Y-107317117D01*
X128752259Y-107312215D01*
X128726042Y-107307000D01*
X128726041Y-107307000D01*
X127204359Y-107307000D01*
X127204357Y-107307000D01*
X127153227Y-107317170D01*
X127153209Y-107317174D01*
X127150160Y-107317781D01*
X127011064Y-107345449D01*
X126973241Y-107361116D01*
X126964857Y-107364588D01*
X126964852Y-107364590D01*
X126828992Y-107420864D01*
X126828979Y-107420871D01*
X126665119Y-107530359D01*
X126628710Y-107566769D01*
X126525761Y-107669718D01*
X126525758Y-107669721D01*
X124537221Y-109658258D01*
X124537218Y-109658261D01*
X124481612Y-109713867D01*
X124397859Y-109797619D01*
X124288371Y-109961480D01*
X124288364Y-109961493D01*
X124240680Y-110076614D01*
X124240677Y-110076622D01*
X124238057Y-110082949D01*
X124212949Y-110143564D01*
X124195827Y-110229640D01*
X124194787Y-110234863D01*
X124194787Y-110234867D01*
X124174500Y-110336857D01*
X124174500Y-110635500D01*
X124154815Y-110702539D01*
X124102011Y-110748294D01*
X124050500Y-110759500D01*
X117456454Y-110759500D01*
X117424391Y-110765876D01*
X117424392Y-110765877D01*
X117263170Y-110797946D01*
X117263164Y-110797948D01*
X117081088Y-110873366D01*
X117081079Y-110873371D01*
X116917219Y-110982859D01*
X116917215Y-110982862D01*
X116461899Y-111438181D01*
X116400576Y-111471666D01*
X116374218Y-111474500D01*
X116044382Y-111474500D01*
X115977343Y-111454815D01*
X115956701Y-111438181D01*
X115283032Y-110764512D01*
X115249547Y-110703189D01*
X115250938Y-110644737D01*
X115251002Y-110644500D01*
X115266271Y-110587516D01*
X115300499Y-110327520D01*
X115300499Y-110065281D01*
X115266271Y-109805285D01*
X115198398Y-109551981D01*
X115115198Y-109351119D01*
X115098048Y-109309714D01*
X115098041Y-109309699D01*
X114966924Y-109082598D01*
X114807284Y-108874550D01*
X114807278Y-108874543D01*
X109835456Y-103902721D01*
X109835449Y-103902715D01*
X109694616Y-103794651D01*
X109694615Y-103794650D01*
X109627403Y-103743075D01*
X109400300Y-103611958D01*
X109400290Y-103611954D01*
X109158019Y-103511602D01*
X108904712Y-103443728D01*
X108774718Y-103426615D01*
X108644727Y-103409500D01*
X108644720Y-103409500D01*
X108214499Y-103409500D01*
X108147460Y-103389815D01*
X108101705Y-103337011D01*
X108090499Y-103285500D01*
X108090499Y-103262129D01*
X108090498Y-103262123D01*
X108090497Y-103262116D01*
X108085299Y-103213757D01*
X108084091Y-103202516D01*
X108033797Y-103067671D01*
X108033793Y-103067664D01*
X107947547Y-102952455D01*
X107947544Y-102952452D01*
X107832335Y-102866206D01*
X107832328Y-102866202D01*
X107697482Y-102815908D01*
X107697483Y-102815908D01*
X107637883Y-102809501D01*
X107637881Y-102809500D01*
X107637873Y-102809500D01*
X107637865Y-102809500D01*
X106356700Y-102809500D01*
X106289661Y-102789815D01*
X106243906Y-102737011D01*
X106234437Y-102706184D01*
X106232700Y-102695916D01*
X106232700Y-102669859D01*
X106203569Y-102523408D01*
X106194251Y-102476564D01*
X106152537Y-102375858D01*
X106118832Y-102294486D01*
X106072791Y-102225580D01*
X106009339Y-102130617D01*
X105866886Y-101988164D01*
X105866855Y-101988135D01*
X105048479Y-101169759D01*
X105048459Y-101169737D01*
X104904785Y-101026063D01*
X104904781Y-101026060D01*
X104740916Y-100916569D01*
X104740911Y-100916566D01*
X104668315Y-100886496D01*
X104612165Y-100863238D01*
X104558836Y-100841149D01*
X104558832Y-100841148D01*
X104558828Y-100841146D01*
X104462188Y-100821924D01*
X104365544Y-100802700D01*
X104365541Y-100802700D01*
X97151940Y-100802700D01*
X96954859Y-100802700D01*
X96954856Y-100802700D01*
X96761571Y-100841147D01*
X96761563Y-100841149D01*
X96693119Y-100869500D01*
X96579483Y-100916569D01*
X96415622Y-101026057D01*
X96415614Y-101026063D01*
X93068499Y-104373181D01*
X93007176Y-104406666D01*
X92980818Y-104409500D01*
X91905783Y-104409500D01*
X91838744Y-104389815D01*
X91818102Y-104373181D01*
X89036819Y-101591898D01*
X89003334Y-101530575D01*
X89000500Y-101504217D01*
X89000500Y-98901456D01*
X88977882Y-98787752D01*
X88975499Y-98763560D01*
X88975499Y-98663330D01*
X88975498Y-98663313D01*
X88965174Y-98562247D01*
X88910908Y-98398484D01*
X88820340Y-98251650D01*
X88781371Y-98212681D01*
X88747886Y-98151358D01*
X88752870Y-98081666D01*
X88781371Y-98037319D01*
X88820340Y-97998350D01*
X88910908Y-97851516D01*
X88965174Y-97687753D01*
X88975500Y-97586677D01*
X88975499Y-97486434D01*
X88977882Y-97462242D01*
X89000500Y-97348542D01*
X89000500Y-96584500D01*
X89020185Y-96517461D01*
X89072989Y-96471706D01*
X89124500Y-96460500D01*
X91124238Y-96460500D01*
X91191277Y-96480185D01*
X91197119Y-96484179D01*
X91318390Y-96572287D01*
X91500781Y-96665220D01*
X91596082Y-96696185D01*
X91653758Y-96735623D01*
X91680956Y-96799981D01*
X91669041Y-96868828D01*
X91621797Y-96920303D01*
X91596083Y-96932047D01*
X91562201Y-96943056D01*
X91402244Y-97024559D01*
X91257019Y-97130069D01*
X91130069Y-97257019D01*
X91024559Y-97402244D01*
X90943055Y-97562202D01*
X90887583Y-97732930D01*
X90859500Y-97910241D01*
X90859500Y-98089758D01*
X90887583Y-98267069D01*
X90943055Y-98437797D01*
X91024559Y-98597755D01*
X91130069Y-98742980D01*
X91257019Y-98869930D01*
X91392916Y-98968663D01*
X91402248Y-98975443D01*
X91562200Y-99056943D01*
X91562202Y-99056944D01*
X91647566Y-99084680D01*
X91732932Y-99112417D01*
X91910241Y-99140500D01*
X91910242Y-99140500D01*
X92089758Y-99140500D01*
X92089759Y-99140500D01*
X92267068Y-99112417D01*
X92437800Y-99056943D01*
X92597752Y-98975443D01*
X92699587Y-98901456D01*
X92742980Y-98869930D01*
X92742982Y-98869927D01*
X92742986Y-98869925D01*
X92869925Y-98742986D01*
X92869927Y-98742982D01*
X92869930Y-98742980D01*
X92927810Y-98663313D01*
X92975443Y-98597752D01*
X93056943Y-98437800D01*
X93112417Y-98267068D01*
X93140500Y-98089759D01*
X93140500Y-97910241D01*
X93112417Y-97732932D01*
X93078760Y-97629346D01*
X93056944Y-97562202D01*
X93024399Y-97498330D01*
X92975443Y-97402248D01*
X92944359Y-97359464D01*
X92869930Y-97257019D01*
X92742980Y-97130069D01*
X92597755Y-97024559D01*
X92597754Y-97024558D01*
X92597752Y-97024557D01*
X92510304Y-96980000D01*
X92437797Y-96943055D01*
X92403917Y-96932047D01*
X92346241Y-96892609D01*
X92319043Y-96828251D01*
X92330958Y-96759404D01*
X92378202Y-96707929D01*
X92403913Y-96696186D01*
X92499219Y-96665220D01*
X92681610Y-96572287D01*
X92777901Y-96502328D01*
X92847213Y-96451971D01*
X92847215Y-96451968D01*
X92847219Y-96451966D01*
X92991966Y-96307219D01*
X92991968Y-96307215D01*
X92991971Y-96307213D01*
X93076766Y-96190501D01*
X93112287Y-96141610D01*
X93205220Y-95959219D01*
X93268477Y-95764534D01*
X93300500Y-95562352D01*
X93300500Y-95357648D01*
X93268477Y-95155466D01*
X93205220Y-94960781D01*
X93205218Y-94960778D01*
X93205218Y-94960776D01*
X93163565Y-94879029D01*
X93112287Y-94778390D01*
X93060108Y-94706571D01*
X92991971Y-94612786D01*
X92847213Y-94468028D01*
X92681611Y-94347713D01*
X92588369Y-94300203D01*
X92537574Y-94252229D01*
X92520779Y-94184407D01*
X92543317Y-94118273D01*
X92588371Y-94079234D01*
X92681347Y-94031861D01*
X92846894Y-93911582D01*
X92846895Y-93911582D01*
X92991582Y-93766895D01*
X92991582Y-93766894D01*
X93111859Y-93601349D01*
X93204755Y-93419029D01*
X93267990Y-93224413D01*
X93276609Y-93170000D01*
X92433012Y-93170000D01*
X92465925Y-93112993D01*
X92500000Y-92985826D01*
X92500000Y-92854174D01*
X92465925Y-92727007D01*
X92433012Y-92670000D01*
X93276609Y-92670000D01*
X93267990Y-92615586D01*
X93204755Y-92420970D01*
X93111859Y-92238650D01*
X92991582Y-92073105D01*
X92991582Y-92073104D01*
X92846895Y-91928417D01*
X92681349Y-91808140D01*
X92588370Y-91760765D01*
X92537574Y-91712790D01*
X92520779Y-91644969D01*
X92543316Y-91578835D01*
X92588370Y-91539795D01*
X92588920Y-91539515D01*
X92681610Y-91492287D01*
X92702770Y-91476913D01*
X92847213Y-91371971D01*
X92847215Y-91371968D01*
X92847219Y-91371966D01*
X92991966Y-91227219D01*
X92991968Y-91227215D01*
X92991971Y-91227213D01*
X93095311Y-91084975D01*
X93112287Y-91061610D01*
X93205220Y-90879219D01*
X93268477Y-90684534D01*
X93300500Y-90482352D01*
X93300500Y-90277648D01*
X93293404Y-90232849D01*
X93268477Y-90075465D01*
X93205218Y-89880776D01*
X93162888Y-89797700D01*
X93112287Y-89698390D01*
X93090281Y-89668101D01*
X92991971Y-89532786D01*
X92847213Y-89388028D01*
X92681614Y-89267715D01*
X92675006Y-89264348D01*
X92588917Y-89220483D01*
X92538123Y-89172511D01*
X92521328Y-89104690D01*
X92543865Y-89038555D01*
X92588917Y-88999516D01*
X92681610Y-88952287D01*
X92706480Y-88934218D01*
X92847213Y-88831971D01*
X92847215Y-88831968D01*
X92847219Y-88831966D01*
X92991966Y-88687219D01*
X92991968Y-88687215D01*
X92991971Y-88687213D01*
X93060376Y-88593060D01*
X93112287Y-88521610D01*
X93205220Y-88339219D01*
X93268477Y-88144534D01*
X93300500Y-87942352D01*
X93300500Y-87737648D01*
X93286144Y-87647007D01*
X93268477Y-87535465D01*
X93216038Y-87374075D01*
X93205220Y-87340781D01*
X93205218Y-87340778D01*
X93205218Y-87340776D01*
X93169666Y-87271002D01*
X93112287Y-87158390D01*
X93097992Y-87138714D01*
X92991971Y-86992786D01*
X92847213Y-86848028D01*
X92681614Y-86727715D01*
X92675006Y-86724348D01*
X92588917Y-86680483D01*
X92538123Y-86632511D01*
X92521328Y-86564690D01*
X92543865Y-86498555D01*
X92588917Y-86459516D01*
X92681610Y-86412287D01*
X92702770Y-86396913D01*
X92847213Y-86291971D01*
X92847215Y-86291968D01*
X92847219Y-86291966D01*
X92991966Y-86147219D01*
X92991968Y-86147215D01*
X92991971Y-86147213D01*
X93047707Y-86070498D01*
X93112287Y-85981610D01*
X93205220Y-85799219D01*
X93268477Y-85604534D01*
X93300500Y-85402352D01*
X93300500Y-85197648D01*
X93284362Y-85095756D01*
X93268477Y-84995465D01*
X93205218Y-84800776D01*
X93144119Y-84680864D01*
X93112287Y-84618390D01*
X93043815Y-84524145D01*
X92991971Y-84452786D01*
X92847213Y-84308028D01*
X92681614Y-84187715D01*
X92675006Y-84184348D01*
X92588917Y-84140483D01*
X92538123Y-84092511D01*
X92521328Y-84024690D01*
X92543865Y-83958555D01*
X92588917Y-83919516D01*
X92681610Y-83872287D01*
X92780617Y-83800355D01*
X92847213Y-83751971D01*
X92847215Y-83751968D01*
X92847219Y-83751966D01*
X92991966Y-83607219D01*
X92991968Y-83607215D01*
X92991971Y-83607213D01*
X93044732Y-83534590D01*
X93112287Y-83441610D01*
X93205220Y-83259219D01*
X93268477Y-83064534D01*
X93300500Y-82862352D01*
X93300500Y-82657648D01*
X93268477Y-82455466D01*
X93205220Y-82260781D01*
X93205218Y-82260778D01*
X93205218Y-82260776D01*
X93150341Y-82153075D01*
X93112287Y-82078390D01*
X93071287Y-82021958D01*
X92991971Y-81912786D01*
X92847213Y-81768028D01*
X92681614Y-81647715D01*
X92657022Y-81635185D01*
X92588917Y-81600483D01*
X92538123Y-81552511D01*
X92521328Y-81484690D01*
X92543865Y-81418555D01*
X92588917Y-81379516D01*
X92681610Y-81332287D01*
X92789704Y-81253753D01*
X92847213Y-81211971D01*
X92847215Y-81211968D01*
X92847219Y-81211966D01*
X92991966Y-81067219D01*
X92991968Y-81067215D01*
X92991971Y-81067213D01*
X93048026Y-80990059D01*
X93112287Y-80901610D01*
X93205220Y-80719219D01*
X93268477Y-80524534D01*
X93300500Y-80322352D01*
X93300500Y-80117648D01*
X93268477Y-79915466D01*
X93205220Y-79720781D01*
X93205218Y-79720778D01*
X93205218Y-79720776D01*
X93154914Y-79622050D01*
X93112287Y-79538390D01*
X93083164Y-79498305D01*
X92991971Y-79372786D01*
X92847213Y-79228028D01*
X92681614Y-79107715D01*
X92675006Y-79104348D01*
X92588917Y-79060483D01*
X92538123Y-79012511D01*
X92521328Y-78944690D01*
X92543865Y-78878555D01*
X92588917Y-78839516D01*
X92681610Y-78792287D01*
X92736495Y-78752411D01*
X92847213Y-78671971D01*
X92847215Y-78671968D01*
X92847219Y-78671966D01*
X92991966Y-78527219D01*
X92991968Y-78527215D01*
X92991971Y-78527213D01*
X93044732Y-78454590D01*
X93112287Y-78361610D01*
X93205220Y-78179219D01*
X93268477Y-77984534D01*
X93300500Y-77782352D01*
X93300500Y-77577648D01*
X93268477Y-77375466D01*
X93205220Y-77180781D01*
X93205218Y-77180778D01*
X93205218Y-77180776D01*
X93157250Y-77086635D01*
X93112287Y-76998390D01*
X93067787Y-76937140D01*
X92991971Y-76832786D01*
X92847213Y-76688028D01*
X92681614Y-76567715D01*
X92675006Y-76564348D01*
X92588917Y-76520483D01*
X92538123Y-76472511D01*
X92521328Y-76404690D01*
X92543865Y-76338555D01*
X92588917Y-76299516D01*
X92681610Y-76252287D01*
X92727291Y-76219098D01*
X92847213Y-76131971D01*
X92847215Y-76131968D01*
X92847219Y-76131966D01*
X92991966Y-75987219D01*
X92991968Y-75987215D01*
X92991971Y-75987213D01*
X93096196Y-75843757D01*
X93112287Y-75821610D01*
X93205220Y-75639219D01*
X93268477Y-75444534D01*
X93300500Y-75242352D01*
X93300500Y-75037648D01*
X93268477Y-74835466D01*
X93205220Y-74640781D01*
X93205218Y-74640778D01*
X93205218Y-74640776D01*
X93136819Y-74506537D01*
X93112287Y-74458390D01*
X93104556Y-74447749D01*
X92991971Y-74292786D01*
X92847213Y-74148028D01*
X92681614Y-74027715D01*
X92675006Y-74024348D01*
X92588917Y-73980483D01*
X92538123Y-73932511D01*
X92521328Y-73864690D01*
X92543865Y-73798555D01*
X92588917Y-73759516D01*
X92681610Y-73712287D01*
X92702770Y-73696913D01*
X92847213Y-73591971D01*
X92847215Y-73591968D01*
X92847219Y-73591966D01*
X92991966Y-73447219D01*
X92991968Y-73447215D01*
X92991971Y-73447213D01*
X93044732Y-73374590D01*
X93112287Y-73281610D01*
X93205220Y-73099219D01*
X93268477Y-72904534D01*
X93300500Y-72702352D01*
X93300500Y-72497648D01*
X93268477Y-72295466D01*
X93205220Y-72100781D01*
X93205218Y-72100778D01*
X93205218Y-72100776D01*
X93171503Y-72034607D01*
X93112287Y-71918390D01*
X93104556Y-71907749D01*
X92991971Y-71752786D01*
X92847213Y-71608028D01*
X92681614Y-71487715D01*
X92675006Y-71484348D01*
X92588917Y-71440483D01*
X92538123Y-71392511D01*
X92521328Y-71324690D01*
X92543865Y-71258555D01*
X92588917Y-71219516D01*
X92681610Y-71172287D01*
X92702770Y-71156913D01*
X92847213Y-71051971D01*
X92847215Y-71051968D01*
X92847219Y-71051966D01*
X92991966Y-70907219D01*
X92991968Y-70907215D01*
X92991971Y-70907213D01*
X93044732Y-70834590D01*
X93112287Y-70741610D01*
X93205220Y-70559219D01*
X93268477Y-70364534D01*
X93300500Y-70162352D01*
X93300500Y-69957648D01*
X93268477Y-69755466D01*
X93205220Y-69560781D01*
X93205218Y-69560778D01*
X93205218Y-69560776D01*
X93168470Y-69488656D01*
X93112287Y-69378390D01*
X93083913Y-69339336D01*
X92991971Y-69212786D01*
X92847213Y-69068028D01*
X92681614Y-68947715D01*
X92675006Y-68944348D01*
X92588917Y-68900483D01*
X92538123Y-68852511D01*
X92521328Y-68784690D01*
X92543865Y-68718555D01*
X92588917Y-68679516D01*
X92681610Y-68632287D01*
X92785484Y-68556819D01*
X92847213Y-68511971D01*
X92847215Y-68511968D01*
X92847219Y-68511966D01*
X92991966Y-68367219D01*
X92991968Y-68367215D01*
X92991971Y-68367213D01*
X93045654Y-68293323D01*
X93112287Y-68201610D01*
X93205220Y-68019219D01*
X93268477Y-67824534D01*
X93291925Y-67676483D01*
X93321854Y-67613350D01*
X93326699Y-67608219D01*
X104179102Y-56755819D01*
X104240425Y-56722334D01*
X104266783Y-56719500D01*
X106083988Y-56719500D01*
X106151027Y-56739185D01*
G37*
%TD.AperFunction*%
%TA.AperFunction,Conductor*%
G36*
X123301364Y-54741585D02*
G01*
X123347119Y-54794389D01*
X123358325Y-54845900D01*
X123358325Y-55457832D01*
X123364732Y-55517439D01*
X123415026Y-55652284D01*
X123415030Y-55652291D01*
X123501276Y-55767500D01*
X123501279Y-55767503D01*
X123616489Y-55853750D01*
X123616491Y-55853750D01*
X123616493Y-55853752D01*
X123627654Y-55857914D01*
X123683588Y-55899782D01*
X123708008Y-55965245D01*
X123708324Y-55974097D01*
X123708324Y-57198500D01*
X123746771Y-57391789D01*
X123746773Y-57391793D01*
X123757817Y-57418456D01*
X123768862Y-57445121D01*
X123774631Y-57459048D01*
X123822190Y-57573867D01*
X123822195Y-57573876D01*
X123931684Y-57737737D01*
X123931687Y-57737741D01*
X124075361Y-57881415D01*
X124075383Y-57881435D01*
X125198559Y-59004611D01*
X125198588Y-59004642D01*
X125341038Y-59147092D01*
X125341042Y-59147095D01*
X125504903Y-59256584D01*
X125504916Y-59256591D01*
X125633657Y-59309917D01*
X125686983Y-59332005D01*
X125686988Y-59332007D01*
X125754596Y-59345455D01*
X125769442Y-59348408D01*
X125880280Y-59370456D01*
X125880283Y-59370456D01*
X125880284Y-59370456D01*
X126077364Y-59370456D01*
X126124324Y-59370456D01*
X126191363Y-59390141D01*
X126237118Y-59442945D01*
X126248324Y-59494456D01*
X126248324Y-66463568D01*
X126286771Y-66656857D01*
X126286773Y-66656861D01*
X126308862Y-66710188D01*
X126362190Y-66838935D01*
X126362195Y-66838944D01*
X126471684Y-67002805D01*
X126471687Y-67002809D01*
X126615361Y-67146483D01*
X126615383Y-67146503D01*
X128835935Y-69367055D01*
X128835964Y-69367086D01*
X128978414Y-69509536D01*
X128978418Y-69509539D01*
X129142279Y-69619028D01*
X129142292Y-69619035D01*
X129271033Y-69672361D01*
X129313944Y-69690135D01*
X129324364Y-69694451D01*
X129421012Y-69713675D01*
X129469335Y-69723287D01*
X129517658Y-69732900D01*
X129517659Y-69732900D01*
X129517660Y-69732900D01*
X129714740Y-69732900D01*
X138116618Y-69732900D01*
X138183657Y-69752585D01*
X138204299Y-69769219D01*
X145372215Y-76937137D01*
X145372219Y-76937140D01*
X145536079Y-77046628D01*
X145536085Y-77046631D01*
X145536086Y-77046632D01*
X145718165Y-77122052D01*
X145879389Y-77154121D01*
X145911457Y-77160499D01*
X145911458Y-77160500D01*
X145911459Y-77160500D01*
X145911460Y-77160500D01*
X146108541Y-77160500D01*
X153781489Y-77160500D01*
X153848528Y-77180185D01*
X153894283Y-77232989D01*
X153904227Y-77302147D01*
X153875202Y-77365703D01*
X153846587Y-77390037D01*
X153765745Y-77439901D01*
X153721342Y-77467289D01*
X153597287Y-77591344D01*
X153591580Y-77600598D01*
X153539632Y-77647322D01*
X153486042Y-77659500D01*
X142625783Y-77659500D01*
X142558744Y-77639815D01*
X142538102Y-77623181D01*
X140484209Y-75569289D01*
X140484206Y-75569285D01*
X140484206Y-75569286D01*
X140477139Y-75562219D01*
X140477139Y-75562218D01*
X140337782Y-75422861D01*
X140337781Y-75422860D01*
X140337780Y-75422859D01*
X140173920Y-75313371D01*
X140173911Y-75313366D01*
X140093859Y-75280208D01*
X140045165Y-75260038D01*
X139991836Y-75237949D01*
X139991832Y-75237948D01*
X139991828Y-75237946D01*
X139895188Y-75218724D01*
X139798544Y-75199500D01*
X139798541Y-75199500D01*
X128866506Y-75199500D01*
X128799467Y-75179815D01*
X128778825Y-75163181D01*
X108701452Y-55085808D01*
X108696865Y-55081221D01*
X108696863Y-55081218D01*
X108557506Y-54941861D01*
X108555002Y-54940188D01*
X108548608Y-54933830D01*
X108534513Y-54908191D01*
X108518041Y-54884009D01*
X108517878Y-54877930D01*
X108514949Y-54872602D01*
X108516953Y-54843413D01*
X108516170Y-54814164D01*
X108519319Y-54808962D01*
X108519736Y-54802897D01*
X108537202Y-54779425D01*
X108552357Y-54754395D01*
X108557817Y-54751722D01*
X108561448Y-54746844D01*
X108588832Y-54736541D01*
X108615112Y-54723679D01*
X108625332Y-54722810D01*
X108626843Y-54722242D01*
X108628311Y-54722556D01*
X108636040Y-54721900D01*
X123234325Y-54721900D01*
X123301364Y-54741585D01*
G37*
%TD.AperFunction*%
%TD*%
M02*
