%TF.GenerationSoftware,KiCad,Pcbnew,9.99.0-1132-g883a1f8d97*%
%TF.CreationDate,2025-07-04T12:47:25+02:00*%
%TF.ProjectId,BondheadSteering,426f6e64-6865-4616-9453-74656572696e,1*%
%TF.SameCoordinates,Original*%
%TF.FileFunction,OtherDrawing,Comment*%
%FSLAX46Y46*%
G04 Gerber Fmt 4.6, Leading zero omitted, Abs format (unit mm)*
G04 Created by KiCad (PCBNEW 9.99.0-1132-g883a1f8d97) date 2025-07-04 12:47:25*
%MOMM*%
%LPD*%
G01*
G04 APERTURE LIST*
%ADD10C,0.150000*%
%ADD11C,0.100000*%
G04 APERTURE END LIST*
D10*
X121690476Y-139826219D02*
X122357142Y-139826219D01*
X122357142Y-139826219D02*
X121928571Y-140826219D01*
X123214285Y-139826219D02*
X122738095Y-139826219D01*
X122738095Y-139826219D02*
X122690476Y-140302409D01*
X122690476Y-140302409D02*
X122738095Y-140254790D01*
X122738095Y-140254790D02*
X122833333Y-140207171D01*
X122833333Y-140207171D02*
X123071428Y-140207171D01*
X123071428Y-140207171D02*
X123166666Y-140254790D01*
X123166666Y-140254790D02*
X123214285Y-140302409D01*
X123214285Y-140302409D02*
X123261904Y-140397647D01*
X123261904Y-140397647D02*
X123261904Y-140635742D01*
X123261904Y-140635742D02*
X123214285Y-140730980D01*
X123214285Y-140730980D02*
X123166666Y-140778600D01*
X123166666Y-140778600D02*
X123071428Y-140826219D01*
X123071428Y-140826219D02*
X122833333Y-140826219D01*
X122833333Y-140826219D02*
X122738095Y-140778600D01*
X122738095Y-140778600D02*
X122690476Y-140730980D01*
D11*
X160000000Y-127021400D02*
X160000000Y-142107820D01*
X85000000Y-142107820D02*
X85000000Y-127021400D01*
X160000000Y-141521400D02*
X85000000Y-141521400D01*
X160000000Y-141521400D02*
X158873496Y-142107821D01*
X160000000Y-141521400D02*
X158873496Y-140934979D01*
X85000000Y-141521400D02*
X86126504Y-140934979D01*
X85000000Y-141521400D02*
X86126504Y-142107821D01*
D10*
X63733390Y-87092828D02*
X63685771Y-87188066D01*
X63685771Y-87188066D02*
X63638152Y-87235685D01*
X63638152Y-87235685D02*
X63542914Y-87283304D01*
X63542914Y-87283304D02*
X63495295Y-87283304D01*
X63495295Y-87283304D02*
X63400057Y-87235685D01*
X63400057Y-87235685D02*
X63352438Y-87188066D01*
X63352438Y-87188066D02*
X63304819Y-87092828D01*
X63304819Y-87092828D02*
X63304819Y-86902352D01*
X63304819Y-86902352D02*
X63352438Y-86807114D01*
X63352438Y-86807114D02*
X63400057Y-86759495D01*
X63400057Y-86759495D02*
X63495295Y-86711876D01*
X63495295Y-86711876D02*
X63542914Y-86711876D01*
X63542914Y-86711876D02*
X63638152Y-86759495D01*
X63638152Y-86759495D02*
X63685771Y-86807114D01*
X63685771Y-86807114D02*
X63733390Y-86902352D01*
X63733390Y-86902352D02*
X63733390Y-87092828D01*
X63733390Y-87092828D02*
X63781009Y-87188066D01*
X63781009Y-87188066D02*
X63828628Y-87235685D01*
X63828628Y-87235685D02*
X63923866Y-87283304D01*
X63923866Y-87283304D02*
X64114342Y-87283304D01*
X64114342Y-87283304D02*
X64209580Y-87235685D01*
X64209580Y-87235685D02*
X64257200Y-87188066D01*
X64257200Y-87188066D02*
X64304819Y-87092828D01*
X64304819Y-87092828D02*
X64304819Y-86902352D01*
X64304819Y-86902352D02*
X64257200Y-86807114D01*
X64257200Y-86807114D02*
X64209580Y-86759495D01*
X64209580Y-86759495D02*
X64114342Y-86711876D01*
X64114342Y-86711876D02*
X63923866Y-86711876D01*
X63923866Y-86711876D02*
X63828628Y-86759495D01*
X63828628Y-86759495D02*
X63781009Y-86807114D01*
X63781009Y-86807114D02*
X63733390Y-86902352D01*
X63304819Y-86092828D02*
X63304819Y-85997590D01*
X63304819Y-85997590D02*
X63352438Y-85902352D01*
X63352438Y-85902352D02*
X63400057Y-85854733D01*
X63400057Y-85854733D02*
X63495295Y-85807114D01*
X63495295Y-85807114D02*
X63685771Y-85759495D01*
X63685771Y-85759495D02*
X63923866Y-85759495D01*
X63923866Y-85759495D02*
X64114342Y-85807114D01*
X64114342Y-85807114D02*
X64209580Y-85854733D01*
X64209580Y-85854733D02*
X64257200Y-85902352D01*
X64257200Y-85902352D02*
X64304819Y-85997590D01*
X64304819Y-85997590D02*
X64304819Y-86092828D01*
X64304819Y-86092828D02*
X64257200Y-86188066D01*
X64257200Y-86188066D02*
X64209580Y-86235685D01*
X64209580Y-86235685D02*
X64114342Y-86283304D01*
X64114342Y-86283304D02*
X63923866Y-86330923D01*
X63923866Y-86330923D02*
X63685771Y-86330923D01*
X63685771Y-86330923D02*
X63495295Y-86283304D01*
X63495295Y-86283304D02*
X63400057Y-86235685D01*
X63400057Y-86235685D02*
X63352438Y-86188066D01*
X63352438Y-86188066D02*
X63304819Y-86092828D01*
D11*
X84500000Y-126521400D02*
X64413580Y-126521400D01*
X64413580Y-46521400D02*
X84500000Y-46521400D01*
X65000000Y-126521400D02*
X65000000Y-46521400D01*
X65000000Y-126521400D02*
X64413579Y-125394896D01*
X65000000Y-126521400D02*
X65586421Y-125394896D01*
X65000000Y-46521400D02*
X65586421Y-47647904D01*
X65000000Y-46521400D02*
X64413579Y-47647904D01*
M02*
